<?xml version="1.0" encoding="utf-8"?>
<!-- Generator: Adobe Illustrator 26.0.1, SVG Export Plug-In . SVG Version: 6.00 Build 0)  -->
<svg version="1.1" id="Capa_1" xmlns="http://www.w3.org/2000/svg" xmlns:xlink="http://www.w3.org/1999/xlink" x="0px" y="0px"
	 viewBox="0 0 136.07 154" style="enable-background:new 0 0 136.07 154;" xml:space="preserve">
<style type="text/css">
	.st0{clip-path:url(#SVGID_00000130638952237993216330000003293435408801194887_);}
	.st1{fill:#646464;}
	.st2{clip-path:url(#SVGID_00000171711442268789732920000000184683075438425502_);}
	.st3{fill:#707070;stroke:#707070;}
	.st4{clip-path:url(#SVGID_00000119082393060712007590000001843493144193774010_);}
	.st5{fill:#707070;}
	.st6{fill:#3DB9C6;}
	.st7{clip-path:url(#SVGID_00000163064113647438241870000014764100845272403088_);}
	.st8{fill:#ED799E;}
	.st9{clip-path:url(#SVGID_00000024698885930900545550000016510917736991616908_);}
	.st10{clip-path:url(#SVGID_00000004535729296392344220000016601897326059501227_);}
	.st11{fill:none;stroke:#000000;stroke-width:3;stroke-linecap:round;stroke-linejoin:round;stroke-miterlimit:10;}
	.st12{fill:#FF6F6F;}
	.st13{clip-path:url(#SVGID_00000163794198209286569400000018393213006536790460_);}
	.st14{fill:#FFFFFF;}
	.st15{clip-path:url(#SVGID_00000085249332534582353010000003941251329601397660_);}
</style>
<g id="Grupo_39_00000082333108368824202150000004663204168812775827_">
	<g>
		<defs>
			<rect id="SVGID_1_" x="3" y="4.2" width="131.14" height="147.6"/>
		</defs>
		<clipPath id="SVGID_00000128478010068963363860000006029736617522350238_">
			<use xlink:href="#SVGID_1_"  style="overflow:visible;"/>
		</clipPath>
		
			<g id="Grupo_38_00000099630187612359469170000017431920614314699153_" style="clip-path:url(#SVGID_00000128478010068963363860000006029736617522350238_);">
			<path id="Trazado_73_00000158019975052565334050000013753737709654620333_" class="st1" d="M3,70.14
				C2.71,55.19,7.39,40.57,16.32,28.58C25.5,16.23,39.15,7.98,54.34,5.59c15.11-3.12,30.82-1.28,44.8,5.24
				c16.91,8.03,29.07,23.53,32.85,41.86c4.28,16.89,2.15,34.77-5.97,50.19c-0.31,0.86-0.29,1.81,0.04,2.66
				c4.82,13.68,3.24,26.25-6.79,37.11c-5.31,5.44-12.5,8.65-20.1,8.96c-9.75,1.34-19.57-1.95-26.55-8.88
				c-1.74-1.8-3.28-3.77-4.6-5.89c-0.55-1.04-1.64-1.67-2.81-1.63c-9.41-0.23-18.66-2.43-27.17-6.45
				c-14.92-7.17-26.21-20.18-31.23-35.95C4.36,85.5,3.08,77.85,3,70.14 M63.12,15.47c-12.85,0.69-24.96,6.23-33.88,15.52
				c-9.76,10.55-15.07,24.46-14.82,38.83c3.43,0,6.66,0,9.89,0c3.02-0.3,5.7,1.9,6,4.92c0.3,3.02-1.9,5.7-4.92,6
				c-0.36,0.04-0.73,0.04-1.09,0c-2.88,0-5.78,0-8.88,0c1.91,13.16,8.93,25.03,19.53,33.05c8.14,6.34,18.07,9.97,28.39,10.38
				c-1.03-13.8,2.31-25.78,14.49-33c13.5-8.01,27.13-6.71,40.26,2.62l4.17-13.05c-3.68,0-6.86,0.04-10.04,0
				c-3.01,0.08-5.51-2.3-5.59-5.31c-0.08-3.01,2.3-5.51,5.31-5.59c0.09,0,0.19,0,0.28,0c3.62-0.05,7.24,0,11.02,0
				c-0.23-15.95-4.92-29.85-16.6-40.84c-8.96-8.18-20.5-12.96-32.62-13.5c0,3.66,0.07,7.07-0.04,10.47
				c-0.03,1.13-0.32,2.24-0.85,3.24c-1.24,2.08-3.75,3.05-6.07,2.35c-2.32-0.66-3.93-2.77-3.96-5.18
				C63.07,22.81,63.12,19.24,63.12,15.47 M92.55,107.31c0.36,5.25,0.62,10.01,1.05,14.76c0.13,1.38,0.17,3.33,2.2,3.27
				c1.96-0.05,1.99-1.9,2.16-3.34c0.45-4.17,0.9-8.35,1.17-12.54c0.09-1.52-0.11-3.05-0.58-4.5c-0.4-0.82-1.16-1.42-2.05-1.62
				c-2.46-0.44-3.96,1.37-3.94,3.98 M95.97,135.47c1.74-0.04,3.11-1.48,3.07-3.21c-0.04-1.74-1.48-3.11-3.21-3.07
				c-1.74,0.04-3.11,1.48-3.07,3.21c0,0.02,0,0.03,0,0.05c0.02,1.69,1.41,3.05,3.1,3.03C95.9,135.47,95.94,135.47,95.97,135.47"/>
			<path id="Trazado_74_00000148658005550024429890000000774748579608823712_" class="st1" d="M63.1,69.82v-2.06
				c0-8.19,0-16.38,0-24.57c-0.36-3.01,1.79-5.75,4.8-6.11c3.01-0.36,5.75,1.79,6.11,4.8c0.05,0.41,0.05,0.81,0.01,1.22
				c0,10.52,0,21.04,0,31.57c0.33,3.02-1.86,5.73-4.88,6.06c-0.38,0.04-0.75,0.04-1.13,0.01c-6.94,0.01-13.88,0.01-20.82,0
				c-3.01,0.25-5.66-1.99-5.91-5c-0.25-3.01,1.99-5.66,5-5.91c0.3-0.02,0.59-0.02,0.89,0C52.41,69.82,57.62,69.82,63.1,69.82"/>
		</g>
	</g>
</g>
</svg>
