<?xml version="1.0" encoding="utf-8"?>
<!-- Generator: Adobe Illustrator 18.0.0, SVG Export Plug-In . SVG Version: 6.00 Build 0)  -->
<!DOCTYPE svg PUBLIC "-//W3C//DTD SVG 1.1//EN" "http://www.w3.org/Graphics/SVG/1.1/DTD/svg11.dtd">
<svg version="1.1" id="Layer_1" xmlns="http://www.w3.org/2000/svg" xmlns:xlink="http://www.w3.org/1999/xlink" x="0px" y="0px"
	 viewBox="0 0 30 24" enable-background="new 0 0 30 24" xml:space="preserve">
<path fill="#415B70" d="M29.8,22.8c0,0.4-0.3,0.8-0.8,0.8H1c-0.4,0-0.8-0.4-0.8-0.8V3.9c0-0.4,0.3-0.8,0.8-0.8h13.9
	c0.4,0,1-0.3,1.2-0.7l0.8-1.4c0.2-0.4,0.8-0.7,1.2-0.7h11c0.4,0,0.8,0.4,0.8,0.8V22.8z M1.8,21.3c0,0.4,0.4,0.8,0.8,0.8h24.9
	c0.4,0,0.8-0.4,0.8-0.8V2.7c0-0.4-0.4-0.8-0.8-0.8h-8.5c-0.4,0-1,0.3-1.2,0.7L16.9,4c-0.2,0.4-0.8,0.7-1.2,0.7H2.5
	C2.1,4.6,1.8,5,1.8,5.4V21.3z"/>
</svg>
