<?xml version="1.0" encoding="utf-8"?>
<!-- Generator: Adobe Illustrator 18.0.0, SVG Export Plug-In . SVG Version: 6.00 Build 0)  -->
<!DOCTYPE svg PUBLIC "-//W3C//DTD SVG 1.1//EN" "http://www.w3.org/Graphics/SVG/1.1/DTD/svg11.dtd">
<svg version="1.1" id="Layer_1" xmlns="http://www.w3.org/2000/svg" xmlns:xlink="http://www.w3.org/1999/xlink" x="0px" y="0px"
	 viewBox="0 0 24 24" enable-background="new 0 0 24 24" xml:space="preserve">
<g>
	<path fill="#F9F9F9" d="M21.1,13.4c0.2-1.2,0.1-2.5-0.2-3.7l2.8-1.3l-1.5-3.2l-2.8,1.3c-0.7-1-1.6-1.8-2.7-2.4l1-2.9L14.4,0l-1,2.9
		c-1.2-0.2-2.5-0.1-3.7,0.2L8.4,0.3L5.2,1.8l1.3,2.8c-1,0.7-1.8,1.6-2.4,2.7l-2.9-1L0,9.6l2.9,1c-0.2,1.2-0.1,2.5,0.2,3.7l-2.8,1.3
		l1.5,3.2l2.8-1.3c0.7,1,1.6,1.8,2.7,2.4l-1,2.9L9.6,24l1-2.9c1.2,0.2,2.5,0.1,3.7-0.2l1.3,2.8l3.2-1.5l-1.3-2.8
		c1-0.7,1.8-1.6,2.4-2.7l2.9,1l1.2-3.3L21.1,13.4z M12,17.4c-2.9,0-5.2-2.3-5.2-5.2c0-2.9,2.3-5.2,5.2-5.2c2.8,0,5.2,2.3,5.2,5.2
		C17.2,15.1,14.9,17.4,12,17.4z"/>
	<path fill="#F9F9F9" d="M9.5,23.7l-2.9-1L7.1,21l-0.1,1.4l2.2,0.8l1-2.8l0.5,0.1c1.1,0.2,2.3,0.1,3.4-0.2l0.5-0.1l1.3,2.7l2.1-1
		l-0.5-2l1,2.2l-2.8,1.3l-1.3-2.7l-0.2,0c-1.2,0.3-2.4,0.4-3.6,0.2l-0.2,0L9.5,23.7L9.5,23.7z"/>
	<path fill="#F9F9F9" d="M12,18c-5-0.1-5.2-4.7-5.2-4.7c0.5,2.5,2.7,4.3,5.2,4.3c1.7,0,3.4-0.9,4.4-2.3C16.4,15.3,15.1,18,12,18
		L12,18z"/>
	<path fill="#F9F9F9" d="M4.4,8L1.5,6.6l2.7,1l0.1-0.1c0.6-1,1.4-1.9,2.4-2.7l0.1-0.1L5.5,1.9l2.8-1.3l1.3,2.7l0.2,0
		c1.2-0.3,2.4-0.4,3.6-0.2l0.2,0l1-2.7l-0.7,3.1l-0.5-0.1C12.1,3.3,11,3.4,9.9,3.7L9.4,3.8L8.1,1.1L6,2.1l1.3,2.7L6.9,5.1
		C6,5.8,5.2,6.6,4.6,7.6L4.4,8L4.4,8z"/>
</g>
</svg>
