<?xml version="1.0" encoding="utf-8"?>
<!-- Generator: Adobe Illustrator 16.0.0, SVG Export Plug-In . SVG Version: 6.00 Build 0)  -->
<!DOCTYPE svg PUBLIC "-//W3C//DTD SVG 1.1//EN" "http://www.w3.org/Graphics/SVG/1.1/DTD/svg11.dtd">
<svg version="1.1" id="Layer_1" xmlns="http://www.w3.org/2000/svg" xmlns:xlink="http://www.w3.org/1999/xlink" x="0px" y="0px"
	 width="32px" height="39px" viewBox="0 0 32 39" style="enable-background:new 0 0 32 39;" xml:space="preserve">
<style type="text/css">
<![CDATA[
	.st0{fill:#93A0A9;}
]]>
</style>
<path class="st0" d="M26.4,29.1c-1.2,0-2.4,0.5-3.2,1.2l-13.7-9c0.2-0.5,0.3-1,0.3-1.5c0-0.6-0.1-1.1-0.3-1.6l13.6-8.9
	c0.9,0.8,2.1,1.3,3.3,1.3c2.8,0,5-2.3,5-5s-2.3-5-5-5s-5,2.3-5,5c0,0.6,0.1,1.1,0.3,1.6L8,16c-0.9-0.8-2-1.3-3.3-1.3
	c-2.8,0-5,2.3-5,5c0,2.8,2.3,5,5,5c1.3,0,2.5-0.5,3.4-1.3l13.6,8.9c-0.2,0.5-0.3,1.1-0.3,1.7c0,2.8,2.3,5,5,5s5-2.3,5-5
	C31.5,31.3,29.2,29.1,26.4,29.1z"/>
</svg>
