<?xml version="1.0" encoding="utf-8"?>
<!-- Generator: Adobe Illustrator 16.0.0, SVG Export Plug-In . SVG Version: 6.00 Build 0)  -->
<!DOCTYPE svg PUBLIC "-//W3C//DTD SVG 1.1//EN" "http://www.w3.org/Graphics/SVG/1.1/DTD/svg11.dtd">
<svg version="1.1" id="Layer_1" xmlns="http://www.w3.org/2000/svg" xmlns:xlink="http://www.w3.org/1999/xlink" x="0px" y="0px"
	 width="30px" height="61px" viewBox="0 0 30 61" style="enable-background:new 0 0 30 61;" xml:space="preserve">
<style type="text/css">
<![CDATA[
	.st0{fill:#4A5A6D;}
]]>
</style>
<g>
	<path class="st0" d="M8.3,6.6c0-3.5,2.9-6.4,6.4-6.4s6.4,2.9,6.4,6.4c0,3.5-2.9,6.4-6.4,6.4S8.3,10.1,8.3,6.6"/>
	<path class="st0" d="M29.3,33.4c-1.3-15-8.5-18-8.5-18s-6.9-4.2-14.2,1.1C1.8,20.8,0.7,27.4,0,33.7c-0.4,3.2,4.7,3.2,5,0
		c0.4-3.8,2.6-9.3,4.4-12.6L9,26.6L3.4,44.1h5.9V58c0,1.5,1.1,2.7,2.6,2.7c1.5,0,2.8-1.2,2.8-2.7V44.1h0.8v14c0,1.7,1,2.7,2.7,2.7
		c1.3,0,2.3-1.1,2.3-2.7v-14h5.1l-4.5-17.6c0-1.7-1.1-4.2-1.1-5.3c2,3.3,3.7,8.3,4.2,12.2C24.6,36.6,29.6,36.6,29.3,33.4"/>
</g>
</svg>
