<?xml version="1.0" encoding="utf-8"?>
<!-- Generator: Adobe Illustrator 19.0.0, SVG Export Plug-In . SVG Version: 6.00 Build 0)  -->
<svg version="1.1" id="Layer_1" xmlns="http://www.w3.org/2000/svg" xmlns:xlink="http://www.w3.org/1999/xlink" x="0px" y="0px"
	 viewBox="0 0 20 50" style="enable-background:new 0 0 20 50;" xml:space="preserve">
<style type="text/css">
	.st0{fill:#415B70;}
</style>
<g>
	<g id="XMLID_24_">
		<path id="XMLID_26_" class="st0" d="M17.2,13.1h-2.7h-9H2.8c-1.2,0-2.1,1-2.1,2.1v15.2c0,1.2,1,2.1,2.1,2.1c1.2,0,2.1-1,2.1-2.1
			V17.1h0.5v13.2v0.3v14.9c0,1.2,1,2.1,2.1,2.1c1.2,0,2.1-1,2.1-2.1V30.6h0.5v14.9c0,1.2,1,2.1,2.1,2.1c1.2,0,2.1-1,2.1-2.1V30.6
			v-0.3V17.1h0.5v13.3c0,1.2,0.9,2.1,2.1,2.1c1.2,0,2.1-1,2.1-2.1V15.2C19.3,14,18.4,13.1,17.2,13.1"/>
		<path id="XMLID_25_" class="st0" d="M5.1,7.3c0-2.7,2.2-4.9,4.9-4.9c2.7,0,4.9,2.2,4.9,4.9c0,2.7-2.2,4.9-4.9,4.9
			C7.3,12.1,5.1,9.9,5.1,7.3"/>
	</g>
</g>
</svg>
