<?xml version="1.0" encoding="utf-8"?>
<!-- Generator: Adobe Illustrator 26.0.1, SVG Export Plug-In . SVG Version: 6.00 Build 0)  -->
<svg version="1.1" id="Capa_1" xmlns="http://www.w3.org/2000/svg" xmlns:xlink="http://www.w3.org/1999/xlink" x="0px" y="0px"
	 viewBox="0 0 136.07 154" style="enable-background:new 0 0 136.07 154;" xml:space="preserve">
<style type="text/css">
	.st0{clip-path:url(#SVGID_00000014629856050749625450000011092120482908555927_);}
	.st1{fill:#646464;}
	.st2{clip-path:url(#SVGID_00000052073957935654808990000012797250388735372675_);}
	.st3{fill:#707070;stroke:#707070;}
	.st4{clip-path:url(#SVGID_00000034066631928486800320000008259299539123464867_);}
	.st5{fill:#707070;}
	.st6{fill:#3DB9C6;}
	.st7{clip-path:url(#SVGID_00000041280693503036549740000010357377360880446107_);}
	.st8{fill:#ED799E;}
	.st9{clip-path:url(#SVGID_00000059998605985852749280000007789360218120043164_);}
	.st10{clip-path:url(#SVGID_00000147195463464733176380000006521380245756707493_);}
	.st11{fill:none;stroke:#000000;stroke-width:3;stroke-linecap:round;stroke-linejoin:round;stroke-miterlimit:10;}
	.st12{fill:#FF6F6F;}
	.st13{clip-path:url(#SVGID_00000091725738807998535770000005764749085587349894_);}
	.st14{fill:#FFFFFF;}
	.st15{clip-path:url(#SVGID_00000042008759348884122600000009238615975160818318_);}
</style>
<g id="Grupo_43_00000044858509235054955650000015231497713314015144_" transform="translate(2 149)">
	<g>
		<defs>
			<rect id="SVGID_00000043446495034374751580000006494350554905923227_" x="-0.57" y="-138.9" width="133.21" height="133.28"/>
		</defs>
		<clipPath id="SVGID_00000054977243816556828770000017076012324167484060_">
			<use xlink:href="#SVGID_00000043446495034374751580000006494350554905923227_"  style="overflow:visible;"/>
		</clipPath>
		
			<g id="Grupo_42_00000165195994995792751990000010733732138951966644_" style="clip-path:url(#SVGID_00000054977243816556828770000017076012324167484060_);">
			<path id="Trazado_77_00000176020043950526735420000013553296187359075985_" class="st5" d="M132.64-76.18v7.84
				c-0.11,0.94-0.22,1.87-0.32,2.81c-1.39,14.04-7.26,27.26-16.73,37.72c-9.9,11.21-23.35,18.68-38.1,21.17
				c-2.5,0.44-5.05,0.7-7.57,1.03h-7.81c-2.23-0.28-4.47-0.48-6.69-0.85c-13.65-2.11-26.27-8.51-36.02-18.29
				C4.76-38.78-2.5-58.82-0.24-78.97c1.2-13.86,6.92-26.94,16.27-37.24C27.91-130,45.02-138.2,63.21-138.82
				c12.91-0.73,25.74,2.51,36.75,9.29c16.82,9.82,28.41,26.59,31.64,45.8c0.47,2.5,0.7,5.04,1.04,7.57 M65.98-126.78
				c-30.11,0.01-54.5,24.43-54.49,54.53c0.01,30.11,24.43,54.5,54.53,54.49c30.08-0.01,54.47-24.39,54.49-54.48
				C120.47-102.33,96.08-126.72,65.98-126.78"/>
			<path id="Trazado_78_00000169534892527868385290000007747732427101201030_" class="st5" d="M56.74-61.53
				c4.15-4.16,8.19-8.23,12.24-12.27c7.2-7.21,14.41-14.42,21.63-21.62c2.16-2.54,5.96-2.88,8.53-0.75c2.42,2,2.89,5.52,1.08,8.08
				c-0.42,0.56-0.88,1.08-1.38,1.57C86.49-74.16,74.13-61.79,61.77-49.43c-2.05,2.77-5.96,3.36-8.73,1.31
				c-0.5-0.37-0.94-0.81-1.31-1.31C45.4-55.75,39.08-62.07,32.77-68.4c-2.52-2.17-2.8-5.97-0.63-8.49c0.24-0.28,0.51-0.54,0.8-0.77
				c2.14-1.8,5.26-1.85,7.45-0.1c0.89,0.75,1.75,1.56,2.55,2.41C47.51-70.78,52.08-66.21,56.74-61.53"/>
		</g>
	</g>
</g>
</svg>
