<?xml version="1.0" encoding="utf-8"?>
<!-- Generator: Adobe Illustrator 26.0.1, SVG Export Plug-In . SVG Version: 6.00 Build 0)  -->
<svg version="1.1" id="Capa_1" xmlns="http://www.w3.org/2000/svg" xmlns:xlink="http://www.w3.org/1999/xlink" x="0px" y="0px"
	 viewBox="0 0 136.07 154" style="enable-background:new 0 0 136.07 154;" xml:space="preserve">
<style type="text/css">
	.st0{clip-path:url(#SVGID_00000138536913030937095110000012971827173981894018_);}
	.st1{fill:#646464;}
	.st2{clip-path:url(#SVGID_00000090293376635842604320000004239191221308260240_);}
	.st3{fill:#707070;stroke:#707070;}
	.st4{clip-path:url(#SVGID_00000075844727950509520070000011547621880337517995_);}
	.st5{fill:#707070;}
	.st6{fill:#3DB9C6;}
	.st7{clip-path:url(#SVGID_00000072990363540025745540000010852510123380875406_);}
	.st8{fill:#ED799E;}
	.st9{clip-path:url(#SVGID_00000046299275380499929620000008593158944741082280_);}
	.st10{clip-path:url(#SVGID_00000126281769160279098310000001954922326587996842_);}
	.st11{fill:none;stroke:#000000;stroke-width:3;stroke-linecap:round;stroke-linejoin:round;stroke-miterlimit:10;}
	.st12{fill:#FF6F6F;}
	.st13{clip-path:url(#SVGID_00000124840744674829195620000017969799132130861710_);}
	.st14{fill:#FFFFFF;}
	.st15{clip-path:url(#SVGID_00000177470878544524910040000006948393590121697435_);}
</style>
<g id="Grupo_41" transform="translate(0 380.572)">
	<g>
		<defs>
			<polygon id="SVGID_00000144335540224297967850000008453524542240449201_" points="-5.22,-379.07 148.12,-381.95 133.67,-237.67 
				-5.22,-228.6 			"/>
		</defs>
		<clipPath id="SVGID_00000026881153588683942550000011778488712997981862_">
			<use xlink:href="#SVGID_00000144335540224297967850000008453524542240449201_"  style="overflow:visible;"/>
		</clipPath>
		<g id="Grupo_40" style="clip-path:url(#SVGID_00000026881153588683942550000011778488712997981862_);">
			<path id="Trazado_75" class="st3" d="M2.3-303.41c0.01-36.28,29.43-65.68,65.71-65.66c36.28,0.01,65.68,29.43,65.66,65.71
				c-0.01,36.28-29.43,65.68-65.71,65.66c-0.04,0-0.09,0-0.13,0C31.6-237.77,2.28-267.18,2.3-303.41 M67.93-243.06
				c33.31,0.02,60.33-26.96,60.35-60.27c0.02-33.31-26.96-60.33-60.27-60.35c-33.28-0.02-60.29,26.92-60.35,60.19
				C7.65-270.17,34.62-243.14,67.93-243.06"/>
			<path id="Trazado_76" class="st3" d="M47.42-303.19c-4.54-4.54-8.79-8.75-13-12.98c-5.83-5.62-5.99-14.91-0.37-20.73
				c5.62-5.83,14.91-5.99,20.74-0.37c4.09,3.93,8.05,8,12.05,12.02c0.34,0.4,0.66,0.82,0.94,1.27c0.58-0.54,0.94-0.86,1.28-1.19
				c3.97-3.97,7.93-8,11.96-11.92c3.82-4.06,9.67-5.49,14.93-3.65c5.37,1.53,9.29,6.13,9.96,11.67c0.83,4.72-0.78,9.55-4.28,12.82
				c-3.9,3.93-7.82,7.85-11.75,11.75c-0.4,0.34-0.82,0.65-1.27,0.93c0.55,0.59,0.87,0.95,1.2,1.29c3.97,3.97,8.01,7.92,11.93,11.95
				c5.77,5.65,5.86,14.92,0.21,20.69c-1.87,1.91-4.22,3.26-6.8,3.93c-5.13,1.42-10.62-0.12-14.26-4.01
				c-3.97-3.92-7.91-7.89-11.85-11.84c-0.31-0.31-0.64-0.61-1.03-0.98c-0.39,0.36-0.75,0.68-1.08,1.01
				c-4.01,4.01-7.97,8.08-12.05,12.02c-5.7,5.72-14.96,5.73-20.67,0.03c-1.64-1.63-2.86-3.63-3.58-5.83
				c-1.89-5.34-0.42-11.3,3.74-15.15c3.89-3.95,7.82-7.84,11.75-11.75C46.52-302.58,46.96-302.91,47.42-303.19 M35.24-279.98
				c-0.05,3.24,1.61,6.27,4.36,7.97c3.79,2.36,8.72,1.7,11.76-1.58c4.79-4.75,9.54-9.54,14.32-14.3c0.87-1.28,2.61-1.61,3.89-0.73
				c0.28,0.19,0.53,0.43,0.72,0.71c0.32,0.31,0.63,0.63,0.95,0.94c4.52,4.52,9.02,9.06,13.56,13.54c3.51,3.75,9.39,3.95,13.14,0.44
				c3.75-3.51,3.95-9.39,0.44-13.14c-0.17-0.18-0.34-0.35-0.52-0.51c-4.8-4.86-9.67-9.67-14.49-14.51c-1.22-0.88-1.5-2.58-0.63-3.8
				c0.17-0.23,0.37-0.44,0.61-0.61c1.47-1.5,2.97-2.97,4.45-4.46c3.38-3.38,6.78-6.73,10.13-10.15c3.66-3.61,3.7-9.49,0.09-13.15
				c-3.61-3.66-9.49-3.7-13.15-0.09c-0.06,0.05-0.11,0.11-0.16,0.17c-4.72,4.63-9.36,9.34-14.04,14.01
				c-2.13,2.13-3.25,2.13-5.37,0.02c-4.69-4.69-9.33-9.38-14.03-14.01c-3.55-3.71-9.44-3.84-13.15-0.29
				c-3.71,3.55-3.84,9.44-0.29,13.15c0.09,0.09,0.18,0.18,0.27,0.27c4.66,4.75,9.4,9.42,14.11,14.13c2,2,2,3.2,0.02,5.18
				c-4.64,4.65-9.29,9.29-13.94,13.92c-1.94,1.77-3.05,4.27-3.07,6.89"/>
		</g>
	</g>
</g>
</svg>
