<svg xmlns="http://www.w3.org/2000/svg" xmlns:xlink="http://www.w3.org/1999/xlink" version="1.1" id="_x31_600_px" x="0px" y="0px" viewBox="0 0 368.5 255.1" xml:space="preserve" class="style0"><style>.style0{enable-background:	new 0 0 368.5 255.1;}.style1{stop-color:	#F3D3A2;}.style2{stop-color:	#EDB676;}.style3{stop-color:	#9E5430;}.style4{stop-color:	#E1851B;}.style5{stop-color:	#9FE7F8;}.style6{stop-color:	#56D4F2;}.style7{overflow:	visible;}.style8{stop-color:	#E8A04C;}</style><style type="text/css">.st0{fill:#512D37;}.st1{fill:#8A9FBD;}.st2{fill:#A3B0B8;}.st3{fill:#A3B0C8;}.st4{fill:#846A72;}.st5{fill:#C1D64B;stroke:#9A8479;stroke-width:1.251;stroke-miterlimit:10;}.st6{fill:#E4E4E5;}.st7{fill-rule:evenodd;clip-rule:evenodd;fill:#FFFFFF;}.st8{fill:#63CBF6;stroke:#9A8479;stroke-width:1.251;stroke-miterlimit:10;}.st9{fill:#E59F23;}.st10{fill:none;stroke:#9A8479;stroke-width:1.251;stroke-miterlimit:10;}.st11{fill:#80B4B0;}.st12{fill:#F5EFE5;}.st13{fill:#2A3236;}.st14{fill:#F23243;stroke:#9A8479;stroke-width:1.251;stroke-miterlimit:10;}.st15{fill:#7C5128;}.st16{fill:url(#SVGID_1_);}.st17{fill:url(#SVGID_2_);}.st18{fill:url(#SVGID_3_);}.st19{fill:url(#SVGID_4_);}.st20{fill:#FFFFFF;}.st21{fill:url(#SVGID_5_);}.st22{fill:url(#SVGID_6_);}.st23{opacity:0.36;fill:#BBBDBF;}.st24{fill:#1EBC9B;stroke:#9A8479;stroke-width:1.251;stroke-miterlimit:10;}.st25{clip-path:url(#SVGID_8_);}.st26{clip-path:url(#SVGID_10_);}.st27{fill-rule:evenodd;clip-rule:evenodd;fill:#EBEBEB;}.st28{fill-rule:evenodd;clip-rule:evenodd;fill:#F6F6F6;}.st29{fill:url(#SVGID_11_);}.st30{fill-rule:evenodd;clip-rule:evenodd;fill:#6A7682;}.st31{fill:url(#SVGID_12_);}.st32{fill:url(#SVGID_13_);}.st33{fill-rule:evenodd;clip-rule:evenodd;fill:#88BFFD;}.st34{fill-rule:evenodd;clip-rule:evenodd;fill:#1594A2;}.st35{fill-rule:evenodd;clip-rule:evenodd;fill:#B3D6FE;}.st36{fill-rule:evenodd;clip-rule:evenodd;fill:none;stroke:#1C1819;stroke-width:0.6508;stroke-miterlimit:10;}.st37{fill-rule:evenodd;clip-rule:evenodd;fill:none;stroke:#B6B6B6;stroke-miterlimit:10;}.st38{fill-rule:evenodd;clip-rule:evenodd;fill:none;stroke:#B6B6B6;stroke-width:0.3254;stroke-miterlimit:10;}.st39{fill-rule:evenodd;clip-rule:evenodd;fill:#6D6E71;}.st40{fill-rule:evenodd;clip-rule:evenodd;fill:none;stroke:#1C1819;stroke-width:0.3254;stroke-miterlimit:10;}.st41{fill-rule:evenodd;clip-rule:evenodd;fill:none;stroke:#1C1819;stroke-width:0.237;stroke-miterlimit:10;}.st42{fill-rule:evenodd;clip-rule:evenodd;fill:#D0D2D3;}.st43{fill-rule:evenodd;clip-rule:evenodd;fill:#1C1819;}.st44{fill:#E59F23;stroke:#9A8479;stroke-width:1.251;stroke-miterlimit:10;}.st45{fill:#D1D1D2;}</style><g><g><g><path class="st0" d="M55 233.1c0 6.9 5.7 12.6 12.6 12.6h91.2c6.9 0 12.6-5.7 12.6-12.6V47.5c0-6.9-5.7-12.6-12.6-12.6H67.5 c-6.9 0-12.6 5.7-12.6 12.6V233.1"/><rect x="64.4" y="53.8" class="st1" width="97.5" height="163.6"/><polyline class="st2" points="64.4,173.3 64.4,173.3 64.4,53.8 64.4,173.3"/><polyline class="st3" points="64.4,173.3 115.4,53.8 64.4,53.8 64.4,173.3"/><path class="st4" d="M107.5 231.6c0 3.6 2.9 6.5 6.5 6.5c3.6 0 6.5-2.9 6.5-6.5c0-3.6-2.9-6.5-6.5-6.5 C110.4 225.1 107.5 228 107.5 231.6"/><rect x="102.1" y="41.2" class="st4" width="22" height="6.3"/></g></g><g><circle class="st5" cx="346.2" cy="135.5" r="16.3"/><path class="st6" d="M361.5 140.8h-0.2l0-0.2h-0.2l0-0.2h-0.2l0-0.2h-0.2V140h-0.2l0-0.2h-0.2l0-0.2h-0.2l0-0.2h-0.2v-0.2h-0.2 V139h-0.2l0-0.2h-0.2v-0.2h-0.2l0-0.2H359v-0.2h-0.2l0-0.2h-0.2l0-0.2h-0.2l0-0.2h-0.2l0-0.2H358l0-0.2h-0.2l0-0.2h-0.2l0-0.2 h-0.2l0-0.2h-0.2v-0.2H357l0-0.2h-0.2l0-0.2h-0.2l0-0.2h-0.2l0-0.2h-0.2l0-0.2h-0.2l0-0.2h-0.2v-0.2h-0.2l0-0.2h-0.2l0-0.2h-0.2 v-0.2h-0.2l0-0.2h-0.2l0-0.2h-0.2l0-0.2h-0.2v-0.2h-0.2l0-0.2h-0.2v-0.2H354v-0.2h-0.2V133h-0.2l0-0.2h-0.2v-0.2h-0.2l0-0.2H353 v-0.2h-0.2l0-0.2h-0.2l0-0.2h-0.2l0-0.2h-0.2l0-0.2H352v-0.2h-0.2l0-0.2h-0.2l0-0.2h-0.2v-0.2h-0.2v-0.2h-0.2l0-0.2h-0.2v-0.2 h-0.2l0-0.2h-0.2l0-0.2h-0.2v-0.2h-0.2l0-0.2h-0.2l0-0.2h-0.2l0-0.2h-0.2l0-0.2h-0.2v-0.2h-0.2l0-0.2h-0.2l0-0.2h-0.2l0-0.2h-0.2 l0-0.2h-0.2v-0.2h-0.2l0-0.2H348l0-0.2h-0.2l0-0.2h-0.2v-0.2h-0.2v-0.2h-0.2v-0.2H347v-0.2h-0.2l0-0.2h-1.3v8.5c0 0-0.1 0-0.1 0 v-0.2c-0.1 0-0.1 0-0.2 0v-0.2c-0.1 0-0.1 0-0.2 0V134c-0.1 0-0.1 0-0.2 0v-0.2c-0.1 0-0.1 0-0.2 0v-0.2c-4.4 0.6-6.4 2.5-6.2 4.8 v5.3c0 0.4 0.2 0.7 0.5 1c0.1 0.1 0.1 0.1 0.2 0.2c0.1 0.1 0.1 0.1 0.2 0.2c0.1 0.1 0.1 0.1 0.2 0.2c0.1 0.1 0.1 0.1 0.2 0.2 c0.1 0.1 0.1 0.1 0.2 0.2c0.1 0.1 0.1 0.1 0.2 0.2c0.1 0.1 0.1 0.1 0.2 0.2c0.1 0.1 0.1 0.1 0.2 0.2c0.1 0.1 0.1 0.1 0.2 0.2 c0.1 0.1 0.1 0.1 0.2 0.2c0.1 0.1 0.1 0.1 0.2 0.2c0.1 0.1 0.1 0.1 0.2 0.2c0.1 0.1 0.1 0.1 0.2 0.2c0.1 0.1 0.1 0.1 0.2 0.2 c0.1 0.1 0.1 0.1 0.2 0.2c0.1 0.1 0.1 0.1 0.2 0.2c0.1 0.1 0.1 0.1 0.2 0.2c0.1 0.1 0.1 0.1 0.2 0.2c0.1 0.1 0.1 0.1 0.2 0.2 c0.1 0.1 0.1 0.1 0.2 0.2c0.1 0.1 0.1 0.1 0.2 0.2c0.1 0.1 0.1 0.1 0.2 0.2c0.1 0.1 0.1 0.1 0.2 0.2c0.1 0.1 0.1 0.1 0.2 0.2 c0.1 0.1 0.1 0.1 0.2 0.2c0.1 0.1 0.1 0.1 0.2 0.2c0.1 0.1 0.1 0.1 0.2 0.2c0.1 0.1 0.1 0.1 0.2 0.2c0.1 0.1 0.1 0.1 0.2 0.2 c0.1 0.1 0.1 0.1 0.2 0.2c0.1 0.1 0.1 0.1 0.2 0.2c0.1 0.1 0.1 0.1 0.2 0.2c0.1 0.1 0.1 0.1 0.2 0.2c0.1 0.1 0.1 0.1 0.2 0.2 c0.1 0.1 0.1 0.1 0.2 0.2c0.1 0.1 0.1 0.1 0.2 0.2c0.1 0.1 0.1 0.1 0.2 0.2c0 0 0 0 0 0c0.1 0 0.1 0 0.2 0 c7.1 0 13.2-4.6 15.4-10.9h-0.1V140.8z"/><path class="st7" d="M346.8 126.1l0.1 10.3c0.3 0.5 0.6 0.9 1 0.8v-3.6c4 0.5 6.1 1.9 6.1 4.4v5.5c0 0.4-0.2 0.8-0.5 1.1 c-0.3 0.3-0.8 0.3-1.2 0.2l-1.8-0.5c-0.7-0.2-1.4-0.6-1.9-1.3c-0.5-0.7-0.7-1.4-0.8-2.2l0-2c-0.7-0.2-1.2-0.6-1.7-0.9 c-0.4 0.6-1 0.8-1.6 1l0 1.7c0 0.8-0.3 1.7-0.8 2.4c-0.5 0.7-1.3 1.2-2.1 1.4L340 145c-0.4 0.1-0.8 0-1.1-0.2 c-0.3-0.3-0.5-0.6-0.5-1v-5.3c-0.2-2.3 1.8-4.2 6.2-4.8v3.5c0.5 0.2 0.8-0.1 0.9-0.8v-10.2H346.8z"/></g><g><circle class="st8" cx="275.7" cy="140.3" r="21.4"/><path class="st6" d="M296.2 144.8c-0.1-0.1-0.1-0.2-0.3-0.3c-0.1-0.1-0.1-0.2-0.3-0.3c-0.1-0.1-0.1-0.2-0.3-0.3 c-0.1-0.1-0.1-0.2-0.3-0.3c-0.1-0.1-0.1-0.2-0.3-0.3c-0.1-0.1-0.1-0.2-0.3-0.3c-0.1-0.1-0.1-0.2-0.3-0.3c-0.1-0.1-0.1-0.2-0.3-0.3 c-0.1-0.1-0.1-0.2-0.3-0.3c-0.1-0.1-0.1-0.2-0.3-0.3c-0.1-0.1-0.1-0.2-0.3-0.3c-0.1-0.1-0.1-0.2-0.3-0.3c-0.1-0.1-0.1-0.2-0.3-0.3 c-0.1-0.1-0.2-0.2-0.3-0.3c-0.1-0.1-0.2-0.2-0.3-0.3c-0.1-0.1-0.1-0.2-0.3-0.3c-0.1-0.1-0.1-0.2-0.3-0.3c-0.1-0.1-0.1-0.2-0.3-0.3 c-0.1-0.1-0.1-0.2-0.3-0.3c-0.1-0.1-0.1-0.2-0.3-0.3c-0.1-0.1-0.1-0.2-0.3-0.3c-0.1-0.1-0.1-0.2-0.3-0.3c-0.1-0.1-0.1-0.2-0.3-0.3 c-0.1-0.1-0.1-0.2-0.3-0.3c-0.1-0.1-0.2-0.2-0.3-0.3c-0.1-0.1-0.1-0.2-0.3-0.3c-0.1-0.1-0.1-0.2-0.3-0.3c-0.1-0.1-0.1-0.2-0.3-0.3 c-0.1-0.1-0.1-0.2-0.3-0.3c-0.1-0.1-0.1-0.2-0.3-0.3c-0.1-0.1-0.1-0.2-0.3-0.3c-0.1-0.1-0.1-0.2-0.3-0.3c-0.1-0.1-0.1-0.2-0.3-0.3 c-0.1-0.1-0.2-0.2-0.3-0.3c-0.1-0.1-0.1-0.2-0.3-0.3c-0.1-0.1-0.1-0.2-0.3-0.3c-0.1-0.1-0.1-0.2-0.3-0.3c-0.1-0.1-0.1-0.2-0.3-0.3 c-0.1-0.1-0.1-0.2-0.3-0.3c-0.1-0.1-0.1-0.2-0.3-0.3c-0.1-0.1-0.2-0.2-0.3-0.3c-0.1-0.1-0.1-0.2-0.3-0.3c-0.1-0.1-0.1-0.2-0.3-0.3 c-0.1-0.1-0.1-0.2-0.3-0.3c-0.1-0.1-0.1-0.2-0.3-0.3c-0.1-0.1-0.1-0.2-0.3-0.3c-0.1-0.1-0.1-0.2-0.3-0.3c-0.1-0.1-0.1-0.2-0.3-0.3 c-0.1-0.1-0.1-0.2-0.3-0.3c-0.1-0.1-0.1-0.2-0.3-0.3c-0.1-0.1-0.1-0.2-0.3-0.3c-0.1-0.1-0.1-0.2-0.3-0.3c-0.1-0.1-0.1-0.2-0.3-0.3 c-0.1-0.1-0.1-0.2-0.3-0.3c-0.1-0.1-0.1-0.2-0.3-0.3c-0.1-0.1-0.1-0.2-0.3-0.3c-0.1-0.1-0.1-0.2-0.3-0.3c-0.1-0.1-0.1-0.2-0.3-0.3 c-0.2-0.3-0.6-0.5-1.2-0.7c-1.2 0.5-2.2 1.1-3.1 1.8v0c-0.1-0.1-0.2-0.2-0.3-0.3c-0.1-0.1-0.2-0.2-0.3-0.3 c-0.1-0.1-0.2-0.2-0.3-0.3c-0.1-0.1-0.2-0.2-0.3-0.3c-0.3-0.4-0.8-0.6-1.3-0.8c-1 0.4-1.4 0.9-1.3 1.5c0 0.3 0.1 0.6 0.4 0.8 c0.1 0.1 0.2 0.2 0.3 0.3c0.1 0.1 0.1 0.2 0.3 0.3c0.1 0.1 0.2 0.2 0.3 0.3c0.1 0.1 0.2 0.2 0.3 0.3c0.1 0.1 0.1 0.2 0.2 0.2 c-0.9 1-1.5 2.1-2.1 3.2c0 0 0 0 0-0.1c-0.1-0.1-0.2-0.1-0.3-0.2c0 0 0-0.1 0-0.1c-0.1-0.1-0.2-0.1-0.3-0.2c0 0 0-0.1 0-0.1 c-0.1-0.1-0.2-0.1-0.3-0.2c0 0 0-0.1 0-0.1c-0.1-0.1-0.2-0.1-0.3-0.2c0 0 0-0.1 0-0.1c-0.1-0.1-0.2-0.1-0.3-0.2c0 0 0-0.1 0-0.1 c-0.1-0.1-0.2-0.1-0.3-0.2c0 0 0-0.1 0-0.1c-0.1-0.1-0.2-0.1-0.3-0.2c0 0 0-0.1 0-0.1c-0.1-0.1-0.2-0.1-0.3-0.2c0 0 0-0.1 0-0.1 c-0.1-0.1-0.2-0.1-0.3-0.2c0 0 0-0.1 0-0.1c-0.1-0.1-0.2-0.1-0.3-0.2c0 0 0-0.1 0-0.1c-0.1-0.1-0.2-0.1-0.3-0.2c0 0 0-0.1 0-0.1 c-1.4-1-2.1-0.4-2.6 0.3c0 7.3-1.3 7.8-2.3 9.6c-0.1 0.6 0 0.9 0.3 1.1c0.1 0.1 0.1 0.2 0.3 0.3c0.1 0.1 0.1 0.2 0.3 0.3 c0.1 0.1 0.1 0.2 0.3 0.3c0.1 0.1 0.1 0.2 0.3 0.3c0.1 0.1 0.1 0.2 0.3 0.3c0.1 0.1 0.1 0.2 0.3 0.3c0.1 0.1 0.1 0.2 0.3 0.3 c0.1 0.1 0.1 0.2 0.3 0.3c0.1 0.1 0.1 0.2 0.3 0.3c0.1 0.1 0.1 0.2 0.3 0.3c0.1 0.1 0.1 0.2 0.3 0.3c0.1 0.1 0.1 0.2 0.3 0.3 c0.1 0.1 0.1 0.2 0.3 0.3c0.1 0.1 0.1 0.2 0.3 0.3c0.1 0.1 0.1 0.2 0.3 0.3c0.1 0.1 0.1 0.2 0.3 0.3c0.1 0.1 0.1 0.2 0.3 0.3 c0.1 0.1 0.1 0.2 0.3 0.3c0.1 0.1 0.1 0.2 0.3 0.3c0.1 0.1 0.1 0.2 0.3 0.3c0.1 0.1 0.1 0.2 0.3 0.3c0.1 0.1 0.1 0.2 0.3 0.3 c0.1 0.1 0.1 0.2 0.3 0.3c0.1 0.1 0.1 0.2 0.3 0.3c0.1 0.1 0.1 0.2 0.3 0.3c0.1 0.1 0.1 0.2 0.3 0.3c0.1 0.1 0.1 0.2 0.3 0.3 c0.1 0.1 0.1 0.2 0.3 0.3c0.1 0.1 0.1 0.2 0.3 0.3c0.1 0.1 0.1 0.2 0.3 0.3c0.1 0.1 0.1 0.2 0.3 0.3c0.1 0.1 0.1 0.2 0.3 0.3 c0.1 0.1 0.1 0.2 0.3 0.3c0.1 0.1 0.1 0.2 0.3 0.3c0.1 0.1 0.1 0.2 0.3 0.3c0.1 0.1 0.1 0.2 0.3 0.3c0.1 0.1 0.1 0.2 0.3 0.3 c0.1 0.1 0.1 0.2 0.3 0.3c0.1 0.1 0.1 0.2 0.3 0.3c0.1 0.1 0.1 0.2 0.3 0.3c0.1 0.1 0.1 0.2 0.3 0.3c0.1 0.1 0.1 0.2 0.3 0.3 c0.1 0.1 0.1 0.2 0.3 0.3c0.1 0.1 0.1 0.2 0.3 0.3c0.1 0.1 0.1 0.2 0.3 0.3c0.1 0.1 0.1 0.2 0.3 0.3c0.1 0.1 0.1 0.2 0.3 0.3 c0.1 0.1 0.1 0.2 0.3 0.3c0.1 0.1 0.1 0.2 0.3 0.3c0.1 0.1 0.1 0.2 0.3 0.3c0.1 0.1 0.1 0.2 0.3 0.3c0.1 0.1 0.1 0.2 0.3 0.3 c0.1 0.1 0.1 0.2 0.3 0.3c0.1 0.1 0.1 0.2 0.3 0.3c0.1 0.1 0.1 0.2 0.3 0.3c0.1 0.1 0.1 0.2 0.3 0.3c0.1 0.1 0.1 0.2 0.3 0.3 c0.1 0.1 0.1 0.2 0.3 0.3c0.1 0.1 0.1 0.2 0.3 0.3c0.1 0.1 0.1 0.2 0.3 0.3c0.1 0.1 0.1 0.2 0.3 0.3c0.1 0.1 0.1 0.2 0.3 0.3 c0.1 0.1 0.1 0.2 0.3 0.3c0.1 0.1 0.1 0.2 0.3 0.3c0 0 0.1 0.1 0.1 0.1c7.2-2.2 12.7-8.2 14.4-15.6c0 0 0 0-0.1 0 C296.4 145 296.3 144.9 296.2 144.8z"/><g><path class="st7" d="M285.8 134.6c0.4 1.3 0.1 2-1.2 2.1c-1-0.3-2-0.8-3.1-1.1c-0.9 1.3-1.7 2.8-2.5 4.1 c-0.3 0.4-0.1 0.6 0.7 0.4c0.6-0.8 1.2-1.8 1.8-2.7c3.7 2.4 2.9 5.9 0.6 9.4c-2.5 4.8-5.7 5.3-8.2 2.6c-1-2-4.7-5.1-1.9-9.2 c0.4-0.5 0.2-0.8-0.5-0.9c-0.9-0.3-1.5 0.1-1.6 1.2c-0.4 1.9-1 2.8-2.4 3.9c-1.5 0.2-2.1-0.1-1.9-1.2c1-1.8 2.3-2.3 2.3-9.6 c0.6-0.8 1.3-1.3 2.6-0.3c0 1.2-0.1 2.3-0.1 3.5c0.9 0.1 1.6 0.1 2.5 0.2c1.3-3 3.4-5.9 7.5-7.7c1.4 0.4 2 1.5 0.2 2 c-1.5 0.9-3.2 1.7-4.4 4.5c-0.1 0.6 0.3 0.5 0.9 0.5c0.8-0.4 0.7 0.3-0.1 1.3c-0.9 1.1-0.8 1.5 0.2 1.1c0.6-1.1 1.3-2.2 1.9-3.3 c0.5-0.7 0-0.9-0.5-1.1c-0.1-0.7 0.9-1.5 1.9-1.9C282.3 133.1 283.9 134 285.8 134.6z"/><path class="st7" d="M276.5 130.6c-0.5 0.5-1.2 1.1-1.7 1.5c-0.8-0.2-1.2-0.7-1.2-1.2c-0.1-0.6 0.3-1.1 1.3-1.5 C275.6 129.6 276.3 130 276.5 130.6z"/></g></g><g><g><g><g><circle class="st9" cx="236.5" cy="32.1" r="22"/><circle class="st10" cx="236.5" cy="32.1" r="22"/></g></g></g><g><g><path class="st11" d="M236.8 27.1c-3.2 0-5.7 2.6-5.7 5.7c0 3.2 2.6 5.7 5.7 5.7c3.2 0 5.7-2.6 5.7-5.7 C242.5 29.6 239.9 27.1 236.8 27.1z M236.8 35.5c-1.5 0-2.7-1.2-2.7-2.7c0-0.6 0.2-1.1 0.5-1.5c-0.1-0.2-0.2-0.4-0.2-0.6 c0-0.8 0.6-1.4 1.4-1.4c0.6 0 1.1 0.4 1.4 0.9c1.3 0.2 2.3 1.3 2.3 2.7C239.5 34.3 238.3 35.5 236.8 35.5z"/></g><g><path class="st12" d="M238.2 23.6c-1.7 0-3.1 0.2-4.3 0.5c-5.4 1.4-11.2 7.2-11.2 8.6c0 1.4 7.4 8.7 13.3 8.7 c1.6 0 3.1-0.2 4.3-0.5c5.4-1.4 11.2-6.9 11.2-8.6C251.5 30.5 244.1 23.6 238.2 23.6z M236.8 38.5c-3.2 0-5.7-2.6-5.7-5.7 c0-3.2 2.6-5.7 5.7-5.7c3.2 0 5.7 2.6 5.7 5.7C242.5 36 239.9 38.5 236.8 38.5z"/></g><g><path class="st13" d="M237.2 30.1c0.1 0.2 0.1 0.3 0.1 0.5c0 0.8-0.6 1.4-1.4 1.4c-0.6 0-1.1-0.3-1.3-0.8 c-0.3 0.4-0.5 1-0.5 1.5c0 1.5 1.2 2.7 2.7 2.7c1.5 0 2.7-1.2 2.7-2.7C239.5 31.4 238.5 30.3 237.2 30.1z"/></g><g><path class="st12" d="M235.8 32.1c0.8 0 1.4-0.6 1.4-1.4c0-0.2 0-0.3-0.1-0.5c-0.2-0.5-0.7-0.9-1.4-0.9c-0.8 0-1.4 0.6-1.4 1.4 c0 0.2 0.1 0.4 0.2 0.6C234.8 31.7 235.3 32.1 235.8 32.1z"/></g></g></g><line class="st10" x1="90.1" y1="105.6" x2="122.5" y2="111"/><g><circle class="st14" cx="164.7" cy="111" r="42.2"/><g><g><path class="st15" d="M164.8 122c0 0 14.8-0.4 15.3-2.6c0.5-2.1-0.7-7.2-8.3-7.2c-7.5 0-19-1.9-19-1.9l-2.2 8.1 C150.7 118.5 150.7 121.7 164.8 122z"/><linearGradient id="SVGID_1_" gradientUnits="userSpaceOnUse" x1="165.2" y1="138.5" x2="165.2" y2="113.1"><stop offset="0" class="style1"/><stop offset="1" class="style2"/></linearGradient><path class="st16" d="M195.8 134.7c-0.9-2.8-2.7-5.8-7.5-5.8c-5.5 0-17.8-2.2-18.6-9.2c-0.3-2.2-0.4-4.4-0.3-6.6l-4.1 1.6 l-4.1-1.6c0.1 2.2 0 4.4-0.3 6.6c-0.8 7-13.1 9.2-18.6 9.2c-4.8 0-6.6 3-7.5 5.8c-0.9 2.8-0.9 3.8-0.9 3.8h30.5h1.8h30.5 C196.7 138.5 196.6 137.5 195.8 134.7z"/><linearGradient id="SVGID_2_" gradientUnits="userSpaceOnUse" x1="165.2" y1="116.8" x2="165.2" y2="86.3"><stop offset="0" class="style1"/><stop offset="1" class="style2"/></linearGradient><ellipse class="st17" cx="165.2" cy="101.5" rx="13.7" ry="15.3"/><linearGradient id="SVGID_3_" gradientUnits="userSpaceOnUse" x1="167.5" y1="121.6" x2="167.5" y2="83.7"><stop offset="0" class="style3"/><stop offset="1" class="style4"/></linearGradient><path class="st18" d="M154 89c0 0 4.5 9.2 19.6 7.7c0 0 0.6 23.8-1.7 24.9c0 0 7.1-0.2 8.3-2.1c1.2-1.9 3.9-36.8-14.8-35.7 C165.3 83.7 156.5 84.9 154 89z"/><linearGradient id="SVGID_4_" gradientUnits="userSpaceOnUse" x1="152.8" y1="121.1" x2="152.8" y2="87.9"><stop offset="0" class="style3"/><stop offset="1" class="style4"/></linearGradient><path class="st19" d="M156.1 90.3c0 0-2.2 1.1-2.2 11.7c0 10.6 1.4 19.1 1.4 19.1s-5.2-0.8-5.4-3.4c-0.2-2.6-2.2-23.1 4.9-29.8 L156.1 90.3z"/><polygon class="st20" points="150.4,127.9 148.8,138.6 153.7,138.6 153.7,127"/><polygon class="st20" points="182.9,127.9 184.8,138.6 179.4,138.6 179.4,127"/><radialGradient id="SVGID_5_" cx="165.1" cy="139.5" r="24" gradientUnits="userSpaceOnUse"><stop offset="0" class="style5"/><stop offset="1" class="style6"/></radialGradient><path class="st21" d="M186.5 128.2c0 0 0.9 7.3-8.5 7.3c-7.6 0-11.2 0-12.3 0c0 0-0.2 0-0.4 0c-1.2 0-5.6 0-13.4 0 c-9.4 0-8.5-7.3-8.5-7.3c-11.6 0.3-10.4 10.4-10.4 10.4l30.6 9.4l2.8 2.9l30.3-12.4C196.9 138.5 198.2 128.4 186.5 128.2z"/></g><radialGradient id="SVGID_6_" cx="165.1" cy="33.9" r="23.2" gradientTransform="matrix(1 0 0 0.9705 0 113.0082)" gradientUnits="userSpaceOnUse"><stop offset="0" class="style5"/><stop offset="1" class="style6"/></radialGradient><path class="st22" d="M133.2 138.5c7.3 9.4 18.9 14.9 31.9 14.9c13 0 24.5-5.6 31.9-14.9L133.2 138.5z"/></g><path class="st23" d="M165 68.8v84.4c23.7-0.4 41.5-19.1 41.5-42.2C206.5 87.9 188.6 69.2 165 68.8z"/></g><g><circle class="st24" cx="48.2" cy="104.6" r="42.2"/><path class="st23" d="M48.7 62.4v84.4c23.7-0.4 41.5-19.1 41.5-42.2C90.2 81.5 72.4 62.7 48.7 62.4z"/><g><defs><circle id="SVGID_7_" cx="48.8" cy="105.6" r="41.3"/></defs><clipPath id="SVGID_8_"><use xlink:href="#SVGID_7_" class="style7"/></clipPath><g class="st25"><defs><rect id="SVGID_9_" x="11.7" y="78.9" width="74.1" height="73.1"/></defs><clipPath id="SVGID_10_"><use xlink:href="#SVGID_9_" class="style7"/></clipPath><g class="st26"><path class="st27" d="M36 114.9l-11.7 5.3c0 0-5.7 0.5-7.2 7.8c-1.5 7.3-3.5 23.1-3.5 23.1s8.9 8.8 34.6 7.7l0.2-36.4L36 114.9 z"/><path class="st27" d="M61.5 114.9l11.7 5.3c0 0 5.7 0.5 7.2 7.8c1.5 7.3 3.5 23.1 3.5 23.1s-8.9 8.8-34.6 7.7l-0.2-36.4 L61.5 114.9z"/><path class="st28" d="M56.2 111.3l8.4 7.3l-1.6 4l3.3 3c0 0-5.9 25.2-17.3 33.3l-0.9-3.4C48.1 155.5 58.1 139 56.2 111.3z"/><path class="st28" d="M40.8 111.3l-8.4 7.3l1.6 4l-3.3 3c0 0 5.9 25.2 17.3 33.3l0.9-3.4C48.9 155.5 39 139 40.8 111.3z"/><g><linearGradient id="SVGID_11_" gradientUnits="userSpaceOnUse" x1="47.4" y1="98.3" x2="47.4" y2="78.2"><stop offset="0" class="style3"/><stop offset="1" class="style4"/></linearGradient><path class="st29" d="M47.4 78.4c1.4 0.6 3.2 0.8 4.2 1.8c1.7-0.6 3.5-0.1 4.9 0.5c0.7 1.8 2.6 2.9 3 5 c0.1 0.7-0.4 1.5-0.3 2.4c0.1 1 1.2 1.9 1.2 3c0 1.5-1.3 3-2 4.2c0 0.1 0 0.1 0 0.2c-0.5 0.7-0.8 1.5-1.3 2.2 c-1.3-1.1-0.4-2.9-0.3-4.7c0-1.5-1.7-8.2-2.7-8.9c-0.9-0.6-2.2-0.1-3.4 0.2c-0.8 0.1 0.1-0.6-0.3-0.5 c-3.3 0.1-4.5 3.6-7.9 3.4c-1.2-0.1-2.2-0.9-3.2-1c-1.4 3.2-0.5 8.6-0.7 12.3c-0.2-0.7-1.3-1.6-1.8-2.5 c-0.2-2.3-2.9-4.6-1.3-7.1c-1.8-1.8 0.6-5.5 2.2-7.2c1.8-1.9 4.5-2.6 6.4-3.2C44.7 78.1 46.5 78.1 47.4 78.4z"/><path class="st30" d="M57.4 101.9c-0.3 1.2-0.4 2.5-1.2 3.2c-0.2-0.6 0.4-1.7 0.2-2.9C56.7 102.1 57 101.9 57.4 101.9z"/><linearGradient id="SVGID_12_" gradientUnits="userSpaceOnUse" x1="47.5" y1="118.7" x2="47.5" y2="83.7"><stop offset="0" class="style1"/><stop offset="1" class="style2"/></linearGradient><path class="st31" d="M36.6 95.8c0.5 1 1.6 1.8 1.8 2.5c0.2-3.6-0.7-9 0.7-12.3c1 0.1 2 0.9 3.2 1c3.4 0.2 4.6-3.2 7.9-3.4 c0.4 0-0.4 0.7 0.3 0.5c1.2-0.3 2.4-0.8 3.4-0.2c1 0.7 2.7 7.4 2.7 8.9c-0.1 1.8-1 3.6 0.3 4.7c0.5-0.6 0.8-1.5 1.3-2.2 c0.4 0 0.1 0.7 0.2 1c-0.1 1.9 0.2 4.2-1 5.4c-0.4 0.1-0.7 0.2-1 0.3c0.2 1.1-0.4 2.3-0.2 2.9c-0.6 1.1-0.4 4-0.2 5.4 c0 0.2 0 0.4 0 0.7c0 1.2-0.4 2-0.5 3c-0.4 0.3-0.4 1-0.7 1.5c-1.2 1.9-4 4.6-6 1.8c-0.1 0-0.2-0.2-0.3-0.2 c-0.1-0.1-0.1-0.3-0.3-0.3c-0.1-0.2-0.3-0.3-0.5-0.3c-1.3-1.2-2.8-2.1-4.2-3.2c-0.5-0.7-1.2-1.3-1.8-1.8 c-0.9-2.6-1.9-5.2-2.5-8.1C36.7 102.7 36.6 97.6 36.6 95.8z"/><linearGradient id="SVGID_13_" gradientUnits="userSpaceOnUse" x1="47.7" y1="118.7" x2="47.7" y2="103.5"><stop offset="0" class="style1"/><stop offset="1" class="style8"/></linearGradient><path class="st32" d="M39.1 103.5c0.1 0.6 3.7 7.2 9.5 6.4s7.6-4.9 7.6-4.9s-0.7 2.5-0.2 5c0.5 2.4-0.6 8.1-5.6 8.7 c-5.1 0.5-10-6-9.9-8.2C40.5 108.3 39.1 103.5 39.1 103.5z"/></g><path class="st33" d="M48.3 155.5c0 0-9.1-14.6-8.1-34.1l6.1-3.3h5.3l5 1.6C56.5 119.6 56.4 146.4 48.3 155.5z"/><path class="st34" d="M45.5 121.1l1.9 2c0 0-2.9 4.2-2.9 10.3c0 6.1-0.5 12.7-0.5 12.7l4.3 9.7l4-9.5L52 132.9 c0 0-1.3-8.6-2.4-9.7l2-2.3c0 0-1.8-2.1-3.2-2.3C47 118.4 44.2 120.2 45.5 121.1z"/><path class="st35" d="M40.9 110.5c0 0 3.5 7.6 7.5 7.5c4-0.1 7.4-6.5 7.5-7.5c0.1-1 0.8 11.6 0.8 11.6l-1.8 3.4c0 0-4-7-6.5-7 c0 0-5.9 2.7-6.5 7l-1.8-3.1C40.2 122.5 40 110.8 40.9 110.5z"/><path class="st36" d="M26.6 138c0 0-0.3-9.1 5.7-9.6c6-0.5 5.8 9.6 5.8 9.6"/><path class="st36" d="M40.7 109.8c0 0-7.6 5.6-8 12.9c-0.3 7.3-0.5 5.4-0.5 5.4"/><path class="st37" d="M26.6 138.6v10.2c0 0 0.5 1.5 2.6 1.8"/><path class="st38" d="M38 137.8l0.3 10.8c0 0-1.3 1.9-3 1.9"/><ellipse class="st39" cx="29.9" cy="150.5" rx="1.4" ry="0.7"/><ellipse class="st39" cx="34.6" cy="150.5" rx="1.4" ry="0.7"/><path class="st36" d="M55.9 109.8c0 0 7 4.8 7.1 11.5c0 6.7-1.4 12.6-1.4 12.6"/><circle class="st40" cx="61.1" cy="136" r="2.2"/><circle class="st41" cx="61.1" cy="136.1" r="1.6"/><polygon class="st42" points="65.2,140.7 71.3,140.7 71.3,147.1 68.3,150 65.2,147.1"/><path class="st43" d="M66.2 141.4c0 0.2-0.1 0.3-0.3 0.3h-0.4c-0.2 0-0.3-0.1-0.3-0.3v-3.5c0-0.2 0.1-0.3 0.3-0.3h0.4 c0.2 0 0.3 0.1 0.3 0.3V141.4z"/><path class="st43" d="M69.3 141.4c0 0.2-0.1 0.3-0.3 0.3h-0.4c-0.2 0-0.3-0.1-0.3-0.3v-3.5c0-0.2 0.1-0.3 0.3-0.3H69 c0.2 0 0.3 0.1 0.3 0.3V141.4z"/><path class="st43" d="M71.3 141.4c0 0.2-0.1 0.3-0.3 0.3h-0.4c-0.2 0-0.3-0.1-0.3-0.3v-3.5c0-0.2 0.1-0.3 0.3-0.3H71 c0.2 0 0.3 0.1 0.3 0.3V141.4z"/></g></g></g></g><line class="st10" x1="192.3" y1="79" x2="220.7" y2="47.5"/><line class="st10" x1="205.6" y1="121.1" x2="254.9" y2="135.5"/><line class="st10" x1="257.5" y1="38.5" x2="319.3" y2="55.7"/><line class="st10" x1="291.7" y1="126.1" x2="319.3" y2="83.7"/><line class="st10" x1="240.4" y1="53.8" x2="267.9" y2="120.4"/><line class="st10" x1="343.4" y1="119.2" x2="334.2" y2="86.3"/><line class="st10" x1="296.5" y1="142.3" x2="330.5" y2="140.3"/><g><path class="st20" d="M77.3 164.4c0.9 0 1.8 0.1 2.5 0.2c0.7 0.2 1.4 0.4 1.9 0.6c0.6 0.3 1 0.6 1.4 1c0.4 0.4 0.7 0.8 0.9 1.3 c0.2 0.5 0.4 0.9 0.5 1.4c0.1 0.5 0.2 1 0.2 1.6c0 0.7-0.1 1.5-0.2 2.4c-0.2 0.9-0.4 1.6-0.7 2.3c-0.3 0.7-0.7 1.4-1.1 2 c-0.4 0.6-1 1.2-1.5 1.6c-0.6 0.5-1.2 0.8-1.9 1.1c-0.7 0.3-1.4 0.4-2.3 0.4c-0.3 0-0.5 0-0.8-0.1c-0.3 0-0.6-0.1-0.8-0.2 c-0.3-0.1-0.5-0.2-0.7-0.2c-0.2-0.1-0.4-0.2-0.6-0.3c-0.1 0-0.1-0.1-0.2-0.1c0 0-0.1-0.1-0.1-0.1c0 0 0-0.1 0-0.2 c0-0.1 0-0.1 0-0.2c0-1 0-1.9 0.1-3c0.1-1 0.1-2 0.3-3.1c0.1-1.1 0.4-2 0.6-2.8c0.3-0.8 0.7-1.6 1.1-2.3c0.1-0.2 0.5-0.3 1.1-0.3 c0.5 0 0.8 0.2 1.1 0.5c-0.3 0.4-0.5 0.8-0.7 1.2c-0.2 0.4-0.3 0.9-0.5 1.3c-0.1 0.4-0.2 0.9-0.3 1.4c-0.2 1-0.2 1.5-0.2 1.5 c0 0 0 0.6-0.2 1.7c-0.1 0.4-0.1 0.7-0.1 1c0 0.3-0.1 0.5-0.1 0.7c0 0.2 0 0.4 0 0.6c0 0.2 0 0.4 0 0.5c0 0.1 0.1 0.3 0.1 0.3 c0.1 0.1 0.1 0.1 0.3 0.2c0.1 0 0.3 0.1 0.5 0.1c0.6 0 1.1-0.1 1.7-0.3c0.5-0.2 1-0.5 1.4-0.9c0.4-0.4 0.8-0.8 1.2-1.3 c0.4-0.5 0.6-1.1 0.9-1.8c0.2-0.7 0.4-1.3 0.6-1.9c0.1-0.6 0.2-1.2 0.2-1.7c0-0.7-0.1-1.3-0.3-1.8c-0.2-0.5-0.5-1-0.9-1.3 c-0.4-0.4-0.9-0.6-1.4-0.8c-0.6-0.2-1.2-0.3-1.8-0.3c-0.5 0-1 0-1.4 0.1c-0.5 0.1-0.9 0.1-1.3 0.3c-0.4 0.1-0.8 0.3-1.1 0.5 c-0.3 0.2-0.5 0.4-0.7 0.7c-0.4 0.7-0.8 1.2-1 1.5c-0.3 0.4-0.5 0.5-0.7 0.5c-0.3 0-0.4-0.3-0.4-0.9c0-0.6 0.1-1.1 0.2-1.5 c0.1-0.5 0.4-0.9 0.6-1.2c0.3-0.4 0.6-0.6 0.9-0.9c0.4-0.2 0.8-0.4 1.2-0.6c0.4-0.2 0.9-0.3 1.4-0.4 C76.3 164.5 76.8 164.4 77.3 164.4"/><path class="st20" d="M91.2 172.8c0.2 0.3 0.3 0.7 0.4 1.1c0.1 0.4 0.1 0.8 0.1 1.3c0 0.3 0 0.7-0.1 1c-0.1 0.3-0.2 0.7-0.3 1 c-0.1 0.3-0.3 0.6-0.5 0.9c-0.2 0.3-0.4 0.5-0.7 0.7c-0.3 0.2-0.6 0.4-0.9 0.5c-0.3 0.1-0.6 0.2-1 0.2c-0.5 0-0.9-0.1-1.3-0.3 c-0.4-0.2-0.7-0.5-0.9-0.9c-0.2-0.4-0.4-0.8-0.5-1.2c-0.1-0.5-0.2-0.9-0.2-1.4c0-0.8 0.1-1.4 0.3-2c0.2-0.6 0.5-1 0.8-1.4 c0.4-0.4 0.8-0.7 1.3-1c0.5-0.2 1.1-0.4 1.7-0.4c0.5 0 1.1 0.1 1.5 0.3c0.5 0.2 0.9 0.4 1.3 0.7c0.4 0.3 0.8 0.6 1.2 1.1 c0.4 0.4 0.7 0.8 1 1.2l-0.2 1.2c-0.2-0.2-0.4-0.4-0.6-0.7c-0.3-0.2-0.5-0.5-0.8-0.8c-0.3-0.3-0.6-0.5-0.9-0.8 C91.7 173 91.5 172.9 91.2 172.8L91.2 172.8z M88.5 177.9c0.2 0 0.4-0.1 0.6-0.3c0.2-0.2 0.3-0.4 0.5-0.8c0.1-0.3 0.3-0.7 0.3-1.1 c0.1-0.4 0.1-0.8 0.1-1.2c0-0.3 0-0.5-0.1-0.7c0-0.2-0.1-0.4-0.2-0.6c-0.1-0.2-0.2-0.3-0.3-0.4c-0.1-0.1-0.3-0.1-0.5-0.1 c-0.2 0-0.5 0.1-0.7 0.3c-0.2 0.2-0.4 0.5-0.6 0.8c-0.2 0.3-0.3 0.7-0.4 1c-0.1 0.4-0.1 0.8-0.1 1.3c0 0.2 0 0.5 0.1 0.7 c0 0.2 0.1 0.4 0.2 0.6c0.1 0.2 0.2 0.3 0.4 0.4C88.1 177.8 88.3 177.9 88.5 177.9"/><path class="st20" d="M96.1 179.5c-0.5 0-1-0.1-1.4-0.3c-0.4-0.2-0.7-0.5-1-0.8c-0.3-0.3-0.5-0.7-0.6-1.1 c-0.1-0.4-0.2-0.9-0.2-1.4c0-0.3 0.1-0.7 0.2-1.2c0.1-0.5 0.2-0.9 0.4-1.2c0.1-0.4 0.3-0.7 0.5-1c0.2-0.3 0.4-0.6 0.7-0.8 c0.3-0.2 0.6-0.4 0.9-0.6c0.3-0.1 0.7-0.2 1.1-0.2c0.4 0 0.7 0.1 1 0.2c0.3 0.1 0.6 0.2 0.8 0.4c0.2 0.2 0.4 0.4 0.5 0.6 c0.1 0.2 0.2 0.5 0.2 0.8c0 0.2 0 0.4-0.1 0.6c-0.1 0.2-0.2 0.4-0.3 0.7c-0.2 0.3-0.3 0.4-0.5 0.5c-0.2 0.1-0.3 0.1-0.5 0.1 c-0.3 0-0.5-0.1-0.6-0.2c-0.1-0.2-0.2-0.4-0.1-0.6c0-0.1 0.1-0.3 0.2-0.6c0 0 0-0.1 0-0.3c0-0.1 0-0.3 0-0.3 c0-0.1-0.1-0.1-0.2-0.1c-0.2 0-0.4 0.1-0.6 0.2c-0.2 0.1-0.3 0.3-0.4 0.4c-0.1 0.2-0.2 0.4-0.4 0.8c-0.1 0.3-0.2 0.6-0.2 0.8 c0 0.2-0.1 0.4-0.1 0.6c0 0.2 0 0.4 0 0.5c0 0.2 0 0.4 0.1 0.7c0 0.2 0.1 0.4 0.2 0.6c0.1 0.2 0.3 0.3 0.4 0.5 c0.2 0.1 0.4 0.2 0.7 0.2c0.3 0 0.6-0.1 0.9-0.3c0.3-0.2 0.7-0.4 1-0.6c0.3-0.3 0.7-0.5 1-0.9c0.3-0.3 0.7-0.8 0.9-1.1l0.4 1.2 c-0.4 0.6-0.9 1.2-1.4 1.7c-0.2 0.2-0.4 0.4-0.7 0.6c-0.3 0.2-0.5 0.4-0.8 0.5c-0.3 0.2-0.6 0.3-0.9 0.4 C96.7 179.5 96.4 179.5 96.1 179.5"/><path class="st20" d="M107.1 177.6c-0.6 0.3-1.1 0.6-1.5 0.9c-0.4 0.2-0.8 0.4-1.2 0.6c-0.3 0.2-0.6 0.3-0.9 0.4 c-0.3 0.1-0.5 0.1-0.7 0.1c-0.4 0-0.8-0.1-1.2-0.4c-0.3-0.3-0.6-0.6-0.8-1.2c-0.2-0.5-0.4-1.1-0.5-1.8c-0.1-0.7-0.2-1.5-0.2-2.4 c0-0.3 0-0.7 0-1.1c0-0.4 0.1-0.8 0.1-1.2c-0.2 0-0.3 0-0.4-0.1c-0.1 0-0.2 0-0.3-0.1c-0.1 0-0.2 0-0.4-0.1 c-0.2 0-0.4-0.1-0.7-0.1c-0.1 0-0.2-0.1-0.3-0.1c-0.1-0.1-0.1-0.1-0.2-0.2c0-0.1-0.1-0.2-0.1-0.2c0-0.1 0-0.1 0-0.2 c0-0.1 0.1-0.2 0.2-0.2c0.1 0 0.3-0.1 0.4-0.1c0.2 0 0.4 0 0.6 0c0.2 0 0.4 0 0.6 0c0.2 0 0.4 0 0.5 0c0.2 0 0.3 0 0.3 0 c0.2-0.8 0.4-1.5 0.6-2.3c0.2-0.7 0.5-1.4 0.8-1.9c0.3-0.6 0.6-1 1-1.4c0.4-0.3 0.7-0.5 1.1-0.5c0.2 0 0.5 0.1 0.7 0.2 c0.2 0.1 0.4 0.3 0.5 0.6c0.1 0.2 0.3 0.5 0.3 0.8c0.1 0.3 0.1 0.6 0.1 1c0 0.3 0 0.6-0.1 0.9c-0.1 0.3-0.2 0.6-0.3 0.9 c-0.1 0.3-0.3 0.6-0.5 1c-0.2 0.3-0.4 0.7-0.6 1c0.1 0 0.1 0 0.3 0c0.1 0 0.3 0 0.4 0c0.2 0 0.3 0 0.5 0c0.2 0 0.4 0 0.5 0 c0.2 0 0.3 0 0.5 0c0.2 0 0.3 0 0.4 0c0.1 0 0.2 0.1 0.3 0.2c0.1 0.1 0.1 0.3 0.1 0.5c0 0.2-0.1 0.4-0.2 0.5 c-0.1 0.1-0.2 0.2-0.4 0.2h-3.3c-0.2 0.2-0.3 0.5-0.5 0.7c-0.2 0.2-0.3 0.4-0.5 0.6c0 0.4 0 0.7-0.1 1.1c0 0.1 0 0.3 0 0.5 c0 0.2 0 0.3 0 0.5c0 0.2 0 0.3 0 0.5c0 0.1 0 0.3 0 0.4c0 0.3 0 0.6 0.1 0.8c0.1 0.2 0.1 0.4 0.3 0.5c0.1 0.1 0.2 0.2 0.4 0.3 c0.2 0.1 0.3 0.1 0.5 0.1c0.1 0 0.3 0 0.5-0.1c0.2-0.1 0.4-0.1 0.6-0.2c0.2-0.1 0.4-0.2 0.7-0.4c0.2-0.1 0.5-0.3 0.7-0.5 c0.2-0.2 0.5-0.3 0.7-0.5c0.2-0.2 0.4-0.4 0.6-0.6V177.6z M104.4 166.6c0-0.1 0-0.1 0-0.2c0-0.1 0-0.2-0.1-0.2 c0-0.1-0.1-0.1-0.1-0.2c-0.1 0-0.1-0.1-0.3-0.1c-0.2 0-0.3 0.1-0.5 0.4c-0.2 0.3-0.3 0.6-0.4 1c-0.1 0.4-0.3 0.9-0.4 1.4 c-0.1 0.5-0.2 1-0.3 1.4c0.1 0 0.2 0 0.3 0c0.1 0 0.2 0 0.3 0c0.2-0.3 0.4-0.6 0.5-0.9c0.2-0.3 0.4-0.7 0.5-1 c0.2-0.3 0.3-0.6 0.4-0.9C104.3 167 104.4 166.8 104.4 166.6"/><path class="st20" d="M111.8 172.8c0.2 0.3 0.3 0.7 0.4 1.1c0.1 0.4 0.1 0.8 0.1 1.3c0 0.3 0 0.7-0.1 1c-0.1 0.3-0.2 0.7-0.3 1 c-0.1 0.3-0.3 0.6-0.5 0.9c-0.2 0.3-0.4 0.5-0.7 0.7c-0.3 0.2-0.6 0.4-0.9 0.5c-0.3 0.1-0.6 0.2-1 0.2c-0.5 0-0.9-0.1-1.3-0.3 c-0.4-0.2-0.7-0.5-0.9-0.9c-0.2-0.4-0.4-0.8-0.5-1.2c-0.1-0.5-0.2-0.9-0.2-1.4c0-0.8 0.1-1.4 0.3-2c0.2-0.6 0.5-1 0.8-1.4 c0.4-0.4 0.8-0.7 1.3-1c0.5-0.2 1.1-0.4 1.7-0.4c0.5 0 1.1 0.1 1.5 0.3c0.5 0.2 0.9 0.4 1.4 0.7c0.4 0.3 0.8 0.6 1.2 1.1 c0.4 0.4 0.7 0.8 1 1.2l-0.2 1.2c-0.2-0.2-0.4-0.4-0.6-0.7c-0.3-0.2-0.5-0.5-0.8-0.8c-0.3-0.3-0.6-0.5-0.9-0.8 C112.3 173 112.1 172.9 111.8 172.8L111.8 172.8z M109.1 177.9c0.2 0 0.4-0.1 0.6-0.3c0.2-0.2 0.3-0.4 0.5-0.8 c0.1-0.3 0.3-0.7 0.3-1.1c0.1-0.4 0.1-0.8 0.1-1.2c0-0.3 0-0.5-0.1-0.7c0-0.2-0.1-0.4-0.2-0.6c-0.1-0.2-0.2-0.3-0.3-0.4 c-0.1-0.1-0.3-0.1-0.5-0.1c-0.2 0-0.5 0.1-0.7 0.3c-0.2 0.2-0.4 0.5-0.6 0.8c-0.2 0.3-0.3 0.7-0.4 1c-0.1 0.4-0.1 0.8-0.1 1.3 c0 0.2 0 0.5 0.1 0.7c0 0.2 0.1 0.4 0.2 0.6c0.1 0.2 0.2 0.3 0.4 0.4C108.7 177.8 108.9 177.9 109.1 177.9"/><path class="st20" d="M114 177.7c0-0.3 0-0.6 0-0.9c0-0.3 0.1-0.7 0.1-1.1c0-0.4 0.1-0.8 0.2-1.2c0.1-0.4 0.2-0.8 0.3-1.3 c0.1-0.4 0.2-0.8 0.3-1.1c0.1-0.3 0.2-0.5 0.2-0.7c0-0.1 0.1-0.2 0.1-0.3c0-0.1 0.1-0.1 0.2-0.2c0.1 0 0.1-0.1 0.2-0.1 c0.1 0 0.2 0 0.3 0c0.1 0 0.3 0 0.4 0c0.1 0 0.1 0 0.2 0.1c0 0.1 0.1 0.1 0.1 0.2c0 0.1 0 0.2 0 0.4c0 0.2 0 0.5 0 0.9 c0 0.4 0 0.7 0 1h0.1c0.1-0.2 0.3-0.5 0.4-0.9c0.2-0.4 0.4-0.7 0.5-0.9c0.2-0.2 0.4-0.5 0.7-0.6c0.2-0.2 0.5-0.3 0.8-0.3 c0.1 0 0.2 0 0.3 0.1c0.1 0 0.2 0.1 0.3 0.2c0.1 0.1 0.1 0.2 0.2 0.3c0 0.1 0.1 0.2 0.1 0.3c0 0.1 0 0.2 0 0.4 c0 0.2-0.1 0.4-0.1 0.7c-0.1 0.3-0.1 0.5-0.1 0.7c0 0.2 0 0.3 0 0.5c0 0.2 0 0.4 0.1 0.5c0 0.1 0.1 0.3 0.2 0.3 c0.1 0.1 0.1 0.1 0.2 0.2c0.1 0 0.2 0.1 0.3 0.1c0.3 0 0.5-0.1 0.8-0.2c0.3-0.1 0.5-0.2 0.8-0.4c0.3-0.2 0.5-0.4 0.8-0.6l-0.1 2 c-0.2 0.1-0.3 0.2-0.5 0.3c-0.2 0.1-0.4 0.2-0.6 0.3c-0.2 0.1-0.4 0.2-0.7 0.3c-0.2 0.1-0.5 0.1-0.7 0.1c-0.4 0-0.8-0.1-1.1-0.3 c-0.3-0.2-0.5-0.4-0.6-0.7c-0.2-0.3-0.3-0.6-0.3-1c-0.1-0.4-0.1-0.7-0.2-1.1h-0.1l-1.6 4.3c-0.1 0.2-0.2 0.4-0.2 0.6 c-0.1 0.1-0.1 0.3-0.2 0.4c-0.1 0.1-0.2 0.2-0.2 0.2c-0.1 0-0.2 0.1-0.3 0.1c-0.2 0-0.4-0.1-0.6-0.2c-0.1-0.1-0.3-0.2-0.3-0.4 c-0.1-0.2-0.1-0.4-0.2-0.6C114 178.2 114 177.9 114 177.7"/><path class="st20" d="M129.8 163.7c1 0 1.8 0.1 2.6 0.4c0.7 0.3 1.4 0.6 1.8 1c0.5 0.4 0.9 0.9 1.1 1.5c0.2 0.6 0.4 1.2 0.4 1.8 c0 0.6-0.1 1.1-0.3 1.7c-0.2 0.6-0.6 1.1-1 1.5c-0.4 0.5-1 0.9-1.7 1.2c-0.7 0.3-1.5 0.6-2.4 0.7c0 0.4 0 0.8 0 1.2 c0 0.1 0 0.3 0 0.5c0 0.2 0 0.3 0 0.4c0 0.1 0 0.2 0 0.3c0 0.1 0 0.2 0 0.2c0 0.4-0.1 0.8-0.1 1.3c-0.1 0.4-0.2 0.9-0.4 1.3 c-0.2 0.4-0.4 0.8-0.6 1.2c-0.2 0.4-0.5 0.7-0.8 1c-0.3 0.3-0.6 0.5-1 0.7c-0.4 0.2-0.8 0.2-1.2 0.2c-0.5 0-0.9-0.1-1.3-0.4 c-0.4-0.2-0.7-0.6-1-1c-0.3-0.4-0.5-0.9-0.7-1.4c-0.2-0.5-0.4-1.1-0.5-1.7c-0.1-0.6-0.2-1.2-0.3-1.8c-0.1-0.6-0.1-1.2-0.1-1.7 c0-0.9 0.1-1.8 0.3-2.6c0.2-0.9 0.4-1.6 0.7-2.4c0.3-0.7 0.7-1.4 1.1-2c0.4-0.6 0.9-1.1 1.5-1.6c0.6-0.4 1.2-0.8 1.8-1 C128.4 163.8 129.1 163.7 129.8 163.7 M124.6 173.5c0 0.2 0 0.6 0 1c0 0.4 0 0.8 0 1.3c0 0.5 0.1 0.9 0.1 1.4 c0.1 0.5 0.2 0.9 0.3 1.3c0.1 0.4 0.3 0.7 0.5 0.9c0.2 0.2 0.4 0.4 0.7 0.4c0.3 0 0.5-0.1 0.8-0.3c0.2-0.2 0.4-0.5 0.5-0.8 c0.1-0.3 0.2-0.7 0.3-1.1c0.1-0.4 0.1-0.8 0.2-1.2c0-0.4 0.1-0.8 0.1-1.2c0-0.4 0-0.7 0-1v-0.4c-0.5-0.2-0.9-0.4-1.1-0.5 c-0.3-0.1-0.5-0.3-0.6-0.4c-0.1-0.1-0.2-0.3-0.3-0.4c0-0.1-0.1-0.3-0.1-0.5c0-0.1 0-0.2 0-0.3c0-0.1 0-0.2 0-0.3 c0-0.1 0.1-0.1 0.1-0.2c0.1-0.1 0.1-0.1 0.2-0.1c0.1 0 0.1 0 0.2 0c0 0 0.1 0.1 0.2 0.1c0.2 0.1 0.4 0.2 0.5 0.3 c0.2 0.1 0.3 0.1 0.4 0.2c0.1 0.1 0.2 0.1 0.3 0.1c0-0.1 0-0.2 0-0.5c0-0.2 0-0.5 0.1-0.8c0-0.3 0.1-0.6 0.2-0.9 c0.1-0.3 0.2-0.6 0.3-0.9c0.1-0.3 0.3-0.5 0.6-0.7c0.2-0.2 0.5-0.3 0.9-0.3c0.1 0 0.2 0 0.3 0c0.1 0 0.2 0.1 0.3 0.1 c0.1 0.1 0.2 0.1 0.2 0.2c0.1 0.1 0.1 0.2 0.1 0.4c0 0 0 0.1 0 0.1c0 0 0 0 0 0.1l-0.5 2.3l-0.1 0.7c0.6-0.1 1.1-0.2 1.5-0.4 c0.4-0.2 0.7-0.4 1-0.7c0.3-0.3 0.5-0.6 0.6-0.9c0.1-0.3 0.2-0.6 0.2-1c0-0.3-0.1-0.7-0.2-1c-0.1-0.3-0.3-0.7-0.6-0.9 c-0.3-0.3-0.7-0.5-1.2-0.7c-0.5-0.2-1.2-0.3-1.9-0.3c-0.6 0-1.1 0.1-1.6 0.3c-0.5 0.2-0.9 0.5-1.3 0.9c-0.4 0.4-0.7 0.8-1 1.3 c-0.3 0.5-0.5 1.1-0.7 1.6c-0.2 0.6-0.3 1.2-0.4 1.8C124.7 172.3 124.6 172.9 124.6 173.5"/><path class="st20" d="M136.7 179.5c-0.3 0-0.6-0.1-0.9-0.4c-0.3-0.3-0.5-0.6-0.7-1.1c-0.2-0.5-0.4-1-0.5-1.6 c-0.1-0.6-0.2-1.2-0.2-1.9c0-0.6 0.1-1.3 0.3-2.3c0.2-0.9 0.2-1.4 0.2-1.4s0.1-0.5 0.4-1.4c0.3-0.9 0.5-1.7 0.8-2.3 c0.3-0.6 0.5-1.1 0.8-1.6c0.3-0.5 0.6-0.9 0.9-1.3c0.3-0.4 0.7-0.7 1-0.9c0.4-0.2 0.7-0.3 1.1-0.3c0.3 0 0.5 0.1 0.7 0.2 c0.2 0.1 0.3 0.2 0.4 0.4c0.1 0.2 0.2 0.4 0.2 0.6c0 0.2 0.1 0.4 0.1 0.6c0 0.5-0.1 1.1-0.2 1.7c-0.1 0.6-0.3 1.1-0.5 1.7 c-0.2 0.6-0.5 1.2-0.8 1.7c-0.3 0.6-0.6 1.1-0.9 1.7c-0.3 0.6-0.6 1.1-0.9 1.7c-0.3 0.6-0.6 1.1-0.9 1.6c0 0.1-0.1 0.1-0.1 0.2 c0 0.1-0.1 0.2-0.1 0.3c0 0.1-0.1 0.2-0.1 0.3c0 0.1-0.1 0.2-0.1 0.4v0.1c0 0.2 0 0.3 0 0.4c0 0.1 0.1 0.3 0.1 0.4 c0 0.1 0.1 0.2 0.1 0.3c0 0.1 0.1 0.1 0.1 0.1c0.1 0 0.2 0 0.4-0.1c0.1 0 0.3-0.1 0.5-0.2c0.2-0.1 0.3-0.2 0.5-0.3 c0.2-0.1 0.3-0.2 0.5-0.3c0.4-0.2 0.8-0.5 1.2-0.9l0.8 1.8c-0.5 0.4-1.1 0.7-1.6 0.9c-0.2 0.1-0.5 0.2-0.7 0.3 c-0.2 0.1-0.5 0.2-0.7 0.3c-0.2 0.1-0.5 0.2-0.7 0.2C137.1 179.5 136.9 179.5 136.7 179.5 M136.7 172.6c0.3-0.5 0.5-1 0.8-1.6 c0.3-0.6 0.6-1.2 0.8-1.8c0.3-0.6 0.5-1.2 0.7-1.9c0.2-0.6 0.3-1.2 0.4-1.7c0-0.2 0-0.3 0-0.4c0-0.1 0-0.2-0.1-0.2 c-0.2 0-0.3 0.1-0.5 0.3c-0.2 0.2-0.4 0.5-0.6 0.9c-0.2 0.4-0.4 1-0.7 1.8c-0.3 0.8-0.4 1.3-0.4 1.3s-0.1 0.4-0.2 1.2 C136.8 171.4 136.8 172.1 136.7 172.6"/><path class="st20" d="M146 171.4c0 0.2 0 0.4 0 0.6c0 0.3 0 0.6-0.1 0.9c-0.1 0.3-0.1 0.7-0.2 1.2c-0.1 0.4-0.2 0.8-0.2 1.1 c-0.1 0.3-0.1 0.6-0.1 0.8c0 0.2-0.1 0.4-0.1 0.5c0 0.2 0 0.3 0 0.4c0 0.1 0 0.3 0 0.4c0 0.1 0.1 0.2 0.1 0.2 c0.1 0.1 0.1 0.1 0.2 0.1c0.1 0 0.3 0 0.5-0.1c0.2-0.1 0.4-0.1 0.6-0.3c0.2-0.1 0.4-0.2 0.6-0.4c0.2-0.1 0.4-0.3 0.6-0.4 c0.2-0.1 0.4-0.3 0.5-0.4c0.2-0.1 0.4-0.3 0.5-0.4c0 0.2-0.1 0.4-0.1 0.5c0 0.2 0 0.3 0 0.4c0 0.1 0 0.3 0 0.4c0 0.2 0 0.3 0 0.5 c-0.1 0.1-0.3 0.3-0.5 0.4c-0.2 0.1-0.4 0.3-0.6 0.4c-0.2 0.1-0.5 0.3-0.7 0.4c-0.3 0.1-0.5 0.2-0.8 0.3c-0.3 0.1-0.5 0.2-0.8 0.2 c-0.2 0.1-0.5 0.1-0.7 0.1c-0.2 0-0.4 0-0.6-0.1c-0.2-0.1-0.3-0.2-0.4-0.4c-0.1-0.2-0.2-0.3-0.3-0.6c-0.1-0.2-0.1-0.5-0.2-0.7 c-0.2 0.3-0.4 0.5-0.7 0.7c-0.2 0.2-0.5 0.4-0.7 0.6c-0.2 0.2-0.5 0.3-0.7 0.4c-0.2 0.1-0.5 0.1-0.7 0.1c-0.2 0-0.4 0-0.5-0.1 c-0.2-0.1-0.3-0.2-0.4-0.3c-0.1-0.1-0.2-0.3-0.3-0.6c-0.1-0.2-0.1-0.6-0.1-0.9c0-0.8 0.1-1.3 0.2-1.7c0.2-0.6 0.3-1.5 0.5-2.6 c0-0.1 0-0.2 0.1-0.4c0-0.1 0.1-0.3 0.1-0.5c0.1-0.2 0.1-0.4 0.2-0.5c0.1-0.2 0.2-0.3 0.3-0.5c0.1-0.1 0.2-0.3 0.4-0.4 c0.1-0.1 0.3-0.1 0.5-0.1c0.3 0 0.5 0.1 0.7 0.1c0.1 0.1 0.2 0.2 0.2 0.3c-0.1 0.4-0.1 0.8-0.2 1.1c-0.1 0.4-0.1 0.7-0.2 1.1 c-0.1 0.4-0.1 0.8-0.2 1.2c-0.1 0.4-0.1 0.8-0.2 1.1c0 0.3-0.1 0.5-0.1 0.7c0 0.2 0 0.3 0 0.3c0 0.1 0 0.2 0 0.3 c0 0.1 0.1 0.2 0.1 0.3c0 0.1 0.1 0.1 0.2 0.2c0.1 0 0.1 0.1 0.2 0.1c0.1 0 0.3 0 0.4-0.1c0.1-0.1 0.3-0.2 0.4-0.3 c0.1-0.1 0.2-0.3 0.3-0.5c0.1-0.2 0.2-0.4 0.2-0.6l1-4.7c0-0.1 0.1-0.3 0.3-0.4c0.2-0.1 0.4-0.1 0.7-0.1c0.3 0 0.5 0.1 0.7 0.2 C145.9 171.1 146 171.3 146 171.4"/><path class="st20" d="M148 176.5c0.3-0.3 0.6-0.5 0.8-0.7c0.2-0.2 0.3-0.5 0.6-0.7c0.2-0.2 0.4-0.5 0.5-0.6 c0.1-0.2 0.3-0.3 0.4-0.6c0.2-0.2 0.4-0.5 0.6-0.8c0.2-0.3 0.5-0.7 0.9-1.2c0.1-0.1 0.2-0.2 0.3-0.3c0.1-0.1 0.2-0.2 0.3-0.3 c0.1-0.1 0.2-0.1 0.4-0.2c0.1 0 0.3-0.1 0.5-0.1c0.3 0 0.5 0 0.6 0.1c0.1 0.1 0.3 0.1 0.3 0.2c0.1 0.1 0.1 0.2 0.1 0.3 c0 0.1 0 0.2 0 0.3c0 0.1-0.1 0.3-0.2 0.5c-0.1 0.2-0.2 0.3-0.4 0.5c-0.1 0.2-0.3 0.3-0.4 0.4c-0.1 0.1-0.2 0.2-0.2 0.3 c0 0.2 0 0.3 0 0.5c0 0.1 0.1 0.3 0.1 0.4c0 0.1 0.1 0.3 0.1 0.5c0 0.2 0.1 0.3 0.1 0.6c0 0.2 0 0.5 0 0.9c0 0.4 0 0.7 0 1.1 c0.2-0.1 0.4-0.3 0.7-0.4c0.2-0.1 0.5-0.2 0.8-0.4c0.3-0.1 0.5-0.3 0.8-0.4c0.3-0.1 0.6-0.3 0.8-0.5l0 2c-0.4 0.3-0.8 0.5-1.2 0.8 c-0.5 0.2-1 0.4-1.5 0.6c-0.5 0.2-1 0.3-1.6 0.4c-0.5 0.1-1 0.2-1.5 0.2c-0.3 0-0.7 0-1-0.1c-0.3-0.1-0.6-0.2-0.8-0.3 c-0.2-0.1-0.4-0.3-0.5-0.5c-0.1-0.2-0.2-0.5-0.3-0.8c-0.1 0-0.2 0-0.2 0c-0.1 0-0.2 0-0.2 0c-0.1 0-0.2 0-0.3 0 c-0.1 0-0.2 0-0.2-0.1c-0.1 0-0.1-0.1-0.1-0.2c0-0.1-0.1-0.2-0.1-0.4c0-0.1 0-0.3 0.1-0.4 M149 177.5c0.1 0 0.1 0 0.2 0.1 c0.1 0.1 0.2 0.2 0.3 0.3c0.1 0.1 0.2 0.2 0.4 0.3c0.1 0.1 0.3 0.1 0.5 0.1c0.2 0 0.4 0 0.6-0.1c0.1-0.1 0.3-0.2 0.4-0.3 c0.1-0.1 0.2-0.3 0.2-0.4c0-0.2 0.1-0.3 0.1-0.5c0-0.2 0-0.3 0-0.5c0-0.2 0-0.4 0-0.6c0-0.2 0-0.4 0-0.6c0-0.1-0.1-0.2-0.1-0.3 L149 177.5z"/></g><g><circle class="st44" cx="328.8" cy="70.5" r="17.6"/><path class="st45" d="M346 73.5C346 73.5 346 73.5 346 73.5c-0.1-0.1-0.1-0.1-0.1-0.2c0 0 0 0-0.1-0.1c0 0 0 0-0.1-0.1 c0 0-0.1-0.1-0.1-0.1c0 0 0 0-0.1-0.1c0 0 0 0-0.1-0.1c0 0-0.1-0.1-0.1-0.1c0 0 0 0-0.1-0.1c0 0 0 0-0.1-0.1c0 0-0.1-0.1-0.1-0.1 c0 0 0 0-0.1-0.1c0 0 0 0-0.1-0.1c0 0-0.1-0.1-0.1-0.1c0 0 0 0-0.1-0.1c0 0 0 0-0.1-0.1c0 0-0.1-0.1-0.1-0.1c0 0 0 0-0.1-0.1 c0 0 0 0-0.1-0.1c0 0-0.1-0.1-0.1-0.1c0 0 0 0-0.1-0.1c0 0 0 0-0.1-0.1c0 0-0.1-0.1-0.1-0.1c0 0 0 0-0.1-0.1c0 0 0 0-0.1-0.1 c0 0-0.1-0.1-0.1-0.1c0 0 0 0-0.1-0.1c0 0 0 0-0.1-0.1c0 0-0.1-0.1-0.1-0.1c0 0 0 0-0.1-0.1c0 0 0 0-0.1-0.1c0 0-0.1-0.1-0.1-0.1 c0 0 0 0-0.1-0.1c0 0 0 0-0.1-0.1c0 0-0.1-0.1-0.1-0.1c0 0 0 0-0.1-0.1c0 0 0 0-0.1-0.1c0 0-0.1-0.1-0.1-0.1c0 0 0 0-0.1-0.1 c0 0 0 0-0.1-0.1c0 0-0.1-0.1-0.1-0.1c0 0 0 0-0.1-0.1c0 0 0 0-0.1-0.1c0 0-0.1-0.1-0.1-0.1c0 0 0 0-0.1-0.1c0 0 0 0-0.1-0.1 c0 0-0.1-0.1-0.1-0.1c0 0 0 0-0.1-0.1c0 0 0 0-0.1-0.1c0 0-0.1-0.1-0.1-0.1c0 0 0 0-0.1-0.1c0 0 0 0-0.1-0.1c0 0-0.1-0.1-0.1-0.1 c0 0 0 0-0.1-0.1c0 0 0 0-0.1-0.1c0 0-0.1-0.1-0.1-0.1c0 0 0 0-0.1-0.1c0 0 0 0-0.1-0.1c0 0-0.1-0.1-0.1-0.1c0 0 0 0-0.1-0.1 c0 0 0 0-0.1-0.1c0 0-0.1-0.1-0.1-0.1c0 0 0 0-0.1-0.1c0 0 0 0-0.1-0.1c0 0-0.1-0.1-0.1-0.1c0 0 0 0-0.1-0.1c0 0 0 0-0.1-0.1 c0 0-0.1-0.1-0.1-0.1c0 0 0 0-0.1-0.1c0 0 0 0-0.1-0.1c0 0-0.1-0.1-0.1-0.1c0 0 0 0-0.1-0.1c0 0 0 0-0.1-0.1c0 0-0.1-0.1-0.1-0.1 c0 0 0 0-0.1-0.1c0 0 0 0-0.1-0.1c0 0-0.1-0.1-0.1-0.1c0 0 0 0-0.1-0.1c0 0 0 0-0.1-0.1c0 0-0.1-0.1-0.1-0.1c0 0 0 0-0.1-0.1 c0 0 0 0-0.1-0.1c0 0-0.1-0.1-0.1-0.1c0 0 0 0-0.1-0.1c0 0 0 0-0.1-0.1c0 0-0.1-0.1-0.1-0.1c0 0 0 0-0.1-0.1c0 0 0 0-0.1-0.1 c0 0-0.1-0.1-0.1-0.1c0 0 0 0-0.1-0.1c0 0 0 0-0.1-0.1c0 0-0.1-0.1-0.1-0.1c0 0 0 0-0.1-0.1c0 0 0 0-0.1-0.1c0 0-0.1-0.1-0.1-0.1 c0 0 0 0-0.1-0.1c0 0 0 0-0.1-0.1c0 0-0.1-0.1-0.1-0.1c0 0 0 0-0.1-0.1c0 0 0 0-0.1-0.1c0 0-0.1-0.1-0.1-0.1c0 0 0 0-0.1-0.1 c0 0 0 0-0.1-0.1c0 0-0.1-0.1-0.1-0.1c0 0 0 0-0.1-0.1c0 0 0 0-0.1-0.1c0 0-0.1-0.1-0.1-0.1c0 0 0 0-0.1-0.1c0 0 0 0-0.1-0.1 c0 0-0.1-0.1-0.1-0.1c0 0 0 0-0.1-0.1c0 0 0 0-0.1-0.1c0 0-0.1-0.1-0.1-0.1c0 0 0 0-0.1-0.1c0 0 0 0-0.1-0.1c0 0-0.1-0.1-0.1-0.1 c0 0 0 0-0.1-0.1c0 0 0 0-0.1-0.1c0 0-0.1-0.1-0.1-0.1c0 0 0 0-0.1-0.1c0 0 0 0-0.1-0.1c0 0-0.1-0.1-0.1-0.1c0 0 0 0-0.1-0.1 c0 0 0 0-0.1-0.1c0 0-0.1-0.1-0.1-0.1c0 0 0 0-0.1-0.1c0 0 0 0-0.1-0.1c0 0-0.1-0.1-0.1-0.1c0 0 0 0-0.1-0.1c0 0 0 0-0.1-0.1 c0 0-0.1-0.1-0.1-0.1c0 0 0 0-0.1-0.1c0 0 0 0-0.1-0.1c0 0-0.1-0.1-0.1-0.1c0 0 0 0-0.1-0.1c0 0 0 0-0.1-0.1c0 0-0.1-0.1-0.1-0.1 c0 0 0 0-0.1-0.1c0 0 0 0-0.1-0.1c0 0-0.1-0.1-0.1-0.1c0 0 0 0-0.1-0.1c0 0 0 0-0.1-0.1c0 0-0.1-0.1-0.1-0.1c0 0 0 0-0.1-0.1 c0 0 0 0-0.1-0.1c0 0-0.1-0.1-0.1-0.1c0 0 0 0-0.1-0.1c0 0 0 0-0.1-0.1c0 0-0.1-0.1-0.1-0.1c0 0 0 0-0.1-0.1c0 0 0 0-0.1-0.1 c0 0-0.1-0.1-0.1-0.1c0 0 0 0-0.1-0.1c0 0 0 0-0.1-0.1c0 0-0.1-0.1-0.1-0.1c0 0 0 0-0.1-0.1c0 0 0 0-0.1-0.1c0 0-0.1-0.1-0.1-0.1 c0 0 0 0-0.1-0.1c0 0 0 0-0.1-0.1c0 0-0.1-0.1-0.1-0.1c0 0 0 0-0.1-0.1c0 0 0 0-0.1-0.1c0 0-0.1-0.1-0.1-0.1c0 0 0 0-0.1-0.1 c0 0 0 0-0.1-0.1c0 0-0.1-0.1-0.1-0.1c0 0 0 0-0.1-0.1c0 0 0 0-0.1-0.1c0 0-0.1-0.1-0.1-0.1c0 0 0 0-0.1-0.1c0 0 0 0-0.1-0.1 c0 0-0.1-0.1-0.1-0.1c0 0 0 0-0.1-0.1c0 0 0 0-0.1-0.1c0 0-0.1-0.1-0.1-0.1c0 0 0 0-0.1-0.1c0 0 0 0-0.1-0.1c0 0-0.1-0.1-0.1-0.1 c0 0-0.1-0.1-0.1-0.1c0 0-0.1-0.1-0.1-0.1c0 0-0.1-0.1-0.1-0.1c0 0-0.1 0-0.1-0.1c-0.1 0-0.1-0.1-0.2-0.1c0 0 0 0-0.1 0 c-0.1 0-0.1-0.1-0.2-0.1v0c-0.8-0.5-1.9-0.8-3.2-0.8c-3.1 0-5 1.9-5.9 3.7c-1 1.8-1.3 3.6-1.3 3.6c0 0.2 0.1 0.5 0.3 0.6 c0.1 0.1 0.1 0.2 0.2 0.2c0 0.1 0.1 0.2 0.2 0.2c0.1 0.1 0.1 0.2 0.2 0.2c0.1 0.1 0.1 0.2 0.2 0.2c0.1 0.1 0.1 0.2 0.2 0.2 c0.1 0.1 0.1 0.2 0.2 0.2c0.1 0.1 0.1 0.2 0.2 0.2c0 0.1 0.1 0.2 0.2 0.2c0.1 0.1 0.1 0.2 0.2 0.2c0.1 0.1 0.1 0.2 0.2 0.2 c0.1 0.1 0.1 0.2 0.2 0.2c0 0.1 0.1 0.2 0.2 0.2c0.1 0.1 0.1 0.2 0.2 0.2c0 0.1 0.1 0.2 0.2 0.2c0.2 0.3 0.3 0.7 0.3 1 c0 0.1 0 0.1 0 0.2c-0.1 0.4-0.2 0.6-0.5 0.9c-0.2 0.3-0.5 0.5-0.5 0.9c0 0.2 0.1 0.4 0.3 0.5c0 0 0.1 0.1 0.1 0.1 c0 0 0.1 0.1 0.1 0.1c0 0 0.1 0.1 0.1 0.1c0 0 0.1 0.1 0.1 0.1c0 0 0.1 0.1 0.1 0.1c0 0 0.1 0.1 0.1 0.1c0 0 0.1 0.1 0.1 0.1 c0 0 0.1 0.1 0.1 0.1c0 0 0.1 0.1 0.1 0.1c0 0 0.1 0.1 0.1 0.1c0 0 0.1 0.1 0.1 0.1c0 0 0.1 0.1 0.1 0.1c0 0 0.1 0.1 0.1 0.1 c0 0 0.1 0.1 0.1 0.1c0 0 0.1 0.1 0.1 0.1c0 0 0.1 0.1 0.1 0.1c0 0 0.1 0.1 0.1 0.1c0 0 0 0 0 0c-0.2 0.3-0.3 0.6-0.3 0.9 c0 0.2 0 0.4 0.1 0.5c0 0.1 0.1 0.2 0.2 0.2c0 0 0 0 0 0c0 0.1 0.1 0.2 0.2 0.2c0 0 0 0 0 0c0 0.1 0.1 0.2 0.2 0.2c0 0 0 0 0 0 c0 0.1 0.1 0.2 0.2 0.2c0 0 0 0 0 0c0 0.1 0.1 0.2 0.2 0.2c0 0 0 0 0 0c0 0.1 0.1 0.2 0.2 0.2c0 0 0 0 0 0c0 0.1 0.1 0.2 0.2 0.2 c0 0 0 0 0 0c0 0.1 0.1 0.2 0.2 0.2c0 0 0 0 0 0c0 0.1 0.1 0.2 0.2 0.2c0 0 0 0 0 0c0 0.1 0.1 0.2 0.2 0.2c0 0 0 0 0 0 c0 0.1 0.1 0.2 0.2 0.2c0 0 0 0 0 0c0 0.1 0.1 0.2 0.2 0.2c0 0 0 0 0 0c0 0.1 0.1 0.2 0.2 0.2c-0.2 0.1-0.3 0.2-0.5 0.3 c0 0-0.1-0.1-0.1-0.1c-0.1-0.1-0.1-0.2-0.2-0.2c-0.1-0.1-0.1-0.2-0.2-0.2c-0.1-0.1-0.1-0.2-0.2-0.2c-0.1-0.1-0.1-0.2-0.2-0.2 c-0.1-0.1-0.1-0.2-0.2-0.2c-0.1-0.1-0.1-0.2-0.2-0.2c-0.1-0.1-0.1-0.2-0.2-0.2c-0.1-0.1-0.1-0.2-0.2-0.2c-0.1-0.1-0.1-0.2-0.2-0.2 c-0.1-0.1-0.1-0.2-0.2-0.2c-0.1-0.1-0.1-0.2-0.2-0.2c-0.1-0.1-0.1-0.2-0.2-0.2c-0.1-0.1-0.1-0.2-0.2-0.2c-0.1-0.1-0.1-0.2-0.2-0.2 c-0.1-0.1-0.1-0.2-0.2-0.2c0-0.1-0.1-0.2-0.2-0.2c-0.1-0.1-0.1-0.2-0.2-0.2c-0.1-0.2-0.3-0.3-0.5-0.3c-0.3 0-0.6 0.3-0.6 0.6 c0 0 0 1.1 0.5 2.2c0.1 0.3 0.3 0.6 0.5 0.9c0 0 0 0 0 0c0.1 0.1 0.2 0.3 0.4 0.4c0 0 0 0 0 0c0 0 0.1 0.1 0.1 0.1c0 0 0 0 0 0 c0 0 0 0 0.1 0.1c0 0 0 0 0 0c0 0 0.1 0.1 0.1 0.1c0 0 0 0 0 0c0 0 0 0 0 0c0 0 0 0 0 0c0 0 0.1 0.1 0.1 0.1c0 0 0 0 0 0 c0 0 0 0 0.1 0.1c0 0 0 0 0 0c0 0 0.1 0.1 0.1 0.1c0 0 0 0 0 0c0 0 0 0 0.1 0.1c0 0 0 0 0 0c0 0 0.1 0.1 0.1 0.1c0 0 0 0 0 0 c0 0 0 0 0.1 0.1c0 0 0 0 0 0c0 0 0.1 0.1 0.1 0.1c0 0 0 0 0 0c0 0 0 0 0.1 0.1c0 0 0 0 0 0c0 0 0.1 0.1 0.1 0.1c0 0 0 0 0 0 c0 0 0 0 0.1 0.1c0 0 0 0 0 0c0 0 0.1 0.1 0.1 0.1c0 0 0 0 0 0c0 0 0 0 0.1 0.1c0 0 0 0 0 0c0 0 0.1 0.1 0.1 0.1c0 0 0 0 0 0 c0 0 0 0 0.1 0.1c0 0 0 0 0 0c0 0 0.1 0.1 0.1 0.1c0 0 0 0 0 0c0 0 0 0 0.1 0.1c0 0 0 0 0 0c0 0 0.1 0.1 0.1 0.1c0 0 0 0 0 0 c0 0 0 0 0.1 0.1c0 0 0 0 0 0c0 0 0.1 0.1 0.1 0.1c0 0 0 0 0 0c0 0 0 0 0.1 0.1c0 0 0 0 0 0c0 0 0.1 0.1 0.1 0.1c0 0 0 0 0 0 c0 0 0 0 0.1 0.1c0 0 0 0 0 0c0 0 0.1 0.1 0.1 0.1c0 0 0 0 0 0c0 0 0 0 0.1 0.1c0 0 0 0 0 0c0 0 0.1 0.1 0.1 0.1c0 0 0 0 0 0 c0 0 0 0 0.1 0.1c0 0 0 0 0 0c0 0 0.1 0.1 0.1 0.1c0 0 0 0 0 0c0 0 0 0 0.1 0.1c0 0 0 0 0 0c0 0 0.1 0.1 0.1 0.1c0 0 0 0 0 0 c0 0 0 0 0.1 0.1c0 0 0 0 0 0c0 0 0.1 0.1 0.1 0.1c0 0 0 0 0 0c0 0 0 0 0.1 0.1c0 0 0 0 0 0c0 0 0.1 0.1 0.1 0.1c0 0 0 0 0 0 c0 0 0 0 0.1 0.1c0 0 0 0 0 0c0 0 0.1 0.1 0.1 0.1c0 0 0 0 0 0c0 0 0 0 0.1 0.1c0 0 0 0 0 0c0 0 0.1 0.1 0.1 0.1c0 0 0 0 0 0 c0 0 0 0 0.1 0.1c0 0 0 0 0 0c0 0 0.1 0.1 0.1 0.1c0 0 0 0 0 0c0 0 0 0 0.1 0.1c0 0 0 0 0 0c0 0 0.1 0.1 0.1 0.1c0 0 0 0 0 0 c0 0 0 0 0.1 0.1c0 0 0 0 0 0c0 0 0.1 0.1 0.1 0.1c0 0 0 0 0 0c0 0 0 0 0.1 0.1c0 0 0 0 0 0c0 0 0.1 0.1 0.1 0.1c0 0 0 0 0 0 c0 0 0 0 0.1 0.1c0 0 0 0 0 0c0 0 0.1 0.1 0.1 0.1c0 0 0 0 0 0c0 0 0 0 0.1 0.1c0 0 0 0 0 0c0 0 0.1 0.1 0.1 0.1c0 0 0 0 0 0 c0 0 0 0 0.1 0.1c0 0 0 0 0 0c0 0 0.1 0.1 0.1 0.1c0 0 0 0 0 0c0 0 0 0 0.1 0.1c0 0 0 0 0 0c0 0 0.1 0.1 0.1 0.1c0 0 0 0 0 0 c0 0 0 0 0.1 0.1c0 0 0 0 0 0c0 0 0.1 0.1 0.1 0.1c0 0 0 0 0 0c0 0 0 0 0.1 0.1c0 0 0 0 0 0c0 0 0.1 0.1 0.1 0.1c0 0 0 0 0 0 c0 0 0 0 0.1 0.1c0 0 0 0 0 0c0 0 0.1 0.1 0.1 0.1c0 0 0 0 0 0c0 0 0 0 0.1 0.1c0 0 0 0 0 0c0 0 0.1 0.1 0.1 0.1c0 0 0 0 0 0 c0 0 0 0 0.1 0.1c0 0 0 0 0 0c0 0 0.1 0.1 0.1 0.1c0 0 0 0 0 0c0 0 0 0 0.1 0.1c0 0 0 0 0 0c0 0 0.1 0.1 0.1 0.1c0 0 0 0 0 0 c0 0 0 0 0 0.1c6.8-1.6 12.1-7.1 13.4-14C346.1 73.6 346.1 73.6 346 73.5C346.1 73.6 346 73.5 346 73.5z"/><path class="st20" d="M326.4 71.7c0-0.1 0-0.2 0-0.3c0-1.4-1.6-2.7-1.6-2.7c-0.1-0.1-0.3-0.1-0.4 0c-0.1 0.1-0.1 0.3 0 0.4 c0 0 0.1 0.1 0.2 0.2c0.4 0.4 1.2 1.3 1.1 2.1c0 0.1 0 0.1 0 0.2c-0.1 0.4-0.2 0.6-0.5 0.9c-0.2 0.3-0.5 0.5-0.5 0.9 c0 0.2 0.1 0.4 0.3 0.5c0.2 0.1 0.4 0.3 0.6 0.4c0.3 0.1 0.5 0.2 0.8 0.2c0.7 0 1-0.6 1.2-1c0.2-0.5 0.4-0.8 0.5-0.8 c0.7-0.2 2.1-1 2.1-2.7c0-0.5-0.1-1.2-0.5-1.9c-0.6-1.4-1.6-1.9-2.4-1.9c-0.9 0-1.6 0.5-1.6 0.5c0 0 0 0 0 0 c-0.4-0.4-0.7-0.9-0.7-1.3c0-0.2 0-0.3 0.1-0.5c1-1.6 2.3-2.8 3.3-2.8c0.1 0 0.2 0 0.3 0c0.4 0.1 0.9 0.3 1.4 0.6 c0 0-0.1 0.1-0.1 0.2c0 0 0 0.2 0 0.4c0 0.5 0.1 1.5 0.5 2.3c0.5 0.9 1 2.3 1 3.9c0 0.3 0 0.6 0 0.8c-0.1 1-0.3 1.8-0.6 2.4 c-0.4 0.6-0.9 1-1.9 1.4l0 0c0 0 0 0-0.1 0c-1.8 0.6-2.5 1.4-2.5 2.3c0 0.2 0 0.4 0.1 0.5c0 0.1 0.2 0.2 0.3 0.2c0 0 0.1 0 0.1 0 c0.2-0.1 0.2-0.2 0.2-0.4c0-0.1-0.1-0.2-0.1-0.3c0-0.5 0.4-1.1 2.1-1.7c0.1 0 0.1-0.1 0.2-0.1v0c1-0.4 1.7-0.9 2.1-1.6 c0.4-0.7 0.6-1.6 0.7-2.7c0-0.3 0-0.6 0-0.9c0-1.4-0.3-2.7-0.8-3.6c0.1 0.1 0.3 0.1 0.4 0c0.1-0.2 0.3-0.3 0.3-0.5l0 0 c0 0 0-0.1 0.1-0.1c0 0 0 0 0 0c0 0 0-0.1 0-0.1c0 0 0 0 0 0c0 0 0-0.1 0-0.1c0 0 0-0.1 0-0.1c0 0 0 0 0-0.1c0 0 0-0.1 0-0.2 c0-0.8-0.6-1.5-1.3-2c-0.7-0.5-1.5-0.9-2.1-1c-0.1 0-0.3 0-0.4 0c-1.5 0-2.8 1.4-3.8 3.1c0 0.1-0.1 0.1-0.1 0.2 c0 0.1 0 0.1-0.1 0.2c0 0 0 0 0 0.1c0 0 0 0.1 0 0.1c0 0 0 0 0 0.1c0 0.1 0 0.1 0 0.2c0 0.1 0 0.1 0 0.2c0 0 0 0 0 0.1 c0 0.1 0 0.1 0 0.1c0 0 0 0 0 0.1c0 0 0 0.1 0.1 0.1c0 0 0 0 0 0.1c0 0.1 0.1 0.1 0.1 0.2c0 0 0 0 0 0c0 0.1 0.1 0.1 0.1 0.2 c0 0 0 0 0 0.1c0 0 0.1 0.1 0.1 0.1c0 0 0 0 0 0.1c0 0 0.1 0.1 0.1 0.1c0 0 0 0 0 0c0.1 0.1 0.1 0.1 0.2 0.2c0 0 0 0 0 0l0 0 c0.3 0.3 0.6 0.5 0.9 0.8c0.9 0.6 1.7 1 1.7 1c0 0 0.1 0 0.1 0c0.1 0 0.2-0.1 0.3-0.2c0.1-0.1 0-0.3-0.1-0.4c0 0-0.8-0.4-1.7-1 c-0.1-0.1-0.3-0.2-0.4-0.3c0.2-0.1 0.7-0.4 1.2-0.4c0.6 0 1.3 0.3 1.9 1.5c0.3 0.7 0.4 1.2 0.4 1.6c0 1.4-1.1 2-1.7 2.2 c-0.6 0.2-0.7 0.7-0.9 1.1c-0.2 0.4-0.4 0.7-0.7 0.7c-0.1 0-0.3 0-0.5-0.1c-0.3-0.1-0.4-0.2-0.5-0.3c-0.1-0.1-0.1-0.1-0.1-0.1 c0 0 0.1-0.2 0.4-0.5C326 72.6 326.3 72.2 326.4 71.7z M330.8 63.2c0.6 0.5 1.1 1 1 1.6c0 0.3-0.1 0.5-0.4 0.8 c0 0.1-0.1 0.1-0.1 0.2c-0.1-0.1-0.1-0.2-0.2-0.3c-0.4-0.6-0.4-1.5-0.4-2C330.8 63.3 330.8 63.2 330.8 63.2z M324.5 69.2 L324.5 69.2L324.5 69.2L324.5 69.2z M335.4 66.1c0 0.7-0.1 1.3-0.2 1.6c-0.4 1.4-1.6 5.4-2.3 7.2c-0.2 0.6-0.5 1.6-0.8 2.6 c-0.4 1-0.9 2.1-1.7 2.9c-0.6 0.5-1.4 0.8-2.3 0.8c0 0 0 0 0 0c-0.1 0-0.2 0-0.3 0c0 0-0.1 0-0.1 0c-0.1 0-0.1 0-0.2 0 c0 0-0.1 0-0.1 0c-0.1 0-0.1 0-0.2 0c0 0 0 0-0.1 0c-0.1 0-0.2-0.1-0.2-0.1c0 0-0.1 0-0.1 0c-0.1 0-0.1 0-0.2-0.1c0 0-0.1 0-0.1 0 c0 0-0.1 0-0.1-0.1c0 0-0.1 0-0.1-0.1c-0.1 0-0.1-0.1-0.2-0.1c0 0-0.1-0.1-0.1-0.1c0 0-0.1 0-0.1-0.1c0 0-0.1-0.1-0.1-0.1 c0 0 0 0-0.1-0.1c0 0-0.1-0.1-0.1-0.1c0 0 0 0 0 0c-0.1-0.1-0.2-0.3-0.4-0.4c0 0 0 0 0 0c-0.2-0.3-0.4-0.6-0.5-0.9 c-0.5-1.1-0.5-2.2-0.5-2.2c0-0.3 0.2-0.6 0.6-0.6c0.3 0 0.6 0.2 0.6 0.6c0 0 0 0 0 0.1c0 0.1 0 0.2 0.1 0.4 c0.1 0.3 0.2 0.8 0.4 1.3c0 0.1 0.1 0.2 0.1 0.3c0 0 0 0.1 0.1 0.1c0 0 0 0 0 0c0 0 0 0.1 0.1 0.1c0 0 0 0 0 0c0 0 0 0.1 0.1 0.1 c0 0 0 0 0 0c0.1 0.2 0.2 0.3 0.4 0.4c0 0 0 0 0 0c0 0 0.1 0 0.1 0.1c0 0 0 0 0.1 0c0 0 0 0 0.1 0.1c0 0 0 0 0.1 0 c0 0 0.1 0 0.1 0c0 0 0 0 0.1 0c0 0 0.1 0 0.1 0c0 0 0.1 0 0.1 0c0 0 0.1 0 0.1 0c0 0 0.1 0 0.1 0c0 0 0.1 0 0.1 0 c0 0 0.1 0 0.1 0c0 0 0.1 0 0.1 0c0 0 0.1 0 0.1 0c0 0 0 0 0.1 0c0.1 0 0.1 0 0.2 0c0.6 0 1.1-0.2 1.5-0.6c0.4-0.4 0.7-0.9 1-1.5 c0.6-1.2 0.9-2.7 1.2-3.6c0.7-1.7 1.9-5.8 2.3-7.1c0.1-0.2 0.1-0.7 0.1-1.3c0-1.1-0.2-2.5-0.9-3.5c0-0.1-0.1-0.1-0.1-0.2 c0 0 0 0 0 0c0-0.1-0.1-0.1-0.1-0.2c0 0 0 0 0 0c-0.1-0.1-0.1-0.1-0.2-0.2l0 0c-0.1-0.1-0.1-0.1-0.2-0.2c-0.7-0.6-1.7-1-3.1-1 c-2.2 0-3.6 1.2-4.6 2.5c-0.9 1.4-1.3 2.9-1.4 3.5c0 0.2 0 0.3 0 0.3l0 0c0 0.3-0.3 0.5-0.7 0.5c-0.3 0-0.5-0.3-0.5-0.7 c0 0 0.3-1.8 1.3-3.6c1-1.8 2.9-3.7 5.9-3.7c1.3 0 2.4 0.3 3.2 0.8v0c0.1 0 0.1 0.1 0.2 0.1c0 0 0 0 0.1 0c0.1 0 0.1 0.1 0.2 0.1 c0 0 0.1 0 0.1 0.1c0 0 0.1 0.1 0.1 0.1c0 0 0.1 0.1 0.1 0.1c0 0 0.1 0.1 0.1 0.1c0 0 0.1 0.1 0.1 0.1c0 0 0.1 0.1 0.1 0.1 c0 0 0.1 0.1 0.1 0.1c0 0 0.1 0.1 0.1 0.1c0 0 0.1 0.1 0.1 0.1c0 0 0 0.1 0.1 0.1c0.1 0.1 0.1 0.2 0.2 0.2 C335.2 63.3 335.4 64.9 335.4 66.1z"/></g></g></svg>