<svg xmlns="http://www.w3.org/2000/svg" xmlns:xlink="http://www.w3.org/1999/xlink" version="1.1" id="Layer_1" x="0px" y="0px" viewBox="0 0 411 200" xml:space="preserve" class="style0"><style>.style0{enable-background:	new 0 0 411 200;}.style1{overflow:	visible;}.style2{stop-color:	#F3D3A2;}.style3{stop-color:	#EDB676;}.style4{stop-color:	#9E5430;}.style5{stop-color:	#E1851B;}.style6{stop-color:	#F08A7B;}.style7{stop-color:	#EA676C;}</style><style type="text/css">.st0{fill:none;stroke:#FFFFFF;stroke-width:1.4041;stroke-miterlimit:10;}.st1{fill:#45BFE0;}.st2{fill:#767676;}.st3{fill:#5E5E5E;}.st4{fill:#424242;}.st5{fill:#1C1C1C;}.st6{fill:#D5EAF0;}.st7{fill:#E9F4F7;}.st8{opacity:0.7;}.st9{clip-path:url(#SVGID_1_);}.st10{fill:#CACACA;}.st11{fill:#808080;}.st12{fill:#808184;}.st13{fill:#666666;}.st14{fill:#BDD1DE;}.st15{fill:#FFFFFF;}.st16{fill:#96DCF9;}.st17{fill:#63CBF6;}.st18{fill:#32BAF3;}.st19{fill:#329FDE;}.st20{fill:#DEE3E5;}.st21{fill:#F23243;}.st22{fill:#8BB168;}.st23{fill:#A1CF80;}.st24{fill:#C03243;}.st25{fill:#C2C8CA;}.st26{fill:#C23243;}.st27{fill:#C4F0FA;stroke:#FFFFFF;stroke-width:1.4041;stroke-miterlimit:10;}.st28{fill:#7C5128;}.st29{fill:url(#SVGID_3_);}.st30{fill:url(#SVGID_4_);}.st31{fill:url(#SVGID_5_);}.st32{fill:url(#SVGID_6_);}.st33{fill:url(#SVGID_7_);}.st34{fill:url(#SVGID_8_);}.st35{opacity:0.36;fill:#BBBDBF;}</style><g><g><line class="st0" x1="43.3" y1="23.5" x2="42.4" y2="22.9"/></g></g><g><path class="st1" d="M7.4 180v-20.9h3.2v-18.7l1.2-1.2v-5h3.7v-3h2.4v3h3.6v5l1.2 1.2v18.7h3.2v20.7h3c0-0.7-0.1-1.7 0-3.2 c0-1.4 0-3 0-4.8c0-1.8 0-3.7 0.1-5.7c0-2 0.1-3.9 0.1-5.7c0-1.8 0.1-3.4 0.1-4.8c0-1.4 0.1-2.5 0.1-3.1c0-0.9 0.1-2 0.3-3.5 c0.1-1.5 0.3-3 0.4-4.7c0.1-1.7 0.3-3.3 0.5-5.1c0.2-1.7 0.4-3.3 0.5-4.8c0.1-1.5 0.3-2.7 0.4-3.7c0.1-1 0.2-1.7 0.3-2l0.4-1.6h4.8 l2.8 31.5h5v2.6h6.2c0 0 0.1 0 0.2-0.1c0.1-0.1 0.1-0.2 0.2-0.3c0-0.1 0.2-0.3 0.4-0.7c0.2-0.4 0.4-0.8 0.7-1.3 c0.2-0.4 0.4-0.9 0.6-1.3c0.2-0.4 0.3-0.7 0.3-0.8c0.1-0.1 0.2-0.2 0.3-0.3c0.1-0.1 0.1-0.2 0.2-0.2h4.6v-3.2h5.4v-9.3H68V138h9.6 v5.8h4v9.3H87l0.8 29.5h5v-33.9h3.6v-19.5h6.2v59H4V180H7.4z M9.2 162.1H10v-1.2H9.2V162.1z M9.2 166.9H10v-1.6H9.2V166.9z M9.2 171.4H10v-1.3H9.2V171.4z M9.2 175.8H10v-1.3H9.2V175.8z M9.2 180.2H10V179H9.2V180.2z M11.6 150.5H12v-1.6h-0.4V150.5z M12 157.3h0.4v-1.2H12V157.3z M12 162.1h0.4v-1.2H12V162.1z M12 166.9h0.4v-1.6H12V166.9z M12 171.4h0.4v-1.3H12V171.4z M12 175.8 h0.4v-1.3H12V175.8z M12 180.2h0.4V179H12V180.2z M12.8 137.7h0.4V136h-0.4V137.7z M12.8 142.8h0.4v-1.6h-0.4V142.8z M13.2 153.3 H14v-1.6h-0.8V153.3z M14.8 142.8h0.4v-1.6h-0.4V142.8z M14.8 145.3h0.4v-1.6h-0.4V145.3z M14.8 166.9h0.4v-1.6h-0.4V166.9z M14.8 175.8h0.4v-1.3h-0.4V175.8z M14.8 180.2h0.4V179h-0.4V180.2z M15.2 153.3h0.4v-1.6h-0.4V153.3z M15.2 157.3h0.4v-1.2h-0.4 V157.3z M16.8 142.8h0.4v-1.6h-0.4V142.8z M16.8 145.3h0.4v-1.6h-0.4V145.3z M17.2 137.7h0.4V136h-0.4V137.7z M17.6 162.1H18v-1.2 h-0.4V162.1z M17.6 171.4H18v-1.3h-0.4V171.4z M17.6 180.2H18V179h-0.4V180.2z M18.8 142.8h0.8v-1.6h-0.8V142.8z M18.8 147.2h0.8 v-1.2h-0.8V147.2z M18.8 153.3h0.8v-1.6h-0.8V153.3z M19.6 137.7H20V136h-0.4V137.7z M20.4 171.4h0.4v-1.3h-0.4V171.4z M20.4 175.8 h0.4v-1.3h-0.4V175.8z M20.4 180.2h0.4V179h-0.4V180.2z M23.2 162.1h0.4v-1.2h-0.4V162.1z M23.2 166.9h0.4v-1.6h-0.4V166.9z M23.2 171.4h0.4v-1.3h-0.4V171.4z M23.2 175.8h0.4v-1.3h-0.4V175.8z M23.2 180.2h0.4V179h-0.4V180.2z M30.9 182.6h0.8v-1.2h-0.8 V182.6z M32.6 143c0.4 0.5 1 0.7 1.7 0.7c0.7 0 1.3-0.2 1.8-0.7c0.5-0.5 0.8-1.1 0.8-1.8c0-0.7-0.3-1.3-0.8-1.8 c-0.5-0.5-1.2-0.7-1.8-0.7c-0.7 0-1.3 0.2-1.7 0.7c-0.4 0.5-0.6 1.1-0.6 1.8C32 142 32.2 142.6 32.6 143z M37.3 164.5h0.4v-1.2 h-0.4V164.5z M37.3 169.4h0.4v-1.6h-0.4V169.4z M37.3 173.8h0.4v-1.2h-0.4V173.8z M37.3 178.2h0.4V177h-0.4V178.2z M37.3 182.6h0.4 v-1.2h-0.4V182.6z M40.5 169.4h0.4v-1.6h-0.4V169.4z M40.5 173.8h0.4v-1.2h-0.4V173.8z M40.5 178.2h0.4V177h-0.4V178.2z M40.5 182.6h0.4v-1.2h-0.4V182.6z M43.7 164.5h0.4v-1.2h-0.4V164.5z M43.7 169.4h0.4v-1.6h-0.4V169.4z M43.7 178.2h0.4V177h-0.4 V178.2z M43.7 182.6h0.4v-1.2h-0.4V182.6z M46.5 173.8h0.8v-1.2h-0.8V173.8z M50.1 164.5h0.4v-1.2h-0.4V164.5z M50.1 173.8h0.4 v-1.2h-0.4V173.8z M50.1 178.2h0.4V177h-0.4V178.2z M53.3 160.1h0.4v-1.2h-0.4V160.1z M53.3 182.6h0.4v-1.2h-0.4V182.6z M56.1 160.1H57v-1.2h-0.8V160.1z M56.1 164.5H57v-1.2h-0.8V164.5z M56.1 169.4H57v-1.6h-0.8V169.4z M56.1 173.8H57v-1.2h-0.8 V173.8z M56.1 182.6H57v-1.2h-0.8V182.6z M59.7 155.7h0.4v-1.2h-0.4V155.7z M59.7 169.4h0.4v-1.6h-0.4V169.4z M59.7 173.8h0.4v-1.2 h-0.4V173.8z M59.7 178.2h0.4V177h-0.4V178.2z M59.7 182.6h0.4v-1.2h-0.4V182.6z M62.6 155.7h0.8v-1.2h-0.8V155.7z M62.6 160.1h0.8 v-1.2h-0.8V160.1z M62.6 164.5h0.8v-1.2h-0.8V164.5z M62.6 169.4h0.8v-1.6h-0.8V169.4z M62.6 182.6h0.8v-1.2h-0.8V182.6z M65.8 146.9h0.8v-1.6h-0.8V146.9z M65.8 151.3h0.8v-1.2h-0.8V151.3z M65.8 164.5h0.8v-1.2h-0.8V164.5z M65.8 173.8h0.8v-1.2h-0.8 V173.8z M68.6 146.9h0.8v-1.6h-0.8V146.9z M68.6 151.3h0.8v-1.2h-0.8V151.3z M68.6 155.7h0.8v-1.2h-0.8V155.7z M68.6 160.1h0.8 v-1.2h-0.8V160.1z M68.6 169.4h0.8v-1.6h-0.8V169.4z M68.6 178.2h0.8V177h-0.8V178.2z M71.4 151.3h0.8v-1.2h-0.8V151.3z M71.4 155.7h0.8v-1.2h-0.8V155.7z M71.4 160.1h0.8v-1.2h-0.8V160.1z M71.4 164.5h0.8v-1.2h-0.8V164.5z M71.4 178.2h0.8V177h-0.8 V178.2z M71.4 182.6h0.8v-1.2h-0.8V182.6z M74.2 146.9h0.4v-1.6h-0.4V146.9z M74.2 155.7h0.4v-1.2h-0.4V155.7z M74.2 164.5h0.4 v-1.2h-0.4V164.5z M74.2 169.4h0.4v-1.6h-0.4V169.4z M74.2 182.6h0.4v-1.2h-0.4V182.6z M77 146.9h0.4v-1.6H77V146.9z M77 155.7h0.4 v-1.2H77V155.7z M77 160.1h0.4v-1.2H77V160.1z M77 169.4h0.4v-1.6H77V169.4z M77 173.8h0.4v-1.2H77V173.8z M77 182.6h0.4v-1.2H77 V182.6z M79.4 146.9h0.8v-1.6h-0.8V146.9z M79.4 151.3h0.8v-1.2h-0.8V151.3z M79.4 155.7h0.8v-1.2h-0.8V155.7z M79.4 160.1h0.8 v-1.2h-0.8V160.1z M79.4 164.5h0.8v-1.2h-0.8V164.5z M79.4 173.8h0.8v-1.2h-0.8V173.8z M79.4 178.2h0.8V177h-0.8V178.2z M79.4 182.6h0.8v-1.2h-0.8V182.6z M82.6 160.1h0.8v-1.2h-0.8V160.1z M82.6 169.4h0.8v-1.6h-0.8V169.4z M82.6 173.8h0.8v-1.2h-0.8 V173.8z M82.6 178.2h0.8V177h-0.8V178.2z M85.5 160.1h0.8v-1.2h-0.8V160.1z M85.5 164.5h0.8v-1.2h-0.8V164.5z M85.5 169.4h0.8v-1.6 h-0.8V169.4z M85.5 173.8h0.8v-1.2h-0.8V173.8z M85.5 178.2h0.8V177h-0.8V178.2z M85.5 182.6h0.8v-1.2h-0.8V182.6z M94.7 153.3h0.8 v-1.6h-0.8V153.3z M94.7 162.1h0.8v-1.2h-0.8V162.1z M94.7 166.9h0.8v-1.6h-0.8V166.9z M94.7 171.4h0.8v-1.3h-0.8V171.4z M94.7 175.8h0.8v-1.3h-0.8V175.8z M94.7 180.2h0.8V179h-0.8V180.2z M97.9 140.4h0.8v-1.2h-0.8V140.4z M97.9 144.9h0.8v-1.6h-0.8 V144.9z M97.9 148.9h0.8v-1.2h-0.8V148.9z M97.9 153.3h0.8v-1.6h-0.8V153.3z M97.9 157.7h0.8v-1.6h-0.8V157.7z M97.9 162.1h0.8 v-1.2h-0.8V162.1z M97.9 171.4h0.8v-1.3h-0.8V171.4z M97.9 180.2h0.8V179h-0.8V180.2z M101.1 136.4h0.4v-1.6h-0.4V136.4z M101.1 144.9h0.4v-1.6h-0.4V144.9z M101.1 148.9h0.4v-1.2h-0.4V148.9z M101.1 153.3h0.4v-1.6h-0.4V153.3z M101.1 157.7h0.4v-1.6 h-0.4V157.7z M101.1 166.9h0.4v-1.6h-0.4V166.9z M101.1 175.8h0.4v-1.3h-0.4V175.8z M101.1 180.2h0.4V179h-0.4V180.2z"/><path class="st1" d="M287.4 151.7H298v6.4h7.6v-20.4h8v20.4h4.4v-10.4h11.2v18.5h2.8v-5.2h10.7v27.3h-55.4V151.7z M289.7 153.7v2.5 h5.6v-2.5H289.7z M289.7 159.7v2.4h5.6v-2.4H289.7z M289.7 165.7v2.5h5.6v-2.5H289.7z M289.7 171.8v2.4h5.6v-2.4H289.7z M319.1 150.5v2h8.8v-2H319.1z M319.1 156.5v2h8.8v-2H319.1z M319.1 162.1v2.4h8.8v-2.4H319.1z M319.1 168.2v2.4h8.8v-2.4H319.1z M334.3 162.9v1.2h1.2v-1.2H334.3z M334.3 166.5v1.2h1.2v-1.2H334.3z M334.3 169.8v1.6h1.2v-1.6H334.3z M334.3 173.8v1.2h1.2v-1.2 H334.3z M334.3 177.4v1.2h1.2v-1.2H334.3z M334.3 180.6v1.6h1.2v-1.6H334.3z M339.5 162.9v1.2h1.2v-1.2H339.5z M339.5 166.5v1.2 h1.2v-1.2H339.5z M339.5 169.8v1.6h1.2v-1.6H339.5z M339.5 173.8v1.2h1.2v-1.2H339.5z M339.5 177.4v1.2h1.2v-1.2H339.5z M339.5 180.6v1.6h1.2v-1.6H339.5z"/><path class="st1" d="M354.9 169.8v18.5h-21.7v-18.5H354.9z M334.3 184.1c-0.2 0.3-0.4 0.6-0.5 0.9c-0.1 0.4-0.2 0.7-0.2 1.1 c0 0.4 0 0.7 0 0.9h2.5c0 0 0-0.2 0-0.6c0-0.4 0-0.7 0-1.1c0-0.4-0.1-0.8-0.3-1.1c-0.1-0.3-0.4-0.5-0.7-0.5 C334.8 183.7 334.5 183.9 334.3 184.1z M334.8 170.7c-0.2 0.1-0.4 0.2-0.4 0.3c-0.5 0.3-0.7 0.7-0.6 1.2c0 0.5 0.1 1 0.1 1.6h2.5 c0-0.1 0-0.3 0-0.6c0-0.3 0-0.7-0.1-1c-0.1-0.4-0.2-0.7-0.3-1c-0.1-0.3-0.4-0.5-0.7-0.6C335.1 170.6 335 170.6 334.8 170.7z M334.8 175.1c-0.2 0.1-0.4 0.2-0.4 0.3c-0.5 0.3-0.7 0.7-0.6 1.2c0 0.5 0.1 1 0.1 1.6h2.5c0-0.1 0-0.3 0-0.6c0-0.3 0-0.7-0.1-1 c-0.1-0.4-0.2-0.7-0.3-1c-0.1-0.3-0.4-0.5-0.7-0.6C335.1 175 335 175 334.8 175.1z M334.8 179.5c-0.2 0.1-0.4 0.2-0.4 0.3 c-0.5 0.3-0.7 0.7-0.6 1.2c0 0.5 0.1 1 0.1 1.6h2.5c0-0.1 0-0.3 0-0.6c0-0.3 0-0.7-0.1-1c-0.1-0.4-0.2-0.7-0.3-1 c-0.1-0.3-0.4-0.5-0.7-0.6C335.1 179.4 335 179.4 334.8 179.5z M337.8 184.2c-0.2 0.3-0.3 0.6-0.4 1c-0.1 0.4-0.1 0.8-0.1 1.1 c0 0.3 0 0.6 0 0.7h2.6c0-0.1 0-0.4 0-0.7c0-0.4 0-0.8-0.1-1.1c-0.1-0.4-0.2-0.7-0.4-1c-0.2-0.3-0.5-0.4-0.8-0.4 C338.3 183.7 338 183.9 337.8 184.2z M338.4 170.7c-0.2 0.1-0.3 0.2-0.5 0.3c-0.5 0.3-0.7 0.7-0.6 1.2c0 0.5 0.1 1 0.1 1.6h2.5 c0-0.1 0-0.3 0-0.6c0-0.3 0-0.7-0.1-1c-0.1-0.4-0.2-0.7-0.3-1c-0.2-0.3-0.4-0.5-0.7-0.6C338.7 170.6 338.6 170.6 338.4 170.7z M338.4 175.1c-0.2 0.1-0.3 0.2-0.5 0.3c-0.5 0.3-0.7 0.7-0.6 1.2c0 0.5 0.1 1 0.1 1.6h2.5c0-0.1 0-0.3 0-0.6c0-0.3 0-0.7-0.1-1 c-0.1-0.4-0.2-0.7-0.3-1c-0.2-0.3-0.4-0.5-0.7-0.6C338.7 175 338.6 175 338.4 175.1z M338.4 179.5c-0.2 0.1-0.3 0.2-0.5 0.3 c-0.5 0.3-0.7 0.7-0.6 1.2c0 0.5 0.1 1 0.1 1.6h2.5c0-0.1 0-0.3 0-0.6c0-0.3 0-0.7-0.1-1c-0.1-0.4-0.2-0.7-0.3-1 c-0.2-0.3-0.4-0.5-0.7-0.6C338.7 179.4 338.6 179.4 338.4 179.5z M341.5 170.7c-0.2 0.1-0.3 0.2-0.3 0.3v2.8h2.2c0-0.2 0-0.4 0-0.8 c0-0.4 0-0.7-0.1-1.1c-0.1-0.3-0.2-0.6-0.4-0.9c-0.2-0.3-0.5-0.4-0.9-0.4C341.9 170.6 341.7 170.6 341.5 170.7z M341.5 175.1 c-0.2 0.1-0.3 0.2-0.3 0.3v2.8h2.2c0-0.2 0-0.4 0-0.8c0-0.4 0-0.7-0.1-1.1c-0.1-0.3-0.2-0.6-0.4-0.9c-0.2-0.3-0.5-0.4-0.9-0.4 C341.9 175 341.7 175 341.5 175.1z M341.5 179.5c-0.2 0.1-0.3 0.2-0.3 0.3v2.8h2.2c0-0.2 0-0.4 0-0.8c0-0.4 0-0.7-0.1-1.1 c-0.1-0.3-0.2-0.6-0.4-0.9c-0.2-0.3-0.5-0.4-0.9-0.4C341.9 179.4 341.7 179.4 341.5 179.5z M342 183.8c-0.1 0-0.4 0.2-0.8 0.4v2.8 h2.3c0-0.1 0-0.4 0-0.7c0-0.3 0-0.7-0.1-1.1c-0.1-0.4-0.2-0.7-0.4-1c-0.2-0.3-0.5-0.4-0.8-0.4H342z M344.8 171 c-0.2 0.3-0.3 0.6-0.4 0.9c-0.1 0.4-0.1 0.7-0.1 1.1c0 0.3 0 0.6 0 0.8h2.7c0-0.2 0-0.4 0-0.8c0-0.4 0-0.7-0.1-1.1 c-0.1-0.4-0.2-0.7-0.4-0.9c-0.2-0.3-0.5-0.4-0.9-0.4C345.2 170.6 344.9 170.7 344.8 171z M344.8 175.4c-0.2 0.3-0.3 0.6-0.4 0.9 c-0.1 0.4-0.1 0.7-0.1 1.1c0 0.3 0 0.6 0 0.8h2.7c0-0.2 0-0.4 0-0.8c0-0.4 0-0.7-0.1-1.1c-0.1-0.4-0.2-0.7-0.4-0.9 c-0.2-0.3-0.5-0.4-0.9-0.4C345.2 175 344.9 175.1 344.8 175.4z M344.8 179.8c-0.2 0.3-0.3 0.6-0.4 0.9c-0.1 0.4-0.1 0.7-0.1 1.1 c0 0.3 0 0.6 0 0.8h2.7c0-0.2 0-0.4 0-0.8c0-0.4 0-0.7-0.1-1.1c-0.1-0.4-0.2-0.7-0.4-0.9c-0.2-0.3-0.5-0.4-0.9-0.4 C345.2 179.4 344.9 179.5 344.8 179.8z M344.8 184.2c-0.2 0.3-0.3 0.6-0.4 0.9c-0.1 0.4-0.1 0.7-0.1 1.1c0 0.3 0 0.6 0 0.8h2.7 c0-0.2 0-0.5 0-0.8c0-0.4 0-0.7-0.1-1.1c-0.1-0.4-0.2-0.7-0.4-0.9c-0.2-0.3-0.5-0.4-0.9-0.4C345.3 183.7 345 183.9 344.8 184.2z M351.3 168.7c0.1-0.2 0.1-0.5-0.1-0.9c-0.1-0.5-0.3-0.7-0.4-0.8c0 0-0.1-0.1-0.3-0.1c-0.2 0-0.4-0.1-0.4-0.1c-0.1 0-0.3 0-0.5 0.1 c-0.2 0-0.3 0.1-0.3 0.1c-0.1 0.1-0.3 0.3-0.4 0.7c-0.1 0.4-0.1 0.7-0.1 0.9H348c0.1-0.2 0.1-0.4-0.1-0.9c-0.1-0.4-0.3-0.6-0.4-0.7 c0 0-0.1-0.1-0.3-0.1c-0.2 0-0.4-0.1-0.5-0.1c-0.1 0-0.2 0-0.4 0.1c-0.2 0-0.3 0.1-0.3 0.1c-0.1 0.1-0.3 0.3-0.4 0.7 c-0.1 0.4-0.1 0.7-0.1 0.9h-0.4v-38.1h22.1v22.7h-9v35.1h-2v-19.5H351.3z M346 134.5h1.6v-2.8H346V134.5z M346 138.9h1.6V136H346 V138.9z M346 143.7h1.6v-3.2H346V143.7z M346 148.1h1.6v-3.2H346V148.1z M346 152.5h1.6v-3.2H346V152.5z M346 156.9h1.6v-3.2H346 V156.9z M346 161.3h1.6v-3.2H346V161.3z M346 165.7h1.6v-3.2H346V165.7z M364.5 127.6v1.6h-16.9v-1.6H364.5z M348.2 184.2 c-0.2 0.3-0.3 0.6-0.4 1c-0.1 0.4-0.1 0.7-0.1 1.1c0 0.3 0 0.6 0 0.7h2.8c0-0.3 0-0.6 0-0.9c0-0.4-0.1-0.7-0.2-1.1 c-0.1-0.3-0.3-0.6-0.5-0.9c-0.2-0.2-0.5-0.3-0.9-0.3C348.7 183.8 348.4 184 348.2 184.2z M348.3 171c-0.2 0.3-0.3 0.6-0.4 0.9 c-0.1 0.3-0.1 0.7-0.1 1.1c0 0.4 0 0.7 0 0.8h2.7c0-0.2 0-0.4 0-0.8c0-0.4 0-0.7-0.1-1.1c-0.1-0.4-0.2-0.7-0.4-0.9 c-0.2-0.3-0.4-0.4-0.8-0.4C348.8 170.6 348.5 170.7 348.3 171z M348.3 175.4c-0.2 0.3-0.3 0.6-0.4 0.9c-0.1 0.3-0.1 0.7-0.1 1.1 c0 0.4 0 0.7 0 0.8h2.7c0-0.2 0-0.4 0-0.8c0-0.4 0-0.7-0.1-1.1c-0.1-0.4-0.2-0.7-0.4-0.9c-0.2-0.3-0.4-0.4-0.8-0.4 C348.8 175 348.5 175.1 348.3 175.4z M348.3 179.8c-0.2 0.3-0.3 0.6-0.4 0.9c-0.1 0.3-0.1 0.7-0.1 1.1c0 0.4 0 0.7 0 0.8h2.7 c0-0.2 0-0.4 0-0.8c0-0.4 0-0.7-0.1-1.1c-0.1-0.4-0.2-0.7-0.4-0.9c-0.2-0.3-0.4-0.4-0.8-0.4C348.8 179.4 348.5 179.5 348.3 179.8z M349.2 134.5h1.6v-2.8h-1.6V134.5z M349.2 138.9h1.6V136h-1.6V138.9z M349.2 143.7h1.6v-3.2h-1.6V143.7z M349.2 148.1h1.6v-3.2 h-1.6V148.1z M349.2 152.5h1.6v-3.2h-1.6V152.5z M349.2 156.9h1.6v-3.2h-1.6V156.9z M349.2 161.3h1.6v-3.2h-1.6V161.3z M349.2 165.7h1.6v-3.2h-1.6V165.7z M351.8 184.2c-0.2 0.3-0.3 0.6-0.4 1c-0.1 0.4-0.1 0.7-0.1 1.1c0 0.3 0 0.6 0 0.7h2.3v-2.8 c-0.4-0.2-0.7-0.3-0.8-0.4h-0.2C352.3 183.8 352 184 351.8 184.2z M351.9 171c-0.2 0.3-0.3 0.6-0.4 0.9c-0.1 0.3-0.1 0.7-0.1 1.1 c0 0.4 0 0.7 0 0.8h2.2V171c0-0.1-0.1-0.2-0.3-0.3c-0.2-0.1-0.4-0.1-0.5-0.1C352.4 170.6 352.1 170.7 351.9 171z M351.9 175.4 c-0.2 0.3-0.3 0.6-0.4 0.9c-0.1 0.3-0.1 0.7-0.1 1.1c0 0.4 0 0.7 0 0.8h2.2v-2.8c0-0.1-0.1-0.2-0.3-0.3c-0.2-0.1-0.4-0.1-0.5-0.1 C352.4 175 352.1 175.1 351.9 175.4z M351.9 179.8c-0.2 0.3-0.3 0.6-0.4 0.9c-0.1 0.3-0.1 0.7-0.1 1.1c0 0.4 0 0.7 0 0.8h2.2v-2.8 c0-0.1-0.1-0.2-0.3-0.3c-0.2-0.1-0.4-0.1-0.5-0.1C352.4 179.4 352.1 179.5 351.9 179.8z M352 134.5h1.6v-2.8H352V134.5z M352 138.9 h1.6V136H352V138.9z M352 143.7h1.6v-3.2H352V143.7z M352 148.1h1.6v-3.2H352V148.1z M352 152.5h1.6v-3.2H352V152.5z M352 156.9 h1.6v-3.2H352V156.9z M352 161.3h1.6v-3.2H352V161.3z M352 165.7h1.6v-3.2H352V165.7z M355.2 134.5h1.6v-2.8h-1.6V134.5z M355.2 138.9h1.6V136h-1.6V138.9z M355.2 143.7h1.6v-3.2h-1.6V143.7z M355.2 148.1h1.6v-3.2h-1.6V148.1z M355.2 152.5h1.6v-3.2 h-1.6V152.5z M355.2 156.9h1.6v-3.2h-1.6V156.9z M358.4 134.5h1.6v-2.8h-1.6V134.5z M358.4 138.9h1.6V136h-1.6V138.9z M358.4 143.7 h1.6v-3.2h-1.6V143.7z M358.4 148.1h1.6v-3.2h-1.6V148.1z M380.5 154.1v20.6c-0.1 0-0.4 0-0.8 0c-0.4 0-0.7-0.2-0.8-0.5h-5.2 c0 0-0.1 0.1-0.2 0.2c-0.1 0.1-0.1 0.2-0.2 0.2h-0.2h-0.3c0 0-0.1-0.1-0.2-0.2c-0.1-0.1-0.1-0.2-0.2-0.2h-4.8v2.2h3.2v2.4h-3.2v2 h3.2v2h-3.2v2.4h3.2v3h-11.3v-34.1H380.5z M361.3 134.5h2v-2.8h-2V134.5z M361.3 138.9h2V136h-2V138.9z M361.7 158.5h4.9v-1.6h-4.9 V158.5z M361.7 162.9h4.9v-1.6h-4.9V162.9z M361.7 167.4h4.9v-1.6h-4.9V167.4z M361.7 171.8h4.9v-2h-4.9V171.8z M361.7 176.2h4.9 v-2h-4.9V176.2z M361.7 180.6h4.9v-2h-4.9V180.6z M361.7 185h4.9v-2h-4.9V185z M367.7 158.5h4.8v-1.6h-4.8V158.5z M367.7 162.9h4.8 v-1.6h-4.8V162.9z M367.7 167.4h4.8v-1.6h-4.8V167.4z M367.7 171.8h4.8v-2h-4.8V171.8z M374.6 143.5c0.3 0.2 0.5 0.4 0.8 0.6 c0.1 0.1 0.4 0.3 0.8 0.8c0.4 0.4 0.7 0.7 0.8 0.8h-5.2l2.4-2.4C374.1 143.2 374.3 143.3 374.6 143.5z M376.9 146.9v3.2h-5.2v-3.2 H376.9z M407 175.8v12.4h-34.9v-12.4H407z M373.7 158.5h5.2v-1.6h-5.2V158.5z M373.7 162.9h5.2v-1.6h-5.2V162.9z M373.7 167.4h5.2 v-1.6h-5.2V167.4z M373.7 171.8h5.2v-2h-5.2V171.8z M374.1 178.6h7.6V177h-7.6V178.6z M374.1 182.2h7.6V181h-7.6V182.2z M374.1 186.2h7.6V185h-7.6V186.2z M383 178.6h7.2V177H383V178.6z M383 182.2h7.2V181H383V182.2z M383 186.2h7.2V185H383V186.2z M395.8 146.1v28.6h-12v-28.6H395.8z M384.9 150.1h0.4v-2.8h-0.4V150.1z M384.9 154.1h0.4v-2.8h-0.4V154.1z M384.9 158.1h0.4v-2.8 h-0.4V158.1z M384.9 162.1h0.4v-2.8h-0.4V162.1z M384.9 166.2h0.4v-2.8h-0.4V166.2z M384.9 169.8h0.4v-2.4h-0.4V169.8z M384.9 173.8h0.4v-2.4h-0.4V173.8z M386.6 150.1h0.4v-2.8h-0.4V150.1z M386.6 154.1h0.4v-2.8h-0.4V154.1z M386.6 158.1h0.4v-2.8 h-0.4V158.1z M386.6 162.1h0.4v-2.8h-0.4V162.1z M386.6 166.2h0.4v-2.8h-0.4V166.2z M386.6 169.8h0.4v-2.4h-0.4V169.8z M386.6 173.8h0.4v-2.4h-0.4V173.8z M388.6 150.1h0.4v-2.8h-0.4V150.1z M388.6 154.1h0.4v-2.8h-0.4V154.1z M388.6 158.1h0.4v-2.8 h-0.4V158.1z M388.6 162.1h0.4v-2.8h-0.4V162.1z M388.6 166.2h0.4v-2.8h-0.4V166.2z M388.6 169.8h0.4v-2.4h-0.4V169.8z M390.1 150.1h0.4v-2.8h-0.4V150.1z M390.1 154.1h0.4v-2.8h-0.4V154.1z M390.1 158.1h0.4v-2.8h-0.4V158.1z M390.1 162.1h0.4v-2.8 h-0.4V162.1z M390.1 166.2h0.4v-2.8h-0.4V166.2z M391.8 150.1h0.8v-2.8h-0.8V150.1z M391.8 154.1h0.8v-2.8h-0.8V154.1z M391.8 158.1h0.8v-2.8h-0.8V158.1z M391.8 178.6h7.6V177h-7.6V178.6z M391.8 182.2h7.6V181h-7.6V182.2z M391.8 186.2h7.6V185h-7.6 V186.2z M393.8 150.1h0.4v-2.8h-0.4V150.1z"/></g><g><g><path class="st2" d="M309.6 186.4c0 6.4-5.2 11.7-11.7 11.7H80.8c-6.4 0-11.7-5.2-11.7-11.7V30.8c0-6.4 5.2-11.7 11.7-11.7H298 c6.4 0 11.7 5.2 11.7 11.7V186.4z"/><path class="st3" d="M307.7 185.1c0 6.3-5.1 11.5-11.5 11.5H82.6c-6.3 0-11.5-5.1-11.5-11.5V32.1c0-6.3 5.1-11.5 11.5-11.5h213.7 c6.3 0 11.5 5.1 11.5 11.5V185.1z"/><path class="st4" d="M31.6 176v10.3c0 6.4 6.9 11.7 15.3 11.7H332c8.5 0 15.3-5.2 15.3-11.7V176H31.6z"/><path class="st5" d="M31.9 188.9c1.5 5.2 7.6 9.2 14.9 9.2H332c7.3 0 13.4-3.9 14.9-9.2H31.9z"/><rect x="81.6" y="32.4" class="st6" width="215.5" height="134.9"/><polygon class="st7" points="297.2,167.3 84.6,167.3 84.6,36.1 294.2,36.1"/><g class="st8"><g><defs><rect id="SVGID_11_" x="276.4" y="32.4" width="12.6" height="134.9"/></defs><clipPath id="SVGID_1_"><use xlink:href="#SVGID_11_" class="style1"/></clipPath><g class="st9"><defs><rect id="SVGID_13_" x="276.4" y="32.4" width="12.6" height="134.9"/></defs><clipPath id="SVGID_2_"><use xlink:href="#SVGID_13_" class="style1"/></clipPath></g></g></g><path class="st10" d="M192.5 26.1c0 1.7-1.4 3.1-3.1 3.1s-3.1-1.4-3.1-3.1c0-1.7 1.4-3.1 3.1-3.1S192.5 24.4 192.5 26.1"/><path class="st11" d="M192 26.1c0 1.4-1.2 2.6-2.6 2.6c-1.4 0-2.6-1.2-2.6-2.6c0-1.4 1.2-2.6 2.6-2.6 C190.9 23.5 192 24.7 192 26.1"/><rect x="149.7" y="176" class="st12" width="79.4" height="5"/><path class="st10" d="M43.4 182.4c0 1.3-1 2.3-2.3 2.3c-1.3 0-2.3-1-2.3-2.3c0-1.3 1-2.3 2.3-2.3C42.3 180 43.4 181.1 43.4 182.4"/><path class="st13" d="M42.7 182.4c0 1-0.8 1.7-1.7 1.7c-1 0-1.7-0.8-1.7-1.7c0-1 0.8-1.7 1.7-1.7C42 180.7 42.7 181.4 42.7 182.4"/><path class="st10" d="M50.7 182.4c0 1.3-1 2.3-2.3 2.3s-2.3-1-2.3-2.3c0-1.3 1-2.3 2.3-2.3S50.7 181.1 50.7 182.4"/><path class="st13" d="M50.1 182.4c0 1-0.8 1.7-1.7 1.7c-1 0-1.7-0.8-1.7-1.7c0-1 0.8-1.7 1.7-1.7 C49.3 180.7 50.1 181.4 50.1 182.4"/><path class="st10" d="M58 182.4c0 1.3-1 2.3-2.3 2.3c-1.3 0-2.3-1-2.3-2.3c0-1.3 1-2.3 2.3-2.3C57 180 58 181.1 58 182.4"/><path class="st13" d="M57.4 182.4c0 1-0.8 1.7-1.7 1.7c-1 0-1.7-0.8-1.7-1.7c0-1 0.8-1.7 1.7-1.7 C56.6 180.7 57.4 181.4 57.4 182.4"/></g><g><g><path class="st14" d="M179.6 140.9c0 2.3-1.9 4.2-4.2 4.2h-73.1c-2.3 0-4.2-1.9-4.2-4.2V86.6c0-2.3 1.9-4.2 4.2-4.2h73.1 c2.3 0 4.2 1.9 4.2 4.2V140.9"/><path class="st15" d="M175.5 138.8c0 1.2-0.9 2.1-2.1 2.1h-68.9c-1.2 0-2.1-0.9-2.1-2.1V96c10 0 65.4 0 73.1 0V138.8"/><rect x="105.5" y="100.2" class="st7" width="23" height="3.1"/></g><polygon class="st16" points="129,141 122.7,141 122.7,131.7 129,131.7 129,141"/><polygon class="st17" points="137.7,141 131.4,141 131.4,122.7 137.7,122.7 137.7,141"/><rect x="140.1" y="112.3" class="st18" width="6.2" height="28.7"/><rect x="148.8" y="102.9" class="st19" width="6.2" height="38.1"/></g><g><g><polyline class="st20" points="272.7,145.6 206.9,131.3 217.6,81.7 283.4,96 272.7,145.6"/><polyline class="st21" points="272.4,120.9 272.4,99.2 276.9,100.2 272.4,120.9"/><polyline class="st22" points="239.2,121.4 257.2,109.8 269.1,128.3 239.2,121.4"/><polyline class="st23" points="215.8,116.1 239.9,99.1 255.1,125.3 215.8,116.1"/><polyline class="st24" points="270.8,128.2 215.8,116.2 213.4,127 268.4,139 270.8,128.2"/><path class="st25" d="M272.4 99.2l-1.8-0.4v-5.6l1.8 0.4h0V99.2 M272.4 139.2h-28.8l-8.5-1.8h26.1l7.3 1.6l0.3-1.6h1.7v-8 l1.8-8.5V139.2"/><path class="st26" d="M270.5 129.4L270.5 129.4l0.3-1.2l-0.3-0.1V98.8l1.8 0.4v21.7L270.5 129.4 M268.4 139l0.3-1.6L268.4 139"/><rect x="203.2" y="86.6" class="st15" width="67.4" height="50.7"/><rect x="208.7" y="92.2" class="st21" width="56.3" height="39.7"/></g><g><path class="st15" d="M231.8 114.7l1.1-5.4c0-0.2 0.2-0.4 0.4-0.3c0.2 0 0.4 0.2 0.4 0.4l1.3 7.9l1.1-10c0-0.2 0.2-0.4 0.4-0.4h0 c0.2 0 0.4 0.2 0.4 0.4l0.7 7.4l1.1-3.1c0.1-0.2 0.2-0.3 0.4-0.3c0.2 0 0.3 0.2 0.4 0.4l0.5 3.1h5.2c1.2-1.6 1.9-3.2 1.9-4.8 c0-3.5-2.8-6.3-6.3-6.3c-2.1 0-3.9 1-5.1 2.6c-1.1-1.6-3-2.6-5.1-2.6c-3.5 0-6.3 2-6.3 6.3c0 1.5 0.7 3.1 1.8 4.6H231.8z"/><path class="st15" d="M239.7 115.7c-0.2 0-0.4-0.2-0.4-0.4l-0.3-1.9l-1.2 3.3c-0.1 0.2-0.3 0.3-0.5 0.3c-0.2 0-0.4-0.2-0.4-0.4 l-0.5-5l-1 8.9c0 0.2-0.2 0.4-0.4 0.4c0 0 0 0 0 0c-0.2 0-0.4-0.2-0.4-0.4l-1.4-8.8l-0.7 3.4c0 0.2-0.2 0.3-0.4 0.3h-5.3 c3.3 4.3 9 7.9 9 7.9s5.4-3.6 8.8-7.8H239.7z"/></g></g><g><path class="st17" d="M154.9 48.2c0.9 0 1.6 0.1 2.3 0.2c0.7 0.1 1.3 0.3 1.8 0.6c0.5 0.3 0.9 0.6 1.3 0.9 c0.4 0.4 0.6 0.7 0.9 1.2c0.2 0.4 0.4 0.9 0.5 1.3c0.1 0.5 0.1 0.9 0.1 1.4c0 0.7-0.1 1.4-0.2 2.2c-0.1 0.8-0.4 1.5-0.6 2.1 c-0.3 0.6-0.6 1.3-1 1.8c-0.4 0.6-0.9 1.1-1.4 1.5c-0.5 0.4-1.1 0.8-1.8 1c-0.6 0.2-1.3 0.4-2.1 0.4c-0.2 0-0.5 0-0.8-0.1 c-0.3 0-0.5-0.1-0.8-0.2c-0.2-0.1-0.5-0.1-0.7-0.2c-0.2-0.1-0.4-0.2-0.6-0.3c-0.1 0-0.1 0-0.2-0.1c0 0-0.1-0.1-0.1-0.1 c0 0 0-0.1 0-0.1c0-0.1 0-0.1 0-0.2c0-0.9 0-1.8 0.1-2.7c0-0.9 0.1-1.9 0.3-2.8c0.1-1 0.3-1.8 0.6-2.6c0.3-0.7 0.6-1.4 1-2.1 c0.1-0.2 0.4-0.2 1-0.2c0.5 0 0.8 0.2 1 0.5c-0.2 0.3-0.4 0.7-0.6 1.1c-0.2 0.4-0.3 0.8-0.4 1.2c-0.1 0.4-0.2 0.8-0.3 1.3 c-0.1 0.9-0.2 1.3-0.2 1.4c0 0 0 0.5-0.2 1.5c-0.1 0.3-0.1 0.7-0.1 0.9c0 0.3-0.1 0.5-0.1 0.7c0 0.2 0 0.4 0 0.6 c0 0.2 0 0.4 0 0.5c0 0.1 0 0.2 0.1 0.3c0.1 0.1 0.1 0.1 0.2 0.2c0.1 0 0.2 0.1 0.4 0.1c0.5 0 1-0.1 1.5-0.3 c0.5-0.2 0.9-0.5 1.3-0.8c0.4-0.4 0.8-0.8 1.1-1.2c0.3-0.5 0.6-1 0.8-1.6c0.2-0.6 0.4-1.2 0.5-1.7c0.1-0.5 0.2-1.1 0.2-1.6 c0-0.6-0.1-1.2-0.3-1.7c-0.2-0.5-0.5-0.9-0.9-1.2c-0.4-0.3-0.8-0.6-1.3-0.8c-0.5-0.2-1.1-0.3-1.7-0.3c-0.4 0-0.9 0-1.3 0.1 c-0.4 0.1-0.8 0.1-1.2 0.2c-0.4 0.1-0.7 0.3-1 0.4c-0.3 0.2-0.5 0.4-0.6 0.6c-0.4 0.6-0.7 1.1-1 1.4c-0.2 0.3-0.5 0.5-0.6 0.5 c-0.2 0-0.4-0.3-0.4-0.8c0-0.5 0.1-1 0.2-1.4c0.1-0.4 0.3-0.8 0.6-1.1c0.2-0.3 0.5-0.6 0.9-0.8c0.3-0.2 0.7-0.4 1.1-0.6 c0.4-0.1 0.8-0.3 1.3-0.3C154 48.2 154.5 48.2 154.9 48.2"/><path class="st17" d="M167.7 55.9c0.2 0.3 0.3 0.6 0.3 1c0.1 0.3 0.1 0.7 0.1 1.2c0 0.3 0 0.6-0.1 1c-0.1 0.3-0.2 0.6-0.3 0.9 c-0.1 0.3-0.3 0.6-0.5 0.8c-0.2 0.3-0.4 0.5-0.6 0.7c-0.2 0.2-0.5 0.3-0.8 0.5c-0.3 0.1-0.6 0.2-0.9 0.2c-0.5 0-0.9-0.1-1.2-0.3 c-0.3-0.2-0.6-0.5-0.8-0.8c-0.2-0.3-0.4-0.7-0.5-1.1c-0.1-0.4-0.1-0.8-0.1-1.3c0-0.7 0.1-1.3 0.3-1.8c0.2-0.5 0.4-0.9 0.8-1.3 c0.3-0.4 0.7-0.7 1.2-0.9s1-0.3 1.6-0.3c0.5 0 1 0.1 1.4 0.2c0.4 0.2 0.9 0.4 1.2 0.6c0.4 0.3 0.7 0.6 1.1 1 c0.3 0.4 0.6 0.8 0.9 1.1l-0.2 1.1c-0.1-0.2-0.3-0.4-0.6-0.6c-0.2-0.2-0.5-0.5-0.8-0.7c-0.3-0.3-0.5-0.5-0.8-0.7 C168.2 56.1 168 55.9 167.7 55.9L167.7 55.9z M165.2 60.5c0.2 0 0.4-0.1 0.5-0.3c0.2-0.2 0.3-0.4 0.4-0.7c0.1-0.3 0.2-0.6 0.3-1 c0.1-0.4 0.1-0.7 0.1-1.1c0-0.2 0-0.5-0.1-0.7c0-0.2-0.1-0.4-0.2-0.5c-0.1-0.2-0.2-0.3-0.3-0.4c-0.1-0.1-0.3-0.1-0.4-0.1 c-0.2 0-0.4 0.1-0.6 0.3c-0.2 0.2-0.4 0.4-0.5 0.7c-0.1 0.3-0.3 0.6-0.4 1c-0.1 0.4-0.1 0.7-0.1 1.2c0 0.2 0 0.4 0.1 0.6 c0 0.2 0.1 0.4 0.2 0.5c0.1 0.1 0.2 0.3 0.4 0.3C164.8 60.5 165 60.5 165.2 60.5"/><path class="st17" d="M172.2 62.1c-0.5 0-0.9-0.1-1.3-0.3c-0.4-0.2-0.7-0.4-0.9-0.7c-0.3-0.3-0.4-0.7-0.6-1.1 c-0.1-0.4-0.2-0.8-0.2-1.2c0-0.3 0.1-0.7 0.2-1.1c0.1-0.4 0.2-0.8 0.3-1.1c0.1-0.3 0.3-0.6 0.5-0.9c0.2-0.3 0.4-0.5 0.6-0.8 c0.2-0.2 0.5-0.4 0.8-0.5c0.3-0.1 0.6-0.2 1-0.2c0.3 0 0.6 0 0.9 0.1c0.3 0.1 0.5 0.2 0.7 0.4c0.2 0.2 0.3 0.4 0.5 0.6 c0.1 0.2 0.2 0.5 0.2 0.7c0 0.2 0 0.4-0.1 0.5c-0.1 0.2-0.2 0.4-0.3 0.6c-0.2 0.2-0.3 0.4-0.4 0.5c-0.1 0.1-0.3 0.1-0.5 0.1 c-0.3 0-0.4-0.1-0.5-0.2c-0.1-0.2-0.2-0.4-0.1-0.6c0-0.1 0.1-0.3 0.1-0.6c0 0 0-0.1 0-0.3c0-0.1 0-0.2 0-0.3 c0-0.1-0.1-0.1-0.2-0.1c-0.2 0-0.4 0.1-0.6 0.2c-0.2 0.1-0.3 0.2-0.4 0.4c-0.1 0.2-0.2 0.4-0.3 0.7c-0.1 0.3-0.2 0.6-0.2 0.8 c0 0.2-0.1 0.4-0.1 0.6c0 0.2 0 0.3 0 0.5c0 0.2 0 0.4 0.1 0.6c0 0.2 0.1 0.4 0.2 0.6c0.1 0.2 0.2 0.3 0.4 0.4 c0.2 0.1 0.4 0.2 0.6 0.2c0.3 0 0.5-0.1 0.8-0.2c0.3-0.2 0.6-0.4 0.9-0.6c0.3-0.2 0.6-0.5 0.9-0.8c0.3-0.3 0.7-0.8 0.9-1l0.4 1.1 c-0.4 0.6-0.8 1.1-1.3 1.5c-0.2 0.2-0.4 0.4-0.6 0.6c-0.2 0.2-0.5 0.3-0.7 0.5c-0.3 0.1-0.5 0.3-0.8 0.3 C172.7 62 172.4 62.1 172.2 62.1"/><path class="st17" d="M182.3 60.3c-0.5 0.3-1 0.6-1.4 0.8c-0.4 0.2-0.8 0.4-1.1 0.6c-0.3 0.1-0.6 0.3-0.8 0.3 c-0.2 0.1-0.5 0.1-0.7 0.1c-0.4 0-0.8-0.1-1.1-0.4c-0.3-0.2-0.6-0.6-0.8-1.1c-0.2-0.5-0.4-1-0.5-1.7c-0.1-0.7-0.2-1.4-0.2-2.2 c0-0.3 0-0.7 0-1c0-0.4 0.1-0.7 0.1-1.1c-0.2 0-0.3 0-0.4-0.1c-0.1 0-0.2 0-0.3-0.1c-0.1 0-0.2 0-0.4-0.1c-0.2 0-0.4-0.1-0.7-0.1 c-0.1 0-0.2-0.1-0.3-0.1c-0.1 0-0.1-0.1-0.2-0.2c0-0.1-0.1-0.1-0.1-0.2c0-0.1 0-0.1 0-0.2c0-0.1 0.1-0.1 0.2-0.2 c0.1 0 0.2-0.1 0.4-0.1c0.2 0 0.3 0 0.5 0c0.2 0 0.4 0 0.6 0c0.2 0 0.3 0 0.5 0c0.1 0 0.2 0 0.3 0c0.1-0.7 0.3-1.4 0.5-2.1 c0.2-0.7 0.5-1.3 0.7-1.8c0.3-0.5 0.6-0.9 0.9-1.3c0.3-0.3 0.7-0.5 1-0.5c0.2 0 0.4 0.1 0.6 0.2c0.2 0.1 0.3 0.3 0.5 0.5 c0.1 0.2 0.2 0.5 0.3 0.7c0.1 0.3 0.1 0.6 0.1 0.9c0 0.3 0 0.5-0.1 0.8c-0.1 0.3-0.2 0.6-0.3 0.9c-0.1 0.3-0.3 0.6-0.5 0.9 c-0.2 0.3-0.4 0.6-0.5 0.9c0 0 0.1 0 0.2 0c0.1 0 0.2 0 0.4 0c0.1 0 0.3 0 0.5 0c0.2 0 0.3 0 0.5 0c0.2 0 0.3 0 0.4 0 c0.1 0 0.3 0 0.3 0c0.1 0 0.2 0.1 0.2 0.2c0 0.1 0.1 0.3 0.1 0.4c0 0.2-0.1 0.4-0.2 0.5c-0.1 0.1-0.2 0.2-0.4 0.2h-3.1 c-0.2 0.2-0.3 0.4-0.5 0.6c-0.2 0.2-0.3 0.4-0.4 0.6c0 0.3 0 0.7-0.1 1c0 0.1 0 0.3 0 0.4c0 0.1 0 0.3 0 0.4c0 0.1 0 0.3 0 0.4 c0 0.1 0 0.3 0 0.4c0 0.3 0 0.5 0.1 0.7c0.1 0.2 0.1 0.4 0.2 0.5c0.1 0.1 0.2 0.2 0.4 0.3c0.1 0.1 0.3 0.1 0.5 0.1 c0.1 0 0.3 0 0.4-0.1c0.2-0.1 0.3-0.1 0.5-0.2c0.2-0.1 0.4-0.2 0.6-0.3c0.2-0.1 0.4-0.3 0.7-0.4c0.2-0.2 0.4-0.3 0.6-0.5 c0.2-0.2 0.4-0.3 0.5-0.5V60.3z M179.8 50.2c0-0.1 0-0.1 0-0.2c0-0.1 0-0.1-0.1-0.2c0-0.1-0.1-0.1-0.1-0.2c-0.1 0-0.1-0.1-0.2-0.1 c-0.1 0-0.3 0.1-0.4 0.4c-0.1 0.2-0.3 0.6-0.4 0.9c-0.1 0.4-0.3 0.8-0.4 1.2c-0.1 0.5-0.2 0.9-0.3 1.3c0.1 0 0.2 0 0.2 0 c0.1 0 0.2 0 0.2 0c0.2-0.3 0.3-0.6 0.5-0.9c0.2-0.3 0.3-0.6 0.5-0.9c0.1-0.3 0.3-0.6 0.3-0.8C179.7 50.6 179.8 50.3 179.8 50.2"/><path class="st17" d="M186.6 55.9c0.2 0.3 0.3 0.6 0.3 1c0.1 0.3 0.1 0.7 0.1 1.2c0 0.3 0 0.6-0.1 1c-0.1 0.3-0.2 0.6-0.3 0.9 c-0.1 0.3-0.3 0.6-0.5 0.8c-0.2 0.3-0.4 0.5-0.6 0.7c-0.2 0.2-0.5 0.3-0.8 0.5c-0.3 0.1-0.6 0.2-0.9 0.2c-0.5 0-0.9-0.1-1.2-0.3 c-0.3-0.2-0.6-0.5-0.8-0.8c-0.2-0.3-0.4-0.7-0.5-1.1c-0.1-0.4-0.1-0.8-0.1-1.3c0-0.7 0.1-1.3 0.3-1.8c0.2-0.5 0.4-0.9 0.8-1.3 c0.3-0.4 0.7-0.7 1.2-0.9c0.5-0.2 1-0.3 1.6-0.3c0.5 0 1 0.1 1.4 0.2c0.4 0.2 0.9 0.4 1.2 0.6c0.4 0.3 0.7 0.6 1.1 1 c0.3 0.4 0.6 0.8 0.9 1.1l-0.2 1.1c-0.1-0.2-0.3-0.4-0.6-0.6c-0.2-0.2-0.5-0.5-0.8-0.7c-0.3-0.3-0.5-0.5-0.8-0.7 C187.1 56.1 186.9 55.9 186.6 55.9L186.6 55.9z M184.1 60.5c0.2 0 0.4-0.1 0.5-0.3c0.2-0.2 0.3-0.4 0.4-0.7c0.1-0.3 0.2-0.6 0.3-1 c0.1-0.4 0.1-0.7 0.1-1.1c0-0.2 0-0.5-0.1-0.7c0-0.2-0.1-0.4-0.2-0.5c-0.1-0.2-0.2-0.3-0.3-0.4c-0.1-0.1-0.3-0.1-0.4-0.1 c-0.2 0-0.4 0.1-0.6 0.3c-0.2 0.2-0.4 0.4-0.5 0.7c-0.1 0.3-0.3 0.6-0.4 1c-0.1 0.4-0.1 0.7-0.1 1.2c0 0.2 0 0.4 0.1 0.6 c0 0.2 0.1 0.4 0.2 0.5c0.1 0.1 0.2 0.3 0.4 0.3C183.7 60.5 183.9 60.5 184.1 60.5"/><path class="st17" d="M188.6 60.4c0-0.2 0-0.5 0-0.8c0-0.3 0.1-0.6 0.1-1c0-0.3 0.1-0.7 0.2-1.1c0.1-0.4 0.1-0.7 0.2-1.2 c0.1-0.4 0.2-0.7 0.2-1c0.1-0.3 0.1-0.5 0.2-0.7c0-0.1 0.1-0.2 0.1-0.3c0-0.1 0.1-0.1 0.1-0.2c0.1 0 0.1-0.1 0.2-0.1 c0.1 0 0.2 0 0.3 0c0.1 0 0.2 0 0.3 0c0.1 0 0.1 0 0.2 0.1c0 0.1 0.1 0.1 0.1 0.2c0 0.1 0 0.2 0 0.4c0 0.2 0 0.5 0 0.8 c0 0.4 0 0.7 0 0.9h0.1c0.1-0.2 0.2-0.5 0.4-0.8c0.2-0.3 0.3-0.6 0.5-0.9c0.2-0.2 0.4-0.4 0.6-0.6c0.2-0.2 0.5-0.2 0.8-0.2 c0.1 0 0.2 0 0.3 0.1c0.1 0 0.2 0.1 0.3 0.1c0.1 0.1 0.1 0.1 0.2 0.2c0 0.1 0.1 0.2 0.1 0.3c0 0.1 0 0.2 0 0.4 c0 0.2-0.1 0.4-0.1 0.6c-0.1 0.3-0.1 0.5-0.1 0.6c0 0.2 0 0.3 0 0.4c0 0.2 0 0.4 0.1 0.5c0 0.1 0.1 0.2 0.1 0.3 c0.1 0.1 0.1 0.1 0.2 0.2c0.1 0 0.2 0 0.2 0c0.2 0 0.5-0.1 0.7-0.2c0.3-0.1 0.5-0.2 0.7-0.4c0.3-0.2 0.5-0.3 0.7-0.5l-0.1 1.9 c-0.1 0.1-0.3 0.2-0.5 0.3c-0.2 0.1-0.4 0.2-0.6 0.3c-0.2 0.1-0.4 0.2-0.6 0.2c-0.2 0.1-0.4 0.1-0.7 0.1c-0.4 0-0.7-0.1-1-0.2 c-0.2-0.2-0.4-0.4-0.6-0.6c-0.1-0.3-0.2-0.6-0.3-0.9c-0.1-0.3-0.1-0.7-0.2-1h-0.1l-1.4 4c-0.1 0.2-0.1 0.4-0.2 0.5 c-0.1 0.1-0.1 0.2-0.2 0.3c-0.1 0.1-0.1 0.1-0.2 0.2c-0.1 0-0.2 0.1-0.3 0.1c-0.2 0-0.4 0-0.5-0.1c-0.1-0.1-0.2-0.2-0.3-0.4 c-0.1-0.2-0.1-0.3-0.1-0.5C188.6 60.8 188.6 60.6 188.6 60.4"/><path class="st17" d="M203.2 47.5c0.9 0 1.7 0.1 2.4 0.4c0.7 0.2 1.2 0.6 1.7 1c0.5 0.4 0.8 0.9 1 1.4c0.2 0.5 0.3 1.1 0.3 1.6 c0 0.5-0.1 1-0.3 1.5c-0.2 0.5-0.5 1-0.9 1.4c-0.4 0.4-0.9 0.8-1.5 1.1c-0.6 0.3-1.4 0.5-2.2 0.7c0 0.4 0 0.7 0 1.1 c0 0.1 0 0.3 0 0.4c0 0.1 0 0.3 0 0.4c0 0.1 0 0.2 0 0.3c0 0.1 0 0.1 0 0.2c0 0.4-0.1 0.8-0.1 1.2c-0.1 0.4-0.2 0.8-0.3 1.2 c-0.1 0.4-0.3 0.7-0.5 1.1c-0.2 0.3-0.5 0.6-0.7 0.9c-0.3 0.3-0.6 0.5-0.9 0.6c-0.3 0.2-0.7 0.2-1.1 0.2c-0.4 0-0.8-0.1-1.2-0.3 c-0.3-0.2-0.6-0.5-0.9-0.9c-0.3-0.4-0.5-0.8-0.7-1.3c-0.2-0.5-0.3-1-0.4-1.6c-0.1-0.5-0.2-1.1-0.2-1.6c-0.1-0.5-0.1-1.1-0.1-1.6 c0-0.8 0.1-1.7 0.2-2.4c0.2-0.8 0.4-1.5 0.7-2.2c0.3-0.7 0.6-1.3 1-1.9c0.4-0.6 0.9-1 1.4-1.4c0.5-0.4 1.1-0.7 1.7-0.9 C201.8 47.6 202.5 47.5 203.2 47.5 M198.4 56.5c0 0.2 0 0.5 0 0.9c0 0.4 0 0.8 0 1.2c0 0.4 0.1 0.8 0.1 1.3 c0.1 0.4 0.1 0.8 0.3 1.2c0.1 0.3 0.3 0.6 0.4 0.9c0.2 0.2 0.4 0.3 0.7 0.3c0.3 0 0.5-0.1 0.7-0.3c0.2-0.2 0.4-0.4 0.5-0.7 c0.1-0.3 0.2-0.6 0.3-1c0.1-0.4 0.1-0.8 0.2-1.1c0-0.4 0.1-0.7 0.1-1.1c0-0.3 0-0.6 0-0.9v-0.4c-0.4-0.2-0.8-0.3-1-0.5 c-0.3-0.1-0.4-0.3-0.6-0.4c-0.1-0.1-0.2-0.2-0.2-0.4c0-0.1-0.1-0.3-0.1-0.5c0-0.1 0-0.2 0-0.3c0-0.1 0-0.2 0-0.3 c0-0.1 0.1-0.1 0.1-0.2c0 0 0.1-0.1 0.2-0.1c0.1 0 0.1 0 0.1 0c0 0 0.1 0.1 0.2 0.1c0.2 0.1 0.3 0.2 0.5 0.2 c0.1 0.1 0.3 0.1 0.4 0.2c0.1 0 0.2 0.1 0.3 0.1c0-0.1 0-0.2 0-0.4c0-0.2 0-0.4 0-0.7c0-0.3 0.1-0.5 0.1-0.8 c0.1-0.3 0.2-0.6 0.3-0.8c0.1-0.2 0.3-0.4 0.5-0.6c0.2-0.2 0.5-0.2 0.8-0.2c0.1 0 0.2 0 0.3 0c0.1 0 0.2 0.1 0.3 0.1 c0.1 0 0.2 0.1 0.2 0.2c0.1 0.1 0.1 0.2 0.1 0.3c0 0 0 0.1 0 0.1c0 0 0 0 0 0.1l-0.5 2.1l-0.1 0.6c0.5-0.1 1-0.2 1.3-0.4 c0.4-0.2 0.7-0.4 0.9-0.6c0.2-0.2 0.4-0.5 0.5-0.8c0.1-0.3 0.2-0.6 0.2-0.9c0-0.3-0.1-0.6-0.2-0.9c-0.1-0.3-0.3-0.6-0.6-0.9 c-0.3-0.3-0.7-0.5-1.1-0.6c-0.5-0.2-1.1-0.2-1.8-0.2c-0.5 0-1 0.1-1.5 0.3c-0.4 0.2-0.8 0.5-1.2 0.8c-0.3 0.4-0.6 0.8-0.9 1.2 c-0.3 0.5-0.5 1-0.6 1.5c-0.2 0.5-0.3 1.1-0.4 1.6C198.4 55.4 198.4 56 198.4 56.5"/><path class="st17" d="M209.5 62.1c-0.3 0-0.6-0.1-0.8-0.4c-0.2-0.2-0.5-0.6-0.6-1c-0.2-0.4-0.3-0.9-0.4-1.5 c-0.1-0.6-0.2-1.1-0.2-1.7c0-0.5 0.1-1.2 0.2-2.1c0.2-0.9 0.2-1.3 0.2-1.3s0.1-0.4 0.3-1.3c0.2-0.9 0.5-1.6 0.7-2.1 c0.2-0.5 0.5-1 0.8-1.5c0.3-0.5 0.6-0.9 0.9-1.2c0.3-0.3 0.6-0.6 0.9-0.8c0.3-0.2 0.7-0.3 1-0.3c0.2 0 0.4 0 0.6 0.1 c0.2 0.1 0.3 0.2 0.4 0.4c0.1 0.2 0.2 0.3 0.2 0.5c0 0.2 0.1 0.4 0.1 0.6c0 0.5-0.1 1-0.2 1.5c-0.1 0.5-0.3 1-0.5 1.6 c-0.2 0.5-0.4 1.1-0.7 1.6c-0.3 0.5-0.5 1.1-0.8 1.6c-0.3 0.5-0.6 1-0.9 1.5c-0.3 0.5-0.6 1-0.8 1.5c0 0.1-0.1 0.1-0.1 0.2 c0 0.1-0.1 0.2-0.1 0.3c0 0.1-0.1 0.2-0.1 0.3c0 0.1 0 0.2-0.1 0.3v0.1c0 0.1 0 0.3 0 0.4c0 0.1 0.1 0.2 0.1 0.4 c0 0.1 0.1 0.2 0.1 0.3c0 0.1 0.1 0.1 0.1 0.1c0.1 0 0.2 0 0.4-0.1c0.1 0 0.3-0.1 0.4-0.2c0.2-0.1 0.3-0.2 0.5-0.3 c0.2-0.1 0.3-0.2 0.5-0.3c0.3-0.2 0.7-0.5 1.1-0.8l0.7 1.7c-0.5 0.3-1 0.6-1.4 0.9c-0.2 0.1-0.4 0.2-0.6 0.3 c-0.2 0.1-0.4 0.2-0.7 0.3c-0.2 0.1-0.4 0.1-0.7 0.2C209.9 62 209.7 62.1 209.5 62.1 M209.5 55.7c0.2-0.4 0.5-0.9 0.8-1.4 c0.3-0.5 0.5-1.1 0.8-1.7c0.2-0.6 0.4-1.1 0.6-1.7c0.2-0.6 0.3-1.1 0.3-1.6c0-0.2 0-0.3 0-0.4c0-0.1 0-0.2-0.1-0.2 c-0.1 0-0.3 0.1-0.5 0.3c-0.2 0.2-0.3 0.5-0.5 0.8c-0.2 0.3-0.4 0.9-0.6 1.7c-0.2 0.8-0.4 1.2-0.4 1.2s-0.1 0.4-0.2 1.1 C209.6 54.6 209.5 55.2 209.5 55.7"/><path class="st17" d="M218 54.6c0 0.1 0 0.3 0 0.6c0 0.2 0 0.5-0.1 0.8c-0.1 0.3-0.1 0.6-0.2 1.1c-0.1 0.4-0.1 0.8-0.2 1 c-0.1 0.3-0.1 0.5-0.1 0.7c0 0.2-0.1 0.4-0.1 0.4c0 0.1 0 0.3 0 0.4c0 0.1 0 0.2 0 0.3c0 0.1 0.1 0.2 0.1 0.2 c0 0.1 0.1 0.1 0.2 0.1c0.1 0 0.3 0 0.4-0.1c0.2-0.1 0.3-0.1 0.5-0.2c0.2-0.1 0.4-0.2 0.6-0.3c0.2-0.1 0.4-0.3 0.6-0.4 c0.2-0.1 0.3-0.3 0.5-0.4c0.1-0.1 0.3-0.3 0.4-0.4c0 0.2-0.1 0.3-0.1 0.5c0 0.1 0 0.3 0 0.4c0 0.1 0 0.3 0 0.4c0 0.1 0 0.3 0 0.5 c-0.1 0.1-0.3 0.2-0.4 0.4c-0.2 0.1-0.4 0.3-0.6 0.4c-0.2 0.1-0.4 0.3-0.7 0.4c-0.2 0.1-0.5 0.2-0.7 0.3c-0.2 0.1-0.5 0.2-0.7 0.2 c-0.2 0.1-0.4 0.1-0.6 0.1c-0.2 0-0.4 0-0.5-0.1c-0.1-0.1-0.3-0.2-0.4-0.3c-0.1-0.1-0.2-0.3-0.3-0.5c-0.1-0.2-0.1-0.4-0.2-0.7 c-0.2 0.2-0.4 0.5-0.6 0.7c-0.2 0.2-0.4 0.4-0.7 0.5c-0.2 0.2-0.4 0.3-0.7 0.4c-0.2 0.1-0.4 0.1-0.7 0.1c-0.2 0-0.3 0-0.5-0.1 c-0.2-0.1-0.3-0.2-0.4-0.3c-0.1-0.1-0.2-0.3-0.3-0.5c-0.1-0.2-0.1-0.5-0.1-0.8c0-0.7 0.1-1.2 0.2-1.6c0.2-0.5 0.3-1.4 0.4-2.4 c0-0.1 0-0.2 0.1-0.3c0-0.1 0.1-0.3 0.1-0.4c0.1-0.2 0.1-0.3 0.2-0.5c0.1-0.2 0.2-0.3 0.3-0.4c0.1-0.1 0.2-0.2 0.4-0.3 c0.1-0.1 0.3-0.1 0.5-0.1c0.3 0 0.5 0.1 0.6 0.1c0.1 0.1 0.2 0.2 0.2 0.3c0 0.4-0.1 0.7-0.2 1c-0.1 0.3-0.1 0.7-0.2 1 c-0.1 0.3-0.1 0.7-0.2 1.1c-0.1 0.4-0.1 0.7-0.2 1c0 0.2-0.1 0.4-0.1 0.6c0 0.2 0 0.2 0 0.2c0 0.1 0 0.2 0 0.3 c0 0.1 0 0.2 0.1 0.2c0 0.1 0.1 0.1 0.1 0.2c0.1 0 0.1 0.1 0.2 0.1c0.1 0 0.2 0 0.4-0.1c0.1-0.1 0.2-0.2 0.3-0.3 c0.1-0.1 0.2-0.2 0.3-0.4c0.1-0.2 0.2-0.4 0.2-0.6l0.9-4.3c0-0.1 0.1-0.2 0.3-0.3c0.2-0.1 0.4-0.1 0.6-0.1c0.3 0 0.5 0 0.6 0.1 C217.9 54.4 218 54.5 218 54.6"/><path class="st17" d="M219.8 59.2c0.3-0.3 0.5-0.5 0.7-0.6c0.2-0.2 0.3-0.5 0.5-0.7c0.2-0.2 0.3-0.4 0.4-0.6 c0.1-0.1 0.2-0.3 0.4-0.5c0.1-0.2 0.3-0.4 0.5-0.7c0.2-0.3 0.5-0.6 0.8-1.1c0.1-0.1 0.1-0.2 0.2-0.3c0.1-0.1 0.2-0.2 0.3-0.2 c0.1-0.1 0.2-0.1 0.3-0.2c0.1 0 0.3-0.1 0.4-0.1c0.3 0 0.5 0 0.6 0.1c0.1 0.1 0.2 0.1 0.3 0.2c0.1 0.1 0.1 0.2 0.1 0.3 c0 0.1 0 0.2 0 0.2c0 0.1 0 0.3-0.2 0.4c-0.1 0.2-0.2 0.3-0.3 0.5c-0.1 0.1-0.2 0.3-0.3 0.4c-0.1 0.1-0.2 0.2-0.2 0.3 c0 0.2 0 0.3 0 0.5c0 0.1 0.1 0.3 0.1 0.4c0 0.1 0.1 0.3 0.1 0.4c0 0.1 0.1 0.3 0.1 0.5c0 0.2 0 0.5 0 0.8c0 0.3 0 0.7 0 1 c0.2-0.1 0.4-0.2 0.6-0.4c0.2-0.1 0.5-0.2 0.7-0.3c0.2-0.1 0.5-0.2 0.7-0.4c0.3-0.1 0.5-0.3 0.8-0.5l0 1.8 c-0.3 0.3-0.7 0.5-1.1 0.7c-0.4 0.2-0.9 0.4-1.4 0.6c-0.5 0.2-1 0.3-1.4 0.4c-0.5 0.1-0.9 0.1-1.4 0.1c-0.3 0-0.6 0-0.9-0.1 c-0.3-0.1-0.5-0.1-0.7-0.3c-0.2-0.1-0.4-0.3-0.5-0.5c-0.1-0.2-0.2-0.4-0.2-0.7c-0.1 0-0.1 0-0.2 0c-0.1 0-0.1 0-0.2 0 c-0.1 0-0.2 0-0.2 0c-0.1 0-0.1 0-0.2-0.1c-0.1 0-0.1-0.1-0.1-0.2c0-0.1 0-0.2 0-0.3c0-0.1 0-0.2 0.1-0.4 M220.7 60.2 c0.1 0 0.1 0 0.2 0.1c0.1 0.1 0.2 0.2 0.3 0.3c0.1 0.1 0.2 0.2 0.4 0.3c0.1 0.1 0.3 0.1 0.5 0.1c0.2 0 0.4 0 0.5-0.1 c0.1-0.1 0.2-0.2 0.3-0.3c0.1-0.1 0.1-0.3 0.2-0.4c0-0.2 0-0.3 0-0.5c0-0.1 0-0.3 0-0.4c0-0.1 0-0.3 0-0.6c0-0.2 0-0.4 0-0.5 c0-0.1-0.1-0.2-0.1-0.3L220.7 60.2z"/></g></g><g><circle class="st27" cx="76.9" cy="37.8" r="35.2"/><g><g><path class="st28" d="M76.9 47c0 0 12.4-0.4 12.8-2.1c0.4-1.8-0.6-6-6.9-6S67 37.3 67 37.3L65.2 44C65.2 44 65.2 46.8 76.9 47z"/><linearGradient id="SVGID_3_" gradientUnits="userSpaceOnUse" x1="77.3" y1="60.7" x2="77.3" y2="39.6"><stop offset="0" class="style2"/><stop offset="1" class="style3"/></linearGradient><path class="st29" d="M102.8 57.5c-0.7-2.3-2.2-4.8-6.2-4.8c-4.6 0-14.8-1.9-15.5-7.7c-0.2-1.8-0.3-3.7-0.3-5.5l-3.5 1.3 l-3.5-1.3c0.1 1.8 0 3.7-0.3 5.5c-0.7 5.8-10.9 7.7-15.5 7.7c-4 0-5.5 2.5-6.2 4.8c-0.7 2.3-0.8 3.2-0.8 3.2h25.4h1.5h25.4 C103.5 60.7 103.5 59.9 102.8 57.5z"/><linearGradient id="SVGID_4_" gradientUnits="userSpaceOnUse" x1="77.3" y1="42.6" x2="77.3" y2="17.2"><stop offset="0" class="style2"/><stop offset="1" class="style3"/></linearGradient><ellipse class="st30" cx="77.3" cy="29.9" rx="11.4" ry="12.7"/><linearGradient id="SVGID_5_" gradientUnits="userSpaceOnUse" x1="79.2" y1="46.6" x2="79.2" y2="15"><stop offset="0" class="style4"/><stop offset="1" class="style5"/></linearGradient><path class="st31" d="M67.9 19.5c0 0 3.7 7.7 16.3 6.4c0 0 0.5 19.8-1.4 20.7c0 0 5.9-0.1 6.9-1.8c1-1.6 3.2-30.7-12.4-29.8 C77.4 15.1 70.1 16.1 67.9 19.5z"/><linearGradient id="SVGID_6_" gradientUnits="userSpaceOnUse" x1="67" y1="46.2" x2="67" y2="18.6"><stop offset="0" class="style4"/><stop offset="1" class="style5"/></linearGradient><path class="st32" d="M69.8 20.5c0 0-1.8 0.9-1.8 9.8c0 8.9 1.2 15.9 1.2 15.9s-4.3-0.7-4.5-2.8c-0.2-2.1-1.8-19.2 4.1-24.8 L69.8 20.5z"/><polygon class="st15" points="64.9,51.8 63.7,60.6 67.6,60.6 67.6,51.2"/><polygon class="st15" points="92,51.8 93.6,60.6 89,60.6 89,51.2"/><radialGradient id="SVGID_7_" cx="77.2" cy="61.6" r="19.9" gradientUnits="userSpaceOnUse"><stop offset="0" class="style6"/><stop offset="1" class="style7"/></radialGradient><path class="st33" d="M95.1 52.1c0 0 0.8 6.2-7 6.2c-6.3 0-9.3 0-10.2 0c0 0-0.1 0-0.4 0c-1 0-4.6 0-11.1 0c-7.8 0-7-6.2-7-6.2 c-9.7 0.2-8.6 8.6-8.6 8.6l25.5 7.9l2.3 2.4l25.2-10.3C103.7 60.8 104.8 52.4 95.1 52.1z"/></g><radialGradient id="SVGID_8_" cx="77.2" cy="3.2" r="19.3" gradientTransform="matrix(1 0 0 0.9705 0 63.7855)" gradientUnits="userSpaceOnUse"><stop offset="0" class="style6"/><stop offset="1" class="style7"/></radialGradient><path class="st34" d="M50.6 60.7c6.1 7.8 15.7 12.4 26.6 12.4c10.9 0 20.4-4.6 26.5-12.4L50.6 60.7z"/></g><path class="st35" d="M77.5 2.7V73c19.1-0.3 34.6-15.9 34.6-35.1C112.1 18.6 96.6 3 77.5 2.7z"/></g><g><g><line class="st0" x1="43.3" y1="50.2" x2="42.5" y2="50.9"/></g></g></svg>