<svg width="38" height="38" viewBox="0 0 38 38" fill="none" xmlns="http://www.w3.org/2000/svg">
<path d="M38 19C38 29.4934 29.4934 38 19 38C8.50656 38 0 29.4934 0 19C0 8.50656 8.50656 0 19 0C29.4934 0 38 8.50656 38 19ZM16.8023 29.0603L30.8991 14.9636C31.3777 14.4849 31.3777 13.7087 30.8991 13.2301L29.1655 11.4965C28.6869 11.0178 27.9107 11.0178 27.4319 11.4965L15.9355 22.9929L10.5681 17.6255C10.0894 17.1468 9.31322 17.1468 8.83446 17.6255L7.10094 19.359C6.62227 19.8377 6.62227 20.6138 7.10094 21.0925L15.0687 29.0603C15.5474 29.539 16.3235 29.539 16.8023 29.0603Z" fill="#4582B4"/>
</svg>
