<svg width="52" height="43" viewBox="0 0 52 43" fill="none" xmlns="http://www.w3.org/2000/svg">
<path d="M41.1474 15.8388L40.4885 17.0253C40.2475 17.4651 39.7332 17.6476 39.2752 17.4734C38.3271 17.1083 37.4594 16.5856 36.6961 15.9301C36.3264 15.6148 36.23 15.0588 36.4711 14.6274L37.1299 13.4408C36.5755 12.777 36.1416 12.0054 35.8524 11.1673H34.5266C34.0445 11.1673 33.6267 10.8105 33.5464 10.3127C33.3857 9.317 33.3776 8.27152 33.5464 7.23434C33.6267 6.73649 34.0445 6.37141 34.5266 6.37141H35.8524C36.1416 5.53336 36.5755 4.7617 37.1299 4.09791L36.4711 2.91137C36.23 2.47991 36.3184 1.92398 36.6961 1.60868C37.4594 0.953178 38.3352 0.430439 39.2752 0.0653521C39.7332 -0.108894 40.2475 0.0736495 40.4885 0.513414L41.1474 1.69995C41.991 1.5423 42.8508 1.5423 43.6944 1.69995L44.3533 0.513414C44.5943 0.0736495 45.1086 -0.108894 45.5666 0.0653521C46.5147 0.430439 47.3824 0.953178 48.1458 1.60868C48.5154 1.92398 48.6118 2.47991 48.3707 2.91137L47.7119 4.09791C48.2663 4.7617 48.7002 5.53336 48.9894 6.37141H50.3152C50.7973 6.37141 51.2151 6.7282 51.2954 7.22604C51.4561 8.22173 51.4642 9.26721 51.2954 10.3044C51.2151 10.8022 50.7973 11.1673 50.3152 11.1673H48.9894C48.7002 12.0054 48.2663 12.777 47.7119 13.4408L48.3707 14.6274C48.6118 15.0588 48.5234 15.6148 48.1458 15.9301C47.3824 16.5856 46.5066 17.1083 45.5666 17.4734C45.1086 17.6476 44.5943 17.4651 44.3533 17.0253L43.6944 15.8388C42.8588 15.9964 41.991 15.9964 41.1474 15.8388ZM40.3037 10.9599C43.3971 13.4159 46.9245 9.77336 44.5461 6.57884C41.4527 4.1145 37.9254 7.76538 40.3037 10.9599ZM31.0395 23.7296L33.7472 25.1236C34.5588 25.6049 34.9123 26.6255 34.5909 27.5382C33.8758 29.5462 32.4697 31.3882 31.1681 32.9979C30.5735 33.7364 29.545 33.9189 28.7335 33.4377L26.3953 32.0437C25.1098 33.1804 23.6153 34.0849 21.9842 34.674V37.4619C21.9842 38.4244 21.3173 39.2542 20.4013 39.4201C18.4247 39.7686 16.3517 39.7852 14.3028 39.4201C13.3788 39.2542 12.6959 38.4327 12.6959 37.4619V34.674C11.0648 34.0766 9.5703 33.1804 8.28472 32.0437L5.94657 33.4294C5.14308 33.9106 4.10658 33.7281 3.512 32.9896C2.21035 31.3799 0.836382 29.5379 0.121278 27.5382C-0.200118 26.6338 0.153417 25.6132 0.96494 25.1236L3.64056 23.7296C3.32719 21.9955 3.32719 20.2115 3.64056 18.4691L0.96494 17.0668C0.153417 16.5856 -0.208152 15.565 0.121278 14.6605C0.836382 12.6526 2.21035 10.8105 3.512 9.20083C4.10658 8.46236 5.13504 8.27982 5.94657 8.76107L8.28472 10.155C9.5703 9.01829 11.0648 8.11387 12.6959 7.52475V4.72851C12.6959 3.77431 13.3547 2.94456 14.2707 2.77861C16.2473 2.43012 18.3283 2.41353 20.3772 2.77032C21.3012 2.93627 21.9842 3.75771 21.9842 4.72851V7.51645C23.6153 8.11387 25.1098 9.00999 26.3953 10.1467L28.7335 8.75277C29.537 8.27152 30.5735 8.45406 31.1681 9.19254C32.4697 10.8022 33.8356 12.6443 34.5507 14.6522C34.8721 15.5567 34.5588 16.5773 33.7472 17.0668L31.0395 18.4608C31.3529 20.2032 31.3529 21.9872 31.0395 23.7296ZM21.5905 25.4804C26.3471 19.0914 19.2845 11.7979 13.0976 16.71C8.34096 23.099 15.4036 30.3925 21.5905 25.4804ZM41.1474 40.6398L40.4885 41.8264C40.2475 42.2661 39.7332 42.4487 39.2752 42.2744C38.3271 41.9093 37.4594 41.3866 36.6961 40.7311C36.3264 40.4158 36.23 39.8599 36.4711 39.4284L37.1299 38.2419C36.5755 37.5781 36.1416 36.8064 35.8524 35.9684H34.5266C34.0445 35.9684 33.6267 35.6116 33.5464 35.1137C33.3857 34.118 33.3776 33.0726 33.5464 32.0354C33.6267 31.5375 34.0445 31.1724 34.5266 31.1724H35.8524C36.1416 30.3344 36.5755 29.5627 37.1299 28.899L36.4711 27.7124C36.23 27.281 36.3184 26.725 36.6961 26.4097C37.4594 25.7542 38.3352 25.2315 39.2752 24.8664C39.7332 24.6921 40.2475 24.8747 40.4885 25.3145L41.1474 26.501C41.991 26.3433 42.8508 26.3433 43.6944 26.501L44.3533 25.3145C44.5943 24.8747 45.1086 24.6921 45.5666 24.8664C46.5147 25.2315 47.3824 25.7542 48.1458 26.4097C48.5154 26.725 48.6118 27.281 48.3707 27.7124L47.7119 28.899C48.2663 29.5627 48.7002 30.3344 48.9894 31.1724H50.3152C50.7973 31.1724 51.2151 31.5292 51.2954 32.0271C51.4561 33.0228 51.4642 34.0683 51.2954 35.1054C51.2151 35.6033 50.7973 35.9684 50.3152 35.9684H48.9894C48.7002 36.8064 48.2663 37.5781 47.7119 38.2419L48.3707 39.4284C48.6118 39.8599 48.5234 40.4158 48.1458 40.7311C47.3824 41.3866 46.5066 41.9093 45.5666 42.2744C45.1086 42.4487 44.5943 42.2661 44.3533 41.8264L43.6944 40.6398C42.8588 40.7975 41.991 40.7975 41.1474 40.6398ZM40.3037 35.7526C43.3971 38.2087 46.9245 34.5661 44.5461 31.3716C41.4527 28.9155 37.9254 32.5581 40.3037 35.7526Z" fill="#4582B4"/>
</svg>
