<svg width="40" height="42" viewBox="0 0 40 42" fill="none" xmlns="http://www.w3.org/2000/svg">
<path d="M37.2676 6.86604L21.5176 0.303545C21.0378 0.10452 20.5235 0.0020752 20.0041 0.0020752C19.4847 0.0020752 18.9704 0.10452 18.4906 0.303545L2.74062 6.86604C1.27227 7.47308 0.3125 8.90862 0.3125 10.5C0.3125 26.7832 9.70508 38.0379 18.4824 41.6965C19.4504 42.0985 20.5414 42.0985 21.5094 41.6965C28.5395 38.768 39.6875 28.6535 39.6875 10.5C39.6875 8.90862 38.7277 7.47308 37.2676 6.86604ZM20.0082 36.6106L20 5.35667L34.4293 11.3696C34.1586 23.7891 27.6945 32.7879 20.0082 36.6106Z" fill="#4582B4"/>
</svg>
