<svg width="147" height="26" viewBox="0 0 147 26" fill="none" xmlns="http://www.w3.org/2000/svg">
<path d="M4.34319 23.3449L0.167049 7.55909C-0.41761 5.22046 1.33637 2.96534 3.675 2.96534L6.51478 16.2455L7.51705 22.8438H6.84887L7.85114 16.4125C7.85114 16.2455 7.93466 16.0784 7.93466 15.9114L10.858 4.88637C11.192 3.71705 12.1943 2.88182 13.3636 2.88182C14.533 2.88182 15.6188 3.71705 15.8693 4.80284L18.8761 16.0784L20.129 22.7602H19.4608L20.4631 16.0784L23.1358 2.7983C25.4744 2.7983 27.1449 4.96989 26.5602 7.225L22.4676 23.0943C22.1335 24.4307 20.9642 25.3494 19.5443 25.3494C18.208 25.3494 16.9551 24.4307 16.621 23.0943L13.8648 12.5705L12.779 5.72159C12.6955 5.05341 13.1966 4.46875 13.8648 4.46875L12.6119 12.5705L9.77216 23.1778C9.43807 24.4307 8.26875 25.3494 7.01591 25.3494C5.76307 25.433 4.67728 24.5977 4.34319 23.3449Z" fill="white"/>
<path d="M34.5784 25.5165C33.075 25.5165 31.9057 25.2659 30.8199 24.7648C29.8176 24.2636 28.9824 23.5955 28.3142 22.8437C27.646 22.092 27.2284 21.0898 26.9778 20.004C26.7273 18.9182 26.5602 17.7489 26.5602 16.5795C26.5602 14.8256 26.9778 13.3222 27.646 12.0693C28.3142 10.8165 29.3165 9.89773 30.5693 9.31307C31.8222 8.64489 33.242 8.39432 34.7455 8.39432C36.75 8.39432 38.2534 8.81193 39.4227 9.64716C40.5921 10.4824 41.4273 11.5682 41.9284 12.9045C42.4296 14.2409 42.6801 15.7443 42.6801 17.3313C42.6801 19.0852 42.2625 20.6722 41.5943 21.8415C40.9261 23.0108 39.9239 24.0131 38.671 24.5977C37.5852 25.1824 36.1653 25.5165 34.5784 25.5165ZM34.7455 22.2591C35.9148 22.2591 36.8335 21.8415 37.3347 20.9227C37.8358 20.004 38.1699 18.7511 38.1699 16.9972C38.1699 15.9949 38.0864 15.0761 37.8358 14.2409C37.5852 13.4057 37.2511 12.7375 36.75 12.2364C36.2489 11.7352 35.5807 11.4847 34.829 11.4847C33.6597 11.4847 32.7409 11.9023 32.2398 12.821C31.7386 13.7398 31.4045 14.9926 31.4045 16.6631C31.4045 17.6653 31.4881 18.5841 31.7386 19.5028C31.9892 20.3381 32.3233 21.0062 32.8244 21.5909C33.3256 22.1756 33.9102 22.2591 34.7455 22.2591Z" fill="white"/>
<path d="M44.4341 25.2659V10.6494C44.4341 9.48012 45.3528 8.56137 46.5222 8.56137C47.608 8.56137 48.5267 9.39659 48.6102 10.3989L48.6937 11.1506L49.0278 11.9858V25.2659H44.4341ZM48.7773 14.3244L48.5267 11.067C48.6937 10.5659 49.0278 10.1483 49.529 9.73068C50.0301 9.31307 50.6148 8.97898 51.283 8.64489C51.9511 8.3108 52.6193 8.22728 53.371 8.22728C53.7051 8.22728 53.9557 8.22727 54.2062 8.3108C54.4568 8.3108 54.6239 8.39432 54.7909 8.47784V12.9045C54.6239 12.821 54.4568 12.7375 54.1227 12.654C53.8722 12.5705 53.371 12.4869 52.7864 12.4869C52.0347 12.4869 51.45 12.5705 50.9489 12.821C50.4477 13.0716 50.0301 13.2386 49.6125 13.5727C49.2784 13.8233 48.9443 14.1574 48.7773 14.3244Z" fill="white"/>
<path d="M71.579 8.47784L60.3869 20.3381L60.6375 19.3358L60.721 22.2591V25.2659H56.2108V15.3267V3.13239C56.2108 1.87955 57.2131 0.877273 58.4659 0.877273C59.7187 0.877273 60.721 1.87955 60.721 3.13239V11.6517L60.4705 16.7466L59.8023 16.0784L63.8114 11.4011C65.3983 9.56364 67.7369 8.47784 70.2426 8.47784H71.579ZM62.1409 17.7489L65.1477 14.6585L70.3261 25.2659H69.2403C67.8205 25.2659 66.4006 24.5142 65.6489 23.2614L62.1409 17.7489Z" fill="white"/>
<path d="M70.7437 25.2659L72.9989 8.47784H75.0034L74.5858 12.4034C75.5045 11.2341 76.6739 10.2318 77.8432 9.48012C79.096 8.72841 80.2653 8.3108 81.4347 8.3108C82.604 8.3108 83.5227 8.64489 84.0239 9.31307C84.525 9.98125 84.8591 10.9835 84.8591 12.4034C84.8591 12.7375 84.8591 13.1551 84.7756 13.5727C84.692 14.0739 84.692 14.6585 84.525 15.3267C84.3579 15.9949 84.358 16.8301 84.1909 17.7489C84.1909 17.9159 84.1074 18.1665 84.1074 18.417C84.1074 18.6676 84.0239 19.0017 83.9403 19.3358C83.8568 19.6699 83.8568 20.171 83.7733 20.6722C83.6898 21.1733 83.6062 21.8415 83.5227 22.5932C83.4392 23.3449 83.2722 24.2636 83.1051 25.2659H81.017C81.1006 24.9318 81.1006 24.4307 81.1841 23.846C81.2676 23.2614 81.3511 22.5097 81.5182 21.5074C81.6852 20.5051 81.8523 19.2523 82.1028 17.7489C82.2699 16.329 82.4369 15.3267 82.5205 14.4915C82.6875 13.6563 82.6875 13.0716 82.6875 12.5705C82.6875 11.7352 82.5205 11.1506 82.2699 10.8165C81.9358 10.4824 81.4347 10.3153 80.6829 10.3153C80.1818 10.3153 79.5972 10.4824 79.0125 10.733C78.4278 10.9835 77.8432 11.4011 77.2585 11.8188C76.6739 12.2364 76.1727 12.7375 75.6716 13.2386C75.1704 13.7398 74.7528 14.2409 74.4187 14.742L72.9989 25.2659H70.7437Z" fill="white"/>
<path d="M86.6966 14.2409C86.6966 12.4034 86.9472 10.733 87.5318 9.31307C88.1165 7.89318 88.8682 6.72387 89.8705 5.72159C90.8727 4.71932 92.042 4.05114 93.3784 3.55C94.7148 3.04887 96.1347 2.7983 97.6381 2.7983C98.7239 2.7983 99.6426 2.88182 100.311 2.96534C101.063 3.04887 101.647 3.21591 102.148 3.38296C102.9 3.55 103.401 4.30171 103.234 5.05341L102.816 7.80966C102.649 7.72614 102.315 7.55909 101.981 7.30853C101.647 7.05796 101.062 6.97443 100.394 6.80739C99.7261 6.64034 98.8909 6.55682 97.9722 6.55682C96.7193 6.55682 95.55 6.89091 94.6313 7.47557C93.629 8.06023 92.8773 8.89546 92.2926 10.0648C91.708 11.1506 91.4574 12.4869 91.4574 14.0739C91.4574 15.6608 91.708 16.9972 92.2091 18.25C92.7102 19.4193 93.4619 20.3381 94.4642 21.0898C95.4665 21.758 96.7193 22.092 98.1392 22.092C98.8074 22.092 99.4756 22.0085 100.144 21.8415C100.812 21.6744 101.48 21.5074 101.981 21.2568C102.482 21.0063 102.9 20.8392 103.151 20.5886V23.0943C103.151 23.9295 102.566 24.7648 101.814 25.0153C101.313 25.1824 100.728 25.3494 99.9767 25.5165C99.3085 25.6835 98.5568 25.6835 97.6381 25.6835C95.2994 25.6835 93.2949 25.1824 91.708 24.2636C90.121 23.3449 88.7847 22.0085 87.8659 20.3381C87.1977 18.5006 86.6966 16.496 86.6966 14.2409Z" fill="white"/>
<path d="M109.832 25.6C108.747 25.6 107.828 25.3494 107.076 24.9318C106.241 24.5142 105.656 23.9295 105.239 23.0943C104.821 22.3426 104.57 21.4239 104.57 20.4216C104.57 19.4193 104.821 18.5006 105.406 17.8324C105.99 17.1642 106.742 16.496 107.661 16.0784C108.329 15.8278 108.997 15.5773 109.832 15.4102C110.584 15.2432 111.419 15.1597 112.171 15.0761C112.923 14.9926 113.674 14.9926 114.343 14.9926L115.094 15.9114L114.343 17.4148C114.009 17.4148 113.591 17.4148 113.09 17.4983C112.672 17.5818 112.171 17.5818 111.753 17.7489C111.336 17.8324 111.002 17.9159 110.668 18.083C110.25 18.25 109.916 18.5006 109.582 18.8347C109.248 19.1688 109.164 19.5864 109.164 20.2545C109.164 21.0898 109.415 21.6744 109.832 22.092C110.25 22.5097 110.835 22.6767 111.586 22.6767C111.92 22.6767 112.338 22.5932 112.672 22.5097C113.006 22.4261 113.34 22.2591 113.674 22.1756C114.009 22.092 114.176 21.925 114.259 21.758L115.094 22.6767L114.51 23.9295C114.092 24.3472 113.424 24.6812 112.672 25.0989C111.92 25.5165 110.918 25.6 109.832 25.6ZM118.853 25.3494H114.51V22.8437H114.259V13.8233C114.259 12.9881 114.009 12.4034 113.591 12.1528C113.173 11.9023 112.505 11.7352 111.67 11.7352C111.002 11.7352 110.417 11.8188 109.665 11.9023C108.997 11.9858 108.329 12.1528 107.744 12.3199H107.661C106.826 12.5705 105.99 12.1528 105.74 11.3176C105.489 10.4824 105.907 9.64716 106.659 9.31307C106.742 9.31307 106.826 9.22955 106.909 9.22955C107.661 8.97898 108.496 8.72841 109.415 8.47784C110.334 8.3108 111.252 8.14375 112.255 8.14375C113.758 8.14375 115.094 8.3108 116.097 8.64489C117.099 8.97898 117.851 9.64716 118.352 10.4824C118.853 11.3176 119.103 12.5705 119.103 14.0739V25.3494H118.853Z" fill="white"/>
<path d="M121.693 25.3494V10.733C121.693 9.56363 122.611 8.64488 123.781 8.64488C124.866 8.64488 125.785 9.48011 125.869 10.4824L125.952 11.2341L126.286 12.0693V25.3494H121.693ZM125.952 14.408L125.702 11.1506C125.869 10.6494 126.203 10.2318 126.704 9.8142C127.205 9.39659 127.79 9.0625 128.458 8.72841C129.126 8.47784 129.794 8.31079 130.546 8.31079C130.88 8.31079 131.131 8.31079 131.381 8.39432C131.632 8.39432 131.799 8.47784 131.966 8.56136V12.9881C131.799 12.9045 131.632 12.821 131.298 12.7375C130.964 12.654 130.546 12.5705 129.961 12.5705C129.21 12.5705 128.625 12.654 128.124 12.9045C127.623 13.1551 127.205 13.3222 126.788 13.6562C126.453 13.9903 126.203 14.2409 125.952 14.408Z" fill="white"/>
<path d="M140.235 25.6C137.645 25.6 135.724 24.8483 134.305 23.2614C132.885 21.6744 132.216 19.5864 132.216 16.9136C132.216 15.3267 132.551 13.8233 133.135 12.5705C133.72 11.3176 134.639 10.2318 135.891 9.56363C137.061 8.81193 138.564 8.47784 140.235 8.39431C141.07 8.39431 141.905 8.47784 142.74 8.7284C143.492 8.97897 144.244 9.31306 144.828 9.8142C145.413 10.3153 145.914 10.9835 146.332 11.8187C146.749 12.654 146.916 13.7398 146.916 14.9091C146.916 15.4937 146.916 16.0784 146.916 16.5795C146.916 17.0807 146.833 17.5818 146.749 17.9159H134.639L134.973 15.4102H142.657C142.74 14.575 142.657 13.9068 142.49 13.2386C142.323 12.654 142.072 12.1528 141.738 11.8187C141.32 11.4847 140.819 11.3176 140.068 11.3176C139.399 11.3176 138.731 11.4847 138.23 11.9023C137.729 12.3199 137.311 12.9045 137.061 13.8233C136.81 14.742 136.643 15.9949 136.727 17.6653C136.727 18.7511 136.977 19.6699 137.395 20.2545C137.813 20.9227 138.314 21.4239 138.982 21.6744C139.65 21.925 140.402 22.092 141.32 22.092C141.822 22.092 142.323 22.092 142.907 22.0085C143.492 21.925 143.993 21.8415 144.494 21.6744C145.163 21.5074 145.831 21.8415 146.081 22.5097L146.415 23.7625C146.081 24.0966 145.497 24.3472 144.912 24.5977C144.244 24.8483 143.576 25.0989 142.74 25.1824C141.905 25.5165 141.07 25.6 140.235 25.6Z" fill="white"/>
</svg>
