<?xml version="1.0" encoding="utf-8"?>
<!-- Generator: Adobe Illustrator 19.0.0, SVG Export Plug-In . SVG Version: 6.00 Build 0)  -->
<svg version="1.1" id="Layer_1" xmlns="http://www.w3.org/2000/svg" xmlns:xlink="http://www.w3.org/1999/xlink" x="0px" y="0px"
	 viewBox="0 0 100 85" style="enable-background:new 0 0 100 85;" xml:space="preserve">
<style type="text/css">
	.st0{fill:#D8D8D8;}
</style>
<g>
	<g id="XMLID_59_">
		<path id="XMLID_63_" class="st0" d="M74.5,66.7H59.6V59h32.1c4.4,0,7.9-3.6,7.9-7.9V9.4c0-4.4-3.6-7.9-7.9-7.9H8.3
			C3.9,1.4,0.3,5,0.3,9.4v41.7c0,4.4,3.6,7.9,7.9,7.9h31.8v7.6H25.8c-4.4,0-7.9,3.6-7.9,7.9v1c0,4.4,3.6,7.9,7.9,7.9h48.7
			c4.4,0,7.9-3.6,7.9-7.9v-1C82.5,70.2,78.9,66.7,74.5,66.7 M12.7,53.7c-3.6,0-6.5-2.9-6.5-6.5v-34c0-3.6,2.9-6.5,6.5-6.5h74.5
			c3.6,0,6.5,2.9,6.5,6.5v34c0,3.6-2.9,6.5-6.5,6.5H12.7z M74.7,73.8H61.2c-0.8,0-1.5-0.7-1.5-1.5c0-0.8,0.7-1.5,1.5-1.5h13.5
			c0.8,0,1.5,0.7,1.5,1.5C76.2,73.2,75.5,73.8,74.7,73.8"/>
		<g id="XMLID_60_">
			<path id="XMLID_61_" class="st0" d="M60.8,23.4h-8.5V22c0-1.5-0.1-2.5-0.3-2.9c-0.2-0.5-0.6-0.7-1.3-0.7c-0.5,0-0.9,0.2-1.2,0.6
				c-0.3,0.4-0.4,1-0.4,1.8c0,1.3,0.3,2.3,0.8,2.8c0.5,0.5,2.1,1.6,4.6,3.1c2.2,1.3,3.6,2.3,4.4,3c0.8,0.7,1.5,1.7,2,3
				c0.5,1.3,0.8,2.9,0.8,4.8c0,3-0.7,5.4-2.2,7.1c-1.5,1.7-3.7,2.8-6.6,3.2V51h-3.9v-3.3c-2.3-0.2-4.3-1.1-6-2.6
				c-1.7-1.5-2.6-4.2-2.6-8v-1.7h8.5v2.1c0,2.3,0.1,3.7,0.3,4.3c0.2,0.6,0.6,0.8,1.3,0.8c0.6,0,1-0.2,1.3-0.6c0.3-0.4,0.4-1,0.4-1.7
				c0-1.9-0.1-3.3-0.4-4.1c-0.3-0.8-1.2-1.7-2.7-2.7c-2.6-1.6-4.4-2.8-5.3-3.6c-0.9-0.8-1.7-1.8-2.4-3.2c-0.7-1.4-1-3-1-4.7
				c0-2.5,0.7-4.5,2.2-6c1.4-1.4,3.6-2.3,6.5-2.7v-2.7H53v2.7c2.6,0.3,4.6,1.2,5.9,2.6c1.3,1.4,2,3.4,2,5.9
				C60.9,22.2,60.9,22.7,60.8,23.4z"/>
		</g>
	</g>
</g>
</svg>
