<?xml version="1.0" encoding="utf-8"?>
<!-- Generator: Adobe Illustrator 18.0.0, SVG Export Plug-In . SVG Version: 6.00 Build 0)  -->
<!DOCTYPE svg PUBLIC "-//W3C//DTD SVG 1.1//EN" "http://www.w3.org/Graphics/SVG/1.1/DTD/svg11.dtd">
<svg version="1.1" id="Layer_1" xmlns="http://www.w3.org/2000/svg" xmlns:xlink="http://www.w3.org/1999/xlink" x="0px" y="0px"
	 viewBox="0 0 24 24" enable-background="new 0 0 24 24" xml:space="preserve">
<path fill="#78909C" d="M22.6,24H1.4c-0.2,0-0.4-0.1-0.6-0.3c-0.2-0.2-0.3-0.4-0.3-0.6V4c0-0.2,0.1-0.4,0.3-0.6
	C1,3.2,1.2,3.1,1.4,3.1h2.2v1.3c0,0.8,0.3,1.4,0.8,1.9c0.5,0.5,1.2,0.8,1.9,0.8c0.8,0,1.5-0.3,2-0.8c0.5-0.5,0.8-1.2,0.8-1.9V3.1
	h5.7v1.3c0,0.8,0.3,1.4,0.8,1.9c0.5,0.5,1.2,0.8,2,0.8c0.8,0,1.4-0.3,1.9-0.8c0.5-0.5,0.8-1.2,0.8-1.9V3.1h2.1
	c0.3,0,0.5,0.1,0.6,0.2c0.2,0.2,0.3,0.4,0.3,0.6v19.1c0,0.2-0.1,0.4-0.3,0.6C23,23.9,22.8,24,22.6,24z M8.2,10.4H4.3v3.8h3.8V10.4z
	 M8.2,16H4.3v3.8h3.8V16z M5,4.5V1.3c0-0.3,0.1-0.6,0.4-0.9C5.6,0.1,5.9,0,6.3,0S7,0.1,7.2,0.4c0.3,0.3,0.4,0.6,0.4,0.9v3.2
	c0,0.3-0.1,0.6-0.4,0.9C6.9,5.6,6.6,5.7,6.3,5.7S5.6,5.6,5.4,5.3C5.1,5.1,5,4.8,5,4.5z M13.9,10.4h-3.8v3.8h3.8V10.4z M13.9,16h-3.8
	v3.8h3.8V16z M19.7,10.4h-3.8v3.8h3.8V10.4z M19.7,16h-3.8v3.8h3.8V16z M16.8,5.4c-0.3-0.2-0.4-0.5-0.4-0.9V1.3
	c0-0.4,0.1-0.7,0.4-0.9C17,0.1,17.3,0,17.6,0c0.4,0,0.7,0.1,0.9,0.4c0.2,0.2,0.3,0.5,0.3,0.9v3.2c0,0.4-0.1,0.7-0.3,0.9
	c-0.3,0.3-0.6,0.4-0.9,0.4C17.3,5.8,17,5.6,16.8,5.4z"/>
</svg>
