<svg xmlns="http://www.w3.org/2000/svg" xmlns:xlink="http://www.w3.org/1999/xlink" version="1.1" id="Layer_1" x="0px" y="0px" viewBox="0 0 218.6 184.6" xml:space="preserve" class="style0"><style>.style0{enable-background:	new 0 0 218.6 184.6;}</style><style type="text/css">.st0{fill:#BBC1C5;}.st1{fill:#EBEEEF;}.st2{fill:#DBDDDF;}.st3{fill:#CFD2D5;}.st4{fill:#FFFFFF;}.st5{fill:#E15437;}</style><g><g><rect x="0" y="38.1" class="st0" width="192.7" height="146.5"/><rect x="0" y="35.5" class="st1" width="192.7" height="146.5"/><polyline class="st2" points="0,35.8 0,182.2 96.4,111.6 0,35.8"/><polyline class="st3" points="192.7,35.8 192.7,182.2 96.4,111.6 192.7,35.8"/><polyline class="st0" points="96.4,137.1 0,35.5 192.7,35.5 96.4,137.1"/><polyline class="st4" points="96.4,116.5 0,35.5 192.7,35.5 96.4,116.5"/></g><path class="st5" d="M189.2 0c-16.2 0-29.4 13.2-29.4 29.4c0 16.2 13.2 29.4 29.4 29.4c16.2 0 29.4-13.2 29.4-29.4 C218.6 13.2 205.4 0 189.2 0 M189.2 12.9c1.7 0 3.1 1.4 3.1 3.1L191.4 36c0 1.8-1.1 2.8-2.2 2.8c-1.1 0-2.2-1-2.2-2.9l-1-19.8 C186 14.3 187.4 12.9 189.2 12.9 M189.2 47.8c-1.7 0-3.2-1.4-3.2-3.2c0-1.7 1.4-3.2 3.2-3.2c1.7 0 3.2 1.4 3.2 3.2 C192.3 46.4 190.9 47.8 189.2 47.8"/></g></svg>