<svg xmlns="http://www.w3.org/2000/svg" xmlns:xlink="http://www.w3.org/1999/xlink" version="1.1" id="Layer_1" x="0px" y="0px" viewBox="0 0 349.2 335.2" xml:space="preserve" class="style0"><style>.style0{enable-background:	new 0 0 349.2 335.2;}</style><style type="text/css">.st0{fill:#192730;}.st1{fill:#E5E6E7;}.st2{fill:#A3B0B8;}.st3{fill:#F2F2F3;}.st4{fill:#3D505A;}.st5{fill:#FFFFFF;}.st6{fill:#F23243;}.st7{fill:#F66B78;}.st8{fill:#EBEEEF;}.st9{fill:#FFFFFF;stroke:#CFD2D5;stroke-width:0.735;stroke-miterlimit:10;}.st10{fill:#92A4A5;}.st11{fill:#CFD2D5;}.st12{fill-rule:evenodd;clip-rule:evenodd;fill:#EFCAA4;}.st13{fill-rule:evenodd;clip-rule:evenodd;fill:#D1AD88;}.st14{fill-rule:evenodd;clip-rule:evenodd;fill:#EBC2AE;}.st15{fill:#929497;}.st16{fill-rule:evenodd;clip-rule:evenodd;fill:#006AB6;}.st17{fill-rule:evenodd;clip-rule:evenodd;fill:#0088D4;}.st18{fill-rule:evenodd;clip-rule:evenodd;fill:#B0CAD9;}.st19{fill-rule:evenodd;clip-rule:evenodd;fill:#D1E2EB;}.st20{fill-rule:evenodd;clip-rule:evenodd;fill:#58B1E3;}.st21{fill-rule:evenodd;clip-rule:evenodd;fill:#8DCAEC;}.st22{fill-rule:evenodd;clip-rule:evenodd;fill:#F85A68;}.st23{fill-rule:evenodd;clip-rule:evenodd;fill:#C62229;}.st24{fill-rule:evenodd;clip-rule:evenodd;fill:#FFFFFF;}.st25{fill-rule:evenodd;clip-rule:evenodd;fill:#D0D0D0;}.st26{fill-rule:evenodd;clip-rule:evenodd;fill:#AAE1F1;}.st27{fill-rule:evenodd;clip-rule:evenodd;fill:#45BFE0;}.st28{fill-rule:evenodd;clip-rule:evenodd;fill:#F0B16C;}.st29{fill-rule:evenodd;clip-rule:evenodd;fill:#C78B4C;}.st30{fill-rule:evenodd;clip-rule:evenodd;fill:#11ADD7;}</style><g id="XMLID_2_"><g id="XMLID_70_"><g id="XMLID_89_"><path id="XMLID_95_" class="st0" d="M134.9 229.7c0 8-6.6 14.6-14.6 14.6H14.6c-8 0-14.6-6.6-14.6-14.6V14.6C0 6.6 6.6 0 14.6 0 h105.7c8 0 14.6 6.6 14.6 14.6V229.7"/><rect id="XMLID_94_" x="10.9" y="21.9" class="st1" width="113" height="189.6"/><polyline id="XMLID_93_" class="st2" points="124,160.4 124,160.4 124,21.9 124,160.4"/><polyline id="XMLID_92_" class="st3" points="124,160.4 64.9,21.9 124,21.9 124,160.4"/><path id="XMLID_91_" class="st4" d="M74 228.1c0 4.2-3.4 7.5-7.5 7.5c-4.2 0-7.5-3.4-7.5-7.5c0-4.2 3.4-7.5 7.5-7.5 C70.6 220.5 74 223.9 74 228.1"/><rect id="XMLID_90_" x="54.7" y="7.3" class="st4" width="25.5" height="7.3"/></g><g id="XMLID_81_"><path id="XMLID_88_" class="st5" d="M103.9 102.4c0 2.5-2 4.5-4.5 4.5h-65c-2.5 0-4.5-2-4.5-4.5V53.3c0-2.5 2-4.5 4.5-4.5h65 c2.5 0 4.5 2 4.5 4.5V102.4"/><g id="XMLID_82_"><path id="XMLID_87_" class="st6" d="M99.8 100.1c0 0.7-0.6 1.3-1.3 1.3H34.8c-0.7 0-1.3-0.6-1.3-1.3V54.5c0-0.7 0.6-1.3 1.3-1.3 h63.7c0.7 0 1.3 0.6 1.3 1.3V100.1z"/><rect id="XMLID_86_" x="33.5" y="53.3" class="st7" width="66.2" height="24.5"/><g id="XMLID_83_"><path id="XMLID_85_" class="st8" d="M66.8 86.4c-11 0-20 7.1-20 15.8h40C86.8 93.4 77.8 86.4 66.8 86.4"/><path id="XMLID_84_" class="st8" d="M66.8 83.7c5 0 9.1-4.1 9.1-9.1c0-5-4.1-9.1-9.1-9.1c-5 0-9.1 4.1-9.1 9.1 C57.7 79.6 61.8 83.7 66.8 83.7"/></g></g></g><path id="XMLID_80_" class="st9" d="M103.8 173c0 2.5-2 4.5-4.5 4.5h-65c-2.5 0-4.5-2-4.5-4.5v-49.1c0-2.5 2-4.5 4.5-4.5h65 c2.5 0 4.5 2 4.5 4.5V173"/><g id="XMLID_71_"><path id="XMLID_79_" class="st8" d="M99.7 165.5c0 1-0.9 1.9-1.9 1.9H35.1c-1 0-1.9-0.9-1.9-1.9v-38.9c9.1 0 59.4 0 66.4 0V165.5 "/><rect id="XMLID_78_" x="36.1" y="130.4" class="st10" width="20.9" height="2.8"/><rect id="XMLID_77_" x="36.1" y="137.1" class="st11" width="39.9" height="2.8"/><rect id="XMLID_76_" x="36.1" y="142.8" class="st11" width="39.9" height="2.8"/><rect id="XMLID_75_" x="36.1" y="148.5" class="st11" width="39.9" height="2.8"/><rect id="XMLID_74_" x="36.1" y="154.1" class="st11" width="39.9" height="2.8"/><rect id="XMLID_73_" x="36.1" y="159.8" class="st11" width="39.9" height="2.8"/><rect id="XMLID_72_" x="78.8" y="137.1" class="st11" width="18" height="25.6"/></g></g><g id="XMLID_57_"><path id="XMLID_69_" class="st12" d="M148.4 335.2c0.2-4.1 0.4-8.5 0.6-12.8c0.6-10.7 10.3-31.7 15.2-43.5 c5-11.8 6.6-22.7 5.2-31.1c-1.4-8.4-1.5-19.8-7.9-20.4c-6.4-0.6-7.7 1.5-7.7 1.5s-1-13.7-7.6-15.7c-6.6-2-9.5 1.7-9.5 1.7 s1.2-9.9-5.7-12.3c-7-2.4-9 0.3-9 0.3s0.9-22.9 2.1-32.8c1.2-9.9 1.3-15.3-2.9-16.4c-4.2-1.1-10.8 0.5-12.3 13.3 c-1.5 12.8-6.4 32.1-7.5 41.3c-1.2 9.2-3.9 28.3-7.6 38.4c-3.7 10.1-3 10.5-4.9 7.5c-1.9-3 2.1-9.1 1.3-12.7 c-0.8-3.6 3.2-10.2 5.9-12.4c2.7-2.3 3.3-13.3 0.7-16.1c-2.6-2.7-4.9-0.8-9.9 6.3c-4.9 7.1-14.2 6.7-15.2 14.4 c-1 7.8-2.5 20.6-3.3 25.2c-0.8 4.6 2.8 17.4 8.8 26.6c6 9.1 16.7 26.2 17.2 37.7c0.1 2.5 0.1 6.8-0.1 12.1H148.4z"/><path id="XMLID_68_" class="st13" d="M122.1 202.9c-0.1 3.5-2.2 19.4-2.8 24.2c-0.6 4.8 2.8 7.5 1.7 3.8 C120 227.1 122.4 213.3 122.1 202.9z"/><path id="XMLID_67_" class="st13" d="M136.8 214.9c-0.6 4.6-1.7 17.5 0.7 22c2.4 4.5 2.3 0.8 1.1-5.1 C137.5 226 137.5 222.9 136.8 214.9z"/><path id="XMLID_66_" class="st13" d="M153.9 229c-0.6 5.7-1.1 16.8 3.3 20.2c4.4 3.5 1.2-2 0-4.5 C156.1 242.2 154.7 237.9 153.9 229z"/><path id="XMLID_65_" class="st12" d="M120.5 153.2c-2.2-0.3-5.1-0.1-5.5 2.9c-0.4 3.1 0.2 7.7 3.2 8.4c3 0.7 5-1.6 5.3-5.5 C123.8 155.1 123.2 153.6 120.5 153.2z"/><path id="XMLID_64_" class="st14" d="M94.4 211.7c-1.8 0.2-4 2.7-7.3 7.5c0 0 0 0.1-0.1 0.1c2.5 0.4 4.4-1.5 5.8-3.2 C94.2 214.5 94.8 213 94.4 211.7z"/><path id="XMLID_61_" class="st13" d="M105.8 203.7c3.7 2.1 7.5 2.4 10.6 1.9C112.9 205 109 204.5 105.8 203.7L105.8 203.7z M117.6 199c-1.9-1.7-7.9-2.2-11.2-0.4C109.7 198.3 115.8 198.5 117.6 199z"/><path id="XMLID_58_" class="st13" d="M86.7 232.2c3.8 0 4.3 2.2 4.1 4.9C90.1 235.3 89.8 233.1 86.7 232.2L86.7 232.2z M84.8 258.7c2.4-0.5 3.3-0.6 4.9-3.5C87 257.5 86.5 257.8 84.8 258.7z"/></g><g id="XMLID_34_"><path id="XMLID_56_" class="st15" d="M48 35.3c0.5 0 1 0 1.4 0.1c0.4 0.1 0.8 0.2 1.1 0.4c0.3 0.2 0.6 0.3 0.8 0.5 c0.2 0.2 0.4 0.4 0.5 0.7c0.1 0.3 0.2 0.5 0.3 0.8c0.1 0.3 0.1 0.6 0.1 0.9c0 0.4 0 0.8-0.1 1.3c-0.1 0.5-0.2 0.9-0.4 1.3 c-0.2 0.4-0.4 0.8-0.6 1.1c-0.2 0.3-0.5 0.6-0.9 0.9c-0.3 0.3-0.7 0.5-1.1 0.6c-0.4 0.1-0.8 0.2-1.3 0.2c-0.2 0-0.3 0-0.5 0 c-0.2 0-0.3-0.1-0.5-0.1c-0.1 0-0.3-0.1-0.4-0.1c-0.1 0-0.2-0.1-0.3-0.2c0 0-0.1 0-0.1 0c0 0 0 0-0.1-0.1c0 0 0-0.1 0-0.1 c0 0 0-0.1 0-0.1c0-0.5 0-1.1 0-1.6c0-0.6 0.1-1.1 0.2-1.7c0.1-0.6 0.2-1.1 0.4-1.6c0.2-0.5 0.4-0.9 0.6-1.3 c0.1-0.1 0.3-0.1 0.6-0.1c0.3 0 0.5 0.1 0.6 0.3c-0.1 0.2-0.3 0.4-0.4 0.7c-0.1 0.2-0.2 0.5-0.3 0.7c-0.1 0.2-0.1 0.5-0.2 0.8 c-0.1 0.5-0.1 0.8-0.1 0.8c0 0 0 0.3-0.1 0.9c0 0.2-0.1 0.4-0.1 0.6c0 0.2 0 0.3 0 0.4c0 0.1 0 0.2 0 0.3c0 0.1 0 0.2 0 0.3 c0 0.1 0 0.1 0.1 0.2c0 0 0.1 0.1 0.1 0.1c0.1 0 0.1 0 0.3 0c0.3 0 0.6-0.1 0.9-0.2c0.3-0.1 0.6-0.3 0.8-0.5 c0.2-0.2 0.5-0.5 0.7-0.7c0.2-0.3 0.4-0.6 0.5-1c0.1-0.4 0.2-0.7 0.3-1c0.1-0.3 0.1-0.6 0.1-0.9c0-0.4-0.1-0.7-0.2-1 c-0.1-0.3-0.3-0.5-0.5-0.7c-0.2-0.2-0.5-0.4-0.8-0.5c-0.3-0.1-0.6-0.2-1-0.2c-0.3 0-0.5 0-0.8 0c-0.3 0-0.5 0.1-0.7 0.2 c-0.2 0.1-0.4 0.2-0.6 0.3c-0.2 0.1-0.3 0.2-0.4 0.4c-0.2 0.4-0.4 0.6-0.6 0.8c-0.2 0.2-0.3 0.3-0.4 0.3c-0.1 0-0.2-0.2-0.2-0.5 c0-0.3 0-0.6 0.1-0.9c0.1-0.3 0.2-0.5 0.3-0.7c0.1-0.2 0.3-0.4 0.5-0.5c0.2-0.1 0.4-0.2 0.7-0.3c0.2-0.1 0.5-0.2 0.8-0.2 C47.5 35.3 47.8 35.3 48 35.3"/><path id="XMLID_53_" class="st15" d="M55.7 39.9c0.1 0.2 0.2 0.4 0.2 0.6c0 0.2 0.1 0.4 0.1 0.7c0 0.2 0 0.4-0.1 0.6 c0 0.2-0.1 0.4-0.2 0.6c-0.1 0.2-0.2 0.3-0.3 0.5c-0.1 0.2-0.2 0.3-0.4 0.4c-0.1 0.1-0.3 0.2-0.5 0.3c-0.2 0.1-0.4 0.1-0.6 0.1 c-0.3 0-0.5-0.1-0.7-0.2c-0.2-0.1-0.4-0.3-0.5-0.5c-0.1-0.2-0.2-0.4-0.3-0.7c-0.1-0.3-0.1-0.5-0.1-0.8c0-0.4 0.1-0.8 0.2-1.1 c0.1-0.3 0.3-0.6 0.5-0.8c0.2-0.2 0.4-0.4 0.7-0.5c0.3-0.1 0.6-0.2 1-0.2c0.3 0 0.6 0 0.9 0.1c0.3 0.1 0.5 0.2 0.7 0.4 c0.2 0.2 0.5 0.4 0.7 0.6c0.2 0.2 0.4 0.5 0.6 0.7l-0.1 0.7c-0.1-0.1-0.2-0.2-0.4-0.4c-0.1-0.1-0.3-0.3-0.5-0.4 c-0.2-0.2-0.3-0.3-0.5-0.4C56 40.1 55.9 40 55.7 39.9L55.7 39.9z M54.3 42.7c0.1 0 0.2-0.1 0.3-0.2c0.1-0.1 0.2-0.2 0.3-0.4 c0.1-0.2 0.1-0.4 0.2-0.6c0-0.2 0.1-0.5 0.1-0.6c0-0.1 0-0.3 0-0.4c0-0.1-0.1-0.2-0.1-0.3c0-0.1-0.1-0.2-0.2-0.2 c-0.1-0.1-0.2-0.1-0.3-0.1c-0.1 0-0.3 0.1-0.4 0.2c-0.1 0.1-0.2 0.3-0.3 0.4c-0.1 0.2-0.2 0.4-0.2 0.6c-0.1 0.2-0.1 0.5-0.1 0.7 c0 0.1 0 0.3 0 0.4c0 0.1 0.1 0.2 0.1 0.3c0.1 0.1 0.1 0.2 0.2 0.2C54 42.7 54.1 42.7 54.3 42.7"/><path id="XMLID_52_" class="st15" d="M58.4 43.7c-0.3 0-0.6-0.1-0.8-0.2c-0.2-0.1-0.4-0.3-0.6-0.4c-0.2-0.2-0.3-0.4-0.3-0.6 c-0.1-0.2-0.1-0.5-0.1-0.8c0-0.2 0-0.4 0.1-0.7c0.1-0.3 0.1-0.5 0.2-0.7c0.1-0.2 0.2-0.4 0.3-0.6c0.1-0.2 0.2-0.3 0.4-0.5 c0.1-0.1 0.3-0.2 0.5-0.3c0.2-0.1 0.4-0.1 0.6-0.1c0.2 0 0.4 0 0.5 0.1c0.2 0.1 0.3 0.1 0.4 0.2c0.1 0.1 0.2 0.2 0.3 0.4 C60 39.7 60 39.8 60 40c0 0.1 0 0.2 0 0.3c0 0.1-0.1 0.2-0.2 0.4c-0.1 0.1-0.2 0.2-0.3 0.3C59.5 41 59.4 41 59.3 41 c-0.2 0-0.3 0-0.3-0.1c-0.1-0.1-0.1-0.2-0.1-0.3c0-0.1 0-0.2 0.1-0.4c0 0 0-0.1 0-0.2c0-0.1 0-0.1 0-0.2c0-0.1-0.1-0.1-0.1-0.1 c-0.1 0-0.2 0-0.3 0.1c-0.1 0.1-0.2 0.1-0.2 0.2c-0.1 0.1-0.1 0.2-0.2 0.4C58 40.7 58 40.9 57.9 41c0 0.1 0 0.2-0.1 0.4 c0 0.1 0 0.2 0 0.3c0 0.1 0 0.2 0 0.4c0 0.1 0.1 0.2 0.1 0.3c0.1 0.1 0.1 0.2 0.2 0.3c0.1 0.1 0.2 0.1 0.4 0.1 c0.2 0 0.3 0 0.5-0.1c0.2-0.1 0.4-0.2 0.6-0.4c0.2-0.1 0.4-0.3 0.5-0.5c0.2-0.2 0.4-0.5 0.5-0.6l0.2 0.7c-0.2 0.3-0.5 0.7-0.8 0.9 c-0.1 0.1-0.2 0.2-0.4 0.3c-0.1 0.1-0.3 0.2-0.4 0.3c-0.2 0.1-0.3 0.2-0.5 0.2C58.8 43.6 58.6 43.7 58.4 43.7"/><path id="XMLID_49_" class="st15" d="M64.6 42.6c-0.3 0.2-0.6 0.3-0.8 0.5c-0.2 0.1-0.5 0.2-0.6 0.3c-0.2 0.1-0.4 0.2-0.5 0.2 c-0.1 0-0.3 0.1-0.4 0.1c-0.2 0-0.5-0.1-0.6-0.2c-0.2-0.1-0.3-0.4-0.5-0.6c-0.1-0.3-0.2-0.6-0.3-1c-0.1-0.4-0.1-0.8-0.1-1.3 c0-0.2 0-0.4 0-0.6c0-0.2 0-0.4 0.1-0.7c-0.1 0-0.2 0-0.2 0c-0.1 0-0.1 0-0.2 0c-0.1 0-0.1 0-0.2 0c-0.1 0-0.2 0-0.4-0.1 c-0.1 0-0.1 0-0.2-0.1c0 0-0.1-0.1-0.1-0.1c0 0 0-0.1 0-0.1c0 0 0-0.1 0-0.1c0 0 0-0.1 0.1-0.1c0.1 0 0.1 0 0.2-0.1 c0.1 0 0.2 0 0.3 0c0.1 0 0.2 0 0.3 0c0.1 0 0.2 0 0.3 0c0.1 0 0.1 0 0.2 0c0.1-0.4 0.2-0.9 0.3-1.3c0.1-0.4 0.3-0.8 0.4-1.1 c0.2-0.3 0.3-0.6 0.5-0.8c0.2-0.2 0.4-0.3 0.6-0.3c0.1 0 0.3 0 0.4 0.1c0.1 0.1 0.2 0.2 0.3 0.3c0.1 0.1 0.1 0.3 0.2 0.5 c0 0.2 0.1 0.4 0.1 0.5c0 0.2 0 0.3-0.1 0.5c0 0.2-0.1 0.3-0.2 0.5c-0.1 0.2-0.2 0.4-0.3 0.5c-0.1 0.2-0.2 0.4-0.3 0.5 c0 0 0.1 0 0.1 0c0.1 0 0.1 0 0.2 0c0.1 0 0.2 0 0.3 0c0.1 0 0.2 0 0.3 0c0.1 0 0.2 0 0.3 0c0.1 0 0.2 0 0.2 0 c0.1 0 0.1 0 0.1 0.1c0 0.1 0 0.2 0 0.3c0 0.1 0 0.2-0.1 0.3c-0.1 0.1-0.1 0.1-0.2 0.1h-1.9c-0.1 0.1-0.2 0.3-0.3 0.4 C62 39.8 62 40 61.9 40.1c0 0.2 0 0.4 0 0.6c0 0.1 0 0.2 0 0.3c0 0.1 0 0.2 0 0.3c0 0.1 0 0.2 0 0.3c0 0.1 0 0.2 0 0.2 c0 0.2 0 0.3 0 0.4c0 0.1 0.1 0.2 0.1 0.3c0.1 0.1 0.1 0.1 0.2 0.2c0.1 0 0.2 0.1 0.3 0.1c0.1 0 0.2 0 0.3 0 c0.1 0 0.2-0.1 0.3-0.1c0.1-0.1 0.2-0.1 0.4-0.2c0.1-0.1 0.3-0.2 0.4-0.3c0.1-0.1 0.3-0.2 0.4-0.3c0.1-0.1 0.2-0.2 0.3-0.3V42.6z M63 36.5c0 0 0-0.1 0-0.1c0 0 0-0.1 0-0.1c0 0 0-0.1-0.1-0.1c0 0-0.1 0-0.1 0c-0.1 0-0.2 0.1-0.3 0.2c-0.1 0.1-0.2 0.3-0.2 0.6 c-0.1 0.2-0.2 0.5-0.2 0.8c-0.1 0.3-0.1 0.5-0.2 0.8c0 0 0.1 0 0.1 0c0 0 0.1 0 0.1 0c0.1-0.2 0.2-0.3 0.3-0.5 c0.1-0.2 0.2-0.4 0.3-0.6c0.1-0.2 0.2-0.4 0.2-0.5C63 36.7 63 36.6 63 36.5"/><path id="XMLID_46_" class="st15" d="M67.2 39.9c0.1 0.2 0.2 0.4 0.2 0.6c0 0.2 0.1 0.4 0.1 0.7c0 0.2 0 0.4-0.1 0.6 c0 0.2-0.1 0.4-0.2 0.6c-0.1 0.2-0.2 0.3-0.3 0.5c-0.1 0.2-0.2 0.3-0.4 0.4c-0.1 0.1-0.3 0.2-0.5 0.3c-0.2 0.1-0.4 0.1-0.6 0.1 c-0.3 0-0.5-0.1-0.7-0.2c-0.2-0.1-0.4-0.3-0.5-0.5c-0.1-0.2-0.2-0.4-0.3-0.7c-0.1-0.3-0.1-0.5-0.1-0.8c0-0.4 0.1-0.8 0.2-1.1 c0.1-0.3 0.3-0.6 0.5-0.8c0.2-0.2 0.4-0.4 0.7-0.5c0.3-0.1 0.6-0.2 1-0.2c0.3 0 0.6 0 0.9 0.1c0.3 0.1 0.5 0.2 0.7 0.4 c0.2 0.2 0.5 0.4 0.7 0.6c0.2 0.2 0.4 0.5 0.6 0.7l-0.1 0.7c-0.1-0.1-0.2-0.2-0.4-0.4c-0.1-0.1-0.3-0.3-0.5-0.4 c-0.2-0.2-0.3-0.3-0.5-0.4C67.5 40.1 67.3 40 67.2 39.9L67.2 39.9z M65.7 42.7c0.1 0 0.2-0.1 0.3-0.2c0.1-0.1 0.2-0.2 0.3-0.4 c0.1-0.2 0.1-0.4 0.2-0.6c0-0.2 0.1-0.5 0.1-0.6c0-0.1 0-0.3 0-0.4c0-0.1-0.1-0.2-0.1-0.3c0-0.1-0.1-0.2-0.2-0.2 c-0.1-0.1-0.2-0.1-0.3-0.1c-0.1 0-0.3 0.1-0.4 0.2c-0.1 0.1-0.2 0.3-0.3 0.4c-0.1 0.2-0.2 0.4-0.2 0.6C65 41.2 65 41.5 65 41.7 c0 0.1 0 0.3 0 0.4c0 0.1 0.1 0.2 0.1 0.3c0.1 0.1 0.1 0.2 0.2 0.2C65.5 42.7 65.6 42.7 65.7 42.7"/><path id="XMLID_45_" class="st15" d="M68.4 42.7c0-0.1 0-0.3 0-0.5c0-0.2 0-0.4 0.1-0.6c0-0.2 0.1-0.4 0.1-0.6 c0-0.2 0.1-0.4 0.1-0.7c0.1-0.2 0.1-0.5 0.1-0.6c0-0.2 0.1-0.3 0.1-0.4c0-0.1 0.1-0.1 0.1-0.2c0 0 0.1-0.1 0.1-0.1 c0 0 0.1 0 0.1 0c0 0 0.1 0 0.2 0c0.1 0 0.1 0 0.2 0c0 0 0.1 0 0.1 0.1c0 0 0 0.1 0 0.1c0 0.1 0 0.1 0 0.2c0 0.1 0 0.3 0 0.5 c0 0.2 0 0.4 0 0.6h0.1c0.1-0.1 0.1-0.3 0.2-0.5c0.1-0.2 0.2-0.4 0.3-0.5c0.1-0.1 0.2-0.3 0.4-0.4c0.1-0.1 0.3-0.1 0.5-0.1 c0.1 0 0.1 0 0.2 0c0.1 0 0.1 0.1 0.2 0.1c0 0 0.1 0.1 0.1 0.1c0 0.1 0 0.1 0 0.2c0 0.1 0 0.1 0 0.2c0 0.1 0 0.2-0.1 0.4 c0 0.2-0.1 0.3-0.1 0.4c0 0.1 0 0.2 0 0.3c0 0.1 0 0.2 0 0.3c0 0.1 0.1 0.1 0.1 0.2c0 0 0.1 0.1 0.1 0.1c0 0 0.1 0 0.1 0 c0.1 0 0.3 0 0.4-0.1c0.2-0.1 0.3-0.1 0.4-0.2c0.2-0.1 0.3-0.2 0.4-0.3l-0.1 1.1c-0.1 0.1-0.2 0.1-0.3 0.2 c-0.1 0.1-0.2 0.1-0.3 0.2c-0.1 0.1-0.2 0.1-0.4 0.1c-0.1 0-0.3 0.1-0.4 0.1c-0.2 0-0.4 0-0.6-0.1c-0.1-0.1-0.3-0.2-0.4-0.4 c-0.1-0.2-0.2-0.3-0.2-0.5c0-0.2-0.1-0.4-0.1-0.6h-0.1L69.5 43c0 0.1-0.1 0.2-0.1 0.3c0 0.1-0.1 0.1-0.1 0.2 c0 0.1-0.1 0.1-0.1 0.1c0 0-0.1 0-0.2 0c-0.1 0-0.2 0-0.3-0.1c-0.1-0.1-0.1-0.1-0.2-0.2c0-0.1-0.1-0.2-0.1-0.3 C68.4 42.9 68.4 42.8 68.4 42.7"/><path id="XMLID_42_" class="st15" d="M77.2 34.9c0.5 0 1 0.1 1.4 0.2c0.4 0.1 0.8 0.3 1 0.6c0.3 0.2 0.5 0.5 0.6 0.8 c0.1 0.3 0.2 0.6 0.2 1c0 0.3-0.1 0.6-0.2 0.9c-0.1 0.3-0.3 0.6-0.6 0.9c-0.2 0.3-0.6 0.5-0.9 0.7c-0.4 0.2-0.8 0.3-1.3 0.4 c0 0.2 0 0.4 0 0.6c0 0.1 0 0.2 0 0.3c0 0.1 0 0.2 0 0.2c0 0.1 0 0.1 0 0.2c0 0.1 0 0.1 0 0.1c0 0.2 0 0.5-0.1 0.7 c0 0.2-0.1 0.5-0.2 0.7c-0.1 0.2-0.2 0.5-0.3 0.7c-0.1 0.2-0.3 0.4-0.4 0.5c-0.2 0.2-0.4 0.3-0.6 0.4c-0.2 0.1-0.4 0.1-0.7 0.1 c-0.3 0-0.5-0.1-0.7-0.2c-0.2-0.1-0.4-0.3-0.5-0.6c-0.2-0.2-0.3-0.5-0.4-0.8c-0.1-0.3-0.2-0.6-0.3-0.9c-0.1-0.3-0.1-0.7-0.1-1 c0-0.3 0-0.6 0-0.9c0-0.5 0-1 0.1-1.5c0.1-0.5 0.2-0.9 0.4-1.3c0.2-0.4 0.4-0.8 0.6-1.1c0.2-0.3 0.5-0.6 0.8-0.9 c0.3-0.2 0.6-0.4 1-0.6C76.4 34.9 76.8 34.9 77.2 34.9 M74.3 40.3c0 0.1 0 0.3 0 0.5c0 0.2 0 0.5 0 0.7c0 0.3 0 0.5 0.1 0.8 c0 0.3 0.1 0.5 0.2 0.7c0.1 0.2 0.2 0.4 0.3 0.5c0.1 0.1 0.2 0.2 0.4 0.2c0.2 0 0.3-0.1 0.4-0.2c0.1-0.1 0.2-0.3 0.3-0.4 c0.1-0.2 0.1-0.4 0.2-0.6c0-0.2 0.1-0.5 0.1-0.7c0-0.2 0-0.5 0-0.7c0-0.2 0-0.4 0-0.5v-0.2c-0.3-0.1-0.5-0.2-0.6-0.3 c-0.2-0.1-0.3-0.2-0.3-0.2c-0.1-0.1-0.1-0.2-0.1-0.2c0-0.1 0-0.2 0-0.3c0-0.1 0-0.1 0-0.2c0-0.1 0-0.1 0-0.2c0 0 0-0.1 0.1-0.1 c0 0 0.1 0 0.1 0c0 0 0.1 0 0.1 0c0 0 0.1 0 0.1 0.1c0.1 0.1 0.2 0.1 0.3 0.1c0.1 0 0.2 0.1 0.2 0.1c0.1 0 0.1 0 0.2 0.1 c0 0 0-0.1 0-0.3c0-0.1 0-0.3 0-0.4c0-0.2 0-0.3 0.1-0.5c0-0.2 0.1-0.3 0.2-0.5c0.1-0.1 0.2-0.3 0.3-0.4c0.1-0.1 0.3-0.1 0.5-0.1 c0.1 0 0.1 0 0.2 0c0.1 0 0.1 0 0.2 0.1c0.1 0 0.1 0.1 0.1 0.1c0 0.1 0.1 0.1 0.1 0.2c0 0 0 0 0 0c0 0 0 0 0 0l-0.3 1.3l0 0.4 c0.3 0 0.6-0.1 0.8-0.2c0.2-0.1 0.4-0.2 0.6-0.4c0.1-0.1 0.3-0.3 0.3-0.5c0.1-0.2 0.1-0.4 0.1-0.5c0-0.2 0-0.4-0.1-0.6 c-0.1-0.2-0.2-0.4-0.4-0.5c-0.2-0.2-0.4-0.3-0.7-0.4C77.9 36 77.5 36 77.1 36c-0.3 0-0.6 0.1-0.9 0.2c-0.3 0.1-0.5 0.3-0.7 0.5 c-0.2 0.2-0.4 0.5-0.5 0.7c-0.2 0.3-0.3 0.6-0.4 0.9c-0.1 0.3-0.2 0.7-0.2 1C74.3 39.7 74.3 40 74.3 40.3"/><path id="XMLID_39_" class="st15" d="M81 43.7c-0.2 0-0.3-0.1-0.5-0.2c-0.1-0.1-0.3-0.4-0.4-0.6c-0.1-0.3-0.2-0.5-0.3-0.9 c-0.1-0.3-0.1-0.7-0.1-1.1c0-0.3 0-0.7 0.1-1.3c0.1-0.5 0.1-0.8 0.1-0.8s0.1-0.3 0.2-0.8c0.1-0.5 0.3-0.9 0.4-1.3 c0.1-0.3 0.3-0.6 0.5-0.9c0.2-0.3 0.3-0.5 0.5-0.7c0.2-0.2 0.4-0.4 0.6-0.5c0.2-0.1 0.4-0.2 0.6-0.2c0.1 0 0.3 0 0.4 0.1 c0.1 0.1 0.2 0.1 0.2 0.2c0.1 0.1 0.1 0.2 0.1 0.3c0 0.1 0 0.2 0 0.4c0 0.3 0 0.6-0.1 0.9c-0.1 0.3-0.2 0.6-0.3 0.9 c-0.1 0.3-0.3 0.6-0.4 1c-0.2 0.3-0.3 0.6-0.5 1c-0.2 0.3-0.3 0.6-0.5 0.9c-0.2 0.3-0.3 0.6-0.5 0.9c0 0 0 0.1-0.1 0.1 c0 0.1 0 0.1 0 0.2c0 0.1 0 0.1 0 0.2c0 0.1 0 0.1 0 0.2v0.1c0 0.1 0 0.2 0 0.2c0 0.1 0 0.2 0.1 0.2c0 0.1 0.1 0.1 0.1 0.2 c0 0 0.1 0.1 0.1 0.1c0.1 0 0.1 0 0.2 0c0.1 0 0.2-0.1 0.3-0.1c0.1 0 0.2-0.1 0.3-0.2c0.1-0.1 0.2-0.1 0.3-0.2 c0.2-0.1 0.4-0.3 0.7-0.5l0.4 1c-0.3 0.2-0.6 0.4-0.9 0.5c-0.1 0.1-0.3 0.1-0.4 0.2c-0.1 0.1-0.3 0.1-0.4 0.2 c-0.1 0-0.3 0.1-0.4 0.1C81.2 43.6 81.1 43.7 81 43.7 M81 39.8c0.1-0.3 0.3-0.6 0.5-0.9c0.2-0.3 0.3-0.7 0.5-1 c0.1-0.3 0.3-0.7 0.4-1c0.1-0.3 0.2-0.7 0.2-1c0-0.1 0-0.2 0-0.2c0-0.1 0-0.1 0-0.1c-0.1 0-0.2 0.1-0.3 0.2 c-0.1 0.1-0.2 0.3-0.3 0.5c-0.1 0.2-0.2 0.5-0.4 1c-0.1 0.5-0.2 0.7-0.2 0.7s0 0.2-0.1 0.7C81.1 39.1 81 39.5 81 39.8"/><path id="XMLID_38_" class="st15" d="M86.2 39.2c0 0.1 0 0.2 0 0.4c0 0.2 0 0.3-0.1 0.5c0 0.2-0.1 0.4-0.1 0.6 c0 0.3-0.1 0.5-0.1 0.6c0 0.2-0.1 0.3-0.1 0.4c0 0.1 0 0.2 0 0.3c0 0.1 0 0.2 0 0.2c0 0.1 0 0.1 0 0.2c0 0.1 0 0.1 0.1 0.1 c0 0 0.1 0 0.1 0c0.1 0 0.2 0 0.3-0.1c0.1 0 0.2-0.1 0.3-0.1c0.1-0.1 0.2-0.1 0.4-0.2c0.1-0.1 0.2-0.2 0.3-0.2 c0.1-0.1 0.2-0.2 0.3-0.2c0.1-0.1 0.2-0.2 0.3-0.2c0 0.1 0 0.2 0 0.3c0 0.1 0 0.2 0 0.2c0 0.1 0 0.2 0 0.2c0 0.1 0 0.2 0 0.3 c-0.1 0.1-0.2 0.1-0.3 0.2c-0.1 0.1-0.2 0.2-0.3 0.2c-0.1 0.1-0.3 0.2-0.4 0.2c-0.1 0.1-0.3 0.1-0.4 0.2c-0.1 0.1-0.3 0.1-0.4 0.1 c-0.1 0-0.3 0.1-0.4 0.1c-0.1 0-0.2 0-0.3-0.1c-0.1 0-0.2-0.1-0.2-0.2c-0.1-0.1-0.1-0.2-0.2-0.3c0-0.1-0.1-0.3-0.1-0.4 c-0.1 0.2-0.2 0.3-0.4 0.4c-0.1 0.1-0.3 0.2-0.4 0.3c-0.1 0.1-0.3 0.2-0.4 0.2c-0.1 0.1-0.3 0.1-0.4 0.1c-0.1 0-0.2 0-0.3-0.1 c-0.1 0-0.2-0.1-0.2-0.2c-0.1-0.1-0.1-0.2-0.2-0.3c0-0.1-0.1-0.3-0.1-0.5c0-0.4 0-0.7 0.1-1c0.1-0.3 0.2-0.8 0.3-1.5 c0 0 0-0.1 0-0.2c0-0.1 0-0.2 0.1-0.3c0-0.1 0.1-0.2 0.1-0.3c0-0.1 0.1-0.2 0.2-0.3c0.1-0.1 0.1-0.1 0.2-0.2 c0.1-0.1 0.2-0.1 0.3-0.1c0.2 0 0.3 0 0.4 0.1c0.1 0 0.1 0.1 0.1 0.2c0 0.2-0.1 0.4-0.1 0.6c0 0.2-0.1 0.4-0.1 0.6 c0 0.2-0.1 0.4-0.1 0.7c0 0.2-0.1 0.4-0.1 0.6c0 0.1 0 0.3-0.1 0.4c0 0.1 0 0.1 0 0.1c0 0.1 0 0.1 0 0.2c0 0.1 0 0.1 0.1 0.1 c0 0 0.1 0.1 0.1 0.1c0 0 0.1 0 0.1 0c0.1 0 0.1 0 0.2-0.1c0.1 0 0.1-0.1 0.2-0.2c0.1-0.1 0.1-0.1 0.2-0.3 c0.1-0.1 0.1-0.2 0.1-0.4l0.5-2.6c0-0.1 0.1-0.1 0.2-0.2c0.1-0.1 0.2-0.1 0.4-0.1c0.2 0 0.3 0 0.4 0.1 C86.1 39 86.2 39.1 86.2 39.2"/><path id="XMLID_35_" class="st15" d="M87.3 42c0.2-0.2 0.3-0.3 0.4-0.4c0.1-0.1 0.2-0.3 0.3-0.4c0.1-0.1 0.2-0.3 0.3-0.3 c0.1-0.1 0.1-0.2 0.2-0.3c0.1-0.1 0.2-0.3 0.3-0.4c0.1-0.2 0.3-0.4 0.5-0.6c0-0.1 0.1-0.1 0.1-0.2c0.1-0.1 0.1-0.1 0.2-0.1 c0.1 0 0.1-0.1 0.2-0.1c0.1 0 0.2 0 0.3 0c0.2 0 0.3 0 0.4 0.1c0.1 0 0.1 0.1 0.2 0.1c0 0 0.1 0.1 0.1 0.2c0 0.1 0 0.1 0 0.1 c0 0.1 0 0.2-0.1 0.3c-0.1 0.1-0.1 0.2-0.2 0.3c-0.1 0.1-0.1 0.2-0.2 0.2c-0.1 0.1-0.1 0.1-0.1 0.2c0 0.1 0 0.2 0 0.3 c0 0.1 0 0.2 0.1 0.2c0 0.1 0.1 0.2 0.1 0.3c0 0.1 0.1 0.2 0.1 0.3c0 0.1 0 0.3 0 0.5c0 0.2 0 0.4 0 0.6c0.1-0.1 0.2-0.1 0.4-0.2 c0.1-0.1 0.3-0.1 0.4-0.2c0.1-0.1 0.3-0.1 0.4-0.2c0.2-0.1 0.3-0.2 0.5-0.3l0 1.1c-0.2 0.2-0.4 0.3-0.7 0.4 c-0.3 0.1-0.5 0.2-0.8 0.3c-0.3 0.1-0.6 0.2-0.9 0.2c-0.3 0.1-0.6 0.1-0.8 0.1c-0.2 0-0.4 0-0.5 0c-0.2 0-0.3-0.1-0.4-0.2 c-0.1-0.1-0.2-0.2-0.3-0.3c-0.1-0.1-0.1-0.3-0.1-0.4c0 0-0.1 0-0.1 0c0 0-0.1 0-0.1 0c-0.1 0-0.1 0-0.1 0c0 0-0.1 0-0.1 0 c0 0-0.1-0.1-0.1-0.1c0 0 0-0.1 0-0.2c0-0.1 0-0.2 0.1-0.2 M87.8 42.5c0 0 0.1 0 0.1 0.1c0 0 0.1 0.1 0.2 0.2 c0.1 0.1 0.1 0.1 0.2 0.2c0.1 0 0.2 0.1 0.3 0.1c0.1 0 0.2 0 0.3-0.1c0.1 0 0.1-0.1 0.2-0.2c0-0.1 0.1-0.2 0.1-0.2 c0-0.1 0-0.2 0-0.3c0-0.1 0-0.2 0-0.3c0-0.1 0-0.2 0-0.3c0-0.1 0-0.2 0-0.3c0-0.1 0-0.1-0.1-0.2L87.8 42.5z"/></g><g id="XMLID_14_"><path id="XMLID_32_" class="st16" d="M246.9 224.5c16.2-0.1 73.3 5.3 82.1 7.4c8.7 2.1 9.6 12.9 9.5 17.3 c-0.1 4.4-5.3 5.6-5.2-1.9c0.1-7.5-0.5-11.5-5.7-12c-5.2-0.5-75.3-5.3-80.1-5.5C242.6 229.7 243.6 224.3 246.9 224.5z"/><path id="XMLID_31_" class="st16" d="M339.9 225.7c-16.2-0.6-73.4 3.4-82.2 5.3c-8.8 1.9-9.9 12.7-10 17.1 c-0.1 4.4 5.1 5.7 5.2-1.7c0.1-7.5 0.8-11.5 6-11.9c5.2-0.4 75.4-3.3 80.3-3.4C344.1 231 343.2 225.6 339.9 225.7z"/><path id="XMLID_27_" class="st17" d="M318.3 256c0.5 0 0.9 0 1.4-0.1c13.1-0.8 16.2-6.2 17.5-13.1c1.5-7.5 1.5-10.2 3.6-10.8 c1.5-0.5 1.9-2.2 1.8-4.1c-0.1-2-0.2-2.2-2.7-3c-2-0.7-13.2-1.8-21.6-1.4v2c6.6-0.2 13 0.6 14.9 1.7c4.3 2.6 3.3 14.7-0.2 20.7 c-2.4 4.1-8.8 6.2-14.7 6.2V256z M293.3 227c-2.9 0-14.8-3.3-23.2-4.1c-0.6-0.1-1.2-0.1-1.8-0.1v2c6.8 0.4 14 1.9 16.5 5.4 c4.1 5.6-2.8 19.1-9.2 22c-1.9 0.9-4.5 1.3-7.3 1.3v1.9c11.3 0.2 15.4-7.3 16.7-9.8c2.5-4.7 1.9-11.3 8.3-11.2 c6.5 0.1 5.8 6.5 8.2 11.3c1.3 2.6 5.1 10.5 16.9 10.4v-1.9c-2.9 0-5.7-0.5-7.7-1.5c-6.3-3.1-12.9-16.7-8.6-22.2 c2.6-3.3 9.6-4.7 16.3-4.9v-2c-0.5 0-1 0.1-1.5 0.1C309.2 224 300.1 226.9 293.3 227z M268.2 222.7c-8.3-0.5-19.3 0.3-21.3 0.9 c-2.6 0.8-2.7 1-2.8 3c-0.1 2 0.2 3.7 1.7 4.2c2.1 0.7 2.1 3.4 3.3 10.9c1.2 6.9 4.1 12.4 17.2 13.5c0.7 0.1 1.3 0.1 1.9 0.1v-1.9 c-6 0-12.7-2.2-15-6.6c-3.3-6.1-3.9-18.2 0.4-20.7c1.9-1.1 8.1-1.7 14.6-1.4V222.7z"/><path id="XMLID_24_" class="st18" d="M253.6 226.1c3.8-2.2 26.2-2.7 31.1 4c4.1 5.6-2.8 19.1-9.2 22c-6.2 2.8-18.9 1-22.3-5.3 C249.9 240.8 249.2 228.6 253.6 226.1L253.6 226.1z M333.2 227.1c-3.8-2.3-26.1-3.4-31.2 3.2c-4.2 5.5 2.3 19.1 8.6 22.2 c6.1 3 18.9 1.5 22.4-4.7C336.5 241.9 337.4 229.7 333.2 227.1z"/><g id="XMLID_21_"><path id="XMLID_23_" class="st19" d="M255.7 225.4c6.9-1.5 24.7-1.2 28.9 4.7c2.9 3.9 0.3 11.7-3.6 17L255.7 225.4z"/><path id="XMLID_22_" class="st19" d="M305.6 227.7l25.8 22.2c0.7-0.6 1.2-1.3 1.7-2c3.4-6 4.4-18.1 0.2-20.7 C330 225.2 313.7 224.2 305.6 227.7z"/></g><path id="XMLID_18_" class="st20" d="M327.9 225.8c-5.6 0.2-12.2 0.5-19.2 0.9c-1.9 0.5-3.6 1.2-4.9 2l0 0l0 0l0 0l0 0l0 0l0 0 l0 0l0 0l0 0l0 0l0 0l-0.1 0l0 0l0 0l0 0l0 0l0 0l0 0l0 0l0 0l0 0l0 0l0 0l0 0l0 0l0 0l0 0l0 0l0 0l0 0l0 0l-0.1 0l0 0l0 0l0 0 l0 0l0 0l0 0l0 0l0 0l0 0l0 0l0 0l0 0l0 0h0l0 0l0 0l0 0l0 0l0 0l0 0l0 0l0 0l0 0l0 0l0 0l0 0l0 0l0 0l0 0l0 0l0 0l0 0l0 0l0 0 l0 0l0 0l0 0l0 0l0 0l0 0l0 0l0 0l0 0l0 0l0 0.1l0 0l0 0l0 0.1l0 0l-0.1 0.1l0 0l0 0l0 0l0 0l0 0l0 0l0 0l0 0l0 0l0 0l0 0l0 0l0 0 l0 0l0 0l0 0l0 0l0 0l0 0l0 0l0 0l0 0c-0.5 0.8-0.8 1.7-1 2.7c13.6 0.9 24.9 1.7 26.9 1.9c5.2 0.5 5.8 4.6 5.7 12v0 c1.4-2.7 2.4-6.4 2.6-10c-1.4-2.5-3.6-4.6-7-5.5c-0.5-0.1-1.2-0.3-2-0.4c3.5-0.1 6.5-0.2 8.6-0.3c-0.4-1.9-1.2-3.3-2.4-4.1 C332.3 226.6 330.4 226.1 327.9 225.8L327.9 225.8z M258.9 224.9c5.6 0.3 12.2 0.8 19.1 1.4c1.9 0.5 3.6 1.3 4.8 2.1h0l0 0l0 0 c0.1 0 0.1 0.1 0.2 0.1l0 0l0 0l0 0l0 0l0 0l0 0l0 0l0 0l0 0l0 0l0 0l0 0l0 0l0 0l0 0l0 0l0 0l0 0l0 0l0 0l0 0l0 0l0 0v0l0 0l0 0 l0 0l0 0l0 0l0 0l0 0l0 0l0 0l0 0l0 0l0 0l0 0l0 0l0 0l0 0l0 0l0 0l0 0l0 0l0 0l0 0l0 0l0 0l0 0l0 0l0 0l0 0l0 0l0 0l0 0l0 0l0 0 l0 0l0 0l0 0l0 0l0 0l0 0l0 0l0 0l0 0l0 0l0 0l0 0l0 0l0 0l0 0.1l0 0l0 0l0 0.1l0 0l0 0l0 0l0 0l0 0l0 0l0 0l0 0l0 0l0 0l0 0l0 0 l0 0l0 0l0 0l0 0l0 0l0 0.1l0 0l0 0l0 0c0.5 0.8 0.7 1.7 0.9 2.7c-13.6 0.6-24.9 1.1-26.9 1.2c-5.2 0.4-5.9 4.4-6 11.9l0 0.1 c-1.4-2.7-2.2-6.5-2.4-10.1c1.5-2.5 3.7-4.6 7.1-5.3c0.5-0.1 1.2-0.2 2-0.3c-3.5-0.2-6.5-0.4-8.7-0.6c0.5-1.9 1.3-3.3 2.5-4 C254.5 225.6 256.4 225.2 258.9 224.9z"/><g id="XMLID_15_"><path id="XMLID_17_" class="st21" d="M255.7 225.4l10.1 8.7c5-0.2 12.1-0.5 20-0.9c-0.1-1-0.4-1.9-0.9-2.7l0 0l0 0l0 0l0-0.1l0 0 l0 0l0 0l0 0l0 0l0 0l0 0l0 0l0 0l0 0l0 0l0 0l0 0l0 0l0 0l0 0l0 0l0-0.1l0 0l0 0l0-0.1l0 0l0 0l0 0l0 0l0 0l0 0l0 0l0 0l0 0l0 0 l0 0l0 0l0 0l0 0l0 0l0 0l0 0l0 0l0 0l0 0l0 0l0 0l0 0l0 0l0 0l0 0l0 0l0 0l0 0l0 0l0 0l0 0l0 0l0 0l0 0l0 0l0 0l0 0l0 0l0 0l0 0 l0 0l0 0l0 0l0 0l0 0l0 0v0l0 0l0 0l0 0l0 0l0 0l0 0l0 0l0 0l0 0l0 0l0 0l0 0l0 0l0 0l0 0l0 0l0 0l0 0l0 0l0 0l0 0l0 0l0 0 c-0.1 0-0.1-0.1-0.2-0.1l0 0l0 0h0c-1.3-0.9-3-1.6-4.8-2.1c-6.9-0.6-13.5-1-19.1-1.4C257.7 225 256.6 225.2 255.7 225.4z"/><path id="XMLID_16_" class="st21" d="M327.9 225.8c-5.6 0.2-12.2 0.5-19.2 0.9c-1.1 0.3-2.2 0.7-3.1 1.1l7.6 6.5 c7.6 0.5 13.1 0.9 14.4 1.1c5.2 0.5 5.8 4.6 5.7 12v0c1.4-2.7 2.4-6.4 2.6-10c-1.4-2.5-3.6-4.6-7-5.5c-0.5-0.1-1.2-0.3-2-0.4 c3.5-0.1 6.5-0.2 8.6-0.3c-0.4-1.9-1.2-3.3-2.4-4.1C332.3 226.6 330.4 226.1 327.9 225.8z"/></g></g><g id="XMLID_3_"><path id="XMLID_12_" class="st22" d="M218.6 197.7l-5.9 13.5l-5.9-13.5V87.8c0-1.8 1.5-3.2 3.2-3.2h5.4c1.8 0 3.2 1.5 3.2 3.2 V197.7z"/><path id="XMLID_11_" class="st23" d="M218.6 197.7l-5.9 13.5v-14l0-112.6l2.7 0c1.8 0 3.2 1.5 3.2 3.2V197.7z"/><path id="XMLID_10_" class="st24" d="M218.6 197.7l-5.9 13.5l-5.9-13.5V92.6c4.2-0.7 8.1-0.7 11.9 0V197.7z"/><path id="XMLID_9_" class="st25" d="M218.6 197.7l-5.9 13.5v-14l0-105.1c2 0 4 0.2 5.9 0.5V197.7z"/><path id="XMLID_8_" class="st26" d="M218.6 197.7l-5.9 13.5l-5.9-13.5V96.4c4.2-0.8 8.1-0.7 11.9 0L218.6 197.7z"/><path id="XMLID_7_" class="st27" d="M218.6 197.7l-5.9 13.5v-14V95.8c2 0 4 0.2 5.9 0.6V197.7z"/><path id="XMLID_6_" class="st28" d="M218.6 197.7l-5.9 13.5l-5.9-13.5c1.9-0.4 3.9-0.5 5.9-0.5 C214.8 197.1 216.8 197.3 218.6 197.7z"/><path id="XMLID_5_" class="st29" d="M218.6 197.7l-5.9 13.5v-14C214.8 197.1 216.8 197.3 218.6 197.7z"/><path id="XMLID_4_" class="st30" d="M214.7 206.7l-2 4.4l-2-4.4c0.6-0.1 1.3-0.2 2-0.2C213.4 206.5 214 206.6 214.7 206.7z"/></g></g></svg>