<?xml version="1.0" encoding="utf-8"?>
<!-- Generator: Adobe Illustrator 19.0.0, SVG Export Plug-In . SVG Version: 6.00 Build 0)  -->
<svg version="1.1" id="Layer_1" xmlns="http://www.w3.org/2000/svg" xmlns:xlink="http://www.w3.org/1999/xlink" x="0px" y="0px"
	 viewBox="-452 253 55 55" style="enable-background:new -452 253 55 55;" xml:space="preserve">
<style type="text/css">
	.st0{fill:#FFFFFF;}
</style>
<g>
	<g>
		<circle class="st0" cx="-428.9" cy="277.3" r="1.9"/>
		<circle class="st0" cx="-420.1" cy="277.3" r="1.9"/>
		<path class="st0" d="M-430.4,283.1c1.6,2.6,3.9,3.6,6.3,3.6c0.1,0,0.1,0,0.2,0l0,0c2.3,0,3.8-0.9,4.8-1.7c1-0.9,1.4-1.7,1.4-1.8
			c0.2-0.5,0-1.1-0.5-1.3c-0.5-0.2-1.1,0-1.3,0.5l0,0l0,0l0,0c-0.1,0.2-1.2,2.3-4.4,2.3c-0.1,0-0.1,0-0.1,0
			c-1.9-0.1-3.4-0.6-4.7-2.7c-0.3-0.5-0.9-0.6-1.4-0.3C-430.6,282-430.7,282.6-430.4,283.1L-430.4,283.1z"/>
	</g>
	<g>
		<path class="st0" d="M-438.8,279.8c0-8,6.5-14.6,14.6-14.6l0,0c8,0,14.6,6.5,14.6,14.6l0,0c0,8-6.5,14.6-14.6,14.6l0,0
			C-432.2,294.3-438.8,287.8-438.8,279.8L-438.8,279.8z M-436.5,279.8c0,6.8,5.5,12.3,12.3,12.3l0,0c6.8,0,12.3-5.5,12.3-12.3l0,0
			c0-6.8-5.5-12.3-12.3-12.3l0,0C-431,267.5-436.5,273-436.5,279.8L-436.5,279.8z"/>
	</g>
</g>
</svg>
