<?xml version="1.0" encoding="utf-8"?>
<!-- Generator: Adobe Illustrator 19.0.0, SVG Export Plug-In . SVG Version: 6.00 Build 0)  -->
<svg version="1.1" xmlns="http://www.w3.org/2000/svg" xmlns:xlink="http://www.w3.org/1999/xlink" x="0px" y="0px"
	 viewBox="-452 253 55 55" style="enable-background:new -452 253 55 55;" xml:space="preserve">
<style type="text/css">
	.st0{fill:#FFFFFF;}
</style>
<g id="Layer_1">
	<g>
		<path class="st0" d="M-409.3,280.4c-0.1,1.1-0.6,2.2-1.5,3.3c-1.3,1.6-2.7,2.4-4,2.4c-0.5,0-1-0.2-1.4-0.5
			c-1.1-0.9-1.2-2.2-0.3-4.1c-0.2,0-0.5,0.1-0.9,0.2c-1.1,0.6-1.7,2-2,4.3c-0.1,0.4-0.1,0.7-0.1,0.9c-0.1,0.9-0.2,1.7-0.3,2.2
			c-0.1,0.5-0.3,1.2-0.6,2.1c-0.3,0.9-0.7,1.5-1.1,2c-0.4,0.5-1,0.9-1.8,1.3c-0.8,0.4-1.8,0.6-2.8,0.6h-0.3c-1.7-0.1-3-0.7-3.9-1.8
			c-1-1.4-1.4-3.2-1.1-5.5c-0.2-0.3-0.3-0.7-0.3-1.1l0.1-1.3l-1.8-0.6c-0.6-0.2-1-0.6-1.2-1.2c-1.6-0.9-2.7-2.2-3.3-3.8
			c-0.3-1.2-0.5-2.3-0.5-3.3c0-1,0.2-2,0.6-3.1s0.8-1.9,1.1-2.5c0.3-0.5,0.6-1,0.9-1.5c-0.1-0.1-0.1-0.2-0.1-0.4
			c0.1-0.4,0.3-0.7,0.6-0.9c0.3-0.1,0.5-0.4,0.8-1l0.4-0.9c0.2-0.4,0.5-0.6,0.9-0.7c0.4-0.1,0.8,0.1,1.1,0.4l1.1,1
			c0.3,0.4,0.4,0.7,0.4,1.1c0,0.4-0.3,0.7-0.7,1l-0.7,0.4c-0.4,0.2-0.7,0.5-1,0.8c-0.2,0.5-0.5,0.7-0.9,0.7h-0.1
			c-1.9,3.1-2.4,5.7-1.7,7.9c0.4,1,1.2,1.8,2.2,2.5c0.3-0.1,0.7-0.1,1,0l2.6,0.9l2.4-0.7c0.3-0.1,0.6-0.1,1,0.1
			c1.2-0.7,2-1.6,2.4-2.7c0.8-2.1,0.2-4.7-1.7-7.9c-0.5,0-0.8-0.2-1-0.5c-0.2-0.3-0.5-0.6-1-0.8l-0.7-0.4c-0.4-0.2-0.7-0.5-0.7-0.9
			c-0.1-0.4,0.1-0.8,0.5-1.1l1.1-1c0.3-0.3,0.7-0.4,1.1-0.3c0.4,0.1,0.7,0.3,0.9,0.7l0.5,0.8c0.3,0.5,0.5,0.9,0.7,1
			c0.3,0.2,0.5,0.5,0.4,0.9c0.2,0.2,0.3,0.4,0.4,0.7c0.1,0.2,0.4,0.6,0.7,1.2c0.3,0.6,0.6,1.2,0.8,1.8c0.2,0.6,0.4,1.3,0.6,2
			c0.2,0.8,0.3,1.6,0.2,2.4c-0.1,0.8-0.2,1.6-0.5,2.3c-0.6,1.6-1.8,2.9-3.5,4c-0.2,0.6-0.6,0.9-1.2,1.1l-1.7,0.5l-0.1,1.3
			c0,0.5-0.2,1-0.7,1.4c-0.2,1.6,0,2.8,0.6,3.5c0.5,0.6,1.1,0.9,2,0.9h0.2c1.5,0,2.5-0.5,3.1-1.4c0.5-0.9,0.9-2.5,1.2-4.7l0.1-0.1
			c0-0.1,0-0.2,0-0.4c0-0.2,0-0.3,0-0.4c0.5-3,1.6-5,3.3-6c1.1-0.6,2.4-0.7,3.7-0.4c0.8-0.8,1.7-1.4,2.6-1.6
			c0.9-0.3,1.7-0.2,2.2,0.3C-409.5,278.4-409.2,279.3-409.3,280.4z"/>
	</g>
</g>
<g id="Layer_2">
</g>
</svg>
