<?xml version="1.0" encoding="utf-8"?>
<!-- Generator: Adobe Illustrator 19.0.0, SVG Export Plug-In . SVG Version: 6.00 Build 0)  -->
<svg version="1.1" id="Layer_1" xmlns="http://www.w3.org/2000/svg" xmlns:xlink="http://www.w3.org/1999/xlink" x="0px" y="0px"
	 viewBox="-452 253 55 55" style="enable-background:new -452 253 55 55;" xml:space="preserve">
<style type="text/css">
	.st0{fill:#FFFFFF;}
</style>
<g>
	<path class="st0" d="M-419.2,266.7c-0.2-0.1-0.5,0-0.7,0.1c-0.4,0.3-0.6,0.9-0.3,1.3c0.1,0.1,0.2,0.4,0.4,0.9h-9.3
		c0.2-0.6,0.4-0.9,0.4-0.9c0.3-0.4,0.1-1-0.3-1.3c-0.4-0.3-1-0.2-1.3,0.3c0,0.1-3.9,6.6,4.4,13.1c-0.4,0.3-0.7,0.6-1,1
		c-6,6-4.5,12.1-4.5,12.4c0.1,0.4,0.5,0.7,0.9,0.7c0.1,0,0.2,0,0.3,0c0.4-0.1,0.8-0.6,0.7-1.1c0-0.1-0.1-0.6-0.1-1.3l10.7,0
		c0,0.7-0.1,1.2-0.1,1.3c-0.1,0.5,0.2,1,0.7,1.1c0.1,0,0.1,0,0.2,0c0.2,0,0.5-0.1,0.7-0.3c0.1-0.1,0.2-0.3,0.2-0.4
		c0.1-0.3,1.7-7-5.5-13.3c0.6-0.5,1.2-1,1.7-1.5c6-6,2.7-11.5,2.7-11.6C-418.8,266.9-419,266.8-419.2,266.7 M-421.7,284.4l-5.7,0
		c0.8-1,1.7-2.1,2.8-3C-423.4,282.4-422.4,283.4-421.7,284.4 M-429.7,289.8c0.2-1.1,0.5-2.2,1.1-3.2l0.1-0.2l8.1,0l0.1,0.2
		c0.5,1,0.9,2.1,1,3.1l0,0.3l-10.4,0L-429.7,289.8z M-427.3,276.4l5.5,0c-0.7,0.9-1.7,1.8-2.8,2.6
		C-425.6,278.2-426.5,277.3-427.3,276.4 M-420.5,274.5l-8.1,0l0,0c-0.6-1.1-0.9-2.3-0.9-3.4l0,0l9.9-0.1l0,0.1
		C-419.6,272.3-419.9,273.4-420.5,274.5L-420.5,274.5z"/>
</g>
</svg>
