<?xml version="1.0" encoding="utf-8"?>
<!-- Generator: Adobe Illustrator 19.0.0, SVG Export Plug-In . SVG Version: 6.00 Build 0)  -->
<svg version="1.1" id="Layer_1" xmlns="http://www.w3.org/2000/svg" xmlns:xlink="http://www.w3.org/1999/xlink" x="0px" y="0px"
	 viewBox="-452 253 55 55" style="enable-background:new -452 253 55 55;" xml:space="preserve">
<style type="text/css">
	.st0{fill:#FFFFFF;}
</style>
<path class="st0" d="M-429.3,287.9c-1.4,0.8-4.1,1.6-8.1,2.3c1.5-2.6,2.1-4.8,2-6.6c-1.4-1.6-2.1-3.6-2.1-5.7c0-2.9,1.2-5.3,3.6-7.3
	c2.4-2,5.2-3,8.5-3c3.2,0,6.1,1,8.5,2.9c2.4,2,3.6,4.4,3.6,7.3v0.3c-0.8-0.5-1.5-0.8-2.3-1c-0.3-2-1.3-3.7-3.1-5.1
	c-1.9-1.4-4.1-2-6.6-2c-2.6,0-4.9,0.8-6.9,2.3c-1.9,1.6-2.8,3.4-2.8,5.5c0,1.7,0.8,3.4,2.3,5.1c-0.2,1-0.3,1.6-0.4,1.9
	c-0.1,0.5-0.2,0.9-0.4,1.5l-0.2,0.6c1.4-0.3,2.8-0.8,4.2-1.7C-429.5,286.3-429.5,287.2-429.3,287.9z M-410.5,294.3
	c-2.5-0.4-4.4-1-5.6-1.7c-3,0.8-5.6,0.4-7.8-1c-2.2-1.5-3.2-3.3-3.2-5.6c0-2,0.8-3.7,2.5-5c1.6-1.3,3.6-2,5.8-2c2.3,0,4.3,0.7,5.8,2
	c1.7,1.4,2.5,3,2.5,5c0,1.5-0.5,2.8-1.4,3.9C-411.9,291.1-411.5,292.5-410.5,294.3z M-421.4,286c0-0.4-0.1-0.7-0.4-0.9
	c-0.3-0.3-0.6-0.4-0.9-0.4c-0.3,0-0.7,0.1-0.9,0.4c-0.3,0.3-0.4,0.6-0.4,0.9c0,0.4,0.1,0.7,0.4,1c0.2,0.3,0.6,0.4,0.9,0.4
	c0.4,0,0.7-0.1,0.9-0.4C-421.5,286.8-421.4,286.5-421.4,286z M-417.3,286c0-0.4-0.1-0.7-0.4-0.9c-0.3-0.3-0.6-0.4-1-0.4
	c-0.3,0-0.7,0.1-0.9,0.4c-0.3,0.3-0.4,0.6-0.4,0.9c0,0.4,0.1,0.7,0.4,1c0.2,0.3,0.6,0.4,0.9,0.4c0.4,0,0.8-0.1,1-0.4
	C-417.4,286.8-417.3,286.5-417.3,286z M-413.3,286c0-0.4-0.1-0.7-0.4-0.9c-0.3-0.3-0.7-0.4-1-0.4c-0.3,0-0.7,0.1-0.9,0.4
	c-0.3,0.3-0.5,0.6-0.5,0.9c0,0.4,0.2,0.7,0.5,1c0.2,0.3,0.6,0.4,0.9,0.4c0.4,0,0.7-0.1,1-0.4C-413.4,286.8-413.3,286.5-413.3,286z"
	/>
</svg>
