<?xml version="1.0" encoding="utf-8"?>
<!-- Generator: Adobe Illustrator 19.0.0, SVG Export Plug-In . SVG Version: 6.00 Build 0)  -->
<svg version="1.1" xmlns="http://www.w3.org/2000/svg" xmlns:xlink="http://www.w3.org/1999/xlink" x="0px" y="0px"
	 viewBox="-452 253 55 55" style="enable-background:new -452 253 55 55;" xml:space="preserve">
<style type="text/css">
	.st0{fill:#FFFFFF;}
</style>
<g id="Layer_1">
	<g>
		<g>
			<path class="st0" d="M-435.2,270.6c2.8,0.1,4.6,1.3,6.4,2.7c1.6,1.3,2,2.1,4.7,2.1c2.7,0,4.2-1.4,5.4-2.6c1.2-1.2,3-2.6,6-2.4
				c2.3,0.2,5.8,2.3,5.6,5.4c-0.3,4.5-3.7,5.6-3.7,5c-0.1-1,0-2.4,0-2.4c2.3-2.7,0.6-4.4-0.6-5c-1.2-0.6-4.5-0.8-6.1,1.2
				c-1.6,2.1-2.4,6.1-3,7.8c-0.5,1.5-1.5,2.7-2.4,4c-0.4,0.5-0.2,4-0.2,4h-2.2v-4c-1.2-1.5-1.9-2.8-2.5-4.3
				c-0.6-1.5-1.5-6.4-3.3-7.9c-1.1-0.9-3.5-2.1-5.8-0.6c-2.2,1.4-1.6,4-0.3,4.2c0.2,0-0.3,2.9-0.3,2.9c-2.9-1.2-3.6-3.5-3.5-5.1
				C-440.7,271.8-437.2,270.5-435.2,270.6z"/>
			<path class="st0" d="M-431.8,276.6c-2.6-0.3-5.4,2.3-3.7,4.7c1.4,1.9,4,0.5,4.6-1.1C-429.7,276.8-431.8,276.6-431.8,276.6z"/>
			<path class="st0" d="M-416.1,276.6c3.1-0.2,5.4,2.3,3.7,4.7c-1.4,1.9-4,0.5-4.6-1.1C-418.2,276.8-416.1,276.6-416.1,276.6z"/>
		</g>
	</g>
</g>
<g id="Layer_2">
</g>
</svg>
