<?xml version="1.0" encoding="utf-8"?>
<!-- Generator: Adobe Illustrator 19.0.0, SVG Export Plug-In . SVG Version: 6.00 Build 0)  -->
<svg version="1.1" xmlns="http://www.w3.org/2000/svg" xmlns:xlink="http://www.w3.org/1999/xlink" x="0px" y="0px"
	 viewBox="-452 253 55 55" style="enable-background:new -452 253 55 55;" xml:space="preserve">
<style type="text/css">
	.st0{fill:#FFFFFF;}
</style>
<g id="Layer_1">
	<g>
		<path class="st0" d="M-416.4,271.6c0.5,0.5,0.7,1,0.7,1.6v14.9c0,0.7-0.2,1.2-0.7,1.7c-0.5,0.5-1,0.7-1.6,0.7h-12
			c-0.6,0-1.2-0.2-1.6-0.7c-0.5-0.5-0.7-1-0.7-1.7v-14.9c0-0.6,0.2-1.2,0.7-1.6c0.5-0.5,1-0.7,1.6-0.7h12
			C-417.4,270.9-416.8,271.1-416.4,271.6z M-417.3,276.3h-13.4v8.7h13.4V276.3z M-428.3,269.3c-0.2-0.2-0.3-0.5-0.3-0.8v-3.6
			c0-0.3,0.1-0.6,0.3-0.8c0.2-0.2,0.5-0.3,0.8-0.3h6.9c0.3,0,0.6,0.1,0.8,0.3c0.2,0.2,0.3,0.5,0.3,0.8v3.6c0,0.3-0.1,0.6-0.3,0.8
			c-0.2,0.2-0.5,0.3-0.8,0.3h-6.9C-427.8,269.6-428,269.5-428.3,269.3z M-424.9,281.4h-2.1v-1.8h2.1v-2.1h1.8v2.1h2.1v1.8h-2.1v2.1
			h-1.8V281.4z"/>
	</g>
</g>
<g id="Layer_2">
</g>
</svg>
