<?xml version="1.0" encoding="utf-8"?>
<!-- Generator: Adobe Illustrator 16.0.0, SVG Export Plug-In . SVG Version: 6.00 Build 0)  -->
<!DOCTYPE svg PUBLIC "-//W3C//DTD SVG 1.1//EN" "http://www.w3.org/Graphics/SVG/1.1/DTD/svg11.dtd">
<svg version="1.1" id="Layer_1" xmlns="http://www.w3.org/2000/svg" xmlns:xlink="http://www.w3.org/1999/xlink" x="0px" y="0px"
	 width="48px" height="29px" viewBox="0 0 48 29" style="enable-background:new 0 0 48 29;" xml:space="preserve">
<style type="text/css">
<![CDATA[
	.st0{fill:#5B9D94;}
]]>
</style>
<g>
	<path class="st0" d="M7.6,1.2c3.9,0.2,6.5,1.8,9,3.8c2.2,1.8,2.8,2.9,6.6,2.9c3.8,0,5.9-2,7.5-3.6c1.7-1.7,4.2-3.6,8.4-3.4
		c3.2,0.2,8.1,3.2,7.8,7.5c-0.4,6.3-5.1,7.8-5.2,7c-0.1-1.4,0-3.4,0-3.4c3.3-3.8,0.8-6.2-0.8-7c-1.7-0.8-6.3-1.1-8.5,1.7
		c-2.3,2.9-3.3,8.5-4.2,10.9c-0.7,2-2,3.8-3.3,5.6c-0.5,0.7-0.2,5.6-0.2,5.6h-3v-5.6c-1.6-2.1-2.6-3.9-3.5-6
		c-0.9-2.1-2.1-8.9-4.7-11.1C11.9,5,8.5,3.4,5.3,5.4c-3.1,2-2.2,5.6-0.4,5.9c0.2,0-0.4,4-0.4,4c-4-1.7-5-4.9-4.9-7.1
		C-0.1,2.8,4.8,1,7.6,1.2z"/>
	<path class="st0" d="M12.3,9.5C8.6,9.1,4.7,12.8,7.2,16c2,2.6,5.6,0.8,6.4-1.6C15.3,9.8,12.3,9.5,12.3,9.5z"/>
	<path class="st0" d="M34.4,9.5c4.3-0.3,7.6,3.3,5.1,6.6c-2,2.6-5.6,0.8-6.4-1.6C31.4,9.8,34.4,9.5,34.4,9.5z"/>
</g>
</svg>
