<?xml version="1.0" encoding="utf-8"?>
<!-- Generator: Adobe Illustrator 16.0.0, SVG Export Plug-In . SVG Version: 6.00 Build 0)  -->
<!DOCTYPE svg PUBLIC "-//W3C//DTD SVG 1.1//EN" "http://www.w3.org/Graphics/SVG/1.1/DTD/svg11.dtd">
<svg version="1.1" id="Layer_1" xmlns="http://www.w3.org/2000/svg" xmlns:xlink="http://www.w3.org/1999/xlink" x="0px" y="0px"
	 width="35px" height="35px" viewBox="0 0 35 35" style="enable-background:new 0 0 35 35;" xml:space="preserve">
<style type="text/css">
<![CDATA[
	.st0{fill:#FFFFFF;}
]]>
</style>
<path class="st0" d="M26.4,25.3c-1.1,0-2,0.4-2.8,1L12,18.8c0.1-0.4,0.2-0.8,0.2-1.3c0-0.5-0.1-1-0.3-1.4l11.5-7.6
	c0.8,0.7,1.7,1.1,2.8,1.1c2.4,0,4.3-1.9,4.3-4.3c0-2.4-1.9-4.3-4.3-4.3c-2.4,0-4.3,1.9-4.3,4.3c0,0.5,0.1,0.9,0.2,1.3l-11.6,7.6
	C10,13.6,9,13.2,7.9,13.2c-2.4,0-4.3,1.9-4.3,4.3c0,2.4,1.9,4.3,4.3,4.3c1.1,0,2.1-0.4,2.9-1.1l11.5,7.6c-0.2,0.5-0.3,0.9-0.3,1.4
	c0,2.4,1.9,4.3,4.3,4.3c2.4,0,4.3-1.9,4.3-4.3C30.6,27.3,28.7,25.3,26.4,25.3z"/>
</svg>
