<?xml version="1.0" encoding="utf-8"?>
<!-- Generator: Adobe Illustrator 16.0.0, SVG Export Plug-In . SVG Version: 6.00 Build 0)  -->
<!DOCTYPE svg PUBLIC "-//W3C//DTD SVG 1.1//EN" "http://www.w3.org/Graphics/SVG/1.1/DTD/svg11.dtd">
<svg version="1.1" id="Layer_1" xmlns="http://www.w3.org/2000/svg" xmlns:xlink="http://www.w3.org/1999/xlink" x="0px" y="0px"
	 width="35px" height="35px" viewBox="0 0 35 35" style="enable-background:new 0 0 35 35;" xml:space="preserve">
<style type="text/css">
<![CDATA[
	.st0{fill:#DEE7E6;}
]]>
</style>
<g>
	<g>
		<polygon class="st0" points="14.3,10.9 16.8,8.4 16.8,18.2 18.5,18.2 18.5,8.4 20.9,10.9 22.1,9.6 17.6,5.3 13.1,9.6 		"/>
		<path class="st0" d="M34,12.5h-0.1l-9.6,6l-5.9,3.8c-0.4,0.3-1.1,0.3-1.5,0L8,16.6l-6.5-4.1H1.3c-0.5,0-0.9,0.4-0.9,0.9v20.8
			c0,0.5,0.4,0.9,0.9,0.9H34c0.5,0,0.9-0.4,0.9-0.9V13.4C34.8,12.9,34.5,12.5,34,12.5 M33.1,32.5c0,0.5-0.4,0.9-0.9,0.9H3
			c-0.5,0-0.9-0.4-0.9-0.9V15.9c0-0.5,0.3-0.7,0.7-0.4l14,8.9c0.4,0.3,1.1,0.3,1.5,0l14-8.9c0.4-0.3,0.7-0.1,0.7,0.4V32.5z"/>
		<path class="st0" d="M32.6,12.2c-0.3,0.4-0.8,0.5-1.2,0.2L18.2,2.7c-0.4-0.3-1-0.3-1.4,0L3.9,12.4c-0.4,0.3-0.9,0.2-1.2-0.2
			c-0.3-0.4-0.2-0.9,0.2-1.2L16.8,0.5c0.4-0.3,1-0.3,1.4,0L32.4,11C32.8,11.3,32.9,11.8,32.6,12.2"/>
	</g>
</g>
</svg>
