<?xml version="1.0" encoding="utf-8"?>
<!-- Generator: Adobe Illustrator 16.0.0, SVG Export Plug-In . SVG Version: 6.00 Build 0)  -->
<!DOCTYPE svg PUBLIC "-//W3C//DTD SVG 1.1//EN" "http://www.w3.org/Graphics/SVG/1.1/DTD/svg11.dtd">
<svg version="1.1" id="Layer_1" xmlns="http://www.w3.org/2000/svg" xmlns:xlink="http://www.w3.org/1999/xlink" x="0px" y="0px"
	 width="35px" height="35px" viewBox="0 0 35 35" style="enable-background:new 0 0 35 35;" xml:space="preserve">
<style type="text/css">
<![CDATA[
	.st0{fill:#3C4A5C;}
]]>
</style>
<path class="st0" d="M17.8,12.7c-6.6,0-12.4,3.2-16.1,8.1c3.7,4.9,9.5,8.1,16.1,8.1c6.6,0,12.4-3.2,16.1-8.1
	C30.2,15.9,24.4,12.7,17.8,12.7 M15.8,16.7c1.1,0,2,0.9,2,2c0,1.1-0.9,2-2,2c-1.1,0-2-0.9-2-2C13.8,17.6,14.7,16.7,15.8,16.7
	 M26,24.8c-1.3,0.6-2.6,1.1-3.9,1.5c-1.4,0.3-2.8,0.5-4.3,0.5s-2.9-0.2-4.3-0.5c-1.4-0.3-2.7-0.8-3.9-1.5c-2-1-3.8-2.4-5.3-4.1
	c1.5-1.7,3.3-3.1,5.3-4.1c1-0.5,2.1-0.9,3.2-1.3c-0.6,1-1,2.1-1,3.3c0,3.3,2.7,6,6,6c3.3,0,6-2.7,6-6c0-1.2-0.4-2.4-1-3.3
	c1.1,0.3,2.2,0.7,3.2,1.3c2,1,3.8,2.4,5.3,4.1C29.8,22.4,28,23.8,26,24.8 M28.8,10.3c-3.4-1.7-7.1-2.6-11-2.6c-3.9,0-7.6,0.9-11,2.6
	c-1.9,0.9-3.6,2.1-5.1,3.5v3.4c1.7-1.8,3.8-3.4,6-4.5c3.1-1.6,6.5-2.4,10.1-2.4c3.5,0,6.9,0.8,10.1,2.4c2.2,1.2,4.3,2.7,6.1,4.5
	v-3.4C32.3,12.4,30.6,11.2,28.8,10.3"/>
</svg>
