<svg xmlns="http://www.w3.org/2000/svg" xmlns:xlink="http://www.w3.org/1999/xlink" version="1.1" id="Layer_1" x="0px" y="0px" viewBox="0 0 25 35" xml:space="preserve" enable-background="new 0 0 25 35"><style type="text/css">
	.st0{fill:#00A79D;}
</style><path id="XMLID_353_" class="st0" d="M22.5 16.8v13.8l-1 0.5c-0.7 0.3-1.9 0.6-3.6 0.9 -1.7 0.3-3.6 0.5-5.7 0.5 -3.7 0-7-0.6-9.8-1.9V16.8l3.9-1V7.1c0.2-1.7 1-2.9 2.5-3.7 1.1-0.5 2.2-0.8 3.5-0.8h0.2c2.4 0 4.1 0.7 5.2 2.1 0.7 0.8 1 1.6 1 2.3l-0.1 8.8C19.5 15.9 20.8 16.2 22.5 16.8zM16.2 7.1c0-0.1 0-0.2-0.1-0.2 -0.1-0.2-0.2-0.5-0.4-0.7C15.1 5.4 14 5 12.5 5h-0.1c-0.9 0-1.7 0.2-2.4 0.5C9.3 6 8.9 6.6 8.8 7.4v8c0.7-0.1 1.9-0.2 3.6-0.2 1.5 0 2.8 0.1 3.8 0.2V7.1zM14 24.4c0.9-0.5 1.3-1.3 1.3-2.3 0-0.8-0.3-1.4-0.8-1.9 -0.5-0.5-1.2-0.8-1.9-0.8 -0.7 0-1.4 0.3-1.9 0.8 -0.5 0.5-0.8 1.2-0.8 1.9 0 1 0.5 1.8 1.4 2.4l-0.6 3.7h4L14 24.4z"/></svg>