<?xml version="1.0" encoding="utf-8"?>
<!-- Generator: Adobe Illustrator 19.0.0, SVG Export Plug-In . SVG Version: 6.00 Build 0)  -->
<svg version="1.1" id="Layer_1" xmlns="http://www.w3.org/2000/svg" xmlns:xlink="http://www.w3.org/1999/xlink" x="0px" y="0px"
	 viewBox="-452 253 55 55" style="enable-background:new -452 253 55 55;" xml:space="preserve">
<style type="text/css">
	.st0{fill:#FFFFFF;}
</style>
<g id="XMLID_67_">
	<path id="XMLID_68_" class="st0" d="M-431.1,295.6L-431.1,295.6c-0.3,0-0.6-0.3-0.6-0.6l-1.3-25.1l-1.3,11.6c0,0.3-0.3,0.5-0.6,0.5
		h-16.6c-0.3,0-0.6-0.3-0.6-0.6c0-0.3,0.3-0.6,0.6-0.6h16.1l2.1-18.7c0-0.3,0.3-0.6,0.6-0.5c0.3,0,0.6,0.3,0.6,0.6l1.3,26.5
		l1.7-11.6c0-0.3,0.3-0.5,0.6-0.5c0.3,0,0.6,0.2,0.6,0.5l1.6,6.5l1.7-15.6c0-0.3,0.3-0.5,0.6-0.6c0.3,0,0.6,0.2,0.6,0.5l2.3,14.8
		l2.2-8.3c0.1-0.3,0.4-0.5,0.6-0.5c0.3,0,0.5,0.3,0.6,0.6l0.7,7.9l1.1-10.4c0-0.3,0.3-0.5,0.6-0.5c0.3,0,0.6,0.2,0.6,0.5l1.9,9.4
		h15.4c0.3,0,0.6,0.3,0.6,0.6s-0.3,0.6-0.6,0.6h-15.9c-0.3,0-0.5-0.2-0.6-0.5l-1.2-5.9l-1.4,12.6c0,0.3-0.3,0.6-0.6,0.6l0,0
		c-0.3,0-0.6-0.2-0.6-0.6l-0.9-10.5l-2,7.8c-0.1,0.3-0.3,0.5-0.6,0.5c-0.3,0-0.5-0.2-0.6-0.5l-2-13l-1.5,14.2c0,0.3-0.3,0.5-0.6,0.6
		c-0.3,0-0.6-0.2-0.6-0.5l-1.7-6.9l-2.3,14.5C-430.5,295.3-430.9,295.6-431.1,295.6"/>
</g>
</svg>
