<?xml version="1.0" encoding="utf-8"?>
<!-- Generator: Adobe Illustrator 16.0.0, SVG Export Plug-In . SVG Version: 6.00 Build 0)  -->
<!DOCTYPE svg PUBLIC "-//W3C//DTD SVG 1.1//EN" "http://www.w3.org/Graphics/SVG/1.1/DTD/svg11.dtd">
<svg version="1.1" id="Layer_1" xmlns="http://www.w3.org/2000/svg" xmlns:xlink="http://www.w3.org/1999/xlink" x="0px" y="0px"
	 width="30px" height="38px" viewBox="0 0 30 38" style="enable-background:new 0 0 30 38;" xml:space="preserve">
<style type="text/css">
<![CDATA[
	.st0{fill:#69AC96;}
]]>
</style>
<path class="st0" d="M29.8,9.2c-0.6-0.3-1.3-0.8-3.6,3c-1.4,2.3-3.2,4.4-3.4,4.3c-0.6-0.3,0.9-2.9,2.7-5.8c3-5,2.1-5.7,1.6-6
	c-0.6-0.3-1.2-1.3-4.3,4c-1.6,2.8-3.4,5.3-3.8,5.1c-0.2-0.1,1.1-3.1,2.6-5.8c2.9-5.2,3.1-6,2-6.7c-1.3-0.8-2-0.1-4.8,5
	c-1.6,2.9-2.7,5.9-3.1,5.8c-0.4-0.1,0.3-2.6,1.7-5.9c1.8-4.3,2.2-5.1,0.8-5.8c-1.5-0.7-2.4,1.1-3.7,4.2c-1.1,2.6-2.6,6.1-3.4,7.5
	c-1.1,1.8-1.4,2.4-2.4,3.6c-0.6,0.7-2.2-0.2-3.2-1.7c-1.2-1.7-1.4-3.2-3.4-3.2c-1.2,0-2.9,1.1-1.5,2.5c2.2,2.1,3.8,6.8,4.3,9.1
	c0.6,2.3,0.9,3,0.8,3.8l-4.4,6.6l8.7,5.4l4.3-6.9c1.3-2.2,3.4-1,7.2-7.3c1.6-2.6,4.5-6.7,6.3-9.8C30.3,10.4,30.4,9.5,29.8,9.2z
	 M7.1,30.3c-0.7,0.3-1.4-0.1-1.7-0.7s0.1-1.4,0.7-1.7c0.7-0.3,1.4,0.1,1.7,0.7C8.1,29.3,7.8,30,7.1,30.3z M10.4,34.9
	c-1,0.4-2.2-0.1-2.6-1.1c-0.4-1,0.1-2.2,1.1-2.6s2.2,0.1,2.6,1.1C11.9,33.3,11.4,34.5,10.4,34.9z M11.5,27.4c-1,0.4-2.1-0.1-2.5-1.1
	c-0.4-1,0.1-2.1,1.1-2.5c1-0.4,2.1,0.1,2.5,1.1C13,25.9,12.5,27,11.5,27.4z M14.1,30.8c-0.7,0.3-1.4-0.1-1.7-0.7
	c-0.3-0.7,0.1-1.4,0.7-1.7c0.7-0.3,1.4,0.1,1.7,0.7C15,29.8,14.7,30.6,14.1,30.8z M14,23.7C13.7,23,14,22.3,14.7,22
	c0.7-0.3,1.4,0.1,1.7,0.7c0.3,0.7-0.1,1.4-0.7,1.7C15,24.7,14.2,24.3,14,23.7z M17.2,27c-0.5,0.2-1.1,0-1.3-0.6s0-1.1,0.6-1.3
	c0.5-0.2,1.1,0,1.3,0.6C18,26.2,17.7,26.8,17.2,27z M19.7,23.3c-0.5,0.2-1.1,0-1.3-0.6c-0.2-0.5,0-1.1,0.6-1.3
	c0.5-0.2,1.1,0,1.3,0.6C20.5,22.5,20.3,23.1,19.7,23.3z"/>
</svg>
