<?xml version="1.0" encoding="utf-8"?>
<!-- Generator: Adobe Illustrator 19.0.0, SVG Export Plug-In . SVG Version: 6.00 Build 0)  -->
<svg version="1.1" xmlns="http://www.w3.org/2000/svg" xmlns:xlink="http://www.w3.org/1999/xlink" x="0px" y="0px"
	 viewBox="-452 253 55 55" style="enable-background:new -452 253 55 55;" xml:space="preserve">
<style type="text/css">
	.st0{fill:#FFFFFF;}
</style>
<g id="Layer_1">
	<g>
		<g>
			<polygon class="st0" points="-429.5,281.9 -428.3,283 -428.9,283.6 -430.1,282.5 -432,284.6 -430.8,285.7 -431.4,286.4 
				-432.6,285.2 -433.9,286.6 -429,291.2 -422.9,284.7 -427.8,280.1 			"/>
			
				<rect x="-424.3" y="276.4" transform="matrix(0.7304 0.683 -0.683 0.7304 74.934 363.9309)" class="st0" width="1.6" height="0.9"/>
			
				<rect x="-422.1" y="273.9" transform="matrix(0.7302 0.6832 -0.6832 0.7302 73.8055 361.8596)" class="st0" width="1.6" height="0.9"/>
			<polygon class="st0" points="-423.6,280.9 -426.2,278.4 -427.1,279.4 -422.2,284 -421.3,283 -422.9,281.5 -416,274 -417.1,272.9 
				-424.1,280.4 			"/>
			<path class="st0" d="M-415,273L-415,273l-1.2-1.1l0,0l-3.8-3.6l-17.2,18.4l3.6,3.3l-5.8,6.2l3.5-1.2l3.5-3.8l3.6,3.4l17.2-18.4
				L-415,273z M-428.9,292.7l-6.4-6l15.3-16.4l2.8,2.6l0,0l1.2,1.1l0,0l2.4,2.3L-428.9,292.7z"/>
			<polygon class="st0" points="-415.8,264.7 -418,267.1 -414.6,270.2 -416.2,271.9 -415,273 -413.4,271.3 -410.7,273.9 
				-408.5,271.6 			"/>
		</g>
	</g>
</g>
<g id="Layer_2">
</g>
</svg>
