<?xml version="1.0" encoding="utf-8"?>
<!-- Generator: Adobe Illustrator 19.0.0, SVG Export Plug-In . SVG Version: 6.00 Build 0)  -->
<svg version="1.1" xmlns="http://www.w3.org/2000/svg" xmlns:xlink="http://www.w3.org/1999/xlink" x="0px" y="0px"
	 viewBox="-452 253 55 55" style="enable-background:new -452 253 55 55;" xml:space="preserve">
<style type="text/css">
	.st0{fill:#FFFFFF;}
</style>
<g id="Layer_1">
	<g>
		<path class="st0" d="M-416,272.5c-0.4,0-0.8-0.3-0.8-0.8v-3.2c0-0.4-0.3-0.8-0.8-0.8h-12.9c-0.4,0-0.8,0.3-0.8,0.8v3.2
			c0,0.4-0.3,0.8-0.8,0.8h-5.6c-0.4,0-0.8,0.3-0.8,0.8v16.3c0,0.4,0.3,0.8,0.8,0.8h27.3c0.4,0,0.8-0.3,0.8-0.8v-16.3
			c0-0.4-0.3-0.8-0.8-0.8H-416z M-424,287.2c-3.6,0-6.6-2.9-6.6-6.6c0-3.6,2.9-6.6,6.6-6.6c3.6,0,6.6,2.9,6.6,6.6
			C-417.4,284.3-420.4,287.2-424,287.2"/>
	</g>
</g>
<g id="Layer_2">
</g>
</svg>
