<?xml version="1.0" encoding="utf-8"?>
<!-- Generator: Adobe Illustrator 19.0.0, SVG Export Plug-In . SVG Version: 6.00 Build 0)  -->
<svg version="1.1" xmlns="http://www.w3.org/2000/svg" xmlns:xlink="http://www.w3.org/1999/xlink" x="0px" y="0px"
	 viewBox="-452 253 55 55" style="enable-background:new -452 253 55 55;" xml:space="preserve">
<style type="text/css">
	.st0{fill:#FFFFFF;}
</style>
<g id="Layer_1">
	<g>
		<path class="st0" d="M-414.3,272.9c-0.1-1-0.6-2.3-1.1-2.8c-0.5-0.6-1.4-1.1-2.1-1.2c-0.6-0.1-2-0.1-3,0.1l-3.5,0.5l-3.5-0.5
			c-1-0.1-2.3-0.2-3-0.1c-0.6,0.1-1.6,0.7-2.1,1.2c-0.5,0.6-1,1.9-1.1,2.8c-0.1,1.8,0,4.6,1.3,7.1c0,0,0.9,1.8,0.9,4.7
			c0,2.1,0.8,6.7,1.9,8.7c0.5,0.9,1.8,0.7,2.1-0.2c1-3.4,1.7-11.8,3.5-11.8c1.8,0,2.5,8.4,3.5,11.8c0.3,1,1.6,1.1,2.1,0.2
			c1-2,1.9-6.6,1.9-8.7c0-2.9,0.9-4.7,0.9-4.7C-414.4,277.5-414.3,274.7-414.3,272.9"/>
	</g>
</g>
<g id="Layer_2">
</g>
</svg>
