<?xml version="1.0" encoding="utf-8"?>
<!-- Generator: Adobe Illustrator 19.0.0, SVG Export Plug-In . SVG Version: 6.00 Build 0)  -->
<svg version="1.1" id="Layer_1" xmlns="http://www.w3.org/2000/svg" xmlns:xlink="http://www.w3.org/1999/xlink" x="0px" y="0px"
	 viewBox="-457 258 45 45" style="enable-background:new -457 258 45 45;" xml:space="preserve">
<style type="text/css">
	.st0{fill:#FFFFFF;}
</style>
<g>
	<path class="st0" d="M-430.2,272.2h-1.8h-6.2h-1.8c-0.8,0-1.5,0.7-1.5,1.5v10.5c0,0.8,0.7,1.5,1.5,1.5s1.5-0.7,1.5-1.5V275h0.4v9.1
		v0.2v10.3c0,0.8,0.7,1.5,1.5,1.5c0.8,0,1.5-0.7,1.5-1.5v-10.3h0.1v10.3c0,0.8,0.7,1.5,1.5,1.5s1.5-0.7,1.5-1.5v-10.3v-0.2V275h0.4
		v9.2c0,0.8,0.7,1.5,1.5,1.5c0.8,0,1.5-0.7,1.5-1.5v-10.5C-428.7,272.9-429.4,272.2-430.2,272.2"/>
	<path class="st0" d="M-438.5,268.2c0-1.9,1.5-3.4,3.4-3.4s3.4,1.5,3.4,3.4c0,1.9-1.5,3.4-3.4,3.4
		C-437,271.5-438.5,270.1-438.5,268.2"/>
</g>
</svg>
