<?xml version="1.0" encoding="utf-8"?>
<!-- Generator: Adobe Illustrator 19.0.0, SVG Export Plug-In . SVG Version: 6.00 Build 0)  -->
<svg version="1.1" xmlns="http://www.w3.org/2000/svg" xmlns:xlink="http://www.w3.org/1999/xlink" x="0px" y="0px"
	 viewBox="-452 253 55 55" style="enable-background:new -452 253 55 55;" xml:space="preserve">
<style type="text/css">
	.st0{fill:#FFFFFF;}
</style>
<g id="Layer_1">
	<g>
		<path class="st0" d="M-424,275.2c-6.3,0-12,3-15.5,7.8c3.5,4.7,9.2,7.7,15.5,7.7c6.3,0,12-3,15.5-7.7
			C-412,278.2-417.7,275.2-424,275.2 M-425.9,279c1.1,0,1.9,0.9,1.9,1.9c0,1.1-0.9,1.9-1.9,1.9c-1.1,0-1.9-0.9-1.9-1.9
			C-427.9,279.9-427,279-425.9,279 M-416.1,286.8c-1.2,0.6-2.5,1.1-3.8,1.4c-1.3,0.3-2.7,0.5-4.1,0.5c-1.4,0-2.8-0.2-4.1-0.5
			c-1.3-0.3-2.6-0.8-3.8-1.4c-1.9-1-3.6-2.3-5.1-3.9c1.4-1.6,3.2-2.9,5.1-3.9c1-0.5,2-0.9,3.1-1.2c-0.6,0.9-1,2-1,3.2
			c0,3.2,2.6,5.8,5.8,5.8s5.8-2.6,5.8-5.8c0-1.2-0.4-2.3-1-3.2c1.1,0.3,2.1,0.7,3.1,1.2c1.9,1,3.6,2.3,5.1,3.9
			C-412.4,284.5-414.2,285.9-416.1,286.8 M-413.4,272.9c-3.3-1.7-6.8-2.5-10.6-2.5c-3.7,0-7.3,0.9-10.6,2.5
			c-1.8,0.9-3.4,2.1-4.9,3.4v3.3c1.7-1.8,3.7-3.3,5.8-4.4c3-1.5,6.3-2.3,9.7-2.3c3.4,0,6.7,0.8,9.7,2.3c2.2,1.1,4.1,2.6,5.8,4.4
			v-3.3C-410,274.9-411.7,273.8-413.4,272.9"/>
	</g>
</g>
<g id="Layer_2">
</g>
</svg>
