<?xml version="1.0" encoding="utf-8"?>
<!-- Generator: Adobe Illustrator 19.0.0, SVG Export Plug-In . SVG Version: 6.00 Build 0)  -->
<svg version="1.1" id="Layer_1" xmlns="http://www.w3.org/2000/svg" xmlns:xlink="http://www.w3.org/1999/xlink" x="0px" y="0px"
	 viewBox="-452 253 55 55" style="enable-background:new -452 253 55 55;" xml:space="preserve">
<style type="text/css">
	.st0{fill:#FFFFFF;}
</style>
<g>
	<path class="st0" d="M-412.3,272.1c-0.5-0.3-1.1-0.6-2.9,2.4c-1.1,1.8-2.5,3.5-2.7,3.4c-0.4-0.3,0.7-2.3,2.2-4.6
		c2.4-4,1.7-4.6,1.3-4.8c-0.4-0.3-1-1-3.4,3.2c-1.3,2.3-2.7,4.2-3,4c-0.2-0.1,0.9-2.4,2.1-4.6c2.3-4.1,2.5-4.8,1.6-5.3
		c-1-0.6-1.6-0.1-3.8,4c-1.2,2.3-2.2,4.7-2.5,4.6c-0.3-0.1,0.2-2.1,1.4-4.7c1.5-3.4,1.8-4.1,0.6-4.6c-1.2-0.6-1.9,0.9-3,3.4
		c-0.9,2.1-2,4.9-2.7,6c-0.8,1.4-1.1,1.9-1.9,2.9c-0.5,0.6-1.7-0.2-2.5-1.3c-0.9-1.4-1.1-2.6-2.7-2.6c-1,0-2.3,0.9-1.2,2
		c1.8,1.6,3,5.4,3.5,7.3c0.4,1.8,0.7,2.4,0.7,3l-3.8,5.2l7,4.3l3.4-5.5c1-1.7,2.7-0.8,5.7-5.9c1.2-2.1,3.6-5.4,5-7.8
		C-412,273-411.9,272.3-412.3,272.1z M-430.5,289c-0.5,0.2-1.1,0-1.3-0.6c-0.2-0.5,0-1.1,0.6-1.3c0.5-0.2,1.1,0,1.3,0.6
		C-429.7,288.2-429.9,288.8-430.5,289z M-427.8,292.6c-0.8,0.3-1.7-0.1-2.1-0.9c-0.3-0.8,0.1-1.7,0.9-2.1c0.8-0.3,1.7,0.1,2.1,0.9
		C-426.6,291.4-427,292.3-427.8,292.6z M-427,286.6c-0.8,0.3-1.7-0.1-2-0.9c-0.3-0.8,0.1-1.7,0.9-2c0.8-0.3,1.7,0.1,2,0.9
		C-425.8,285.4-426.2,286.3-427,286.6z M-424.9,289.4c-0.5,0.2-1.1,0-1.3-0.6c-0.2-0.5,0-1.1,0.6-1.3c0.5-0.2,1.1,0,1.3,0.6
		C-424.1,288.6-424.4,289.2-424.9,289.4z M-425,283.7c-0.2-0.5,0-1.1,0.6-1.3c0.5-0.2,1.1,0,1.3,0.6c0.2,0.5,0,1.1-0.6,1.3
		C-424.2,284.5-424.8,284.2-425,283.7z M-422.4,286.3c-0.4,0.2-0.9,0-1-0.4c-0.2-0.4,0-0.9,0.4-1c0.4-0.2,0.9,0,1,0.4
		C-421.8,285.7-422,286.2-422.4,286.3z M-420.4,283.4c-0.4,0.2-0.9,0-1-0.4c-0.2-0.4,0-0.9,0.4-1c0.4-0.2,0.9,0,1,0.4
		C-419.8,282.8-420,283.2-420.4,283.4z"/>
</g>
</svg>
