<?xml version="1.0" encoding="utf-8"?>
<!-- Generator: Adobe Illustrator 16.0.0, SVG Export Plug-In . SVG Version: 6.00 Build 0)  -->
<!DOCTYPE svg PUBLIC "-//W3C//DTD SVG 1.1//EN" "http://www.w3.org/Graphics/SVG/1.1/DTD/svg11.dtd">
<svg version="1.1" id="Layer_1" xmlns="http://www.w3.org/2000/svg" xmlns:xlink="http://www.w3.org/1999/xlink" x="0px" y="0px"
	 width="18px" height="40px" viewBox="0 0 18 40" style="enable-background:new 0 0 18 40;" xml:space="preserve">
<style type="text/css">
<![CDATA[
	.st0{fill:#5B9D94;}
]]>
</style>
<path class="st0" d="M14.6,25.2V7.1c0-3.3-2.7-6-6-6c-3.3,0-6,2.7-6,6v18.2c-1.5,1.5-2.4,3.6-2.4,5.9c0,4.7,3.8,8.4,8.4,8.4
	c4.6,0,8.4-3.8,8.4-8.4C17,28.8,16.1,26.8,14.6,25.2z M8.6,37.1c-0.2,0-0.5,0-0.7-0.1c-3-0.4-5.3-2.9-5.3-5.9c0-2,1-3.7,2.4-4.8V7.1
	c0-2,1.6-3.6,3.6-3.6c2,0,3.6,1.6,3.6,3.6v19.3c1.5,1.1,2.4,2.8,2.4,4.8C14.6,34.4,11.9,37.1,8.6,37.1z M9.8,27.7V10.7H7.4v17.1
	C6,28.2,5,29.5,5,31.1c0,2,1.6,3.6,3.6,3.6c2,0,3.6-1.6,3.6-3.6C12.2,29.5,11.2,28.2,9.8,27.7z"/>
</svg>
