<?xml version="1.0" encoding="utf-8"?>
<!-- Generator: Adobe Illustrator 16.0.0, SVG Export Plug-In . SVG Version: 6.00 Build 0)  -->
<!DOCTYPE svg PUBLIC "-//W3C//DTD SVG 1.1//EN" "http://www.w3.org/Graphics/SVG/1.1/DTD/svg11.dtd">
<svg version="1.1" id="Layer_1" xmlns="http://www.w3.org/2000/svg" xmlns:xlink="http://www.w3.org/1999/xlink" x="0px" y="0px"
	 width="56px" height="35px" viewBox="0 0 56 35" style="enable-background:new 0 0 56 35;" xml:space="preserve">
<style type="text/css">
<![CDATA[
	.st0{fill:#5B9D94;}
]]>
</style>
<path class="st0" d="M21.6,35C21.6,35,21.6,35,21.6,35c-0.3,0-0.6-0.3-0.6-0.6L19.7,9.3l-1.3,11.6c0,0.3-0.3,0.5-0.6,0.5H1.1
	c-0.3,0-0.6-0.3-0.6-0.6c0-0.3,0.3-0.6,0.6-0.6h16.1l2.1-18.7c0-0.3,0.3-0.6,0.6-0.5c0.3,0,0.6,0.3,0.6,0.6l1.3,26.5l1.7-11.6
	c0-0.3,0.3-0.5,0.6-0.5c0.3,0,0.6,0.2,0.6,0.5l1.6,6.5L28,7.5c0-0.3,0.3-0.5,0.6-0.6c0.3,0,0.6,0.2,0.6,0.5l2.3,14.8l2.2-8.3
	c0.1-0.3,0.4-0.5,0.6-0.5c0.3,0,0.5,0.3,0.6,0.6l0.7,7.9l1.1-10.4c0-0.3,0.3-0.5,0.6-0.5c0.3,0,0.6,0.2,0.6,0.5l1.9,9.4h15.4
	c0.3,0,0.6,0.3,0.6,0.6c0,0.3-0.3,0.6-0.6,0.6H39.3c-0.3,0-0.5-0.2-0.6-0.5l-1.2-5.9l-1.4,12.6c0,0.3-0.3,0.5-0.6,0.5h0
	c-0.3,0-0.6-0.2-0.6-0.6L34,17.7l-2,7.8c-0.1,0.3-0.3,0.5-0.6,0.5c-0.3,0-0.5-0.2-0.6-0.5l-2-13l-1.5,14.2c0,0.3-0.3,0.5-0.6,0.6
	c-0.3,0-0.6-0.2-0.6-0.5l-1.7-6.9l-2.2,14.7C22.2,34.8,21.9,35,21.6,35"/>
</svg>
