<?xml version="1.0" encoding="utf-8"?>
<!-- Generator: Adobe Illustrator 19.0.0, SVG Export Plug-In . SVG Version: 6.00 Build 0)  -->
<svg version="1.1" id="Layer_1" xmlns="http://www.w3.org/2000/svg" xmlns:xlink="http://www.w3.org/1999/xlink" x="0px" y="0px"
	 viewBox="-452 253 55 55" style="enable-background:new -452 253 55 55;" xml:space="preserve">
<style type="text/css">
	.st0{fill:#FFFFFF;}
</style>
<path class="st0" d="M-420.1,282v-13.9c0-2.5-2.1-4.6-4.6-4.6s-4.6,2.1-4.6,4.6V282c-1.1,1.2-1.8,2.7-1.8,4.5c0,3.6,2.9,6.4,6.4,6.4
	c3.6,0,6.4-2.9,6.4-6.4C-418.2,284.7-418.9,283.2-420.1,282z M-424.7,291.1c-0.2,0-0.4,0-0.6-0.1c-2.3-0.3-4-2.2-4-4.6
	c0-1.5,0.7-2.8,1.8-3.7v-14.6c0-1.5,1.2-2.8,2.8-2.8c1.6,0,2.8,1.2,2.8,2.8v14.8c1.1,0.8,1.8,2.2,1.8,3.7
	C-420.1,289-422.1,291.1-424.7,291.1z M-423.7,283.9v-13.1h-1.8v13.1c-1.1,0.4-1.8,1.4-1.8,2.6c0,1.5,1.2,2.8,2.8,2.8
	s2.8-1.2,2.8-2.8C-421.9,285.3-422.7,284.3-423.7,283.9z"/>
</svg>
