<?xml version="1.0" encoding="utf-8"?>
<!-- Generator: Adobe Illustrator 19.0.0, SVG Export Plug-In . SVG Version: 6.00 Build 0)  -->
<svg version="1.1" xmlns="http://www.w3.org/2000/svg" xmlns:xlink="http://www.w3.org/1999/xlink" x="0px" y="0px"
	 viewBox="-452 253 55 55" style="enable-background:new -452 253 55 55;" xml:space="preserve">
<style type="text/css">
	.st0{fill:#FFFFFF;stroke:#FFFFFF;}
</style>
<g id="Layer_1">
	<g>
		<path class="st0" d="M-414.7,270.3c-1.3-2.9-4-4.4-6-4.8c-4.9-1-8.7-0.3-11.1,2c-4.2,4-3.1,11.2-3.1,11.5c0,0.3,0.3,0.5,0.6,0.5
			c0.3,0,0.5-0.3,0.5-0.6c0-0.1-1-7,2.8-10.6c2.2-2.1,5.6-2.7,10.1-1.7c1.8,0.4,4.1,1.7,5.3,4.2c1.5,3.2,0.7,7.6-2.1,12.8
			c-0.8,1.4-1.1,2.6-1.4,3.9c-0.3,1.4-0.7,3-1.9,5.3c-0.7,1.4-3,2.3-5.3,2.1c-1.1-0.1-3.6-0.5-4.5-3.1c-1.1-1.9-2.4-5.3-1.5-6.5
			c0.5-0.7,1.8-0.6,2.8-0.4c0.2,0.1,0.5,1.2,0.7,1.9c0.4,1.5,0.9,3.3,2.2,3.2c0.1,0,1.9,0.2,2.7-1.1c0.6-1,0.3-2.4-1-4.4
			c1-0.9,3.4-3.6,2.3-6c-0.4-0.7-1.5-1.8-3-1.8h0c-0.8,0-2,0.4-2.9,1.8c-0.4-1.3-1-3.7-0.2-5.4c0.4-1,1.2-1.7,2.4-2
			c0.9-0.3,3.9-0.6,5.6,1c1.4,1.3,1.7,3.6,1,6.8c-0.1,0.3,0.1,0.6,0.4,0.7c0.3,0.1,0.6-0.1,0.7-0.4c0.9-3.6,0.4-6.2-1.3-7.8
			c-2.3-2.1-5.8-1.5-6.7-1.3c-1.5,0.5-2.5,1.4-3.1,2.7c-1.4,3.1,0.5,7.3,0.6,7.4c0.1,0.2,0.3,0.3,0.5,0.3c0.2,0,0.4-0.1,0.5-0.3
			c0.7-1.5,1.6-2.3,2.6-2.3h0c0.9,0,1.8,0.7,2,1.2c0.9,1.7-1.4,4.2-2.3,5c-0.2,0.2-0.3,0.5-0.1,0.7c1.5,2.3,1.4,3.3,1.2,3.6
			c-0.4,0.7-1.6,0.6-1.7,0.6c-0.5,0-0.9-1.5-1.1-2.4c-0.4-1.3-0.7-2.5-1.5-2.7c-1.9-0.4-3.3-0.2-4,0.8c-1.6,2.2,1.1,7.2,1.4,7.6
			c0.8,2.2,2.8,3.6,5.5,3.8c0.2,0,0.4,0,0.6,0c2.6,0,4.9-1.1,5.8-2.8c1.2-2.4,1.6-4.1,2-5.5c0.3-1.2,0.6-2.3,1.3-3.6
			C-413.8,278.5-413.1,273.8-414.7,270.3"/>
	</g>
</g>
<g id="Layer_2">
</g>
</svg>
