<?xml version="1.0" standalone="no"?>
<!DOCTYPE svg PUBLIC "-//W3C//DTD SVG 1.1//EN" "http://www.w3.org/Graphics/SVG/1.1/DTD/svg11.dtd" >
<svg xmlns="http://www.w3.org/2000/svg">
<metadata>Generated by IcoMoon</metadata>
<defs>
<font id="Doctorplus-plus" horiz-adv-x="1024">
<font-face units-per-em="1024" ascent="960" descent="-64" />
<missing-glyph horiz-adv-x="1024" />
<glyph unicode="&#x20;" horiz-adv-x="0" d="" />
<glyph unicode="&#xe000;" glyph-name="doctorplus-plus" d="M390 164c-6 0-12 6-12 12l-24 464-24-214c0-6-6-10-10-10h-308c-6 0-12 6-12 12 0 4 6 10 12 10h298l40 346c0 6 4 12 10 10 6 0 12-6 12-12l24-490 30 214c0 6 6 10 12 10s12-4 12-10l28-120 32 290c0 6 6 8 12 10 4 0 10-4 10-8l42-274 42 152c2 6 8 10 10 10 6 0 10-6 12-10l12-148 22 194c0 4 4 8 10 8s12-4 12-8l34-174h286c6 0 10-6 10-12s-4-10-10-10h-294c-6 0-10 2-12 8l-22 110-26-234c0-6-6-10-10-10-6 0-12 2-12 10l-16 194-38-144c-2-6-6-8-10-8-6 0-10 2-12 8l-38 242-26-264c0-6-6-10-12-12-6 0-12 4-12 10l-30 128-44-268c0-6-6-12-10-12z" />
<glyph unicode="&#xe001;" glyph-name="doctorplus-plus-1" d="M572 360c-46-54-70-118-72-188h-476c-6 0-12 2-20 8-4 6-8 12-8 20v628c0 8 4 16 8 20 6 6 12 8 20 8h72v-42c0-24 8-46 28-64 16-18 38-26 62-26 28 0 48 8 66 26 18 16 26 38 26 64v42h190v-42c0-26 8-48 26-64 16-18 38-26 66-26 26 0 48 8 64 26 18 16 26 38 26 64v42h70c8 0 14-2 20-8 4-4 8-12 8-20v-372c-70-10-130-42-176-96zM156 784c-8 8-12 16-12 28v106c0 12 4 22 12 30 10 8 20 12 28 12 12 0 22-4 30-12s12-18 12-30v-106c0-12-4-22-12-28-8-8-18-10-30-10-8 0-18 2-28 10zM576 618h-408v-62h408v62zM576 502h-408v-62h408v62zM370 386h-202v-62h202v62zM516 812v106c0 12 4 22 12 30s18 12 30 12c12 0 20-4 26-12 8-8 12-18 12-30v-106c0-12-4-22-12-28-6-8-14-12-26-12s-22 4-30 12c-8 8-12 16-12 28zM954 336c44-44 66-98 66-160 0-64-22-116-66-162-44-44-98-66-162-66-62 0-114 22-160 66-44 46-66 98-66 162 0 62 22 116 66 160 46 44 98 66 160 66 64 0 118-22 162-66zM972 176c0 50-18 92-52 126s-76 52-128 52c-50 0-92-18-126-52s-52-76-52-126c0-50 18-92 54-126 34-36 76-54 124-54 50 0 92 18 126 54 36 34 54 76 54 126zM810 180h106v-48h-154v170h48z" />
<glyph unicode="&#xe002;" glyph-name="doctorplus-plus-2" d="M834 368c-6 0-12 4-14 10l-42 196-72-230c-2-6-8-10-14-10-6 2-12 6-12 12l-42 306-62-520c-2-6-8-12-14-12v0c-8 0-14 6-14 12l-54 406-52-238c0-6-6-12-12-12-8 0-14 6-14 12l-80 340-58-258c-2-6-8-12-14-12h-126c40-40 88-84 144-128 124-98 200-194 234-248 36 54 110 150 234 248 56 44 102 86 142 126zM252 400l70 306c0 6 6 12 12 12 8 0 12-4 14-12l80-340 56 258c2 6 8 12 16 12 6-2 12-6 12-14l48-374 62 518c2 6 8 12 14 12v0c8 0 14-6 14-12l48-354 70 220c2 6 8 10 14 10s12-4 12-10l52-236h72c74 86 110 168 110 248 0 192-124 260-228 260-100 0-192-54-250-146v0h-2c-6-10-18-16-30-16h-2c-14 0-24 6-32 14v2h-2c-56 92-150 146-248 146-106 0-230-68-230-260 0-80 36-160 108-246h140z" />
<glyph unicode="&#xe003;" glyph-name="doctorplus-plus-3" d="M1038 448c-4-38-22-76-52-114-46-56-94-84-138-84-18 0-36 8-50 18-38 30-40 76-10 142-6 0-16-4-30-8-38-20-60-68-70-148-4-14-4-24-4-32-2-30-6-58-10-76-4-16-10-40-20-72-10-30-24-52-38-68-14-18-34-32-62-46s-62-20-98-20h-10c-58 2-104 24-134 62-36 48-48 110-38 190-8 10-10 24-10 38l2 44-62 22c-20 6-34 20-42 40-54 32-92 76-114 132-10 42-16 80-16 114s6 70 20 108c14 38 28 66 38 86 10 18 22 34 32 52-4 4-4 6-4 14 4 14 10 24 20 30 12 4 18 14 28 36l14 30c8 14 18 20 32 24s26-4 38-14l38-34c10-14 14-24 14-38s-12-24-26-34l-24-14c-14-8-24-18-34-28-6-18-18-24-30-24h-4c-66-108-84-198-60-274 14-34 42-62 76-86 12 4 26 4 36 0l90-30 82 24c10 2 22 2 34-4 42 24 70 56 84 94 28 72 6 162-58 272-18 0-28 8-36 18-6 10-16 20-34 28l-24 14c-14 6-24 16-24 30-4 14 4 28 16 38l38 34c12 12 26 14 38 12 14-4 26-12 32-26l18-26c10-18 16-32 24-36 10-6 16-16 14-30 6-8 10-14 14-24 2-8 12-22 24-42 10-20 20-42 26-62 8-20 14-46 22-70 6-28 10-54 6-82-2-28-6-56-16-80-22-56-62-100-122-138-6-20-20-32-42-38l-58-18-4-44c0-18-6-34-24-48-6-56 0-98 22-122 16-20 38-30 68-30h8c52 0 86 16 106 48 18 30 32 86 42 162l4 4c0 2 0 6 0 14 0 6 0 10 0 14 16 102 54 172 114 206 38 22 82 24 128 14 26 28 58 48 90 56 30 10 58 6 76-10 16-22 26-52 24-90z" />
<glyph unicode="&#xe004;" glyph-name="doctorplus-file" d="M1022 72c0-14-10-28-28-28h-964c-14 0-28 14-28 28v652c0 14 10 26 28 26h478c14 0 36 12 42 24l28 50c6 14 28 24 40 24h380c14 0 28-14 28-28v-748zM56 124c0-14 14-28 28-28h858c14 0 28 14 28 28v640c0 14-14 28-28 28h-292c-14 0-34-10-42-24l-30-48c-8-14-28-24-42-24h-454c-14 4-26-10-26-24z" />
<glyph unicode="&#xe005;" glyph-name="doctorplus-plus-5" d="M900 384c8 52 4 106-8 158l120 56-64 136-120-56c-30 44-68 78-116 104l44 122-142 52-42-124c-52 8-106 4-158-8l-56 120-136-64 56-120c-44-30-78-68-104-116l-122 44-52-142 124-42c-8-52-4-106 8-158l-120-56 64-136 120 56c30-44 68-78 116-104l-44-122 142-52 42 124c52-8 106-4 158 8l56-120 136 64-56 120c44 30 78 68 104 116l122-44 52 142zM512 214c-124 0-222 98-222 222s98 222 222 222c120 0 222-98 222-222s-98-222-222-222zM406-56l-124 44 20 72-4-60 94-34 44 120 20-4c48-10 98-4 146 8l20 4 56-116 90 44-22 84 44-92-120-56-56 114h-8c-52-12-102-16-154-8h-8zM512 188c-214 4-222 200-222 200 22-106 116-182 222-182 72 0 146 38 188 98 0 0-56-116-188-116zM188 614l-124 60 116-42 4 4c26 42 60 82 102 116l4 4-56 118 120 56 56-114h8c52 12 102 16 154 8h8l42 114-28-132-22 4c-56 6-102 0-150-12l-20-4-56 116-90-44 56-114-18-14c-38-30-72-64-98-106z" />
<glyph unicode="&#xe006;" glyph-name="doctorplus-plus-6" d="M616-66h178l-374 490 374 518h-178l-398-504z" />
<glyph unicode="&#xe007;" glyph-name="doctorplus-plus-7" d="M394 942h-176l372-498-372-510h176l400 504z" />
<glyph unicode="&#xe008;" glyph-name="doctorplus-plus-8" d="M910 708c-16 8-34 22-96-82-38-60-86-118-92-114-16 8 24 78 72 156 82 134 58 152 44 160-16 8-32 36-116-106-42-76-92-144-102-138-6 2 30 84 70 156 78 140 84 162 54 180-36 22-54 2-130-134-42-78-72-160-82-156-12 2 8 70 44 158 50 116 60 138 22 156-40 20-64-30-100-112-28-70-70-164-90-202-30-48-38-64-66-98-16-18-58 6-86 46-32 46-38 86-90 86-34 0-78-28-42-66 60-58 104-184 116-246 16-62 24-80 22-102l-118-178 234-144 116 186c34 58 90 26 194 196 42 70 120 180 168 264 68 102 70 126 54 134zM300 140c-20-8-38 2-46 18s2 38 18 46c20 8 38-2 46-18 8-20 0-38-18-46zM388 16c-26-10-58 2-70 30-10 26 4 60 30 70 28 10 60-2 70-30 10-26-2-58-30-70zM418 218c-26-10-56 2-68 30-10 26 4 56 30 66 28 12 56-2 68-28 10-28-4-58-30-68zM488 126c-18-8-38 4-46 20-8 18 2 38 20 46s36-4 44-20c6-18-2-40-18-46zM486 318c-8 18 0 38 18 46s38-4 46-20c8-18-2-38-18-46-20-8-42 4-46 20zM572 228c-14-4-30 0-36 16-4 18 0 30 16 36 14 6 30 0 36-16 4-14-4-30-16-36zM638 328c-12-6-28 0-34 16-6 14 0 30 16 36 14 4 30 0 34-16 6-14 0-30-16-36z" />
<glyph unicode="&#xe009;" glyph-name="doctorplus-plus-9" d="M894 728c-4 38-22 88-40 106-20 22-54 42-80 44-22 4-74 4-112-2l-132-20-130 20c-38 2-86 6-112 2-24-2-60-26-80-44-18-22-38-72-40-106-4-66 0-172 48-266 0 0 34-66 34-176 0-78 30-250 70-326 20-34 68-26 80 8 38 128 64 442 130 442 68 0 94-314 132-442 12-38 60-42 78-8 38 76 72 248 72 326 0 110 34 176 34 176 44 94 48 200 48 266z" />
<glyph unicode="&#xe00a;" glyph-name="doctorplus-plus-10" d="M708 954c-8 4-18 0-26-2-14-12-22-34-10-50 2-2 6-14 14-32h-344c8 22 14 32 14 32 12 16 4 38-10 50-16 10-38 6-48-12 0-4-144-244 162-484-14-12-26-24-36-38-222-222-168-448-168-458 4-16 20-26 34-26 4 0 8 0 12 0 14 2 28 22 24 40 0 4-2 22-2 48h396c0-26-4-44-4-48-4-18 6-38 26-40 4 0 4 0 6 0 8 0 20 2 26 10 4 4 8 12 8 16 4 10 64 258-204 492 22 18 46 36 64 54 222 222 100 426 100 430-20 12-26 16-34 18zM616 300h-212c30 36 64 78 104 110 44-36 82-74 108-110zM320 100c6 40 18 82 40 118l4 8h300l4-8c18-36 32-78 36-114v-12h-384v8zM408 596h204c-26-34-62-66-104-96-36 30-70 62-100 96zM660 666h-300c-22 40-34 86-34 126l368 4v-4c0-44-12-86-34-126z" />
<glyph unicode="&#xe00b;" glyph-name="chat" d="M330 164c-54-30-156-62-308-88 58 98 80 182 76 250-52 62-78 136-78 216 0 110 44 202 136 278 90 76 196 114 322 114 122 0 232-38 322-110 92-76 136-168 136-278v-10c-30 18-56 30-86 36-12 76-50 142-118 194-72 54-156 76-250 76-98 0-186-30-262-88-72-60-106-128-106-208 0-64 30-128 88-194-8-36-12-60-16-72-4-18-8-34-16-56l-6-22c52 10 106 30 158 64 0-42 0-76 8-102zM1042-80c-94 16-166 38-212 66-114-32-212-16-296 38-82 56-120 124-120 212 0 76 30 140 94 190 60 48 136 74 220 74 88 0 164-26 220-74 64-54 94-114 94-190 0-58-18-106-52-148 0-46 16-100 52-168zM630 236c0 14-4 26-16 34-10 10-22 14-34 14s-26-4-34-14c-12-12-16-24-16-34 0-16 4-28 16-38 8-12 22-16 34-16 16 0 26 4 34 16 12 8 16 18 16 38zM786 236c0 14-4 26-16 34-12 10-22 14-38 14-12 0-26-4-34-14-12-12-16-24-16-34 0-16 4-28 16-38 8-12 22-16 34-16 16 0 30 4 38 16 12 8 16 18 16 38zM936 236c0 14-4 26-14 34-12 10-26 14-38 14s-26-4-34-14c-12-12-20-24-20-34 0-16 8-28 20-38 8-12 22-16 34-16 14 0 26 4 38 16 10 8 14 18 14 38z" />
<glyph unicode="&#xe00c;" glyph-name="doctorplus-plus-12" d="M188 742c86-2 140-38 194-80 48-40 60-64 142-64s126 42 164 78c36 36 90 78 180 72 70-6 176-68 170-162-10-136-112-170-112-152-4 32 0 74 0 74 70 80 18 132-18 150s-136 24-184-36c-48-64-74-184-92-236-14-44-44-80-72-120-12-16-6-120-6-120h-66v120c-36 46-58 84-76 130-18 44-44 192-100 238-32 28-104 64-174 18-66-42-48-120-10-126 6 0-8-88-8-88-88 36-110 106-106 154 8 114 114 154 174 150zM292 562c-78 8-164-70-112-142 42-58 120-16 138 34 38 102-26 108-26 108zM766 562c94 6 162-70 112-142-42-58-122-16-140 34-36 102 28 108 28 108z" />
<glyph unicode="&#xe00d;" glyph-name="doctorplus-plus-13" d="M814 728c-16 0-30 10-30 28v114c0 14-10 28-28 28h-456c-14 0-28-12-28-28v-114c0-14-12-28-30-28h-198c-14 0-28-12-28-28v-578c0-14 10-28 28-28h968c14 0 28 10 28 28v578c0 14-10 28-28 28h-198zM530 206c-128 0-234 104-234 234 0 128 102 234 234 234 128 0 234-102 234-234 0-130-106-234-234-234z" />
<glyph unicode="&#xe00e;" glyph-name="doctorplus-plus-14" d="M424 556c0-36-30-66-66-66-38 0-66 30-66 66 0 38 28 66 66 66 36 0 66-28 66-66zM732 556c0-36-28-66-66-66-36 0-66 30-66 66 0 38 30 66 66 66 38 0 66-28 66-66zM306 352c56-90 136-126 220-126 4 0 4 0 8 0 80 0 132 32 168 60 34 32 48 60 48 64 8 16 0 38-18 44-16 8-38 0-44-16-4-8-42-82-154-82-4 0-4 0-4 0-68 4-120 22-166 96-10 16-30 20-48 10s-22-32-10-50zM10 468c0 282 228 512 512 512 282 0 512-228 512-512 0-280-228-512-512-512-280 4-512 232-512 512zM92 468c0-238 192-430 430-430s432 192 432 430c0 238-194 432-432 432s-430-194-430-432z" />
<glyph unicode="&#xe00f;" glyph-name="doctorplus-plus-15" d="M822 786c20-20 28-40 28-62v-572c0-26-8-46-28-64-18-20-38-28-60-28h-460c-24 0-46 8-62 28-20 18-28 38-28 64v572c0 22 8 46 28 62 18 18 38 26 62 26h460c22 0 46-8 60-26zM788 606h-514v-334h514zM366 874c-8 8-12 18-12 30v138c0 12 4 24 12 30 8 8 20 12 30 12h266c12 0 22-4 30-12 8-6 12-18 12-30v-138c0-12-4-22-12-30s-18-12-30-12h-266c-10 0-18 4-30 12zM496 410h-80v68h80v82h70v-82h80v-68h-80v-82h-70z" />
<glyph unicode="&#xe010;" glyph-name="doctorplus-plus-16" d="M418 638l74 72v-286h50v286l70-72 34 38-132 124-130-124zM994 590h-2l-282-176-172-110c-12-10-32-10-44 0l-260 166-190 120h-6c-14 0-26-12-26-26v-608c0-16 12-26 26-26h956c16 0 28 10 28 26v608c-4 14-12 26-28 26zM968 6c0-16-12-28-26-28h-854c-14 0-26 12-26 28v484c0 16 8 22 20 12l410-260c12-8 32-8 44 0l410 260c10 10 20 4 20-12v-484zM954 600c-8-12-24-16-36-6l-386 284c-12 8-28 8-40 0l-378-284c-12-10-26-6-36 6-8 10-4 26 6 34l408 308c12 8 28 8 40 0l416-308c12-8 14-24 6-34z" />
<glyph unicode="&#xe011;" glyph-name="doctorplus-plus-17" d="M660 306v482c0 86-70 158-158 158s-160-72-160-158v-484c-40-40-64-96-64-158 0-124 100-224 224-224 122 0 222 102 222 224 0 64-24 118-64 160zM502-10c-6 0-14 0-20 2-80 10-140 76-140 156 0 54 26 100 64 128v512c0 52 42 94 96 94 52 0 96-42 96-94v-514c38-30 62-74 62-128 0-84-70-156-158-156zM534 240v452h-64v-456c-38-10-64-44-64-88 0-52 42-94 96-94 52 0 96 42 96 94 0 44-28 78-64 92z" />
<glyph unicode="&#xe012;" glyph-name="doctorplus-plus-18" d="M350 398l38-36-20-18-38 34-62-68 40-36-20-22-40 40-42-46 160-150 198 212-160 150zM536 590l38-36-20-22-38 36zM608 672l38-36-20-20-38 34zM542 430l-86 82-28-32 158-150 30 32-52 50 224 244-36 36-226-244zM820 688l-38 36-124 116-558-598 116-106-188-202 114 38 114 124 116-110 560 598zM368 48l-208 194 498 534 92-84 38-36 78-76zM794 958l-70-78 110-102-52-54 38-36 52 56 88-86 72 76z" />
<glyph unicode="&#xe013;" glyph-name="doctorplus-plus-19" d="M874 450c-46 46-102 74-164 84l-12 2v-86h8c42-10 78-28 110-60 42-42 64-92 64-154 0-60-22-110-64-152s-94-64-154-64c-58 0-108 20-150 60l66 56-198 32 2-192 66 52c58-60 130-92 214-92v0c84 0 154 30 212 88 60 58 88 130 88 212 0 84-28 156-88 214zM636 696v-448c0-16-6-22-22-22h-554c-6 0-12 2-16 6s-6 10-6 16v692c0 14 6 20 22 20h310c16 0 24-6 24-20v-200c0-14 6-20 20-20h200c16 0 22-8 22-24zM504 482c0 20-6 36-20 48s-36 20-68 20c-26 0-48-2-68-6v-48c-2 10-4 16-6 20-8 24-18 38-34 44v2c14 6 26 14 32 24 10 12 14 24 14 38 0 24-8 42-26 54-16 14-44 20-82 20-24 0-50-2-78-6v-250h58v100h16c14 0 24-2 30-8 6-8 12-18 14-34 8-30 14-48 18-58h44v-108h48v78c4-2 10-2 18-2 28 0 50 6 66 18s24 30 24 54zM284 646c8-6 12-14 12-26s-4-20-12-26c-8-8-20-10-36-10h-22v68c2 2 12 2 26 2s24-2 32-8zM446 506c6-6 10-14 10-26 0-10-4-18-12-24-6-6-16-10-30-10-10 0-14 2-18 2v62c4 2 10 2 22 2 10 0 20-2 28-6zM636 768h-180v178z" />
<glyph unicode="&#xe014;" glyph-name="doctorplus-plus-20" d="M494 864c-104 44-202-10-252-46v50h-72v-906h72v402c50 36 148 90 252 48 150-62 352 42 352 58l8 460c0 0-210-130-360-66z" />
<glyph unicode="&#xe015;" glyph-name="doctorplus-plus-21" d="M0 260h268v-194h-268zM756 254h268v-194h-268zM378 254h268v-194h-268zM0 828h268v-194h-268zM756 822h268v-194h-268zM0 542h268v-194h-268zM756 540h268v-194h-268zM378 822h268v-194h-268zM378 540h268v-194h-268z" />
<glyph unicode="&#xe016;" glyph-name="doctorplus-plus-22" d="M964-68h-904c-8 0-18 4-26 12-8 10-12 18-12 26v816c0 8 4 16 12 24 8 10 18 14 26 14h94v-56c0-34 12-60 34-80 22-22 50-34 80-34 34 0 64 12 86 34 22 20 34 50 34 80v56h244v-56c0-34 12-60 34-80 20-22 50-34 84-34 36 0 60 12 82 34 22 20 34 50 34 80v56h90c12 0 22-4 26-8 8-10 12-18 12-26v-816c0-8-4-16-12-24 0-14-10-18-18-18zM350 512h-166v-162h162v162zM350 274h-166v-162h162v162zM214 764v136c0 14 4 26 16 38 8 14 22 18 38 18 18 0 30-4 40-18 12-12 16-24 16-38v-136c0-12-4-26-16-38-14-8-26-14-40-14-12 0-30 6-38 18-12 8-16 22-16 34zM594 512h-164v-162h164zM594 274h-164v-162h164zM840 512h-162v-162h162zM840 274h-162v-162h162zM716 726c-12 8-16 20-16 38v136c0 18 4 30 16 38 10 14 22 18 34 18 18 0 30-4 40-18 8-8 12-20 12-38v-136c0-18-4-30-12-38-14-14-26-18-40-18-12 0-24 10-34 18z" />
<glyph unicode="&#xe017;" glyph-name="doctorplus-plus-23" d="M522 596c-210 0-394-102-510-256 116-156 300-258 510-258 208 0 392 102 510 258-118 154-302 256-510 256zM458 470c34 0 64-30 64-64s-30-64-64-64c-34 0-64 30-64 64s30 64 64 64zM782 212c-42-18-82-34-124-46-44-10-88-16-136-16s-92 6-136 16c-46 8-86 24-124 46-64 32-120 76-168 130 48 54 104 98 168 130 32 16 66 30 102 42-20-32-32-66-32-104 0-106 84-192 190-192 104 0 190 86 190 192 0 38-12 76-32 104 34-10 70-22 102-42 62-32 120-76 168-130-48-54-106-98-168-130zM870 672c-108 54-224 82-348 82s-242-28-350-82c-60-28-114-66-160-110v-108c54 56 120 108 190 142 98 50 206 76 320 76 110 0 218-26 320-76 70-38 136-86 194-142v108c-54 44-108 82-166 110z" />
<glyph unicode="&#xe018;" glyph-name="doctorplus-plus-24" d="M888 376c0-210-166-376-376-376s-376 170-376 376c0 204 166 370 368 376h72l-90-94 48-48 166 166-166 180-52-42 86-94h-56c-4 0-4 0-8 0-82 0-162-26-226-68-124-78-210-218-210-376 0-248 200-444 444-444s444 196 444 444h-68z" />
<glyph unicode="&#xe019;" glyph-name="doctorplus-plus-25" d="M788 190c-32 0-64-14-86-32l-362 238c6 14 8 26 8 40 0 16-2 30-8 42l360 236c24-20 56-34 88-34 74 0 132 60 132 132s-60 132-132 132c-72 0-132-60-132-132 0-16 2-28 8-42l-364-234c-24 22-52 36-88 36-74 0-132-62-132-134 0-74 62-132 132-132 36 0 66 14 90 34l362-236c-6-12-8-28-8-44 0-74 60-132 132-132s132 60 132 132c2 72-58 130-132 130z" />
<glyph unicode="&#xe01a;" glyph-name="doctorplus-plus-26" d="M854 468v-472l-34-18c-24-10-64-20-122-30-60-10-124-18-196-18-126 0-240 20-336 66v472l134 34v298c6 58 34 100 86 126 38 18 74 28 120 28h6c82 0 140-24 178-72 24-28 34-54 34-78l-2-302c30-4 74-14 132-34zM638 800c0 4 0 8-2 8-4 6-8 16-14 22-20 28-58 42-110 42h-4c-30 0-58-6-82-18-24-16-38-36-40-64v-274c24 4 64 6 122 6 52 0 96-2 130-6v284zM564 208c30 16 44 44 44 78 0 28-10 48-28 66-16 16-40 26-64 26s-48-10-66-26c-16-18-26-42-26-66 0-34 16-62 48-82l-22-126h138z" />
<glyph unicode="&#xe01b;" glyph-name="doctorplus-plus-27" d="M672 710h-322c-26 0-46-22-46-48v-338c0-28 22-48 46-48 28 0 48 22 48 48v296h12v-634c0-26 22-46 46-46 26 0 46 22 46 46v332h12v-332c0-26 22-46 46-46 28 0 48 22 48 46v634h10v-296c0-28 22-48 48-48s46 22 46 48v338c8 28-12 48-40 48zM402 840c0 60 50 108 110 108s110-48 110-108c0-62-50-110-110-110-60 2-110 52-110 110z" />
<glyph unicode="&#xe01c;" glyph-name="doctorplus-plus-28" d="M398 848c0 58 50 108 108 108 60 0 108-50 108-108 0-60-48-108-108-108-58 0-108 48-108 108zM754 394c-22 254-144 306-144 306s-116 70-240-20c-82-72-100-184-112-290-6-54 80-54 84 0 8 64 44 158 76 212l-8-92-94-296h100v-234c0-26 18-46 44-46 24 0 46 20 46 46v234h14v-236c0-30 18-46 46-46 22 0 38 18 38 46v236h86l-76 298c0 28-18 70-18 90 34-56 62-142 72-208 6-54 90-54 86 0z" />
<glyph unicode="&#xe01d;" glyph-name="doctorplus-plus-29" d="M674 162c12-22 22-36 26-42-82-90-154-146-218-172-60-24-110-24-152-2s-58 60-50 116c4 34 18 82 36 142 20 60 42 118 62 174 22 56 34 88 36 96 8 22 6 36-6 42-10 8-26 6-42-4-22-14-46-34-70-56-4 4-12 18-24 42 56 62 116 102 182 120 32 6 68 6 104 2 36-2 64-22 84-56s20-78 0-134c-56-168-88-264-94-286-10-32-10-52 0-62s24-8 44 8c18 14 46 38 82 72zM746 836c-2-34-16-62-42-86-28-24-58-36-94-38-34 0-64 12-86 36-22 22-34 50-30 82 2 34 16 62 42 86s56 38 90 38c36 0 66-12 88-34 24-24 34-52 32-84z" />
<glyph unicode="&#xe01e;" glyph-name="doctorplus-plus-30" d="M836 780c-44 96-132 146-198 158-162 34-288 10-366-66-140-132-104-368-104-378s10-18 20-18c10 0 18 10 18 20 0 4-34 232 92 350 72 70 184 90 332 56 60-12 136-56 176-138 50-106 22-250-70-422-26-46-36-86-46-128-10-48-22-100-62-176-24-46-100-76-176-68-36 2-118 16-148 102-36 62-78 174-50 214 18 22 60 20 94 12 6-2 16-38 22-62 14-50 30-108 72-106 4 0 64-6 90 36 20 34 10 80-34 146 34 30 112 118 76 198-12 24-48 60-98 60-26 0-66-14-96-60-14 42-32 122-6 178 12 34 40 56 78 66 30 10 130 20 186-32 46-44 56-120 32-226-2-10 4-20 14-22 10-4 20 2 22 12 30 120 14 206-42 258-76 70-192 50-222 44-48-18-82-48-102-90-46-102 16-240 20-244 4-6 10-10 16-10 8 0 14 4 18 10 22 50 52 76 86 76 28 0 58-24 64-40 30-56-46-138-74-164-8-8-10-18-4-24 50-76 46-108 40-118-14-24-54-20-56-20-18 0-30 50-36 78-14 44-24 84-50 90-64 14-110 6-132-26-54-74 36-238 46-252 26-72 92-118 182-124 6 0 12 0 20 0 84 0 160 36 190 92 40 78 54 136 66 182 10 38 20 76 44 118 84 188 108 342 56 458z" />
<glyph unicode="&#xe01f;" glyph-name="ficha-tecnica" d="M1024 802v-718c0-20-10-30-30-30h-166v82c22 10 32 30 32 54 0 16-4 30-16 40-12 12-24 16-42 16-16 0-30-4-42-16-10-12-16-24-16-40 0-24 10-42 32-54v-82h-530v82c20 10 32 30 32 54 0 16-4 30-18 40-8 12-24 16-40 16-18 0-30-4-42-16s-18-24-18-40c0-24 10-42 32-54v-82h-162c-20 0-30 10-30 30v718c0 20 10 30 30 30h968c16 0 26-10 26-30zM352 484c-14 28-38 42-76 46 32 12 48 36 48 70 0 20-8 36-22 52-14 14-32 22-54 22-18 0-38-8-52-22-16-16-22-32-22-52 0-36 16-58 48-70-40-4-64-20-76-46-12-30-20-72-20-126h242c0 54-4 96-16 126zM880 666h-420v-64h420zM880 548h-420v-64h420zM670 426h-210v-62h210z" />
<glyph unicode="&#xe020;" glyph-name="map-add" d="M572 698h106v-128h-106v-104h-126v104h-104v128h104v106h126zM832 634c0-178-322-700-322-700s-322 522-322 700c0 178 144 322 322 322s322-144 322-322zM758 634c0 136-112 248-248 248s-250-112-250-248c0-136 114-248 250-248 136-2 248 110 248 248z" />
<glyph unicode="&#xe021;" glyph-name="pc-add" d="M0 954v-744h1024v744zM916 314h-812v538h812zM658 146h-298v-82h-122v-62h548v62h-128zM504 420c98 0 176 78 176 176 0 96-78 174-176 174-96 0-174-80-174-174 0-98 78-176 174-176zM386 642h74v76h92v-76h74v-90h-74v-76h-92v76h-74z" />
<glyph unicode="&#xe022;" glyph-name="solid-calendar" d="M988 812c-8 8-16 10-28 10h-90v-54c0-34-12-60-34-82s-48-34-82-34c-34 0-64 12-86 34s-34 50-34 82v54h-244v-54c0-32-12-60-34-82s-52-34-86-34c-32 0-60 12-82 34s-34 50-34 82v54h-94c-8 0-16-2-24-10-10-8-12-16-12-26v-814c0-10 6-18 12-28 8-8 16-12 24-12h904c8 0 18 4 26 12s12 18 12 28v814c-2 10-4 18-14 26zM268 712c14 0 28 6 40 18 8 10 16 22 16 36v136c0 14-4 28-16 40-10 10-22 14-40 14-16 0-30-4-38-18-10-8-16-22-16-36v-136c0-14 6-26 18-36 10-12 22-18 36-18zM750 710c16 0 28 4 40 16 10 10 14 22 14 40v136c0 18-4 30-14 40s-22 14-40 14c-14 0-26-4-36-18-10-8-16-22-16-38v-136c0-18 4-30 16-40 12-6 24-14 36-14z" />
<glyph unicode="&#xe023;" glyph-name="check" d="M902 646l-132 132c-6 4-12 8-18 8s-14-4-18-8l-352-352-92 94c-10 10-26 10-36 0l-132-132c-4-6-6-12-6-18s2-14 6-18l242-242c6-4 12-8 18-8 0 0 0 2 0 2 2 0 2-2 2-2 6 0 12 4 18 8l500 500c10 10 10 26 0 36z" />
<glyph unicode="&#xe900;" glyph-name="chat-comment" d="M1024 489.448c0 121.905-51.2 224.305-153.6 307.2-97.524 80.457-216.99 121.905-358.4 121.905-138.971 0-258.438-41.448-358.4-121.905-102.4-82.895-153.6-185.295-153.6-307.2 0-138.971 65.829-253.562 199.924-343.771 136.533-90.21 297.448-112.152 480.305-63.39 75.581-43.886 190.171-80.457 343.771-104.838-60.952 112.152-87.771 202.362-87.771 273.067 58.514 68.267 87.771 148.724 87.771 238.933zM326.705 426.057c-14.629-17.067-34.133-26.819-56.076-26.819-24.381 0-43.886 7.314-58.514 26.819-17.067 17.067-26.819 36.571-26.819 60.952 0 21.943 7.314 41.448 26.819 58.514 17.067 17.067 36.571 26.819 58.514 26.819s41.448-9.752 58.514-26.819c17.067-14.629 26.819-34.133 26.819-58.514-2.438-26.819-12.19-46.324-29.257-60.952zM585.143 426.057c-17.067-17.067-39.010-26.819-63.39-26.819s-43.886 7.314-58.514 26.819c-17.067 17.067-24.381 36.571-24.381 60.952 0 21.943 7.314 41.448 24.381 58.514s36.571 26.819 58.514 26.819c24.381 0 43.886-9.752 60.952-26.819 17.067-14.629 26.819-34.133 26.819-58.514-2.438-26.819-9.752-46.324-24.381-60.952zM831.39 426.057c-17.067-17.067-36.571-26.819-60.952-26.819s-43.886 7.314-58.514 26.819c-19.505 14.629-29.257 34.133-29.257 60.952 0 21.943 9.752 41.448 29.257 58.514 17.067 17.067 36.571 26.819 58.514 26.819 19.505 0 39.010-9.752 60.952-26.819 14.629-14.629 21.943-34.133 21.943-58.514 0-26.819-7.314-46.324-21.943-60.952z" />
<glyph unicode="&#xe901;" glyph-name="chat-empty" d="M1024 489.448c0 121.905-51.2 224.305-153.6 307.2-97.524 80.457-216.99 121.905-358.4 121.905-138.971 0-258.438-41.448-358.4-121.905-102.4-82.895-153.6-185.295-153.6-307.2 0-138.971 65.829-253.562 199.924-343.771 136.533-90.21 297.448-112.152 480.305-63.39 75.581-43.886 190.171-80.457 343.771-104.838-60.952 112.152-87.771 202.362-87.771 273.067 58.514 68.267 87.771 148.724 87.771 238.933z" />
<glyph unicode="&#xe902;" glyph-name="cloud-download" d="M575.39 574.781h-126.781v-319.39h-129.219l192.61-256 192.61 256h-129.219zM894.781 604.038v2.438c0 158.476-129.219 287.695-287.695 287.695-107.276 0-199.924-58.514-248.686-146.286-21.943 9.752-46.324 17.067-70.705 17.067-87.771 0-160.914-70.705-160.914-160.914v-2.438c-75.581-43.886-129.219-126.781-129.219-219.429 0-141.41 114.59-256 256-256v63.39c-104.838 0-192.61 85.333-192.61 192.61 0 68.267 36.571 129.219 97.524 165.79l31.695 19.505v43.886c2.438 51.2 43.886 92.648 95.086 92.648 14.629 0 29.257-2.438 41.448-9.752l53.638-26.819 34.133 51.2c41.448 70.705 112.152 112.152 192.61 112.152 121.905 0 221.867-97.524 224.305-219.429v-43.886l31.695-19.505c58.514-34.133 97.524-97.524 97.524-165.79 0-104.838-85.333-192.61-192.61-192.61v-63.39c141.41 0 256 114.59 256 256 0 95.086-51.2 177.981-129.219 221.867z" />
<glyph unicode="&#xe903;" glyph-name="coffee-cup" d="M960.61 192h-897.219c-34.133 0-63.39-29.257-63.39-63.39 0-36.571 29.257-63.39 63.39-63.39h894.781c36.571 0 63.39 29.257 63.39 63.39 2.438 34.133-26.819 63.39-60.952 63.39zM319.39 255.39h382.781c70.705 0 129.219 58.514 129.219 129.219 107.276 0 192.61 85.333 192.61 192.61s-85.333 192.61-192.61 192.61v60.952h-638.781v-448.61c0-68.267 56.076-126.781 126.781-126.781zM960.61 577.219c0-70.705-58.514-126.781-126.781-126.781v253.562c68.267 0 126.781-58.514 126.781-126.781zM256 767.39h63.39v-448.61c-36.571 0-63.39 29.257-63.39 63.39v385.219z" />
<glyph unicode="&#xe904;" glyph-name="ficha-check" d="M768 830.781h-126.781c0 70.705-58.514 129.219-129.219 129.219s-126.781-58.514-126.781-129.219h-129.219v-126.781h512v126.781zM512 767.39c-36.571 0-63.39 29.257-63.39 63.39s29.257 63.39 63.39 63.39c36.571 0 63.39-29.257 63.39-63.39s-26.819-63.39-63.39-63.39zM831.39 830.781v-192.61h-638.781v192.61h-129.219v-894.781h894.781v894.781h-126.781zM482.743 72.533l-226.743 226.743 90.21 90.21 136.533-136.533 258.438 258.438 90.21-90.21-348.648-348.648z" />
<glyph unicode="&#xe905;" glyph-name="hi-five" d="M129.219 704v-512c0-119.467 0-256 192.61-256h256c143.848 0 180.419 78.019 187.733 165.79l246.248 304.762c19.505 24.381 19.505 63.39-4.876 85.333-7.314 7.314-51.2 46.324-112.152 46.324-26.819 0-68.267-7.314-107.276-46.324l-82.895-82.895v424.229c0 34.133-29.257 63.39-63.39 63.39h-63.39c-2.438 34.133-31.695 63.39-65.829 63.39h-63.39c-34.133 0-63.39-29.257-63.39-63.39h-63.39c-34.133 0-63.39-29.257-63.39-63.39v-63.39h-65.829c-36.571-2.438-63.39-31.695-63.39-65.829zM192.61 704h63.39v-256h63.39v385.219h63.39v-385.219h63.39v448.61h65.829v-448.61h63.39v385.219h63.39v-512h63.39c0 0 63.39 63.39 126.781 126.781 21.943 21.943 41.448 29.257 60.952 29.257 39.010 0 65.829-29.257 65.829-29.257l-251.124-319.39c-2.438-85.333-21.943-129.219-126.781-129.219-129.219 0-129.219 0-256 0-129.219 0-129.219 63.39-129.219 192.61 0 95.086 0 334.019 0 448.61v63.39z" />
<glyph unicode="&#xe906;" glyph-name="organigrama" d="M945.981 187.124v124.343c0 75.581-51.2 187.733-187.733 187.733h-109.714c-78.019 0-82.895 36.571-85.333 56.076v151.162c46.324 19.505 78.019 65.829 78.019 119.467 2.438 75.581-56.076 134.095-129.219 134.095s-131.657-58.514-131.657-131.657c0-53.638 31.695-99.962 78.019-119.467v-151.162c0-14.629-4.876-56.076-85.333-56.076h-109.714c-138.971 0-187.733-112.152-187.733-187.733v-124.343c-43.886-21.943-75.581-68.267-75.581-121.905 0-73.143 58.514-131.657 131.657-131.657s131.657 58.514 131.657 131.657c0 53.638-31.695 99.962-78.019 119.467v124.343c0 14.629 4.876 85.333 85.333 85.333h109.714c34.133 0 60.952 4.876 85.333 14.629v-221.867c-46.324-19.505-78.019-65.829-78.019-119.467 0-73.143 58.514-131.657 131.657-131.657s131.657 58.514 131.657 131.657c0 53.638-31.695 99.962-78.019 119.467v221.867c24.381-7.314 51.2-14.629 85.333-14.629h109.714c78.019 0 82.895-65.829 85.333-85.333v-124.343c-46.324-19.505-78.019-65.829-78.019-119.467 0-73.143 58.514-131.657 131.657-131.657s131.657 58.514 131.657 131.657c-14.629 53.638-46.324 99.962-92.648 119.467zM207.238 67.657c0-41.448-34.133-75.581-75.581-75.581s-75.581 34.133-75.581 75.581c0 41.448 34.133 75.581 75.581 75.581s75.581-34.133 75.581-75.581zM436.419 828.343c0 41.448 34.133 75.581 75.581 75.581s75.581-34.133 75.581-75.581c0-41.448-34.133-75.581-75.581-75.581s-75.581 34.133-75.581 75.581zM587.581 67.657c0-41.448-34.133-75.581-75.581-75.581s-75.581 34.133-75.581 75.581c0 41.448 34.133 75.581 75.581 75.581s75.581-34.133 75.581-75.581zM892.343-7.924c-41.448 0-75.581 34.133-75.581 75.581s34.133 75.581 75.581 75.581c41.448 0 75.581-34.133 75.581-75.581s-34.133-75.581-75.581-75.581z" />
<glyph unicode="&#xe907;" glyph-name="video-call" d="M989.867 762.514h-443.733c9.752-36.571 12.19-70.705 0-102.4h341.333c24.381 0 34.133-12.19 34.133-36.571v-373.029c0-7.314-2.438-17.067-9.752-21.943-7.314-7.314-14.629-12.19-24.381-12.19h-509.562c-7.314 0-14.629 4.876-21.943 12.19-4.876 4.876-7.314 12.19-7.314 21.943v165.79c2.438 0-9.752 2.438-17.067 9.752-14.629-7.314-63.39-12.19-87.771-12.19v-394.971c0-9.752 2.438-17.067 7.314-21.943 4.876-7.314 14.629-12.19 24.381-12.19h195.048c14.629 0 21.943 0 17.067 0h287.695c-4.876 0 2.438 0 17.067 0h195.048c12.19 0 19.505 4.876 24.381 12.19 4.876 4.876 7.314 12.19 7.314 21.943v707.048c4.876 24.381-7.314 36.571-29.257 36.571zM497.371 682.057c0 58.514-24.381 109.714-75.581 148.724-46.324 39.010-104.838 58.514-175.543 58.514-65.829 2.438-124.343-17.067-173.105-56.076-48.762-41.448-73.143-90.21-73.143-148.724 0-68.267 31.695-124.343 97.524-165.79 65.829-43.886 143.848-53.638 234.057-31.695 36.571-21.943 92.648-39.010 165.79-51.2-29.257 53.638-43.886 97.524-41.448 131.657 26.819 31.695 41.448 70.705 41.448 114.59zM158.476 652.8c-7.314-7.314-17.067-12.19-29.257-12.19s-21.943 4.876-26.819 12.19c-7.314 7.314-12.19 17.067-12.19 29.257 0 9.752 4.876 19.505 12.19 29.257 7.314 7.314 17.067 12.19 26.819 12.19s19.505-4.876 29.257-12.19c9.752-9.752 12.19-19.505 12.19-29.257 0-12.19-2.438-24.381-12.19-29.257zM282.819 652.8c-7.314-7.314-19.505-12.19-31.695-12.19s-21.943 4.876-29.257 12.19c-7.314 7.314-12.19 17.067-12.19 29.257 0 9.752 4.876 19.505 12.19 29.257 7.314 7.314 17.067 12.19 29.257 12.19s21.943-4.876 29.257-12.19c7.314-7.314 12.19-17.067 12.19-29.257 2.438-12.19-2.438-24.381-9.752-29.257zM404.724 652.8c-7.314-7.314-17.067-12.19-29.257-12.19s-21.943 4.876-29.257 12.19c-9.752 7.314-14.629 17.067-14.629 29.257 0 9.752 4.876 19.505 14.629 29.257 7.314 7.314 17.067 12.19 29.257 12.19 9.752 0 19.505-4.876 29.257-12.19 7.314-7.314 9.752-17.067 9.752-29.257s-2.438-24.381-9.752-29.257zM711.924 433.371c12.19-7.314 24.381-17.067 31.695-29.257s14.629-26.819 17.067-43.886c4.876-17.067 7.314-34.133 7.314-51.2 2.438-17.067 2.438-36.571 2.438-60.952v-2.438h-273.067v2.438c0 24.381 0 43.886 2.438 60.952 0 17.067 4.876 34.133 7.314 51.2 4.876 17.067 9.752 31.695 17.067 43.886s17.067 19.505 31.695 29.257c12.19 7.314 29.257 12.19 48.762 14.629-17.067 7.314-29.257 17.067-41.448 31.695-9.752 14.629-14.629 29.257-14.629 48.762 0 24.381 7.314 43.886 24.381 60.952s36.571 24.381 60.952 24.381c24.381 0 43.886-7.314 60.952-24.381s24.381-36.571 24.381-60.952c0-17.067-4.876-34.133-14.629-48.762s-24.381-24.381-41.448-31.695c19.505-2.438 34.133-7.314 48.762-14.629zM728.99 340.724c0 14.629-4.876 26.819-14.629 36.571s-21.943 14.629-36.571 14.629c-14.629 0-26.819-4.876-36.571-14.629s-14.629-21.943-14.629-36.571c0-14.629 4.876-26.819 14.629-36.571s21.943-14.629 36.571-14.629c14.629 0 26.819 4.876 36.571 14.629s14.629 21.943 14.629 36.571zM687.543 350.476h21.943v-19.505h-21.943v-21.943h-19.505v21.943h-21.943v19.505h21.943v21.943h19.505v-21.943z" />
<glyph unicode="&#xe908;" glyph-name="check-thin" d="M1024 694.248l-160.914 158.476-490.057-494.933-216.99 214.552-156.038-158.476 368.152-370.59z" />
<glyph unicode="&#xe909;" glyph-name="bandeja-in" d="M507.124 396.8l204.8 204.8c19.505 19.505 14.629 34.133-12.19 34.133h-114.59v246.248c0 43.886-36.571 78.019-78.019 78.019-43.886 0-78.019-34.133-78.019-78.019v-248.686h-114.59c-29.257 0-34.133-14.629-12.19-34.133l204.8-202.362zM950.857 460.19h-117.029c-9.752 0-19.505-9.752-19.505-19.505v-348.648h-604.648v348.648c0 9.752-9.752 19.505-19.505 19.505h-117.029c-9.752 0-19.505-9.752-19.505-19.505v-397.41c0-58.514 48.762-107.276 107.276-107.276h704.61c58.514 0 107.276 48.762 107.276 107.276v397.41c-2.438 9.752-9.752 19.505-21.943 19.505v0z" />
<glyph unicode="&#xe90a;" glyph-name="people-add" d="M648.533 455.314c24.381-14.629 41.448-31.695 56.076-51.2s24.381-46.324 31.695-78.019c7.314-31.695 12.19-63.39 14.629-92.648s2.438-65.829 2.438-109.714v-2.438h-487.619v2.438c0 41.448 0 78.019 2.438 109.714 2.438 29.257 7.314 60.952 14.629 92.648s19.505 58.514 31.695 78.019c14.629 19.505 31.695 36.571 56.076 51.2s53.638 21.943 85.333 24.381c-29.257 12.19-53.638 29.257-73.143 56.076-19.505 24.381-29.257 53.638-29.257 87.771 0 41.448 14.629 78.019 46.324 109.714 29.257 29.257 65.829 43.886 107.276 43.886s78.019-14.629 107.276-43.886c29.257-29.257 46.324-65.829 46.324-109.714 0-31.695-9.752-60.952-29.257-87.771-19.505-24.381-43.886-43.886-73.143-56.076 36.571-2.438 65.829-9.752 90.21-24.381zM680.229 284.648c0 24.381-9.752 48.762-26.819 65.829-19.505 19.505-41.448 26.819-65.829 26.819s-46.324-9.752-65.829-26.819c-19.505-19.505-26.819-41.448-26.819-65.829s9.752-46.324 26.819-65.829c19.505-17.067 41.448-26.819 65.829-26.819 26.819 0 48.762 9.752 65.829 26.819 17.067 19.505 26.819 41.448 26.819 65.829zM604.648 304.152h39.010v-34.133h-39.010v-41.448h-34.133v41.448h-41.448v36.571h41.448v39.010h34.133v-41.448zM226.743 309.029h-29.257v-24.381h29.257v-31.695h14.629c2.438 19.505 7.314 41.448 12.19 60.952v24.381h-24.381v-29.257zM221.867 438.248c14.629 7.314 29.257 14.629 39.010 26.819 4.876 4.876 9.752 9.752 12.19 14.629 14.629 19.505 19.505 39.010 19.505 63.39 0 31.695-12.19 58.514-34.133 80.457s-48.762 31.695-78.019 31.695c-31.695 0-56.076-9.752-78.019-31.695 0 0 0 0 0 0s-2.438 0-2.438-2.438c-21.943-21.943-34.133-48.762-34.133-78.019 0-48.762 24.381-82.895 68.267-102.4-14.629-2.438-29.257-4.876-41.448-12.19-31.695-12.19-56.076-31.695-68.267-63.39-14.629-46.324-24.381-107.276-24.381-192.61h234.057c0 0 0 0 0 2.438 0 17.067 2.438 36.571 4.876 53.638-17.067 0-34.133 7.314-46.324 19.505-14.629 12.19-21.943 29.257-21.943 46.324 0 19.505 7.314 34.133 19.505 48.762 12.19 12.19 29.257 19.505 48.762 19.505 9.752 0 17.067-2.438 24.381-4.876 4.876 17.067 12.19 36.571 19.505 53.638-19.505 12.19-41.448 19.505-68.267 21.943 2.438 2.438 4.876 2.438 7.314 4.876zM797.257 435.81c-19.505-2.438-39.010-7.314-53.638-17.067-2.438-2.438-4.876-4.876-9.752-4.876 19.505 12.19 41.448 19.505 68.267 21.943 0 0-2.438 0-4.876 0zM731.429 408.99c0 0 0 0 0 0 2.438 0 2.438 2.438 4.876 2.438-2.438 0-2.438 0-4.876-2.438zM782.629 172.495h234.057c0 0 0 0 0 2.438l-234.057-2.438c0 2.438 0 0 0 0zM1021.562 255.39c-2.438 21.943-4.876 43.886-9.752 68.267s-12.19 41.448-24.381 56.076c-9.752 14.629-24.381 26.819-41.448 39.010-17.067 9.752-36.571 17.067-60.952 19.505 17.067 7.314 29.257 14.629 39.010 26.819 4.876 4.876 7.314 9.752 12.19 14.629 14.629 19.505 19.505 39.010 19.505 63.39 0 31.695-12.19 58.514-34.133 80.457s-48.762 31.695-78.019 31.695c-31.695 0-56.076-9.752-78.019-31.695 0 0-2.438-2.438-2.438-2.438s0 0 0 0c-21.943-21.943-34.133-48.762-34.133-78.019 0-51.2 21.943-85.333 68.267-102.4 2.438 0 2.438-2.438 4.876-2.438-26.819-2.438-48.762-9.752-68.267-21.943-2.438 0-2.438-2.438-4.876-2.438 29.257-60.952 46.324-141.41 48.762-234.057h246.248v2.438c0 24.381 0 51.2-2.438 73.143zM950.857 248.076c-12.19-12.19-29.257-19.505-48.762-19.505s-34.133 7.314-48.762 19.505c-14.629 12.19-19.505 29.257-19.505 48.762s7.314 34.133 19.505 48.762c12.19 12.19 29.257 19.505 48.762 19.505s34.133-7.314 48.762-19.505c14.629-14.629 19.505-29.257 19.505-48.762s-7.314-36.571-19.505-48.762zM916.724 338.286h-26.819v-29.257h-29.257v-26.819h29.257v-29.257h26.819v29.257h26.819v26.819h-26.819z" />
<glyph unicode="&#xe90b;" glyph-name="chat-rss" d="M782.629 352.914c0 92.648-39.010 170.667-117.029 236.495-73.143 60.952-165.79 92.648-275.505 92.648-107.276 0-197.486-31.695-275.505-92.648-75.581-65.829-114.59-143.848-114.59-236.495 0-107.276 51.2-192.61 151.162-263.314 104.838-68.267 226.743-85.333 368.152-48.762 56.076-34.133 143.848-60.952 263.314-80.457-46.324 85.333-68.267 153.6-65.829 209.676 43.886 51.2 65.829 112.152 65.829 182.857zM785.067 655.238c0-24.237-19.648-43.886-43.886-43.886s-43.886 19.648-43.886 43.886c0 24.237 19.648 43.886 43.886 43.886s43.886-19.648 43.886-43.886zM699.733 823.467v-56.076c41.448 0 78.019-17.067 107.276-46.324s46.324-68.267 46.324-107.276h58.514c-2.438 114.59-95.086 209.676-212.114 209.676zM702.171 935.619v-56.076c146.286-2.438 263.314-119.467 265.752-265.752h56.076c-2.438 177.981-146.286 321.829-321.829 321.829z" />
<glyph unicode="&#xe90c;" glyph-name="circle-add" d="M872.838 808.838c99.962-99.962 151.162-219.429 151.162-360.838s-51.2-260.876-151.162-360.838-219.429-151.162-360.838-151.162c-141.41 0-260.876 48.762-360.838 148.724s-151.162 221.867-151.162 363.276c0 141.41 51.2 263.314 151.162 363.276s219.429 148.724 360.838 148.724c141.41 0 263.314-51.2 360.838-151.162zM587.581 523.581v173.105l-153.6-2.438v-170.667l-173.105-2.438v-151.162l173.105-2.438v-170.667l153.6-2.438v173.105l173.105-2.438v153.6l-173.105 4.876z" />
<glyph unicode="&#xe90d;" glyph-name="circle-minus" d="M1024 448c0-141.41-48.762-260.876-148.724-360.838-99.962-102.4-221.867-151.162-363.276-151.162s-263.314 48.762-363.276 148.724c-97.524 99.962-148.724 221.867-148.724 363.276s51.2 263.314 151.162 363.276c99.962 97.524 219.429 148.724 360.838 148.724s260.876-51.2 360.838-151.162c102.4-99.962 151.162-219.429 151.162-360.838zM770.438 496.762h-492.495v-146.286h492.495v146.286z" />
<glyph unicode="&#xe90e;" glyph-name="dollar" d="M753.371 118.857c46.324 41.448 68.267 95.086 68.267 165.79 0 34.133-7.314 65.829-19.505 95.086s-34.133 53.638-63.39 75.581c-29.257 21.943-53.638 39.010-73.143 48.762-19.505 12.19-51.2 26.819-95.086 46.324s-73.143 31.695-85.333 36.571c-34.133 17.067-48.762 36.571-41.448 65.829 7.314 26.819 34.133 41.448 82.895 43.886 46.324 2.438 117.029-12.19 212.114-43.886l41.448 175.543c-65.829 19.505-134.095 34.133-202.362 36.571v95.086h-148.724v-102.4c-75.581-19.505-131.657-51.2-170.667-97.524s-56.076-95.086-56.076-146.286c0-39.010 9.752-73.143 26.819-104.838s39.010-56.076 68.267-73.143c29.257-19.505 56.076-34.133 82.895-43.886 26.819-12.19 56.076-21.943 87.771-31.695s51.2-17.067 58.514-19.505c26.819-12.19 46.324-26.819 53.638-43.886s7.314-31.695-2.438-46.324c-9.752-14.629-29.257-24.381-53.638-31.695-65.829-14.629-158.476 2.438-275.505 51.2l-48.762-170.667c68.267-36.571 146.286-58.514 229.181-68.267v-95.086h148.724v102.4c73.143 12.19 131.657 39.010 175.543 80.457z" />
<glyph unicode="&#xe90f;" glyph-name="dollar-add" d="M117.029 479.695c-78.019 39.010-117.029 82.895-117.029 136.533s39.010 99.962 117.029 138.971c78.019 39.010 173.105 56.076 282.819 56.076 68.267 0 134.095-9.752 195.048-24.381-9.752-29.257-14.629-58.514-14.629-87.771 0-92.648 36.571-163.352 112.152-216.99-78.019-41.448-175.543-60.952-292.571-60.952-109.714 0-204.8 19.505-282.819 58.514zM753.371 452.876l46.324-12.19v-26.819c0-53.638-39.010-99.962-117.029-138.971s-173.105-56.076-282.819-56.076c-112.152 0-207.238 19.505-285.257 56.076-75.581 39.010-114.59 82.895-114.59 136.533v75.581c19.505-19.505 51.2-41.448 92.648-63.39 87.771-41.448 190.171-63.39 307.2-63.39s221.867 21.943 309.638 63.39c0 4.876 14.629 12.19 43.886 29.257zM709.486 221.257c41.448 21.943 73.143 43.886 92.648 63.39v-75.581c0-53.638-39.010-99.962-117.029-138.971s-173.105-56.076-282.819-56.076c-112.152 0-207.238 19.505-285.257 56.076-78.019 39.010-117.029 82.895-117.029 136.533v75.581c19.505-19.505 51.2-41.448 92.648-63.39 87.771-41.448 190.171-63.39 307.2-63.39 117.029 2.438 221.867 24.381 309.638 65.829zM429.105 582.095c2.438-4.876 2.438-9.752-2.438-12.19-4.876-4.876-9.752-7.314-17.067-7.314h-17.067c-14.629 0-41.448 4.876-78.019 14.629l-14.629-43.886c21.943-9.752 48.762-14.629 80.457-17.067v-24.381h48.762v24.381c56.076 7.314 85.333 26.819 85.333 63.39 0 7.314-2.438 14.629-4.876 19.505-4.876 4.876-7.314 9.752-12.19 14.629s-12.19 7.314-21.943 12.19c-9.752 4.876-17.067 7.314-24.381 9.752-4.876 2.438-14.629 4.876-26.819 9.752s-19.505 7.314-24.381 7.314c-7.314 2.438-12.19 7.314-14.629 9.752-2.438 4.876 0 9.752 4.876 12.19 4.876 4.876 12.19 4.876 24.381 4.876v0c9.752 0 34.133-4.876 68.267-12.19l14.629 43.886c-24.381 4.876-48.762 9.752-70.705 12.19v24.381h-48.762v-26.819c-53.638-7.314-78.019-29.257-78.019-60.952 0-12.19 4.876-21.943 14.629-31.695s19.505-14.629 29.257-19.505c9.752-4.876 24.381-7.314 41.448-12.19s26.819-4.876 26.819-4.876 14.629-4.876 17.067-9.752zM970.362 569.905c-36.571-36.571-78.019-53.638-129.219-53.638-48.762 0-92.648 17.067-129.219 53.638s-53.638 78.019-53.638 129.219c0 48.762 17.067 92.648 53.638 129.219s78.019 53.638 129.219 53.638c51.2 0 95.086-17.067 129.219-53.638 36.571-36.571 53.638-78.019 53.638-129.219s-17.067-92.648-53.638-129.219zM953.295 664.99v68.267h-75.581v78.019h-68.267v-75.581h-78.019v-68.267h78.019v-75.581h68.267v75.581h75.581z" />
<glyph unicode="&#xe910;" glyph-name="user" d="M594.895 499.2c53.638-4.876 97.524-17.067 134.095-39.010s65.829-48.762 87.771-80.457c21.943-31.695 39.010-73.143 51.2-121.905 12.19-51.2 19.505-97.524 24.381-146.286 2.438-46.324 4.876-104.838 4.876-170.667v-4.876h-768v4.876c0 65.829 2.438 121.905 4.876 170.667 2.438 46.324 12.19 95.086 24.381 146.286 12.19 48.762 29.257 90.21 51.2 121.905s48.762 58.514 87.771 80.457c36.571 21.943 80.457 36.571 134.095 39.010-46.324 17.067-82.895 46.324-112.152 87.771s-43.886 85.333-43.886 136.533c0 65.829 24.381 121.905 70.705 168.229 43.886 43.886 99.962 68.267 165.79 68.267s121.905-24.381 168.229-70.705c46.324-46.324 70.705-102.4 70.705-168.229 0-51.2-14.629-97.524-43.886-136.533-26.819-41.448-65.829-68.267-112.152-85.333z" />
<glyph unicode="&#xe911;" glyph-name="user-add-like" d="M594.895 404.114c39.010-26.819 68.267-65.829 85.333-117.029s29.257-102.4 36.571-156.038c7.314-53.638 9.752-195.048 9.752-195.048h-719.238c0 0 2.438 141.41 9.752 195.048 4.876 53.638 17.067 104.838 36.571 156.038 17.067 51.2 46.324 90.21 85.333 117.029s87.771 43.886 148.724 48.762c-43.886 17.067-78.019 43.886-104.838 82.895s-41.448 80.457-41.448 129.219c0 63.39 21.943 117.029 65.829 160.914s97.524 65.829 158.476 65.829c60.952 0 114.59-21.943 158.476-65.829s65.829-97.524 65.829-160.914c0-46.324-14.629-90.21-41.448-129.219s-63.39-65.829-107.276-82.895c65.829-4.876 114.59-21.943 153.6-48.762zM580.267 84.724c29.257 29.257 43.886 65.829 43.886 107.276s-14.629 78.019-46.324 107.276c-29.257 29.257-65.829 43.886-107.276 43.886s-78.019-14.629-107.276-43.886c-29.257-29.257-43.886-65.829-43.886-107.276s14.629-78.019 43.886-107.276c29.257-29.257 65.829-43.886 107.276-43.886 43.886 0 80.457 14.629 109.714 43.886zM499.81 218.819h56.076v-56.076h-56.076v-56.076h-58.514v56.076h-56.076v56.076h56.076v56.076h58.514v-56.076zM1016.686 860.038c0-26.819-9.752-56.076-26.819-90.21s-36.571-60.952-58.514-82.895c-19.505-21.943-43.886-46.324-68.267-70.705s-39.010-39.010-41.448-43.886c-2.438 2.438-17.067 14.629-39.010 36.571-24.381 21.943-41.448 41.448-56.076 56.076s-31.695 34.133-48.762 58.514c-19.505 24.381-34.133 46.324-43.886 70.705-9.752 21.943-14.629 43.886-14.629 65.829 0 26.819 9.752 51.2 29.257 70.705s43.886 29.257 70.705 29.257c26.819 0 51.2-9.752 70.705-29.257 17.067-19.505 29.257-43.886 29.257-70.705 0 26.819 9.752 51.2 29.257 70.705s41.448 29.257 68.267 29.257c26.819 0 51.2-9.752 70.705-29.257s29.257-43.886 29.257-70.705z" />
<glyph unicode="&#xe912;" glyph-name="trash" d="M911.848 816.152c7.314-7.314 12.19-19.505 12.19-29.257v-51.2c0-12.19-4.876-24.381-12.19-31.695-9.752-7.314-19.505-12.19-31.695-12.19h-736.305c-12.19 0-21.943 4.876-29.257 12.19s-12.19 19.505-12.19 31.695v51.2c0 12.19 4.876 21.943 12.19 29.257s17.067 12.19 29.257 12.19h207.238c7.314 39.010 26.819 68.267 56.076 95.086 29.257 24.381 65.829 36.571 104.838 36.571s73.143-12.19 104.838-36.571c31.695-24.381 48.762-56.076 58.514-95.086h204.8c12.19 0 21.943-4.876 31.695-12.19zM175.543 650.362h670.476v-555.886c0-43.886-14.629-82.895-46.324-112.152-29.257-31.695-68.267-46.324-112.152-46.324h-351.086c-43.886 0-82.895 14.629-114.59 46.324s-46.324 68.267-46.324 112.152v555.886zM292.571 79.848c0-12.19 4.876-21.943 12.19-29.257s19.505-12.19 31.695-12.19c12.19 0 21.943 4.876 29.257 12.19s12.19 19.505 12.19 29.257v448.61c0 12.19-4.876 21.943-12.19 29.257-9.752 7.314-19.505 12.19-29.257 12.19-12.19 0-24.381-4.876-31.695-12.19s-12.19-19.505-12.19-29.257v-448.61zM629.029 828.343c-7.314 26.819-21.943 46.324-43.886 63.39-21.943 14.629-46.324 24.381-73.143 24.381-58.514 0-97.524-29.257-114.59-85.333h231.619zM468.114 79.848c0-12.19 4.876-21.943 12.19-29.257s19.505-12.19 29.257-12.19c12.19 0 24.381 4.876 31.695 12.19s12.19 19.505 12.19 29.257v448.61c0 12.19-4.876 21.943-12.19 29.257s-17.067 12.19-29.257 12.19c-12.19 0-21.943-4.876-29.257-12.19s-12.19-19.505-12.19-29.257v-448.61zM643.657 79.848c0-12.19 4.876-21.943 12.19-29.257s19.505-12.19 29.257-12.19c12.19 0 24.381 4.876 31.695 12.19s12.19 19.505 12.19 29.257v448.61c0 12.19-4.876 21.943-12.19 29.257s-19.505 12.19-31.695 12.19c-12.19 0-21.943-4.876-29.257-12.19-9.752-7.314-12.19-19.505-12.19-29.257v-448.61z" />
<glyph unicode="&#xe913;" glyph-name="map-point" d="M899.657 594.286c0-68.267-14.629-136.533-41.448-207.238-29.257-70.705-58.514-129.219-92.648-177.981s-73.143-95.086-117.029-143.848c-43.886-46.324-75.581-78.019-92.648-92.648-19.505-17.067-34.133-29.257-43.886-36.571l-39.010 31.695c-26.819 21.943-60.952 53.638-97.524 97.524-36.571 41.448-75.581 90.21-112.152 141.41-39.010 51.2-70.705 112.152-97.524 180.419s-41.448 138.971-41.448 204.8c0 102.4 29.257 202.362 109.714 273.067 82.895 70.705 182.857 95.086 277.943 95.086s192.61-26.819 273.067-97.524c80.457-70.705 114.59-165.79 114.59-268.19zM692.419 625.981c0 48.762-17.067 92.648-53.638 126.781-34.133 36.571-78.019 53.638-126.781 53.638s-92.648-17.067-126.781-53.638c-36.571-34.133-53.638-78.019-53.638-126.781s17.067-92.648 53.638-126.781c34.133-34.133 78.019-51.2 126.781-51.2s92.648 17.067 126.781 51.2c36.571 36.571 53.638 78.019 53.638 126.781z" />
<glyph unicode="&#xe914;" glyph-name="star" d="M512 935.619l158.476-321.829 353.524-51.2-256-248.686 60.952-353.524-316.952 168.229-316.952-168.229 60.952 353.524-256 248.686 353.524 51.2z" />
<glyph unicode="&#xe915;" glyph-name="cruz" d="M1024 57.905l-121.905-121.905-390.095 390.095-390.095-390.095-121.905 121.905 390.095 390.095-390.095 390.095 121.905 121.905 390.095-390.095 390.095 390.095 121.905-121.905-390.095-390.095z" />
<glyph unicode="&#xe916;" glyph-name="search" d="M960.61-5.486c-43.886-41.448-85.333-60.952-126.781-56.076l-292.571 295.010c-124.343-58.514-246.248-48.762-363.276 26.819s-175.543 180.419-175.543 319.39c0 104.838 36.571 195.048 112.152 270.629 75.581 73.143 165.79 109.714 270.629 109.714 138.971 0 248.686-58.514 324.267-177.981 75.581-121.905 82.895-243.81 19.505-368.152l292.571-292.571c2.438-43.886-17.067-85.333-60.952-126.781zM641.219 577.219c0 70.705-24.381 131.657-75.581 180.419s-112.152 75.581-180.419 75.581c-70.705 0-131.657-24.381-180.419-75.581-48.762-48.762-75.581-109.714-75.581-180.419s24.381-131.657 75.581-180.419c48.762-48.762 107.276-75.581 177.981-75.581s131.657 24.381 182.857 75.581c48.762 48.762 75.581 109.714 75.581 180.419z" />
<glyph unicode="&#xe917;" glyph-name="alert" d="M512 121.295c-51.2 0-92.648-41.448-92.648-92.648s41.448-92.648 92.648-92.648c51.2 0 92.648 41.448 92.648 92.648s-41.448 92.648-92.648 92.648zM512 201.752c31.695 0 65.829 29.257 65.829 82.895l26.819 585.143c0 48.762-41.448 90.21-92.648 90.21s-92.648-41.448-92.648-95.086l29.257-580.267c0-56.076 31.695-82.895 63.39-82.895z" />
<glyph unicode="&#xe918;" glyph-name="back" d="M0 448l455.924 455.924v-226.743c226.743 0 568.076-114.59 568.076-682.667-114.59 226.743-226.743 341.333-568.076 226.743v-226.743l-455.924 453.486z" />
<glyph unicode="&#xe919;" glyph-name="usr-add" d="M728.99 457.752c36.571-21.943 65.829-48.762 87.771-80.457s39.010-73.143 51.2-121.905c12.19-51.2 19.505-97.524 21.943-143.848s4.876-102.4 4.876-170.667v-4.876h-765.562v4.876c0 65.829 2.438 124.343 4.876 170.667 4.876 46.324 12.19 92.648 24.381 143.848s29.257 90.21 51.2 121.905c21.943 31.695 51.2 58.514 87.771 80.457s82.895 36.571 134.095 39.010c-46.324 17.067-85.333 46.324-114.59 85.333s-43.886 85.333-43.886 136.533c0 65.829 24.381 124.343 70.705 170.667s102.4 70.705 168.229 70.705c65.829 0 121.905-24.381 168.229-70.705s70.705-102.4 70.705-170.667c0-51.2-14.629-95.086-43.886-136.533-29.257-39.010-68.267-68.267-114.59-85.333 53.638-2.438 97.524-17.067 136.533-39.010zM780.19 194.438c0 39.010-14.629 73.143-43.886 102.4s-63.39 43.886-102.4 43.886c-39.010 0-73.143-14.629-102.4-43.886s-43.886-63.39-43.886-102.4c0-39.010 14.629-73.143 43.886-102.4 29.257-26.819 63.39-41.448 102.4-41.448s73.143 14.629 102.4 41.448c29.257 26.819 43.886 60.952 43.886 102.4zM663.162 221.257h60.952v-53.638h-60.952v-63.39h-53.638v63.39h-63.39v51.2h63.39v60.952h53.638v-58.514z" />
<glyph unicode="&#xe91a;" glyph-name="circle-plus" d="M1024 448c0-141.41-48.762-260.876-151.162-360.838-99.962-99.962-219.429-151.162-360.838-151.162s-260.876 51.2-360.838 151.162c-102.4 99.962-151.162 219.429-151.162 360.838s48.762 260.876 151.162 360.838c99.962 99.962 219.429 151.162 360.838 151.162s260.876-51.2 360.838-151.162c102.4-99.962 151.162-219.429 151.162-360.838zM824.076 135.924c87.771 85.333 131.657 190.171 131.657 312.076-2.438 121.905-46.324 226.743-131.657 312.076-87.771 87.771-190.171 129.219-312.076 129.219s-226.743-43.886-312.076-129.219c-87.771-85.333-129.219-190.171-129.219-312.076s43.886-226.743 129.219-312.076c85.333-85.333 190.171-129.219 312.076-129.219s224.305 41.448 312.076 129.219zM794.819 543.086v-177.981l-195.048-4.876v-199.924l-175.543-4.876 2.438 192.61h-197.486v195.048h197.486v195.048l173.105-2.438v-195.048h195.048z" />
<glyph unicode="&#xe91b;" glyph-name="lock" d="M855.771 472.381v-472.99l-34.133-14.629c-21.943-9.752-63.39-21.943-121.905-31.695s-124.343-17.067-197.486-17.067c-126.781 0-238.933 21.943-336.457 63.39v472.99l134.095 34.133v297.448c4.876 56.076 34.133 99.962 85.333 126.781 36.571 19.505 78.019 29.257 121.905 29.257h4.876c80.457 0 138.971-24.381 177.981-70.705 21.943-26.819 34.133-53.638 34.133-78.019l-2.438-299.886c29.257-7.314 73.143-19.505 134.095-39.010zM641.219 803.962c0 2.438 0 4.876-2.438 7.314-2.438 7.314-7.314 17.067-14.629 24.381-21.943 24.381-60.952 39.010-112.152 39.010h-4.876c-31.695 0-58.514-4.876-80.457-17.067-24.381-17.067-39.010-36.571-41.448-63.39v-273.067c24.381 2.438 65.829 4.876 124.343 7.314 51.2 0 95.086-2.438 131.657-4.876v280.381zM563.2 211.505c29.257 19.505 43.886 43.886 43.886 78.019 0 26.819-9.752 48.762-26.819 65.829s-39.010 26.819-65.829 26.819c-26.819 0-46.324-9.752-65.829-26.819-17.067-17.067-26.819-39.010-26.819-65.829 0-34.133 17.067-60.952 48.762-80.457l-21.943-126.781h136.533l-21.943 129.219z" />
<glyph unicode="&#xe91c;" glyph-name="corazon" d="M1024 689.371c0-68.267-24.381-146.286-70.705-231.619s-95.086-156.038-148.724-212.114c-51.2-56.076-109.714-117.029-173.105-182.857-63.39-63.39-99.962-102.4-107.276-112.152-7.314 7.314-41.448 39.010-102.4 95.086s-109.714 104.838-146.286 143.848c-34.133 39.010-75.581 87.771-124.343 148.724s-85.333 119.467-112.152 180.419c-26.819 58.514-39.010 117.029-39.010 170.667 0 68.267 26.819 129.219 78.019 180.419s112.152 75.581 182.857 75.581c68.267 0 129.219-24.381 180.419-75.581s75.581-109.714 75.581-180.419c0 68.267 24.381 129.219 75.581 180.419s109.714 75.581 180.419 75.581c68.267 0 129.219-24.381 180.419-75.581 46.324-51.2 70.705-109.714 70.705-180.419z" />
<glyph unicode="&#xe91d;" glyph-name="map-check" d="M1016.686 816.152v-726.552l-270.629-153.6-236.495 153.6-231.619-153.6-270.629 153.6v726.552l270.629-143.848h2.438c7.314-19.505 17.067-41.448 31.695-65.829l-17.067-9.752v-560.762l195.048 131.657v60.952c-17.067 7.314-26.819 19.505-26.819 39.010 0 12.19 4.876 21.943 12.19 29.257 9.752 7.314 19.505 12.19 29.257 12.19 12.19 0 21.943-4.876 29.257-12.19s12.19-17.067 12.19-29.257c0-17.067-7.314-26.819-21.943-36.571v-63.39l134.095-85.333v2.438l70.705-48.762v219.429h2.438v341.333l-26.819 14.629c12.19 19.505 24.381 41.448 31.695 65.829l9.752-4.876 270.629 143.848zM258.438 599.162l-175.543 92.648v-560.762l175.543-99.962v568.076zM682.667 660.114c-17.067-31.695-36.571-58.514-58.514-80.457s-43.886-56.076-68.267-99.962c-24.381-43.886-39.010-92.648-48.762-148.724-9.752 53.638-24.381 104.838-48.762 148.724-21.943 43.886-43.886 78.019-65.829 99.962s-41.448 48.762-58.514 80.457c-17.067 31.695-24.381 65.829-24.381 99.962 0 53.638 19.505 102.4 58.514 141.41s85.333 58.514 138.971 58.514c53.638 0 102.4-19.505 141.41-58.514s58.514-85.333 58.514-141.41c0-36.571-9.752-68.267-24.381-99.962zM507.124 694.248c19.505 0 36.571 7.314 51.2 21.943s21.943 31.695 21.943 51.2-7.314 36.571-21.943 51.2c-14.629 12.19-31.695 19.505-51.2 19.505s-34.133-7.314-48.762-21.943c-14.629-14.629-21.943-31.695-21.943-51.2s7.314-36.571 21.943-51.2c14.629-12.19 29.257-19.505 48.762-19.505zM941.105 691.81l-175.543-92.648v-568.076l175.543 99.962v560.762z" />
<glyph unicode="&#xe91e;" glyph-name="arrow-up-right" d="M351.086 782.019l360.838 2.438-711.924-724.114 129.219-126.781 711.924 724.114 2.438-358.4h180.419v660.724l-665.6 2.438z" />
<glyph unicode="&#xe91f;" glyph-name="pharmaceutics" d="M736.305 864.914l53.638-46.324c21.943-17.067 43.886-31.695 65.829-46.324 24.381-14.629 51.2-26.819 80.457-36.571 26.819-9.752 56.076-12.19 87.771-9.752l-12.19-14.629c-4.876-12.19-17.067-24.381-36.571-34.133-21.943-7.314-43.886-9.752-65.829-4.876l-14.629-12.19c-9.752-7.314-24.381-9.752-41.448-12.19-14.629-4.876-34.133-2.438-60.952 7.314l-14.629-4.876c-4.876-4.876-17.067-7.314-34.133-9.752-14.629 0-34.133 4.876-53.638 14.629l-12.19-7.314c-7.314-4.876-19.505-7.314-36.571-9.752-12.19 0-29.257 4.876-46.324 14.629l-7.314-4.876c-4.876-4.876-12.19-9.752-21.943-9.752-7.314-2.438-17.067-2.438-26.819 0l-2.438-175.543h4.876l107.276 26.819c70.705 19.505 109.714 34.133 117.029 48.762l-2.438 2.438c-4.876 2.438-12.19 2.438-21.943 4.876-36.571 4.876-60.952 7.314-75.581 7.314-36.571 0-56.076 0-60.952-2.438h-9.752c-2.438 0-4.876 0-7.314 2.438-4.876 2.438-7.314 2.438-9.752 4.876-4.876 4.876-9.752 12.19-14.629 21.943v2.438c2.438 12.19 12.19 19.505 31.695 24.381 2.438 0 7.314 0 17.067 0s17.067 0 24.381 0c12.19-2.438 26.819-2.438 46.324-2.438 31.695-2.438 58.514-4.876 75.581-4.876 17.067-2.438 36.571-9.752 56.076-17.067 21.943-12.19 34.133-26.819 36.571-43.886v-4.876c-2.438-17.067-9.752-31.695-24.381-46.324-19.505-12.19-41.448-24.381-65.829-34.133-36.571-12.19-60.952-19.505-75.581-24.381-21.943-4.876-48.762-9.752-82.895-17.067 31.695-21.943 53.638-51.2 58.514-92.648 4.876-43.886-31.695-87.771-107.276-129.219 65.829-46.324 97.524-90.21 97.524-129.219-7.314-51.2-43.886-92.648-107.276-126.781l12.19 19.505c12.19 24.381 21.943 39.010 26.819 48.762 7.314 17.067 12.19 31.695 12.19 46.324 7.314 26.819-14.629 58.514-63.39 92.648l-2.438-141.41c0-12.19-7.314-19.505-19.505-19.505s-19.505 7.314-24.381 19.505l2.438 148.724c-48.762-39.010-73.143-70.705-68.267-97.524 2.438-29.257 19.505-65.829 51.2-114.59-63.39 31.695-99.962 73.143-109.714 126.781 0 39.010 31.695 82.895 97.524 129.219-75.581 43.886-112.152 85.333-107.276 126.781 7.314 41.448 29.257 73.143 60.952 95.086-39.010 9.752-65.829 14.629-85.333 17.067-26.819 7.314-51.2 14.629-75.581 24.381-26.819 9.752-48.762 19.505-68.267 34.133-14.629 14.629-24.381 31.695-24.381 46.324v4.876c4.876 17.067 17.067 31.695 36.571 43.886 19.505 9.752 39.010 14.629 56.076 17.067 19.505 2.438 43.886 4.876 73.143 4.876 9.752 0 17.067 0 26.819 0 7.314 0 14.629 0 17.067 0h4.876c7.314 0 14.629 0 24.381 0s14.629 0 17.067 0c17.067-4.876 29.257-12.19 31.695-24.381v-2.438c-4.876-9.752-9.752-17.067-14.629-21.943-4.876-2.438-9.752-4.876-17.067-7.314h-7.314l-63.39 2.438c-12.19-2.438-36.571-4.876-73.143-7.314-9.752-2.438-17.067-2.438-21.943-4.876 0-2.438-2.438-2.438-4.876-2.438 9.752-14.629 48.762-31.695 119.467-48.762 53.638-12.19 87.771-21.943 107.276-26.819 2.438-2.438 2.438-2.438 4.876-2.438h4.876l-2.438 175.543c-9.752-2.438-19.505-2.438-29.257 2.438-7.314 2.438-14.629 2.438-21.943 4.876-2.438 2.438-4.876 2.438-7.314 4.876-12.19-12.19-26.819-14.629-46.324-12.19-9.752 2.438-21.943 4.876-34.133 9.752-4.876 2.438-7.314 4.876-12.19 7.314-21.943-9.752-39.010-14.629-53.638-12.19-17.067 2.438-26.819 4.876-34.133 7.314s-9.752 4.876-12.19 4.876c-14.629-4.876-36.571-9.752-56.076-4.876-24.381 7.314-36.571 12.19-41.448 14.629l-14.629 12.19c-24.381-7.314-46.324-4.876-65.829 4.876-21.943 12.19-34.133 21.943-36.571 26.819-7.314 9.752-9.752 17.067-12.19 21.943 34.133-2.438 73.143 2.438 112.152 17.067 41.448 17.067 73.143 34.133 90.21 48.762 24.381 19.505 48.762 39.010 73.143 60.952 19.505 14.629 31.695 29.257 41.448 36.571 29.257 24.381 58.514 12.19 87.771-36.571 12.19-26.819 39.010-41.448 75.581-41.448v7.314c-26.819 14.629-41.448 36.571-41.448 65.829 0 21.943 7.314 39.010 21.943 51.2 14.629 14.629 31.695 21.943 51.2 21.943s36.571-7.314 51.2-21.943c14.629-14.629 21.943-31.695 21.943-51.2 0-29.257-12.19-51.2-39.010-65.829l-2.438-7.314c36.571 0 60.952 14.629 78.019 41.448 14.629 26.819 29.257 43.886 43.886 51.2 14.629 4.876 29.257 0 43.886-14.629 4.876-2.438 14.629-9.752 26.819-26.819zM446.171 245.638c26.819-14.629 41.448-24.381 43.886-26.819l-2.438 146.286c-46.324-19.505-68.267-43.886-68.267-78.019-2.438-14.629 4.876-29.257 26.819-41.448zM577.829 245.638c17.067 12.19 26.819 26.819 26.819 41.448v7.314c0 2.438 0 2.438 0 4.876s0 2.438 0 4.876 0 4.876-2.438 9.752l-9.752 12.19-12.19 12.19c-4.876 4.876-9.752 7.314-17.067 12.19-2.438 2.438-7.314 4.876-21.943 12.19l-2.438-138.971c12.19 7.314 24.381 14.629 39.010 21.943z" />
<glyph unicode="&#xe920;" glyph-name="microphone" d="M819.2 404.114c0 19.505-14.629 34.133-34.133 34.133s-34.133-14.629-34.133-34.133c0-134.095-107.276-241.371-241.371-241.371s-241.371 107.276-241.371 241.371c0 19.505-14.629 34.133-34.133 34.133s-34.133-14.629-34.133-34.133c0-158.476 119.467-290.133 275.505-307.2v-95.086h-82.895c-19.505 0-34.133-14.629-34.133-34.133s14.629-34.133 34.133-34.133h231.619c19.505 0 34.133 14.629 34.133 34.133s-14.629 34.133-34.133 34.133h-82.895v95.086c158.476 17.067 277.943 148.724 277.943 307.2v0zM512 199.314c104.838 0 187.733 85.333 187.733 187.733v385.219c0 102.4-82.895 187.733-187.733 187.733s-187.733-85.333-187.733-187.733v-382.781c0-104.838 82.895-190.171 187.733-190.171v0z" />
<glyph unicode="&#xe921;" glyph-name="minus" d="M0 579.657h1024v-263.314h-1024v263.314z" />
<glyph unicode="&#xe922;" glyph-name="brujula-arrow" d="M421.79-12.8l97.524 509.562-519.314 2.438 1024 409.6z" />
<glyph unicode="&#xe923;" glyph-name="chat-add" d="M309.638 187.124c-53.638-31.695-156.038-60.952-307.2-90.21 56.076 99.962 80.457 182.857 78.019 248.686-53.638 63.39-80.457 136.533-80.457 219.429 0 109.714 46.324 199.924 136.533 275.505s197.486 112.152 321.829 112.152c121.905 0 231.619-36.571 321.829-112.152 92.648-75.581 138.971-168.229 138.971-275.505v-9.752c-31.695 19.505-60.952 31.695-90.21 36.571-7.314 73.143-46.324 138.971-119.467 192.61-70.705 53.638-153.6 80.457-251.124 80.457-99.962 0-187.733-29.257-260.876-87.771-70.705-58.514-107.276-129.219-107.276-209.676 0-65.829 29.257-131.657 90.21-195.048-4.876-29.257-9.752-53.638-14.629-70.705s-9.752-36.571-14.629-56.076l-4.876-21.943c53.638 9.752 107.276 31.695 160.914 63.39-4.876-41.448-2.438-75.581 2.438-99.962zM967.924 109.105c0-43.886 19.505-99.962 56.076-168.229-95.086 17.067-165.79 36.571-212.114 65.829-114.59-29.257-212.114-14.629-297.448 39.010-82.895 56.076-121.905 126.781-121.905 212.114 0 75.581 31.695 138.971 92.648 190.171 65.829 51.2 138.971 75.581 221.867 75.581 87.771 0 163.352-24.381 221.867-75.581 63.39-51.2 95.086-114.59 95.086-190.171 0-56.076-19.505-104.838-56.076-148.724zM836.267 223.695v80.457h-90.21v90.21h-80.457v-90.21h-90.21l-2.438-80.457h92.648v-92.648h78.019v90.21h92.648z" />
<glyph unicode="&#xe924;" glyph-name="sheet" d="M928.914 591.848v-624.152c0-21.943-9.752-31.695-29.257-31.695h-772.876c-9.752 0-17.067 2.438-21.943 7.314-7.314 7.314-9.752 14.629-9.752 24.381v963.048c0 19.505 9.752 29.257 31.695 29.257h433.981c21.943 0 31.695-9.752 31.695-29.257v-277.943c0-19.505 9.752-29.257 29.257-29.257h277.943c19.505 0 29.257-9.752 29.257-31.695zM755.81 443.124h-485.181v-75.581h485.181v75.581zM755.81 306.59h-485.181v-73.143h485.181v73.143zM512 167.619h-241.371v-73.143h241.371v73.143zM677.79 940.495v-248.686h251.124l-251.124 248.686z" />
<glyph unicode="&#xe925;" glyph-name="plus" d="M1024 545.524h-414.476v414.476h-195.048v-414.476h-414.476v-195.048h414.476v-414.476h195.048v414.476h414.476z" />
<glyph unicode="&#xe926;" glyph-name="pen" d="M838.705 494.324l-460.8-460.8-377.905-92.648 102.4 373.029 458.362 458.362 70.705-70.705-438.857-438.857-26.819-112.152 48.762-51.2 114.59 24.381 438.857 438.857 70.705-68.267zM882.59 535.771l141.41 141.41-277.943 277.943-141.41-141.41 277.943-277.943z" />
<glyph unicode="&#xe927;" glyph-name="calendar-time" d="M575.39 352.914c-46.324-53.638-70.705-117.029-73.143-187.733h-475.429c-7.314 0-12.19 2.438-19.505 9.752-4.876 4.876-7.314 12.19-7.314 19.505v629.029c0 7.314 2.438 14.629 7.314 19.505s12.19 7.314 19.505 7.314h70.705v-41.448c0-24.381 9.752-46.324 26.819-65.829 17.067-17.067 39.010-26.819 63.39-26.819 26.819 0 48.762 9.752 65.829 26.819s26.819 39.010 26.819 65.829v41.448h190.171v-41.448c0-26.819 9.752-48.762 26.819-65.829s39.010-26.819 65.829-26.819c26.819 0 48.762 9.752 65.829 26.819s26.819 39.010 26.819 65.829v41.448h68.267c7.314 0 14.629-2.438 19.505-7.314s7.314-12.19 7.314-19.505v-373.029c-70.705-9.752-129.219-41.448-175.543-97.524zM158.476 777.143c-7.314 9.752-12.19 19.505-12.19 29.257v107.276c0 12.19 4.876 21.943 12.19 29.257 9.752 7.314 19.505 12.19 29.257 12.19 12.19 0 21.943-4.876 29.257-12.19s12.19-17.067 12.19-29.257v-104.838c0-12.19-4.876-21.943-12.19-29.257s-19.505-12.19-29.257-12.19c-9.752 0-19.505 4.876-29.257 9.752zM580.267 613.79h-407.162v-63.39h407.162v63.39zM580.267 496.762h-407.162v-60.952h407.162v60.952zM375.467 382.171h-202.362v-63.39h202.362v63.39zM519.314 806.4v107.276c0 12.19 4.876 21.943 12.19 29.257s17.067 12.19 29.257 12.19c12.19 0 21.943-4.876 26.819-12.19 7.314-7.314 12.19-17.067 12.19-29.257v-104.838c0-12.19-4.876-21.943-12.19-29.257-4.876-9.752-14.629-14.629-26.819-14.629s-21.943 4.876-29.257 12.19c-9.752 9.752-12.19 19.505-12.19 29.257zM958.171 330.971c43.886-43.886 65.829-97.524 65.829-160.914 0-60.952-21.943-114.59-65.829-160.914-43.886-43.886-97.524-68.267-160.914-68.267-60.952 0-114.59 21.943-160.914 68.267-43.886 43.886-68.267 97.524-68.267 160.914s21.943 117.029 68.267 160.914c43.886 43.886 97.524 65.829 160.914 65.829s117.029-21.943 160.914-65.829zM975.238 170.057c0 51.2-17.067 92.648-51.2 126.781s-75.581 51.2-126.781 51.2c-51.2 0-92.648-17.067-126.781-51.2s-51.2-75.581-51.2-126.781c0-48.762 17.067-90.21 53.638-126.781 34.133-34.133 78.019-53.638 126.781-53.638s90.21 17.067 126.781 53.638c29.257 36.571 48.762 78.019 48.762 126.781zM814.324 174.933h104.838v-48.762h-153.6v170.667h48.762v-121.905z" />
<glyph unicode="&#xe928;" glyph-name="fem-symbol" d="M792.381 360.229c-58.514-68.267-129.219-109.714-214.552-126.781v-75.581h143.848v-121.905h-143.848v-99.962h-131.657v99.962h-141.41v121.905h141.41v75.581c-85.333 17.067-158.476 58.514-214.552 126.781-56.076 65.829-85.333 146.286-85.333 234.057 0 102.4 36.571 187.733 107.276 258.438s156.038 107.276 258.438 107.276c99.962 0 187.733-36.571 258.438-107.276s107.276-156.038 107.276-258.438c0-87.771-29.257-168.229-85.333-234.057zM512 350.476c68.267 0 124.343 24.381 173.105 70.705 48.762 48.762 70.705 104.838 70.705 173.105 0 65.829-24.381 124.343-70.705 173.105-48.762 46.324-104.838 70.705-173.105 70.705-65.829 0-124.343-24.381-173.105-70.705-48.762-48.762-70.705-104.838-70.705-173.105s24.381-124.343 70.705-173.105c48.762-46.324 107.276-70.705 173.105-70.705z" />
<glyph unicode="&#xe929;" glyph-name="masc-symbol" d="M631.467 947.81v-141.41h148.724l-92.648-92.648c-73.143 56.076-163.352 90.21-260.876 90.21-236.495-2.438-426.667-192.61-426.667-429.105s190.171-426.667 426.667-426.667 429.105 190.171 429.105 426.667c0 85.333-26.819 165.79-70.705 234.057l97.524 97.524v-148.724h141.41v390.095h-392.533zM426.667 89.6c-158.476 0-285.257 129.219-285.257 285.257 0 158.476 129.219 285.257 285.257 285.257s285.257-126.781 285.257-285.257c0-158.476-126.781-285.257-285.257-285.257z" />
<glyph unicode="&#xe92a;" glyph-name="user-add-bottom" d="M568.076 645.486c60.952 21.943 107.276 82.895 107.276 151.162 0 90.21-73.143 163.352-163.352 163.352s-163.352-73.143-163.352-163.352c0-70.705 43.886-129.219 107.276-151.162-182.857-17.067-202.362-180.419-202.362-380.343 0 0 0 0 0-2.438h519.314c0 0 0 0 0 2.438-2.438 202.362-21.943 365.714-204.8 380.343zM531.505 216.381h-39.010v-121.905h-121.905v-36.571h121.905v-121.905h39.010v121.905h121.905v36.571h-121.905z" />
<glyph unicode="&#xe92b;" glyph-name="stop" d="M219.429 740.571h585.143v-585.143h-585.143v585.143z" />
<glyph unicode="&#xe92c;" glyph-name="dollar-circular" d="M875.276 808.838c99.962-99.962 148.724-221.867 148.724-360.838 0-141.41-48.762-260.876-148.724-360.838-99.962-102.4-221.867-151.162-363.276-151.162s-260.876 48.762-363.276 148.724c-97.524 99.962-148.724 221.867-148.724 363.276s48.762 263.314 148.724 363.276c99.962 99.962 221.867 148.724 363.276 148.724s263.314-51.2 363.276-151.162zM660.724 252.952c26.819 24.381 39.010 56.076 39.010 95.086 0 19.505-4.876 39.010-12.19 56.076s-19.505 31.695-36.571 43.886c-17.067 12.19-31.695 21.943-43.886 29.257s-29.257 14.629-56.076 26.819c-26.819 12.19-41.448 17.067-48.762 21.943-19.505 9.752-26.819 21.943-24.381 39.010 4.876 17.067 19.505 24.381 48.762 26.819 26.819 2.438 68.267-7.314 124.343-26.819l24.381 102.4c-39.010 12.19-78.019 19.505-117.029 21.943v53.638h-85.333v-60.952c-43.886-9.752-78.019-29.257-99.962-56.076s-31.695-56.076-31.695-85.333c0-21.943 4.876-43.886 14.629-60.952s24.381-31.695 39.010-43.886c17.067-9.752 31.695-19.505 48.762-26.819 14.629-7.314 31.695-12.19 51.2-19.505 19.505-4.876 29.257-9.752 34.133-12.19 17.067-7.314 26.819-14.629 31.695-24.381s4.876-19.505-2.438-26.819c-4.876-7.314-17.067-14.629-31.695-17.067-39.010-7.314-92.648 2.438-158.476 29.257l-26.819-99.962c39.010-21.943 85.333-34.133 134.095-39.010v-53.638h85.333v60.952c39.010 7.314 73.143 21.943 99.962 46.324z" />
<glyph unicode="&#xe92d;" glyph-name="clock" d="M151.162 808.838c99.962 99.962 221.867 151.162 360.838 151.162 141.41 0 260.876-51.2 360.838-151.162 102.4-99.962 151.162-221.867 151.162-360.838 0-141.41-48.762-260.876-148.724-360.838-99.962-102.4-221.867-151.162-363.276-151.162s-260.876 48.762-363.276 148.724c-97.524 99.962-148.724 221.867-148.724 363.276 0 138.971 51.2 260.876 151.162 360.838zM512 847.848c-112.152 0-204.8-39.010-282.819-117.029s-117.029-173.105-117.029-282.819c0-109.714 39.010-204.8 117.029-282.819s173.105-117.029 282.819-117.029c109.714 0 204.8 39.010 282.819 117.029s117.029 173.105 117.029 282.819c0 112.152-39.010 204.8-117.029 282.819s-173.105 117.029-282.819 117.029zM787.505 350.476h-346.21v380.343h112.152v-270.629h234.057v-109.714z" />
<glyph unicode="&#xe92e;" glyph-name="three-dots" d="M404.724 960h192.61v-192.61h-192.61v192.61zM404.724 545.524h192.61v-192.61h-192.61v192.61zM404.724 128.61h192.61v-192.61h-192.61v192.61z" />
<glyph unicode="&#xe92f;" glyph-name="pacientes" d="M694.857 391.924c0 0 0 0 0 0-4.876 2.438-9.752 4.876-14.629 7.314 4.876-2.438 9.752-4.876 14.629-7.314zM1004.495 223.695c-19.505 70.705-56.076 131.657-129.219 156.038 0 0-17.067 4.876-17.067 4.876-9.752 2.438-19.505 4.876-29.257 4.876 75.581 12.19 129.219 39.010 134.095 70.705-4.876-2.438-9.752-4.876-14.629-4.876-9.752 0-21.943 4.876-34.133 14.629 0 0 0 2.438 2.438 2.438 14.629 24.381 19.505 51.2 19.505 80.457 0 48.762-17.067 90.21-53.638 126.781-2.438 2.438-4.876 4.876-7.314 7.314-31.695 29.257-70.705 46.324-117.029 46.324 0 0 0 0 0 0s0 0 0 0c-46.324 0-85.333-14.629-117.029-46.324-2.438-2.438-4.876-4.876-7.314-7.314-34.133-34.133-53.638-78.019-53.638-126.781 0-29.257 7.314-56.076 19.505-80.457 0 0 0 0 0-2.438-12.19-9.752-24.381-14.629-36.571-14.629-4.876 0-7.314 0-12.19 2.438 4.876-31.695 58.514-58.514 129.219-70.705-2.438 0-4.876-2.438-7.314-2.438v0h-2.438c-4.876 0-9.752-2.438-14.629-2.438 0 0-17.067-4.876-17.067-4.876-73.143-24.381-109.714-85.333-129.219-156.038-9.752-29.257-14.629-63.39-19.505-99.962h533.943c-4.876 39.010-9.752 70.705-19.505 102.4zM694.857 391.924c-4.876 2.438-9.752 4.876-14.629 7.314 4.876-2.438 9.752-4.876 14.629-7.314 0 0 0 0 0 0zM494.933 304.152c-21.943 51.2-56.076 95.086-114.59 114.59 0 0-17.067 4.876-17.067 4.876-9.752 2.438-21.943 4.876-31.695 4.876 0 0 0 0 0 0-2.438 0-4.876 0-4.876 0 34.133 12.19 60.952 31.695 82.895 60.952 4.876 7.314 9.752 14.629 14.629 21.943 14.629 24.381 19.505 51.2 19.505 80.457 0 48.762-17.067 90.21-53.638 126.781-2.438 2.438-4.876 4.876-7.314 7.314-31.695 29.257-70.705 46.324-117.029 46.324 0 0 0 0 0 0s0 0 0 0c-48.762 0-87.771-14.629-119.467-46.324-2.438-2.438-7.314-2.438-9.752-7.314-34.133-34.133-51.2-75.581-51.2-124.343 0-29.257 7.314-56.076 19.505-80.457 4.876-7.314 9.752-14.629 14.629-21.943 21.943-29.257 48.762-48.762 82.895-60.952-2.438 0-4.876 0-4.876 0s0 0 0 0c-9.752-2.438-21.943-2.438-31.695-4.876 0 0-17.067-4.876-17.067-4.876-73.143-24.381-109.714-85.333-129.219-156.038-9.752-31.695-14.629-60.952-19.505-92.648h453.486c7.314 43.886 19.505 90.21 41.448 131.657z" />
<glyph unicode="&#xe930;" glyph-name="profile-sheet" d="M928.914 591.848v-624.152c0-21.943-9.752-31.695-29.257-31.695h-772.876c-9.752 0-17.067 2.438-21.943 7.314-7.314 7.314-9.752 14.629-9.752 24.381v963.048c0 19.505 9.752 29.257 31.695 29.257h433.981c21.943 0 31.695-9.752 31.695-29.257v-277.943c0-19.505 9.752-29.257 29.257-29.257h277.943c19.505 0 29.257-9.752 29.257-31.695zM689.981 87.162c0 39.010-2.438 73.143-4.876 97.524-2.438 26.819-9.752 51.2-17.067 78.019-9.752 26.819-24.381 46.324-43.886 58.514-19.505 14.629-43.886 21.943-75.581 24.381 48.762 17.067 73.143 51.2 73.143 102.4 0 31.695-9.752 58.514-31.695 80.457s-48.762 31.695-78.019 31.695c-31.695 0-58.514-9.752-80.457-31.695s-31.695-48.762-31.695-80.457c0-51.2 24.381-85.333 73.143-102.4-56.076-4.876-95.086-29.257-112.152-73.143-19.505-43.886-26.819-104.838-26.819-185.295v2.438l355.962-2.438zM928.914 691.81h-251.124v248.686l251.124-248.686z" />
<glyph unicode="&#xe931;" glyph-name="home" d="M531.505 879.543c-9.752 9.752-26.819 9.752-36.571 0l-490.057-465.676c-9.752-9.752-7.314-17.067 7.314-17.067h131.657c14.629 0 24.381-12.19 24.381-24.381v-338.895c0-14.629 12.19-24.381 24.381-24.381h226.743c14.629 0 24.381 12.19 24.381 24.381v190.171c0 14.629 12.19 24.381 24.381 24.381h82.895c14.629 0 24.381-12.19 24.381-24.381v-190.171c0-14.629 12.19-24.381 24.381-24.381h229.181c14.629 0 24.381 12.19 24.381 24.381v336.457c0 14.629 12.19 24.381 24.381 24.381h131.657c14.629 0 17.067 7.314 7.314 17.067l-485.181 468.114zM887.467 445.562h-58.514c-14.629 0-24.381-12.19-24.381-24.381v-336.457c0-14.629-12.19-24.381-24.381-24.381h-126.781c-14.629 0-24.381 12.19-24.381 24.381v190.171c0 14.629-12.19 24.381-24.381 24.381h-182.857c-14.629 0-24.381-12.19-24.381-24.381v-190.171c0-14.629-12.19-24.381-24.381-24.381h-129.219c-14.629 0-24.381 12.19-24.381 24.381v336.457c0 14.629-12.19 24.381-24.381 24.381h-58.514c-14.629 0-17.067 7.314-7.314 17.067l365.714 348.648c9.752 9.752 26.819 9.752 36.571 0l365.714-348.648c7.314-9.752 4.876-17.067-9.752-17.067z" />
<glyph unicode="&#xe932;" glyph-name="onoff" d="M928.914 352.914c0-231.619-187.733-416.914-416.914-416.914s-416.914 185.295-416.914 416.914c0 195.048 134.095 358.4 314.514 402.286v-126.781c-41.448-14.629-78.019-39.010-107.276-68.267-53.638-53.638-85.333-126.781-85.333-207.238s31.695-153.6 85.333-207.238c53.638-53.638 126.781-85.333 207.238-85.333s153.6 31.695 207.238 85.333c53.638 53.638 85.333 126.781 85.333 207.238s-31.695 153.6-85.333 207.238c-29.257 29.257-65.829 53.638-107.276 68.267v126.781c185.295-46.324 319.39-209.676 319.39-402.286zM451.048 448c0-34.133 26.819-60.952 60.952-60.952v0c34.133 0 60.952 26.819 60.952 60.952v451.048c0 34.133-26.819 60.952-60.952 60.952v0c-34.133 0-60.952-26.819-60.952-60.952v-451.048z" />
<glyph unicode="&#xe933;" glyph-name="burger" d="M0 813.714h1024v-158.476h-1024v158.476zM0 523.581h1024v-153.6h-1024v153.6zM0 233.448h1024v-153.6h-1024v153.6z" />
<glyph unicode="&#xe934;" glyph-name="24" d="M850.895 238.324l97.524-56.076c17.067 26.819 29.257 56.076 41.448 85.333l-104.838 41.448c-7.314-24.381-19.505-48.762-34.133-70.705zM512 48.152c-219.429 0-399.848 180.419-399.848 399.848s180.419 399.848 399.848 399.848c114.59 0 216.99-48.762 290.133-126.781l-102.4-85.333 295.010-48.762-7.314 285.257-97.524-80.457c-92.648 104.838-229.181 168.229-377.905 168.229-282.819 0-512-229.181-512-512s229.181-512 512-512c78.019 0 151.162 17.067 216.99 48.762l-65.829 95.086c-46.324-19.505-97.524-31.695-151.162-31.695zM1024 479.695h-112.152c0-9.752 2.438-21.943 2.438-31.695v0c0-19.505-2.438-36.571-4.876-56.076l112.152-17.067c2.438 24.381 4.876 48.762 4.876 73.143-2.438 9.752-2.438 21.943-2.438 31.695zM741.181 121.295l70.705-87.771c29.257 19.505 53.638 43.886 78.019 68.267l-85.333 73.143c-19.505-19.505-41.448-36.571-63.39-53.638zM482.743 357.79v-56.076h-212.114c2.438 21.943 9.752 41.448 19.505 60.952 12.19 19.505 34.133 43.886 68.267 75.581 26.819 24.381 43.886 41.448 51.2 51.2 7.314 12.19 12.19 24.381 12.19 36.571 0 14.629-2.438 24.381-9.752 31.695s-17.067 9.752-29.257 9.752c-12.19 0-21.943-4.876-29.257-12.19s-12.19-19.505-12.19-39.010l-60.952 4.876c2.438 34.133 14.629 56.076 34.133 70.705s43.886 21.943 70.705 21.943c31.695 0 56.076-7.314 73.143-24.381s26.819-36.571 26.819-63.39c0-14.629-2.438-26.819-7.314-41.448-4.876-12.19-12.19-26.819-24.381-41.448-7.314-9.752-19.505-21.943-39.010-41.448-19.505-17.067-31.695-29.257-36.571-34.133s-9.752-12.19-12.19-17.067h117.029zM641.219 301.714v63.39h-129.219v53.638l136.533 199.924h51.2v-199.924h39.010v-53.638h-39.010v-63.39h-58.514zM641.219 418.743v107.276l-73.143-107.276h73.143z" />
<glyph unicode="&#xe935;" glyph-name="map-plus-rounded-01" d="M899.657 594.286c0-65.829-14.629-136.533-41.448-207.238-29.257-70.705-58.514-131.657-92.648-180.419s-73.143-95.086-117.029-143.848c-43.886-46.324-75.581-78.019-92.648-92.648-19.505-14.629-34.133-26.819-43.886-34.133l-39.010 31.695c-26.819 21.943-58.514 56.076-97.524 97.524-36.571 41.448-75.581 90.21-112.152 141.41s-70.705 112.152-97.524 182.857c-26.819 70.705-39.010 138.971-39.010 204.8 0 102.4 41.448 190.171 121.905 260.876s168.229 104.838 263.314 104.838c95.086 0 182.857-34.133 263.314-104.838 82.895-70.705 124.343-158.476 124.343-260.876zM677.79 448c46.324 46.324 68.267 102.4 68.267 168.229 0 63.39-21.943 119.467-68.267 165.79s-102.4 68.267-168.229 68.267c-63.39 0-119.467-21.943-165.79-68.267s-68.267-102.4-68.267-165.79c0-65.829 21.943-121.905 68.267-168.229s102.4-68.267 165.79-68.267c65.829-2.438 121.905 21.943 168.229 68.267zM570.514 686.933h78.019v-119.467h-78.019v-80.457h-119.467v80.457h-78.019v119.467h78.019v78.019h119.467v-78.019z" />
<glyph unicode="&#xe936;" glyph-name="maletin" d="M897.219 672.305h-153.6l-26.819 129.219c-7.314 34.133-41.448 63.39-75.581 63.39h-258.438c-34.133 0-70.705-29.257-75.581-63.39l-26.819-129.219h-153.6c-70.705 0-126.781-58.514-126.781-126.781v-385.219c0-70.705 58.514-126.781 126.781-126.781h768c70.705 0 126.781 58.514 126.781 126.781v382.781c2.438 70.705-56.076 129.219-124.343 129.219zM370.59 789.333l14.629 12.19h256l12.19-12.19 24.381-117.029h-331.581l24.381 117.029zM704.61 287.086h-126.781v-126.781h-126.781v126.781h-126.781v129.219h126.781v126.781h126.781v-126.781h126.781v-129.219z" />
<glyph unicode="&#xe937;" glyph-name="chat-dialog" d="M897.219 640.61h-63.39v-63.39c0-97.524-92.648-192.61-192.61-192.61h-292.571l-90.21-90.21v-36.571c0-63.39 63.39-129.219 126.781-129.219h319.39l192.61-192.61v192.61c63.39 0 126.781 63.39 126.781 129.219v253.562c0 65.829-63.39 129.219-126.781 129.219zM319.39 448h319.39c63.39 0 126.781 63.39 126.781 126.781v256c0 63.39-63.39 129.219-126.781 129.219h-512c-63.39 0-126.781-63.39-126.781-129.219v-256c0-63.39 63.39-126.781 129.219-126.781v-192.61l190.171 192.61z" />
<glyph unicode="&#xe938;" glyph-name="chat-square" d="M558.324 167.619h-373.029c-92.648 0-185.295 92.648-185.295 185.295v375.467c0 92.648 92.648 185.295 185.295 185.295h650.971c92.648 0 185.295-92.648 185.295-185.295v-373.029c0-92.648-92.648-185.295-185.295-185.295v-185.295l-277.943 182.857z" />
<glyph unicode="&#xe939;" glyph-name="sheet-edit" d="M741.181 401.676l92.648 92.648v-199.924c0-70.705-39.010-146.286-117.029-229.181-80.457-80.457-158.476-119.467-236.495-119.467h-451.048c-19.505 0-29.257 9.752-29.257 29.257v899.657c0 7.314 2.438 14.629 7.314 19.505 7.314 7.314 14.629 9.752 21.943 9.752h658.286c7.314 0 14.629-2.438 17.067-4.876 0-4.876-2.438-9.752-7.314-14.629l-48.762-53.638c-19.505-14.629-36.571-21.943-51.2-21.943h-475.429c-7.314 0-14.629-2.438-19.505-7.314-7.314-4.876-9.752-12.19-9.752-17.067v-714.362c0-7.314 2.438-14.629 7.314-19.505s12.19-7.314 19.505-7.314h358.4c26.819 0 46.324 4.876 58.514 17.067 14.629 14.629 24.381 26.819 29.257 41.448 2.438 19.505 2.438 36.571 2.438 53.638 0 4.876 0 12.19 0 17.067s-2.438 12.19-2.438 14.629c0 4.876 0 7.314 0 9.752-2.438 9.752-2.438 17.067-4.876 19.505l46.324-9.752c29.257-7.314 58.514-4.876 90.21 9.752 29.257 17.067 43.886 46.324 43.886 87.771v97.524zM185.295 348.038h177.981v65.829h-177.981v-65.829zM614.4 391.924l-192.61-43.886 46.324 192.61 146.286-148.724zM509.562 584.533l365.714 363.276 148.724-151.162-246.248-243.81-117.029-119.467-117.029 119.467-34.133 31.695z" />
<glyph unicode="&#xe93a;" glyph-name="sheet-phone" d="M499.81 145.676c-34.133-26.819-56.076-53.638-65.829-78.019h-390.095c-7.314 0-14.629 2.438-21.943 9.752s-9.752 14.629-9.752 24.381v709.486c0 7.314 2.438 14.629 9.752 21.943s14.629 9.752 21.943 9.752h80.457v-48.762c0-29.257 9.752-53.638 31.695-73.143 19.505-19.505 43.886-29.257 73.143-29.257s53.638 9.752 73.143 29.257c21.943 21.943 31.695 46.324 31.695 73.143v48.762h214.552v-48.762c0-29.257 9.752-53.638 29.257-73.143s43.886-29.257 73.143-29.257c29.257 0 53.638 9.752 73.143 29.257s29.257 43.886 29.257 73.143v48.762h78.019c7.314 0 14.629-2.438 21.943-9.752s9.752-14.629 9.752-21.943v-258.438c-24.381-9.752-51.2-36.571-85.333-78.019-34.133-53.638-46.324-99.962-34.133-138.971 4.876-21.943 24.381-46.324 56.076-70.705l7.314-7.314c0-2.438-2.438-7.314-7.314-17.067-17.067-26.819-39.010-53.638-68.267-78.019-2.438-2.438-4.876-2.438-9.752-4.876s-7.314-4.876-7.314-4.876l-2.438 2.438c-24.381 24.381-48.762 41.448-75.581 48.762l-4.876 2.438c-41.448 2.438-85.333-17.067-131.657-60.952zM192.61 762.514c-9.752 7.314-14.629 17.067-14.629 31.695v117.029c0 12.19 4.876 24.381 14.629 34.133s19.505 14.629 34.133 14.629c12.19 0 24.381-4.876 34.133-14.629 7.314-7.314 12.19-19.505 12.19-34.133v-119.467c0-12.19-4.876-24.381-14.629-31.695-9.752-9.752-19.505-14.629-34.133-14.629-12.19 2.438-21.943 7.314-31.695 17.067zM226.743 504.076h424.229v65.829h-424.229v-65.829zM648.533 384.61v63.39h-421.79v-65.829h421.79zM438.857 328.533h-212.114v-65.829h212.114v65.829zM997.181 245.638c-17.067-51.2-51.2-102.4-99.962-160.914-46.324-53.638-92.648-92.648-141.41-117.029-34.133-19.505-65.829-29.257-99.962-31.695-36.571-2.438-70.705 7.314-102.4 26.819-2.438 0-7.314 4.876-19.505 14.629l-17.067 14.629c-14.629 12.19-24.381 26.819-26.819 36.571-2.438 17.067 17.067 39.010 51.2 68.267s60.952 43.886 82.895 39.010c9.752-2.438 24.381-9.752 41.448-26.819 12.19-14.629 24.381-24.381 39.010-29.257 14.629-2.438 36.571 7.314 65.829 29.257 34.133 24.381 60.952 56.076 82.895 95.086 19.505 29.257 24.381 53.638 19.505 70.705 0 4.876-12.19 17.067-34.133 36.571-19.505 17.067-31.695 29.257-34.133 39.010-4.876 21.943 2.438 51.2 26.819 87.771 29.257 41.448 53.638 58.514 70.705 56.076 4.876 0 14.629-7.314 36.571-21.943 9.752-7.314 19.505-17.067 29.257-26.819 46.324-51.2 56.076-119.467 29.257-199.924zM599.771 794.21v117.029c0 12.19 4.876 24.381 14.629 34.133s19.505 14.629 34.133 14.629c12.19 0 24.381-4.876 31.695-14.629 9.752-9.752 14.629-19.505 14.629-34.133v-119.467c0-12.19-4.876-24.381-14.629-34.133-7.314-9.752-19.505-14.629-31.695-14.629s-24.381 4.876-34.133 14.629c-9.752 12.19-14.629 21.943-14.629 36.571z" />
<glyph unicode="&#xe93b;" glyph-name="usr-group" d="M234.057 170.057h-234.057c0 85.333 9.752 148.724 26.819 190.171 17.067 43.886 56.076 68.267 114.59 73.143-48.762 19.505-73.143 56.076-73.143 107.276-2.438 29.257 9.752 53.638 31.695 78.019 21.943 21.943 48.762 31.695 78.019 31.695s53.638-9.752 78.019-31.695c21.943-21.943 31.695-46.324 31.695-78.019 0-53.638-24.381-90.21-73.143-107.276 26.819-2.438 48.762-9.752 68.267-21.943-29.257-75.581-46.324-156.038-48.762-241.371zM385.219 533.333c-19.505 26.819-29.257 56.076-29.257 87.771 0 43.886 14.629 80.457 46.324 109.714 29.257 31.695 65.829 46.324 107.276 46.324 43.886 0 80.457-14.629 109.714-46.324 31.695-31.695 46.324-68.267 46.324-109.714 0-34.133-9.752-63.39-29.257-87.771s-43.886-43.886-73.143-53.638c51.2-4.876 90.21-24.381 119.467-53.638 4.876-7.314 12.19-19.505 19.505-39.010 7.314-17.067 17.067-51.2 29.257-104.838 9.752-51.2 14.629-107.276 14.629-165.79h-472.99c-2.438 131.657 17.067 231.619 60.952 302.324 31.695 34.133 73.143 56.076 124.343 60.952-29.257 9.752-53.638 29.257-73.143 53.638zM733.867 540.648c0 29.257 12.19 56.076 34.133 78.019 24.381 21.943 51.2 31.695 78.019 31.695 29.257 0 53.638-9.752 78.019-31.695 21.943-21.943 31.695-46.324 31.695-78.019 0-53.638-24.381-90.21-73.143-107.276 58.514-4.876 95.086-29.257 112.152-73.143s26.819-107.276 26.819-190.171h-236.495c-2.438 97.524-19.505 175.543-51.2 238.933 19.505 14.629 43.886 21.943 73.143 24.381-46.324 17.067-73.143 53.638-73.143 107.276z" />
<glyph unicode="&#xe93c;" glyph-name="arrow-down" d="M1024 633.295l-65.829 73.143-446.171-387.657-446.171 387.657-65.829-73.143 512-443.733z" />
<glyph unicode="&#xe93d;" glyph-name="recycle" d="M906.971 343.162c9.752 34.133 14.629 68.267 14.629 104.838 0 224.305-180.419 404.724-404.724 404.724-46.324 0-92.648-7.314-134.095-24.381 156.038-56.076 268.19-204.8 268.19-380.343 0-21.943-2.438-43.886-4.876-63.39l-121.905 19.505 214.552-253.562 282.819 180.419-114.59 12.19zM373.029 450.438c0 21.943 2.438 43.886 4.876 63.39l121.905-19.505-214.552 253.562-141.41-90.21-143.848-85.333 117.029-17.067c-9.752-34.133-14.629-68.267-14.629-104.838 0-224.305 180.419-404.724 404.724-404.724 46.324 0 92.648 7.314 134.095 24.381-156.038 53.638-268.19 204.8-268.19 380.343z" />
<glyph unicode="&#xe93e;" glyph-name="credit-card" d="M894.781 833.219h-768c-68.267 0-126.781-58.514-126.781-129.219v-512c0-70.705 58.514-129.219 126.781-129.219h768c70.705 0 129.219 58.514 129.219 129.219v512c0 70.705-58.514 129.219-129.219 129.219zM960.61 192c0-34.133-29.257-63.39-63.39-63.39h-770.438c-34.133 0-63.39 29.257-63.39 63.39v319.39h897.219v-319.39zM960.61 640.61h-897.219v63.39c0 34.133 29.257 63.39 63.39 63.39h768c36.571 0 63.39-29.257 63.39-63.39v-63.39zM126.781 448h385.219v-63.39h-385.219v63.39zM126.781 321.219h129.219v-63.39h-129.219v63.39zM704.61 448h192.61v-126.781h-192.61v126.781z" />
<glyph unicode="&#xe93f;" glyph-name="sms" d="M870.4 799.086c102.4-82.895 153.6-185.295 153.6-307.2 0-138.971-65.829-253.562-199.924-341.333-131.657-90.21-292.571-112.152-482.743-65.829-73.143-43.886-187.733-80.457-341.333-109.714 58.514 117.029 87.771 209.676 85.333 275.505-56.076 68.267-85.333 148.724-85.333 241.371 0 121.905 51.2 224.305 151.162 307.2 102.4 82.895 221.867 124.343 360.838 124.343 136.533 0 256-41.448 358.4-124.343zM355.962 433.371c0 19.505-4.876 31.695-14.629 41.448-9.752 12.19-26.819 21.943-46.324 29.257-17.067 4.876-29.257 9.752-36.571 14.629-12.19 12.19-12.19 21.943 2.438 31.695 4.876 4.876 14.629 4.876 24.381 4.876 17.067 0 34.133-4.876 48.762-12.19l12.19 43.886c-19.505 7.314-39.010 12.19-60.952 12.19-26.819 0-48.762-7.314-65.829-19.505-14.629-12.19-24.381-29.257-24.381-48.762 0-31.695 21.943-56.076 65.829-68.267 17.067-7.314 26.819-12.19 29.257-14.629 14.629-12.19 14.629-24.381 0-36.571-7.314-4.876-17.067-4.876-26.819-4.876-19.505 0-39.010 4.876-60.952 14.629l-7.314-43.886c21.943-9.752 43.886-14.629 65.829-14.629 29.257 0 51.2 7.314 68.267 19.505s26.819 29.257 26.819 51.2zM648.533 365.105l-14.629 229.181h-70.705l-48.762-158.476-41.448 158.476h-70.705l-14.629-229.181h48.762l7.314 185.295h2.438l46.324-180.419h41.448c26.819 85.333 46.324 146.286 56.076 180.419h2.438c0-63.39 2.438-124.343 4.876-185.295h51.2zM841.143 433.371c0 19.505-4.876 31.695-14.629 43.886-7.314 9.752-24.381 19.505-46.324 26.819-21.943 9.752-34.133 14.629-36.571 17.067-12.19 9.752-12.19 19.505 2.438 29.257 4.876 4.876 14.629 4.876 24.381 4.876s29.257-4.876 48.762-12.19l14.629 43.886h-2.438c-21.943 9.752-41.448 14.629-60.952 14.629-26.819 0-48.762-7.314-65.829-21.943-17.067-12.19-24.381-29.257-24.381-48.762 0-31.695 21.943-56.076 65.829-70.705 14.629-4.876 24.381-7.314 29.257-14.629 14.629-12.19 14.629-21.943 0-34.133-4.876-4.876-14.629-4.876-26.819-4.876-21.943 0-41.448 4.876-58.514 14.629l-12.19-46.324c19.505-9.752 41.448-14.629 68.267-14.629 31.695 0 53.638 7.314 68.267 19.505 19.505 14.629 26.819 31.695 26.819 53.638z" />
<glyph unicode="&#xe940;" glyph-name="envelope" d="M1024 689.371v-621.714h-1024v621.714l512-424.229 512 424.229zM1024 828.343h-1021.562l512-421.79 509.562 421.79z" />
<glyph unicode="&#xe941;" glyph-name="gear-round" d="M1024 516.267v-138.971l-73.143-26.819c-29.257-9.752-51.2-29.257-63.39-58.514-12.19-26.819-12.19-56.076 2.438-87.771l34.133-70.705-97.524-97.524-70.705 34.133c-31.695 12.19-58.514 14.629-85.333 2.438h-2.438c-29.257-12.19-51.2-34.133-58.514-63.39l-26.819-73.143h-138.971l-26.819 73.143c-9.752 29.257-29.257 51.2-58.514 63.39-26.819 12.19-56.076 12.19-87.771-2.438l-70.705-34.133-97.524 97.524 34.133 70.705c14.629 26.819 14.629 56.076 2.438 87.771-12.19 29.257-34.133 48.762-60.952 58.514l-78.019 29.257v138.971l75.581 26.819c26.819 9.752 48.762 29.257 60.952 58.514s12.19 58.514-2.438 87.771l-31.695 70.705 97.524 97.524 70.705-34.133c26.819-14.629 56.076-14.629 87.771-2.438 29.257 12.19 48.762 34.133 58.514 60.952l26.819 75.581h138.971l26.819-75.581c9.752-26.819 29.257-48.762 58.514-60.952 31.695-12.19 58.514-12.19 87.771 2.438l70.705 34.133 97.524-97.524-34.133-70.705c-12.19-31.695-14.629-58.514-2.438-87.771s34.133-51.2 63.39-58.514l73.143-29.257zM746.057 448c0 65.829-24.381 121.905-70.705 170.667-48.762 48.762-104.838 70.705-170.667 70.705s-121.905-24.381-170.667-70.705c-48.762-48.762-70.705-104.838-70.705-170.667s24.381-121.905 70.705-170.667c48.762-48.762 104.838-70.705 170.667-70.705s121.905 24.381 170.667 70.705c46.324 48.762 70.705 104.838 70.705 170.667z" />
<glyph unicode="&#xe942;" glyph-name="alert-round" d="M512 960c-282.819 0-512-229.181-512-512s229.181-512 512-512c282.819 0 512 229.181 512 512s-229.181 512-512 512zM512 735.695c29.257 0 53.638-24.381 53.638-53.638l-14.629-346.21c0-31.695-19.505-48.762-39.010-48.762s-36.571 17.067-36.571 48.762l-17.067 343.771c0 31.695 24.381 56.076 53.638 56.076zM512 128.61c-29.257 0-56.076 24.381-56.076 56.076 0 29.257 24.381 56.076 56.076 56.076 29.257 0 56.076-24.381 56.076-56.076s-26.819-56.076-56.076-56.076z" />
<glyph unicode="&#xe943;" glyph-name="cel" d="M809.448 938.057c14.629-14.629 21.943-31.695 21.943-53.638v-872.838c0-21.943-7.314-39.010-21.943-53.638s-34.133-21.943-53.638-21.943h-487.619c-21.943 0-39.010 7.314-53.638 21.943s-21.943 34.133-21.943 53.638v872.838c0 21.943 7.314 39.010 21.943 53.638s31.695 21.943 53.638 21.943h487.619c19.505 0 39.010-7.314 53.638-21.943zM772.876 764.952h-524.19v-633.905h521.752v633.905zM558.324 33.524c0 12.19-4.876 24.381-14.629 34.133s-19.505 14.629-34.133 14.629c-12.19 0-24.381-4.876-34.133-14.629-7.314-7.314-12.19-19.505-12.19-34.133s4.876-26.819 14.629-36.571c9.752-7.314 21.943-12.19 34.133-12.19s24.381 4.876 34.133 14.629c9.752 9.752 12.19 21.943 12.19 34.133z" />
<glyph unicode="&#xe944;" glyph-name="despertador" d="M29.257 652.8c-19.505 29.257-29.257 65.829-29.257 102.4 0 56.076 19.505 104.838 60.952 143.848 39.010 41.448 87.771 60.952 143.848 60.952 36.571 0 73.143-9.752 104.838-26.819-131.657-58.514-224.305-151.162-280.381-280.381zM916.724-37.181c2.438-7.314 0-14.629-4.876-21.943-7.314-7.314-14.629-7.314-21.943 0l-163.352 107.276c-68.267-36.571-138.971-53.638-214.552-53.638s-146.286 17.067-214.552 53.638c-19.505-12.19-48.762-31.695-87.771-58.514s-65.829-43.886-75.581-48.762c-7.314-7.314-14.629-7.314-21.943 0s-9.752 14.629-4.876 21.943l70.705 180.419c-78.019 87.771-117.029 190.171-117.029 304.762 0 124.343 43.886 229.181 131.657 316.952s195.048 131.657 319.39 131.657c124.343 0 231.619-43.886 319.39-131.657s131.657-192.61 131.657-316.952c0-114.59-39.010-214.552-117.029-302.324l70.705-182.857zM848.457 448c0 92.648-31.695 173.105-99.962 238.933-65.829 65.829-146.286 99.962-238.933 99.962s-173.105-34.133-238.933-99.962c-65.829-65.829-99.962-146.286-99.962-238.933 0-95.086 34.133-175.543 99.962-241.371s146.286-99.962 238.933-99.962c92.648 0 173.105 34.133 238.933 99.962 68.267 65.829 99.962 146.286 99.962 241.371zM721.676 448h-192.61v219.429h-90.21v-309.638h280.381v90.21zM714.362 933.181c31.695 17.067 68.267 26.819 102.4 26.819 56.076 0 104.838-19.505 146.286-60.952 39.010-39.010 60.952-87.771 60.952-143.848 0-39.010-9.752-73.143-26.819-104.838-58.514 131.657-151.162 224.305-282.819 282.819z" />
<glyph unicode="&#xe945;" glyph-name="pharmaceutics-sheet" d="M928.914 691.81h-251.124v248.686zM541.257 233.448c7.314 4.876 12.19 12.19 12.19 17.067v2.438c0 0 0 2.438 0 2.438s0 2.438 0 2.438c0 0 0 2.438 0 4.876l-2.438 4.876-4.876 4.876c-2.438 2.438-4.876 2.438-7.314 4.876 0 0-4.876 2.438-9.752 4.876v-60.952c0 4.876 4.876 9.752 12.19 12.19zM899.657 623.543h-277.943c-19.505 0-29.257 9.752-29.257 29.257v277.943c0 19.505-9.752 29.257-31.695 29.257h-433.981c-21.943 0-31.695-9.752-31.695-29.257v-963.048c0-9.752 2.438-17.067 9.752-24.381 4.876-4.876 12.19-7.314 21.943-7.314h772.876c19.505 0 29.257 9.752 29.257 31.695v624.152c0 21.943-9.752 31.695-29.257 31.695zM731.429 435.81c-2.438-4.876-7.314-9.752-17.067-14.629-9.752-2.438-19.505-4.876-29.257-2.438l-4.876-4.876c-4.876-2.438-9.752-4.876-17.067-4.876-7.314-2.438-14.629 0-26.819 2.438l-4.876-2.438c-2.438-2.438-7.314-2.438-14.629-4.876-7.314 0-14.629 2.438-24.381 4.876h-7.314c-2.438-2.438-7.314-2.438-14.629-4.876-4.876 0-12.19 2.438-19.505 4.876l-2.438-2.438c-2.438-2.438-4.876-4.876-9.752-4.876-2.438 0-7.314 0-12.19 0v-75.581h2.438l46.324 12.19c29.257 7.314 48.762 14.629 51.2 21.943v0c-2.438 0-4.876 2.438-9.752 2.438-14.629 2.438-26.819 2.438-31.695 2.438-17.067 0-24.381 0-26.819 0h-4.876c0 0-2.438 0-2.438 2.438-2.438 0-2.438 2.438-4.876 2.438-2.438 2.438-4.876 4.876-4.876 9.752v0c0 4.876 4.876 9.752 14.629 9.752 0 0 2.438 0 7.314 0s7.314 0 12.19 0c4.876 0 12.19 0 19.505 0 14.629 0 24.381-2.438 31.695-2.438s14.629-4.876 24.381-7.314c9.752-4.876 14.629-12.19 17.067-19.505v-2.438c0-7.314-4.876-14.629-12.19-19.505s-17.067-9.752-29.257-14.629c-14.629-4.876-26.819-9.752-31.695-9.752-9.752-2.438-21.943-4.876-36.571-7.314 14.629-9.752 21.943-21.943 26.819-41.448 2.438-19.505-14.629-39.010-46.324-56.076 29.257-19.505 43.886-39.010 41.448-56.076-2.438-21.943-19.505-41.448-46.324-56.076l4.876 9.752c4.876 9.752 9.752 17.067 12.19 21.943 2.438 7.314 4.876 14.629 4.876 19.505 2.438 12.19-7.314 24.381-26.819 41.448v-60.952c0-4.876-2.438-9.752-9.752-9.752-4.876 0-9.752 2.438-9.752 9.752v65.829c-21.943-17.067-31.695-31.695-29.257-43.886 0-12.19 9.752-29.257 21.943-51.2-29.257 14.629-43.886 31.695-48.762 56.076 0 17.067 14.629 36.571 41.448 56.076-34.133 19.505-48.762 36.571-46.324 56.076s12.19 31.695 26.819 41.448c-17.067 4.876-29.257 7.314-36.571 7.314-12.19 2.438-21.943 7.314-31.695 9.752-12.19 4.876-21.943 9.752-29.257 14.629-7.314 7.314-9.752 14.629-9.752 19.505v2.438c2.438 7.314 7.314 14.629 17.067 19.505s17.067 7.314 24.381 7.314c7.314 0 19.505 2.438 31.695 2.438 4.876 0 7.314 0 12.19 0 2.438 0 4.876 0 7.314 0h2.438c2.438 0 7.314 0 9.752 0 4.876 0 7.314 0 7.314 0 7.314-2.438 12.19-4.876 14.629-9.752v0c-2.438-4.876-4.876-7.314-4.876-9.752-2.438 0-4.876-2.438-7.314-2.438h-29.257c-4.876 0-14.629-2.438-31.695-2.438-4.876 0-7.314-2.438-9.752-2.438 0 0 0 0-2.438 0 4.876-7.314 21.943-14.629 53.638-21.943 21.943-4.876 39.010-9.752 46.324-12.19 0 0 0 0 2.438 0h2.438v75.581c-4.876 0-9.752 0-12.19 0s-4.876 2.438-9.752 2.438c-2.438 0-2.438 2.438-2.438 2.438-4.876-4.876-12.19-7.314-19.505-4.876-4.876 0-9.752 2.438-14.629 4.876-2.438 0-2.438 2.438-4.876 2.438-9.752-4.876-17.067-7.314-24.381-4.876-7.314 0-12.19 2.438-14.629 2.438s-4.876 2.438-4.876 2.438c-9.752-4.876-19.505-7.314-26.819-4.876-9.752 2.438-17.067 4.876-17.067 4.876l-7.314 4.876c-9.752-2.438-19.505-2.438-29.257 2.438s-14.629 9.752-14.629 12.19c-2.438 2.438-4.876 7.314-4.876 9.752 14.629 0 31.695 2.438 48.762 7.314 19.505 7.314 31.695 14.629 39.010 21.943 9.752 7.314 21.943 17.067 31.695 26.819 7.314 7.314 14.629 12.19 17.067 17.067 12.19 9.752 24.381 4.876 39.010-17.067 7.314-12.19 17.067-17.067 34.133-17.067v2.438c-12.19 4.876-17.067 14.629-17.067 29.257 0 9.752 2.438 17.067 9.752 21.943 7.314 7.314 14.629 9.752 21.943 9.752 9.752 0 17.067-2.438 21.943-9.752 7.314-7.314 9.752-14.629 9.752-21.943 0-12.19-4.876-21.943-17.067-29.257v-2.438c14.629 0 26.819 4.876 34.133 17.067s12.19 19.505 19.505 21.943c7.314 2.438 12.19 0 19.505-4.876 2.438 0 7.314-4.876 12.19-12.19l24.381-19.505c9.752-7.314 19.505-14.629 29.257-19.505 9.752-7.314 21.943-12.19 34.133-14.629 12.19-4.876 24.381-4.876 39.010-4.876l-26.819-9.752zM470.552 250.514c0-7.314 2.438-12.19 12.19-17.067 12.19-7.314 17.067-9.752 19.505-12.19v63.39c-21.943-7.314-31.695-19.505-31.695-34.133z" />
<glyph unicode="&#xe946;" glyph-name="user-add-circle" d="M526.629 321.219c-39.010-51.2-56.076-107.276-56.076-170.667 0-29.257 4.876-56.076 12.19-80.457h-429.105v-4.876c0 73.143 2.438 134.095 9.752 185.295 7.314 48.762 17.067 97.524 34.133 146.286s43.886 85.333 80.457 109.714c36.571 26.819 82.895 41.448 141.41 46.324-41.448 14.629-73.143 41.448-99.962 75.581-26.819 36.571-39.010 75.581-39.010 121.905 0 58.514 19.505 107.276 63.39 148.724 41.448 41.448 90.21 60.952 148.724 60.952s107.276-19.505 148.724-60.952c41.448-41.448 60.952-90.21 60.952-148.724 0-43.886-12.19-85.333-36.571-121.905s-58.514-60.952-99.962-75.581c97.524-9.752 168.229-51.2 207.238-129.219-58.514-17.067-107.276-51.2-146.286-102.4zM755.81-64c-58.514 0-109.714 21.943-151.162 63.39s-63.39 92.648-63.39 151.162c0 58.514 21.943 109.714 63.39 151.162s92.648 63.39 151.162 63.39c58.514 0 109.714-21.943 151.162-63.39s63.39-92.648 63.39-151.162c0-58.514-21.943-109.714-63.39-151.162s-92.648-63.39-151.162-63.39zM887.467 109.105v80.457h-92.648l2.438 90.21h-80.457v-90.21h-90.21v-80.457h90.21v-90.21h80.457v90.21h90.21z" />
<glyph unicode="&#xe947;" glyph-name="call-end" d="M85.333 238.324l9.752-2.438c31.695-9.752 175.543 82.895 182.857 92.648l7.314 9.752c9.752 19.505 9.752 51.2 9.752 121.905 58.514 26.819 163.352 41.448 219.429 43.886 60.952 2.438 153.6-9.752 207.238-31.695 2.438-78.019 2.438-112.152 21.943-129.219 9.752-9.752 156.038-97.524 187.733-85.333l9.752 2.438c21.943 7.314 53.638 17.067 68.267 43.886 4.876 7.314 7.314 14.629 7.314 21.943 2.438 24.381 9.752 87.771-12.19 136.533-12.19 29.257-212.114 207.238-514.438 199.924-297.448-7.314-463.238-187.733-480.305-219.429v0l-2.438-2.438c-19.505-48.762-9.752-112.152-4.876-136.533 12.19-48.762 58.514-60.952 82.895-65.829z" />
<glyph unicode="&#xe948;" glyph-name="call-start" d="M963.048 162.743l-4.876 12.19c-17.067 36.571-212.114 95.086-226.743 95.086h-12.19c-26.819-4.876-56.076-31.695-117.029-85.333-70.705 29.257-165.79 117.029-212.114 165.79-48.762 53.638-109.714 146.286-131.657 214.552 70.705 63.39 99.962 90.21 102.4 119.467 0 17.067-31.695 216.99-68.267 236.495l-9.752 7.314c-21.943 14.629-56.076 36.571-95.086 29.257-7.314 0-17.067-4.876-24.381-9.752-24.381-17.067-87.771-58.514-114.59-114.59-17.067-34.133-24.381-353.524 214.552-624.152 236.495-268.19 529.067-277.943 572.952-270.629v0h4.876c58.514 21.943 109.714 78.019 129.219 99.962 31.695 43.886 7.314 95.086-7.314 124.343z" />
<glyph unicode="&#xe949;" glyph-name="video-cam" d="M641.219 799.086h-577.829c-34.133 0-63.39-26.819-63.39-63.39v-575.39c0-34.133 29.257-63.39 63.39-63.39h575.39c34.133 0 63.39 29.257 63.39 63.39v575.39c2.438 36.571-26.819 63.39-60.952 63.39zM970.362 689.371l-119.467-70.705c-24.381-14.629-58.514-34.133-82.895-48.762v-238.933c24.381-14.629 58.514-34.133 82.895-48.762l117.029-70.705c31.695-21.943 56.076-7.314 56.076 29.257v419.352c0 34.133-24.381 48.762-53.638 29.257z" />
<glyph unicode="&#xe94a;" glyph-name="cam-rss" d="M685.105 650.362c-29.257 0-53.638-24.381-53.638-53.638s24.381-53.638 53.638-53.638c29.257 0 53.638 24.381 53.638 53.638-2.438 29.257-24.381 53.638-53.638 53.638zM636.343 803.962v-68.267c48.762 0 95.086-19.505 129.219-56.076 34.133-34.133 53.638-80.457 56.076-129.219h68.267c-2.438 138.971-114.59 251.124-253.562 253.562zM636.343 938.057v-68.267c175.543-2.438 316.952-143.848 319.39-319.39h68.267c-2.438 212.114-175.543 385.219-387.657 387.657zM490.057 496.762h-441.295c-26.819 0-48.762-21.943-48.762-48.762v-441.295c0-26.819 21.943-48.762 48.762-48.762h441.295c26.819 0 48.762 21.943 48.762 48.762v441.295c0 26.819-21.943 48.762-48.762 48.762zM741.181 413.867l-90.21-53.638c-19.505-12.19-43.886-26.819-63.39-39.010v-182.857c19.505-12.19 43.886-26.819 63.39-39.010l90.21-53.638c21.943-14.629 41.448-2.438 41.448 24.381v319.39c0 26.819-17.067 36.571-41.448 24.381z" />
<glyph unicode="&#xe94b;" glyph-name="video-sheet" d="M833.829 962.438h-287.695c-17.067 0-31.695-14.629-31.695-31.695v-287.695c0-17.067 14.629-31.695 31.695-31.695h285.257c17.067 0 31.695 14.629 31.695 31.695v287.695c2.438 17.067-12.19 31.695-29.257 31.695zM997.181 906.362l-58.514-34.133c-12.19-7.314-29.257-17.067-41.448-24.381v-119.467c12.19-7.314 29.257-17.067 41.448-24.381l58.514-34.133c14.629-9.752 26.819-2.438 26.819 14.629v207.238c0 17.067-12.19 24.381-26.819 14.629zM738.743 565.029h-256c-17.067 0-26.819 9.752-26.819 26.819v256c0 17.067-9.752 26.819-29.257 26.819h-397.41c-19.505 0-29.257-9.752-29.257-26.819v-885.029c0-7.314 2.438-14.629 9.752-21.943 4.876-4.876 12.19-7.314 19.505-7.314h709.486c17.067 0 26.819 9.752 26.819 29.257v572.952c0 19.505-7.314 29.257-26.819 29.257zM234.057 65.219c0-9.752-7.314-19.505-19.505-19.505h-56.076c-9.752 0-19.505 7.314-19.505 19.505v53.638c0 9.752 7.314 19.505 19.505 19.505h56.076c9.752 0 19.505-7.314 19.505-19.505v-53.638zM234.057 221.257c0-9.752-7.314-19.505-19.505-19.505h-56.076c-9.752 0-19.505 7.314-19.505 19.505v56.076c0 9.752 7.314 19.505 19.505 19.505h56.076c9.752 0 19.505-7.314 19.505-19.505v-56.076zM234.057 377.295c0-9.752-7.314-19.505-19.505-19.505h-56.076c-9.752 0-19.505 7.314-19.505 19.505v53.638c0 9.752 7.314 19.505 19.505 19.505h56.076c9.752 0 19.505-7.314 19.505-19.505v-53.638zM624.152 67.657h-348.648v51.2h348.648v-51.2zM624.152 223.695h-348.648v51.2h348.648v-51.2zM624.152 379.733h-348.648v51.2h348.648v-51.2z" />
<glyph unicode="&#xe94c;" glyph-name="photo" d="M0 960v-1024h1024v1024h-1024zM960.61-0.61h-897.219v897.219h894.781v-897.219zM129.219 830.781h768v-638.781h-768v638.781z" />
<glyph unicode="&#xe94d;" glyph-name="usr-like" d="M594.895 406.552c39.010-26.819 68.267-65.829 85.333-117.029s29.257-102.4 36.571-156.038c4.876-51.2 9.752-117.029 9.752-197.486h-716.8c0 78.019 2.438 143.848 9.752 197.486 4.876 51.2 17.067 104.838 36.571 156.038 17.067 51.2 46.324 90.21 85.333 117.029s87.771 43.886 148.724 48.762c-43.886 17.067-78.019 43.886-104.838 80.457-26.819 39.010-41.448 80.457-41.448 126.781 0 63.39 21.943 117.029 65.829 160.914s97.524 65.829 158.476 65.829c60.952 0 114.59-21.943 158.476-65.829s65.829-97.524 65.829-160.914c0-46.324-14.629-90.21-41.448-126.781s-63.39-65.829-104.838-80.457c60.952-4.876 109.714-21.943 148.724-48.762zM1014.248 862.476c0-26.819-9.752-56.076-26.819-90.21-17.067-31.695-36.571-60.952-58.514-82.895-19.505-21.943-41.448-46.324-65.829-70.705s-39.010-39.010-41.448-43.886c-2.438 2.438-14.629 14.629-39.010 36.571s-41.448 41.448-56.076 56.076c-14.629 14.629-31.695 34.133-48.762 58.514-19.505 24.381-34.133 46.324-43.886 68.267s-14.629 43.886-14.629 65.829c0 26.819 9.752 48.762 29.257 68.267 19.505 21.943 43.886 31.695 70.705 31.695s48.762-9.752 68.267-29.257c19.505-19.505 29.257-41.448 29.257-68.267 0 26.819 9.752 48.762 29.257 68.267s41.448 29.257 68.267 29.257c26.819 0 48.762-9.752 68.267-29.257 21.943-19.505 31.695-41.448 31.695-68.267z" />
</font>
</defs>
</svg>
