<?xml version="1.0" encoding="utf-8"?>
<!-- Generator: Adobe Illustrator 18.0.0, SVG Export Plug-In . SVG Version: 6.00 Build 0)  -->
<!DOCTYPE svg PUBLIC "-//W3C//DTD SVG 1.1//EN" "http://www.w3.org/Graphics/SVG/1.1/DTD/svg11.dtd">
<svg version="1.1" id="Layer_1" xmlns="http://www.w3.org/2000/svg" xmlns:xlink="http://www.w3.org/1999/xlink" x="0px" y="0px"
	 viewBox="0 0 250 270" enable-background="new 0 0 250 270" xml:space="preserve">
<g>
	<g opacity="0.63">
		<path fill="#575757" d="M56.8,40.9c2.3,0,4.5-0.5,6.6-1.3l11.2,1.9l-2.9-9.3c0,0,0-0.1,0-0.1c0.2-0.3,0.3-0.6,0.5-1
			c0,0,0-0.1,0-0.1c0.1-0.3,0.3-0.6,0.4-0.9c0-0.1,0.1-0.2,0.1-0.3c0.1-0.3,0.2-0.7,0.4-1c0,0,0,0,0,0l0,0c0.5-1.6,0.8-3.3,0.8-5.1
			c0-9.4-7.6-17.1-17.1-17.1c-9.4,0-17.1,7.6-17.1,17.1C39.8,33.3,47.4,40.9,56.8,40.9z"/>
		<path fill="#575757" d="M232.6,125.9c0.1-0.1,0.2-0.2,0.3-0.4c0.2-0.2,0.4-0.5,0.6-0.7c0.1-0.1,0.2-0.3,0.3-0.4
			c0.1-0.2,0.2-0.3,0.4-0.5c0.1-0.1,0.2-0.3,0.3-0.4c0.1-0.2,0.2-0.3,0.3-0.5c0.1-0.1,0.2-0.3,0.3-0.4c0.1-0.2,0.2-0.3,0.3-0.5
			c0.1-0.1,0.2-0.3,0.3-0.4c0.2-0.3,0.3-0.6,0.5-0.9c0.1-0.1,0.2-0.3,0.2-0.4c0.1-0.2,0.2-0.3,0.3-0.5c0.1-0.2,0.2-0.3,0.2-0.5
			c0.1-0.2,0.2-0.3,0.2-0.5c0.1-0.2,0.1-0.3,0.2-0.5c0.1-0.2,0.1-0.3,0.2-0.5c0.1-0.2,0.1-0.3,0.2-0.5c0.1-0.2,0.1-0.4,0.2-0.6
			c0.8-2.4,1.2-5,1.2-7.7c0-13.5-11-24.5-24.5-24.5c-11.2,0-20.7,7.6-23.6,17.9l-16.1,4.2l16.1,9.2c0.4,1.5,1,3,1.7,4.3
			c-5.7,0.3-10.6,3.5-13.2,8.1l-15.2,1.8l13.1,6.2c0,0,0,0,0,0.1c0,9,7.3,16.3,16.3,16.3c9,0,16.2-7.3,16.2-16.3
			c0-1.2-0.1-2.3-0.4-3.4c1.6,0.3,3.3,0.5,5.1,0.5c0.4,0,0.8,0,1.2,0c0.1,0,0.2,0,0.4,0c0.3,0,0.5,0,0.8-0.1c0.1,0,0.3,0,0.4,0
			c0.3,0,0.5-0.1,0.8-0.1c0.1,0,0.3,0,0.4-0.1c0.3,0,0.6-0.1,0.9-0.2c0.1,0,0.1,0,0.2,0c0.4-0.1,0.7-0.2,1.1-0.3
			c0.1,0,0.2-0.1,0.3-0.1c0.3-0.1,0.5-0.1,0.8-0.2c0.1,0,0.3-0.1,0.4-0.1c0.2-0.1,0.5-0.1,0.7-0.2c0.1,0,0.3-0.1,0.4-0.1
			c0.2-0.1,0.5-0.2,0.7-0.3c0.1,0,0.2-0.1,0.3-0.1c0.3-0.1,0.7-0.3,1-0.4c0.1,0,0.2-0.1,0.3-0.1c0.2-0.1,0.5-0.2,0.7-0.4
			c0.1-0.1,0.2-0.1,0.4-0.2c0.2-0.1,0.4-0.2,0.6-0.3c0.1-0.1,0.3-0.2,0.4-0.2c0.2-0.1,0.4-0.2,0.6-0.4c0.1-0.1,0.2-0.2,0.3-0.2
			c0.2-0.2,0.5-0.3,0.7-0.5c0.1-0.1,0.2-0.2,0.3-0.2c0.2-0.2,0.4-0.3,0.6-0.5c0.1-0.1,0.2-0.2,0.3-0.3c0.2-0.1,0.3-0.3,0.5-0.4
			c0.1-0.1,0.2-0.2,0.4-0.3c0.1-0.1,0.3-0.3,0.4-0.4c0.1-0.1,0.2-0.2,0.3-0.3C232.3,126.2,232.5,126,232.6,125.9z"/>
		<path fill="#575757" d="M64.8,166.2c0-3.2-1-6.2-2.7-8.7l4.1-8.6l-10.6,3.2c-1.9-0.9-4.1-1.4-6.4-1.4c-1.9,0-3.7,0.3-5.4,1
			c2-3.4,3.2-7.3,3.1-11.6l11.2-8.3l-13.8-1.3c-1.3-2.3-2.9-4.4-4.9-6.1c2.4-0.7,4.6-1.9,6.5-3.5l12.2-1.3l-7-5.5
			c1.1-2.4,1.7-5,1.7-7.8c0-10.4-8.4-18.8-18.8-18.8c-10.4,0-18.8,8.4-18.8,18.8c0,5.2,2.1,9.9,5.5,13.3
			c-9.8,2.2-17.1,11.1-16.8,21.5c0.3,11.8,10.2,21.1,22,20.8c3.3-0.1,6.3-0.9,9-2.3c-0.9,2-1.4,4.2-1.4,6.5
			c0,8.6,6.9,15.5,15.5,15.5C57.8,181.8,64.8,174.8,64.8,166.2z"/>
		<path fill="#575757" d="M186.1,24.1c-12.6,0-22.9,10.2-22.9,22.9c0,0.9,0.1,1.8,0.2,2.7c-2.9-1.3-6.1-2.1-9.5-2.1
			c-2.3,0-4.6,0.3-6.7,1c0.6-1.4,1.1-2.8,1.4-4.4c0-0.1,0-0.1,0-0.2c0-0.1,0-0.2,0.1-0.3l0,0c0.2-1.2,0.3-2.4,0.3-3.6
			c0-10.9-8.8-19.7-19.7-19.7c-10.9,0-19.7,8.8-19.7,19.7c0,3.9,1.1,7.4,3,10.5l-2,5.6l6.2-0.8c1.3,1.1,2.8,2,4.3,2.7H91.7
			c-3.7-2.2-7.9-3.4-12.5-3.4c-13.5,0-24.5,11-24.5,24.5c0,12.3,9.1,22.5,20.9,24.3v81.3c0,1.1,0.2,2.2,0.7,3.2
			c-6.3,1.5-6.5,6.7-6.5,6.7s-0.1-3.6-5.5-3.2c-6.9,0.5-7.8,6.1-7.8,6.1s0.2-2.2-4-2.2c-5.1,0-6.7,5.9-6.7,5.9s-1.4,17.2,0.4,26.7
			c0.7,3.7,10,21.7,10,21.7l0.7,13.8l-4.1,0l0,5.2h45.5l0-4.9l-2.1,0l0.3-4.1l2.1-10l11.2-14.9l17.9-41.7h8.1c4.9,0,8.9-3.7,8.9-8.2
			V93.8l3.2-0.9c1.9,0.5,4,0.8,6.1,0.8c7.7,0,14.5-3.8,18.7-9.6c0,0,0.1-0.1,0.1-0.1c0.2-0.3,0.4-0.6,0.6-0.9c0-0.1,0.1-0.1,0.1-0.2
			c0.2-0.3,0.3-0.6,0.5-0.8c0-0.1,0.1-0.2,0.1-0.2c0.2-0.3,0.3-0.6,0.5-0.9c0-0.1,0.1-0.1,0.1-0.2c1.5-3.1,2.3-6.5,2.3-10.1
			c0-1-0.1-1.9-0.2-2.8c2.8,1.3,6,2,9.3,2c0.8,0,1.6,0,2.3-0.1l0,0c0,0,0.1,0,0.1,0c0.5,0,0.9-0.1,1.4-0.2c0.1,0,0.3-0.1,0.4-0.1
			c0.4-0.1,0.9-0.2,1.3-0.3c0.1,0,0.1,0,0.2,0c0.5-0.1,0.9-0.3,1.4-0.4c0.1,0,0.2-0.1,0.4-0.1c0.4-0.1,0.8-0.3,1.3-0.5
			c0,0,0.1,0,0.1,0c0.5-0.2,0.9-0.4,1.4-0.6c0.1,0,0.2-0.1,0.2-0.1c0.9-0.5,1.8-1,2.6-1.6c0,0,0,0,0.1,0c5.9-4.1,9.7-11,9.7-18.7
			C208.9,34.3,198.7,24.1,186.1,24.1z M110.1,196.2l-9.4,18.7l-0.3-21.9h11.6C110.8,194.8,110.1,196.2,110.1,196.2z"/>
	</g>
	<g>
		<g>
			<g>
				<g>
					<path fill="#FFFFFF" d="M143.1,190.1c4.9,0,8.9-3.7,8.9-8.2V63.4c0-4.5-4-8.2-8.9-8.2H92c-4.9,0-8.9,3.7-8.9,8.2v118.5
						c0,4.5,4,8.2,8.9,8.2H143.1z"/>
					<rect x="86.3" y="73.4" fill="#E53000" width="62.2" height="100.2"/>
					<circle fill="#D3D5DB" cx="117.5" cy="64.8" r="2.5"/>
				</g>
			</g>
		</g>
		<polygon fill="#F2F2F2" points="135.8,112 124.1,112 124.1,100.4 110.9,100.4 110.9,112 99.3,112 99.3,125.2 110.9,125.2 
			110.9,136.9 124.1,136.9 124.1,125.2 135.8,125.2 		"/>
		<path opacity="0.47" fill="#FFFFFF" d="M143.1,55.2H92c-4.9,0-8.9,3.7-8.9,8.2l69,118.5V63.4C152,58.8,148,55.2,143.1,55.2z"/>
		<path fill="#D3D5DB" d="M123.4,183.4c0,1.9-1.5,3.4-3.4,3.4h-5.5c-1.9,0-3.4-1.5-3.4-3.4v-3.9c0-1.9,1.5-3.4,3.4-3.4h5.5
			c1.9,0,3.4,1.5,3.4,3.4V183.4z"/>
	</g>
	<g>
		<g>
			<g>
				<g>
					<path fill="#FFD8B5" d="M128.8,178.4c-3.7,0.8-11.2,15-11.2,15l-9.4,18.7l-0.4-24l-15.2,1.9c0,0-2-5.7-6.8-5.2
						c-8.3,0.8-8.6,7.1-8.6,7.1s-0.1-3.6-5.5-3.2c-6.9,0.5-7.8,6.1-7.8,6.1s0.2-2.2-4-2.2c-5.1,0-6.7,5.9-6.7,5.9
						s-1.4,17.2,0.4,26.7c0.7,3.7,10,21.7,10,21.7l1.2,21.8h38.1l1-11.8l2.1-10l11.2-14.9l21-48.9
						C138,182.9,138.4,176.3,128.8,178.4z"/>
					<path opacity="0.58" fill="#FFFFFF" d="M133.2,180.7c0,0-5.8,9.4,0.8,11l4.1-9.2C138,182.6,136.4,180.5,133.2,180.7z"/>
					<path opacity="0.58" fill="#FFFFFF" d="M133.3,188.3c-0.8,0-1.7,0.2-2.3,0.5c0.2,1.4,1.1,2.5,3,3l1.5-3.2
						C134.7,188.4,134,188.3,133.3,188.3z"/>
					<g>
						<g>
							<path fill="#FFD8B5" d="M107.7,209.7l-14.6-20.3l0.6-41.9c0.3-3.7,3.6-6.5,7.5-6.3c3.9,0.2,6.8,3.4,6.5,7.1L107.7,209.7z"/>
							<path opacity="0.49" fill="#FFFFFF" d="M95.5,151.7L95.5,151.7L95.5,151.7c0-0.1,0-0.1,0-0.2c0-0.1,0-0.2,0-0.2l0.2-3.3
								c0.1-2.7,2.5-4.9,5.3-4.9c2.9,0.1,5.1,2.3,5.1,5l-0.2,3.3c0,0.1,0,0.2,0,0.2c0,0.1,0,0.2,0,0.4l0,0l0,0
								c-0.2,0.8-1,1.4-1.8,1.4l-6.7-0.1C96.3,153.3,95.6,152.6,95.5,151.7z"/>
							<path opacity="0.58" fill="#FFFFFF" d="M105.6,152c0,0.1,0.1,0.2,0.1,0.3c-0.3,0.7-1,1.1-1.8,1.1l-6.7-0.1
								c-0.9,0-1.7-0.7-1.8-1.6l0,0l0,0c0,0,0-0.1,0-0.1c0.6-0.8,1.3-1.6,2.3-2C100.7,148.2,104.2,149.3,105.6,152z"/>
						</g>
					</g>
				</g>
				<g>
					<polygon fill="#FFFFFF" points="105.6,268.5 105.6,260.7 60.1,260.4 60.1,268.5 					"/>
					<path fill="#242530" d="M102,265.6c0,1-0.9,1.8-1.9,1.8c-1.1,0-1.9-0.8-1.9-1.9c0-1,0.9-1.8,1.9-1.8
						C101.1,263.8,102,264.6,102,265.6z"/>
				</g>
			</g>
		</g>
	</g>
	<g>
		<g>
			<circle fill="#FCCC04" cx="64.3" cy="21" r="17.1"/>
			<path fill="#FCBD04" d="M80.6,26.1L70.4,13.6l-0.6,0.2l-1-0.2l-1.4,0.1l-0.5-0.5l-0.6-0.8l-0.7-0.7l-0.4,0l-0.4-0.3H64h-0.8l0,1
				L62.6,13l-0.9,0.4l-1,0.5L59,13.7l-0.6,0.4v5.7v6.6l-0.1,1.3l0.1,0.5l8,9.8C73.1,37.1,78.6,32.4,80.6,26.1z"/>
			<g>
				<rect x="58.7" y="13.9" fill="#E1EFFB" width="11.2" height="13.9"/>
				<path fill="#333745" d="M69.7,13.4h-2.1v-0.6c0-0.2-0.2-0.4-0.4-0.4h-1.6c0-0.1,0-0.1,0-0.2c0-0.7-0.6-1.3-1.4-1.3
					c-0.8,0-1.4,0.6-1.4,1.3c0,0.1,0,0.1,0,0.2h-1.6c-0.2,0-0.4,0.2-0.4,0.4v0.6h-2c-0.5,0-0.9,0.4-0.9,0.9v13.2
					c0,0.5,0.4,0.9,0.9,0.9h10.8c0.5,0,0.9-0.4,0.9-0.9V14.3C70.6,13.8,70.2,13.4,69.7,13.4z M64.3,11.4c0.4,0,0.8,0.3,0.8,0.7
					c0,0.1,0,0.1,0,0.2h-1.6c0-0.1,0-0.1,0-0.2C63.4,11.7,63.8,11.4,64.3,11.4z M69.6,27.3H59v-13h1.9v0.5h6.8v-0.5h2V27.3z"/>
				<g>
					<rect x="60.2" y="16.3" fill="#002E3F" width="8.1" height="0.2"/>
					<rect x="60.2" y="17.3" fill="#002E3F" width="8.1" height="0.2"/>
					<rect x="60.2" y="18.2" fill="#002E3F" width="8.1" height="0.2"/>
					<rect x="60.2" y="19.2" fill="#002E3F" width="8.1" height="0.2"/>
					<rect x="60.2" y="20.2" fill="#002E3F" width="8.1" height="0.2"/>
					<rect x="60.2" y="21.1" fill="#002E3F" width="8.1" height="0.2"/>
					<rect x="64.1" y="22.1" fill="#002E3F" width="4.3" height="0.2"/>
					<rect x="60.2" y="25.9" fill="#002E3F" width="2.2" height="0.2"/>
				</g>
			</g>
		</g>
		<polygon fill="#FCBD04" points="69.3,36.5 82,38.7 78.7,27.9 		"/>
	</g>
	<g>
		<g>
			<g>
				<path fill="#8CB302" d="M246.7,106.2c0,13.5-11,24.5-24.5,24.5c-13.5,0-24.5-11-24.5-24.5c0-13.5,11-24.5,24.5-24.5
					C235.7,81.7,246.7,92.7,246.7,106.2z"/>
				<path fill="#7C9E02" d="M245.6,113.6l-15.3-19.2l-0.6,0.5h-0.6h-0.7h-0.8l-0.4,0.3v4.6l-4.4-5.4l-0.2,0.5H222h-0.8h-0.9
					l-0.2,0.3v4.9l-5-5.6l-0.6,0.5l0.3,0h-0.7h-0.7l-0.3,0.2l-0.2,0v0.2v16.1h-3.2v4.1l-0.2,0.3l12.3,15c0.1,0,0.2,0,0.2,0
					C233.2,130.8,242.5,123.5,245.6,113.6z"/>
			</g>
			<g>
				<g>
					<path fill="#E1EFFB" d="M212,94.5v19.3c0,0.9,0.7,1.6,1.6,1.6c0.9,0,1.6-0.7,1.6-1.6V94.5H212z"/>
					<ellipse fill="#C8DAEB" cx="213.6" cy="94.5" rx="1.6" ry="0.4"/>
				</g>
				<g>
					<path fill="#E53000" d="M212,104.9v8.9c0,0.9,0.7,1.6,1.6,1.6c0.9,0,1.6-0.7,1.6-1.6v-8.9H212z"/>
				</g>
				<ellipse fill="#E1EFFB" cx="213.6" cy="94.5" rx="1.4" ry="0.3"/>
				<ellipse fill="#FF4514" cx="213.6" cy="104.9" rx="1.6" ry="0.4"/>
				<g>
					<path fill="#E1EFFB" d="M219.7,94.5v19.3c0,0.9,0.7,1.6,1.6,1.6c0.9,0,1.6-0.7,1.6-1.6V94.5H219.7z"/>
					<ellipse fill="#C8DAEB" cx="221.3" cy="94.5" rx="1.6" ry="0.4"/>
				</g>
				<g>
					<path fill="#FCCC04" d="M219.7,108.6v5.2c0,0.9,0.7,1.6,1.6,1.6c0.9,0,1.6-0.7,1.6-1.6v-5.2H219.7z"/>
				</g>
				<ellipse fill="#E1EFFB" cx="221.3" cy="94.5" rx="1.4" ry="0.3"/>
				<ellipse fill="#FCE16F" cx="221.3" cy="108.6" rx="1.6" ry="0.4"/>
				<g>
					<path fill="#E1EFFB" d="M227.2,94.5v19.3c0,0.9,0.7,1.6,1.6,1.6c0.9,0,1.6-0.7,1.6-1.6V94.5H227.2z"/>
					<ellipse fill="#C8DAEB" cx="228.8" cy="94.5" rx="1.6" ry="0.4"/>
				</g>
				<g>
					<path fill="#004573" d="M227.2,98.8v15c0,0.9,0.7,1.6,1.6,1.6c0.9,0,1.6-0.7,1.6-1.6v-15H227.2z"/>
				</g>
				<ellipse fill="#E1EFFB" cx="228.8" cy="94.5" rx="1.4" ry="0.3"/>
				<ellipse fill="#006EB8" cx="228.8" cy="98.8" rx="1.6" ry="0.4"/>
				<rect x="209.9" y="111.2" fill="#333745" width="2.1" height="0.7"/>
				<rect x="215.2" y="111.2" fill="#333745" width="4.5" height="0.7"/>
				<rect x="222.8" y="111.2" fill="#333745" width="4.3" height="0.7"/>
				<rect x="230.3" y="111.2" fill="#333745" width="2" height="0.7"/>
				<path fill="#333745" d="M230.3,111.2c-0.9,0.6-2.2,0.6-3.2,0c0,0,0,0,0,0v0.7c1,0.5,2.2,0.5,3.2,0V111.2z"/>
				<path fill="#333745" d="M222.8,111.2c-0.9,0.6-2.2,0.6-3.2,0c0,0,0,0,0,0v0.7c1,0.5,2.2,0.5,3.2,0V111.2z"/>
				<path fill="#333745" d="M215.2,111.2c-0.9,0.6-2.2,0.6-3.2,0c0,0,0,0,0,0v0.7c1,0.5,2.2,0.5,3.2,0V111.2z"/>
				<rect x="209.8" y="111.2" fill="#333745" width="0.7" height="4.9"/>
				<rect x="209.2" y="115.5" fill="#333745" width="2" height="0.7"/>
				<rect x="210.4" y="115.5" fill="#333745" width="22.6" height="0.7"/>
				<rect x="231.6" y="111.2" fill="#333745" width="0.7" height="4.9"/>
			</g>
		</g>
		<polygon fill="#8CB302" points="201.4,98.9 182.5,103.8 201.6,114.8 		"/>
	</g>
	<g>
		<g>
			<circle fill="#E7E4E5" cx="201.2" cy="133.7" r="16.3"/>
			<path fill="#CFCCCD" d="M216.8,138.2l-8.9-10.9l-1.6,1.3l-5,1.1l-1.8,1.3l-0.7,3l-3.3,4.9l8.7,10.6
				C210.2,148.5,215.1,144.1,216.8,138.2z"/>
			<g>
				<path fill="#FFFFFF" d="M199.7,130.9l4.1,4.3l3.9-3.7c1.2-1.1,1.2-3,0.1-4.2c-1.1-1.2-3-1.2-4.2-0.1L199.7,130.9
					C199.7,130.9,199.7,130.9,199.7,130.9z"/>
				<path fill="#FCCC04" d="M199.6,139.1l3.9-3.7l-4.1-4.3l0,0c0,0,0,0,0,0l-3.9,3.7c-1.2,1.1-1.2,3-0.1,4.2
					C196.6,140.2,198.4,140.3,199.6,139.1z"/>
			</g>
		</g>
		<polygon fill="#E7E4E5" points="192.8,124.9 186.4,134.3 171.9,127.4 		"/>
	</g>
	<g>
		<g>
			<circle fill="#FF6D3A" cx="56.7" cy="163.4" r="15.5"/>
			<path fill="#E85725" d="M71.6,167.5l-8.4-10.2h-3.5l-3,1.8l-0.4,1.3l-4.4-1.7l-2.1,4.6l12,14.6C66.6,176.3,70.3,172.4,71.6,167.5
				z"/>
			<g>
				<path fill="#F2F2F2" d="M64.4,160.1c0-1.6-1.2-4-4.1-4.2c-2.8-0.2-3.6,2.2-3.6,2.2s-0.8-2.3-3.6-2.2c-2.8,0.2-4,2.5-4.1,4.2
					c0,1,0.1,2.1,0.9,3.3l3.7-0.1l1-1.5l1.4,2.8l2.3-5.8l2.1,4.4l3,0.2C64.2,162.2,64.4,161.1,64.4,160.1z"/>
				<path fill="#F0F0F2" d="M58.4,160.8l-2.3,5.3l-1.5-3.4l-0.7,1l-3.8-0.1c0.5,0.7,1.2,1.4,2.1,2.2c2.5,1.8,4.5,3.1,4.5,3.1
					s2.1-1.3,4.5-3.1c0.9-0.7,1.5-1.4,2-2.1l-3.3,0.2L58.4,160.8z"/>
			</g>
		</g>
		<polygon fill="#FF6D3A" points="61.8,149.6 73.7,146.1 68,158 		"/>
	</g>
	<g>
		<g>
			<circle fill="#8CB302" cx="41.6" cy="103.5" r="18.8"/>
			<path fill="#7C9E02" d="M59.5,109l-11-13.4l-0.6,0.9L43.4,98h-3l-2.6,1.2v4.3l-0.3,3.2l-2.6,2.3l10.6,12.8
				C52.2,120.4,57.6,115.5,59.5,109z"/>
			<g>
				<path fill="#FFD55B" d="M48.5,99.7c1.1-1.2,1.1-3.2-0.2-4.3c-1.2-1.1-3.2-1.1-4.3,0.2L41.7,98l4.5,4.2L48.5,99.7z"/>
				<path fill="#FFD55B" d="M35.3,105c-1.1,1.3-1.1,3.2,0.2,4.3c1.3,1.1,3.2,1.1,4.3-0.2l2.3-2.5l-4.5-4.2L35.3,105z"/>
				<path fill="#FFBE00" d="M39.2,95.7c-1.3-1.1-3.2-1.1-4.3,0.2c-1.1,1.3-1.1,3.2,0.2,4.3l2.6,2.4l4.2-4.5L39.2,95.7z"/>
				<path fill="#FFBE00" d="M48.6,104.4l-2.3-2.2l-4.2,4.5l2.3,2.2c1.3,1.2,3.2,1.1,4.3-0.2C49.9,107.5,49.9,105.5,48.6,104.4z"/>
				<path fill="#FFD55B" d="M41.7,98l-4.2,4.5l4.5,4.2l4.2-4.5L41.7,98z M42.4,100.2c0.1-0.1,0.2-0.1,0.3-0.1c0.1,0,0.2,0,0.3,0.1
					c0.1,0.1,0.1,0.3,0,0.5c0,0-0.1,0.1-0.1,0.1c-0.1,0.1-0.3,0.1-0.4,0C42.3,100.6,42.3,100.4,42.4,100.2z M41.4,99.3
					c0.1-0.1,0.2-0.1,0.3-0.1c0.1,0,0.2,0,0.3,0.1c0.1,0.1,0.1,0.3,0,0.5c0,0-0.1,0.1-0.1,0.1c-0.1,0.1-0.3,0.1-0.4,0
					C41.3,99.7,41.3,99.5,41.4,99.3z M39.3,102.7c0,0-0.1,0.1-0.1,0.1c-0.1,0.1-0.3,0.1-0.4,0c-0.1-0.1-0.2-0.4,0-0.5
					c0.1-0.1,0.2-0.1,0.3-0.1c0.1,0,0.2,0,0.3,0.1C39.4,102.4,39.4,102.6,39.3,102.7z M39.6,101.3c0.1-0.1,0.2-0.1,0.3-0.1
					c0.1,0,0.2,0,0.3,0.1c0.1,0.1,0.1,0.3,0,0.5c0,0-0.1,0.1-0.1,0.1c-0.1,0.1-0.3,0.1-0.4,0C39.5,101.7,39.5,101.5,39.6,101.3z
					 M40.3,103.7c0,0-0.1,0.1-0.1,0.1c-0.1,0.1-0.3,0.1-0.4,0c-0.1-0.1-0.2-0.4,0-0.5c0.1-0.1,0.2-0.1,0.3-0.1c0.1,0,0.2,0,0.3,0.1
					C40.4,103.3,40.4,103.5,40.3,103.7z M40.5,100.3c0.1-0.1,0.2-0.1,0.3-0.1c0.1,0,0.2,0,0.3,0.1c0.1,0.1,0.1,0.3,0,0.5
					c0,0-0.1,0.1-0.1,0.1c-0.1,0.1-0.3,0.1-0.4,0C40.4,100.7,40.4,100.5,40.5,100.3z M40.6,102.2c0.1-0.1,0.2-0.1,0.3-0.1
					c0.1,0,0.2,0,0.3,0.1c0.1,0.1,0.1,0.3,0,0.5c0,0-0.1,0.1-0.1,0.1c-0.1,0.1-0.3,0.1-0.4,0C40.5,102.6,40.5,102.4,40.6,102.2z
					 M41.3,104.6c0,0-0.1,0.1-0.1,0.1c-0.1,0.1-0.3,0.1-0.4,0c-0.1-0.1-0.2-0.4,0-0.5c0.1-0.1,0.2-0.1,0.3-0.1c0.1,0,0.2,0,0.3,0.1
					C41.4,104.2,41.4,104.4,41.3,104.6z M41.5,101.2c0.1-0.1,0.2-0.1,0.3-0.1c0.1,0,0.2,0,0.3,0.1c0.1,0.1,0.1,0.3,0,0.5
					c0,0-0.1,0.1-0.1,0.1c-0.1,0.1-0.3,0.1-0.4,0C41.4,101.6,41.4,101.4,41.5,101.2z M41.6,103.1c0.1-0.1,0.2-0.1,0.3-0.1
					c0.1,0,0.2,0,0.3,0.1c0.1,0.1,0.1,0.3,0,0.5c0,0-0.1,0.1-0.1,0.1c-0.1,0.1-0.3,0.1-0.4,0C41.5,103.5,41.5,103.3,41.6,103.1z
					 M42.3,105.5c0,0-0.1,0.1-0.1,0.1c-0.1,0.1-0.3,0.1-0.4,0c-0.1-0.1-0.2-0.4,0-0.5c0.1-0.1,0.2-0.1,0.3-0.1c0.1,0,0.2,0,0.3,0.1
					C42.4,105.1,42.4,105.3,42.3,105.5z M42.5,102.1c0.1-0.1,0.2-0.1,0.3-0.1c0.1,0,0.2,0,0.3,0.1c0.1,0.1,0.1,0.3,0,0.5
					c0,0-0.1,0.1-0.1,0.1c-0.1,0.1-0.3,0.1-0.4,0C42.4,102.5,42.4,102.3,42.5,102.1z M43.2,104.5c0,0-0.1,0.1-0.1,0.1
					c-0.1,0.1-0.3,0.1-0.4,0c-0.1-0.1-0.2-0.4,0-0.5c0.1-0.1,0.2-0.1,0.3-0.1c0.1,0,0.2,0,0.3,0.1C43.3,104.1,43.3,104.3,43.2,104.5
					z M43.4,101.1c0.1-0.1,0.2-0.1,0.3-0.1c0.1,0,0.2,0,0.3,0.1c0.1,0.1,0.1,0.3,0,0.5c0,0-0.1,0.1-0.1,0.1c-0.1,0.1-0.3,0.1-0.4,0
					C43.3,101.5,43.3,101.3,43.4,101.1z M44.1,103.5c0,0-0.1,0.1-0.1,0.1c-0.1,0.1-0.3,0.1-0.4,0c-0.1-0.1-0.2-0.4,0-0.5
					c0.1-0.1,0.2-0.1,0.3-0.1c0.1,0,0.2,0,0.3,0.1C44.2,103.1,44.2,103.4,44.1,103.5z M44.5,102.6c-0.1-0.1-0.2-0.4,0-0.5
					c0.1-0.1,0.2-0.1,0.3-0.1c0.1,0,0.2,0,0.3,0.1c0.1,0.1,0.1,0.3,0,0.5c0,0-0.1,0.1-0.1,0.1C44.8,102.7,44.6,102.7,44.5,102.6z"/>
				<path fill="#FFFFFF" d="M41.9,99.8c-0.1,0.1-0.3,0-0.4-0.1c-0.1-0.1-0.1-0.3,0-0.5c0-0.1,0.1-0.1,0.2-0.1c-0.1,0-0.2,0-0.3,0.1
					c-0.1,0.1-0.1,0.4,0,0.5C41.6,99.9,41.8,99.9,41.9,99.8z"/>
				<path fill="#FFFFFF" d="M41.9,99.8c-0.1,0.1-0.3,0-0.4-0.1c-0.1-0.1-0.1-0.3,0-0.5c0-0.1,0.1-0.1,0.2-0.1c-0.1,0-0.2,0-0.3,0.1
					c-0.1,0.1-0.1,0.4,0,0.5C41.6,99.9,41.8,99.9,41.9,99.8z"/>
				<path fill="#FFFFFF" d="M42.9,100.8c-0.1,0.1-0.3,0-0.4-0.1c-0.1-0.1-0.1-0.3,0-0.5c0-0.1,0.1-0.1,0.2-0.1c-0.1,0-0.2,0-0.3,0.1
					c-0.1,0.1-0.1,0.4,0,0.5C42.6,100.8,42.8,100.8,42.9,100.8z"/>
				<path fill="#FFFFFF" d="M42.9,100.8c-0.1,0.1-0.3,0-0.4-0.1c-0.1-0.1-0.1-0.3,0-0.5c0-0.1,0.1-0.1,0.2-0.1c-0.1,0-0.2,0-0.3,0.1
					c-0.1,0.1-0.1,0.4,0,0.5C42.6,100.8,42.8,100.8,42.9,100.8z"/>
				<path fill="#FFFFFF" d="M43.9,101.7c-0.1,0.1-0.3,0-0.4-0.1c-0.1-0.1-0.1-0.3,0-0.5c0,0,0.1-0.1,0.2-0.1c-0.1,0-0.2,0-0.3,0.1
					c-0.1,0.1-0.1,0.4,0,0.5C43.6,101.8,43.8,101.8,43.9,101.7z"/>
				<path fill="#FFFFFF" d="M43.9,101.7c-0.1,0.1-0.3,0-0.4-0.1c-0.1-0.1-0.1-0.3,0-0.5c0,0,0.1-0.1,0.2-0.1c-0.1,0-0.2,0-0.3,0.1
					c-0.1,0.1-0.1,0.4,0,0.5C43.6,101.8,43.8,101.8,43.9,101.7z"/>
				<path fill="#FFFFFF" d="M44.5,102.5c-0.1-0.1-0.1-0.3,0-0.5c0-0.1,0.1-0.1,0.2-0.1c-0.1,0-0.2,0-0.3,0.1
					C44.3,102.2,44.3,102.4,44.5,102.5c0,0.2,0.2,0.2,0.4,0.1C44.8,102.6,44.6,102.6,44.5,102.5z"/>
				<path fill="#FFFFFF" d="M44.5,102.5c-0.1-0.1-0.1-0.3,0-0.5c0-0.1,0.1-0.1,0.2-0.1c-0.1,0-0.2,0-0.3,0.1
					C44.3,102.2,44.3,102.4,44.5,102.5c0,0.2,0.2,0.2,0.4,0.1C44.8,102.6,44.6,102.6,44.5,102.5z"/>
				<path fill="#FFFFFF" d="M41,100.8c-0.1,0.1-0.3,0-0.4-0.1c-0.1-0.1-0.1-0.3,0-0.5c0-0.1,0.1-0.1,0.2-0.1c-0.1,0-0.2,0-0.3,0.1
					c-0.1,0.1-0.1,0.4,0,0.5C40.7,100.9,40.9,100.9,41,100.8z"/>
				<path fill="#FFFFFF" d="M41,100.8c-0.1,0.1-0.3,0-0.4-0.1c-0.1-0.1-0.1-0.3,0-0.5c0-0.1,0.1-0.1,0.2-0.1c-0.1,0-0.2,0-0.3,0.1
					c-0.1,0.1-0.1,0.4,0,0.5C40.7,100.9,40.9,100.9,41,100.8z"/>
				<path fill="#FFFFFF" d="M42,101.7c-0.1,0.1-0.3,0-0.4-0.1c-0.1-0.1-0.1-0.3,0-0.5c0-0.1,0.1-0.1,0.2-0.1c-0.1,0-0.2,0-0.3,0.1
					c-0.1,0.1-0.1,0.4,0,0.5C41.7,101.8,41.9,101.8,42,101.7z"/>
				<path fill="#FFFFFF" d="M42,101.7c-0.1,0.1-0.3,0-0.4-0.1c-0.1-0.1-0.1-0.3,0-0.5c0-0.1,0.1-0.1,0.2-0.1c-0.1,0-0.2,0-0.3,0.1
					c-0.1,0.1-0.1,0.4,0,0.5C41.7,101.8,41.9,101.8,42,101.7z"/>
				<path fill="#FFFFFF" d="M43,102.7c-0.1,0.1-0.3,0-0.4-0.1c-0.1-0.1-0.1-0.3,0-0.5c0,0,0.1-0.1,0.2-0.1c-0.1,0-0.2,0-0.3,0.1
					c-0.1,0.1-0.1,0.4,0,0.5C42.7,102.7,42.9,102.8,43,102.7z"/>
				<path fill="#FFFFFF" d="M43,102.7c-0.1,0.1-0.3,0-0.4-0.1c-0.1-0.1-0.1-0.3,0-0.5c0,0,0.1-0.1,0.2-0.1c-0.1,0-0.2,0-0.3,0.1
					c-0.1,0.1-0.1,0.4,0,0.5C42.7,102.7,42.9,102.8,43,102.7z"/>
				<path fill="#FFFFFF" d="M43.6,103.5c-0.1-0.1-0.1-0.3,0-0.5c0-0.1,0.1-0.1,0.2-0.1c-0.1,0-0.2,0-0.3,0.1
					C43.4,103.2,43.4,103.4,43.6,103.5c0,0.1,0.2,0.2,0.4,0.1C43.9,103.6,43.7,103.6,43.6,103.5z"/>
				<path fill="#FFFFFF" d="M43.6,103.5c-0.1-0.1-0.1-0.3,0-0.5c0-0.1,0.1-0.1,0.2-0.1c-0.1,0-0.2,0-0.3,0.1
					C43.4,103.2,43.4,103.4,43.6,103.5c0,0.1,0.2,0.2,0.4,0.1C43.9,103.6,43.7,103.6,43.6,103.5z"/>
				<path fill="#FFFFFF" d="M40.1,101.8c-0.1,0.1-0.3,0-0.4-0.1c-0.1-0.1-0.1-0.3,0-0.5c0-0.1,0.1-0.1,0.2-0.1c-0.1,0-0.2,0-0.3,0.1
					c-0.1,0.1-0.1,0.4,0,0.5C39.8,101.9,40,101.9,40.1,101.8z"/>
				<path fill="#FFFFFF" d="M40.1,101.8c-0.1,0.1-0.3,0-0.4-0.1c-0.1-0.1-0.1-0.3,0-0.5c0-0.1,0.1-0.1,0.2-0.1c-0.1,0-0.2,0-0.3,0.1
					c-0.1,0.1-0.1,0.4,0,0.5C39.8,101.9,40,101.9,40.1,101.8z"/>
				<path fill="#FFFFFF" d="M41.1,102.7c-0.1,0.1-0.3,0-0.4-0.1c-0.1-0.1-0.1-0.3,0-0.5c0-0.1,0.1-0.1,0.2-0.1c-0.1,0-0.2,0-0.3,0.1
					c-0.1,0.1-0.1,0.4,0,0.5C40.8,102.8,41,102.8,41.1,102.7z"/>
				<path fill="#FFFFFF" d="M41.1,102.7c-0.1,0.1-0.3,0-0.4-0.1c-0.1-0.1-0.1-0.3,0-0.5c0-0.1,0.1-0.1,0.2-0.1c-0.1,0-0.2,0-0.3,0.1
					c-0.1,0.1-0.1,0.4,0,0.5C40.8,102.8,41,102.8,41.1,102.7z"/>
				<path fill="#FFFFFF" d="M42.1,103.7c-0.1,0.1-0.3,0-0.4-0.1c-0.1-0.1-0.1-0.3,0-0.5c0,0,0.1-0.1,0.2-0.1c-0.1,0-0.2,0-0.3,0.1
					c-0.1,0.1-0.1,0.4,0,0.5C41.8,103.7,42,103.8,42.1,103.7z"/>
				<path fill="#FFFFFF" d="M42.1,103.7c-0.1,0.1-0.3,0-0.4-0.1c-0.1-0.1-0.1-0.3,0-0.5c0,0,0.1-0.1,0.2-0.1c-0.1,0-0.2,0-0.3,0.1
					c-0.1,0.1-0.1,0.4,0,0.5C41.8,103.7,42,103.8,42.1,103.7z"/>
				<path fill="#FFFFFF" d="M42.7,104.5c-0.1-0.1-0.1-0.3,0-0.5c0-0.1,0.1-0.1,0.2-0.1c-0.1,0-0.2,0-0.3,0.1
					C42.5,104.2,42.5,104.4,42.7,104.5c0,0.2,0.2,0.2,0.4,0.1C43,104.6,42.8,104.6,42.7,104.5z"/>
				<path fill="#FFFFFF" d="M42.7,104.5c-0.1-0.1-0.1-0.3,0-0.5c0-0.1,0.1-0.1,0.2-0.1c-0.1,0-0.2,0-0.3,0.1
					C42.5,104.2,42.5,104.4,42.7,104.5c0,0.2,0.2,0.2,0.4,0.1C43,104.6,42.8,104.6,42.7,104.5z"/>
				<path fill="#FFFFFF" d="M38.8,102.8c-0.1-0.1-0.1-0.3,0-0.5c0-0.1,0.1-0.1,0.2-0.1c-0.1,0-0.2,0-0.3,0.1
					C38.6,102.4,38.6,102.7,38.8,102.8c0,0.1,0.2,0.2,0.4,0.1C39.1,102.9,38.9,102.9,38.8,102.8z"/>
				<path fill="#FFFFFF" d="M38.8,102.8c-0.1-0.1-0.1-0.3,0-0.5c0-0.1,0.1-0.1,0.2-0.1c-0.1,0-0.2,0-0.3,0.1
					C38.6,102.4,38.6,102.7,38.8,102.8c0,0.1,0.2,0.2,0.4,0.1C39.1,102.9,38.9,102.9,38.8,102.8z"/>
				<path fill="#FFFFFF" d="M39.8,103.7c-0.1-0.1-0.1-0.3,0-0.5c0-0.1,0.1-0.1,0.2-0.1c-0.1,0-0.2,0-0.3,0.1
					C39.6,103.4,39.6,103.6,39.8,103.7c0,0.2,0.2,0.2,0.4,0.1C40.1,103.8,39.9,103.8,39.8,103.7z"/>
				<path fill="#FFFFFF" d="M39.8,103.7c-0.1-0.1-0.1-0.3,0-0.5c0-0.1,0.1-0.1,0.2-0.1c-0.1,0-0.2,0-0.3,0.1
					C39.6,103.4,39.6,103.6,39.8,103.7c0,0.2,0.2,0.2,0.4,0.1C40.1,103.8,39.9,103.8,39.8,103.7z"/>
				<path fill="#FFFFFF" d="M40.8,104.6c-0.1-0.1-0.1-0.3,0-0.5c0,0,0.1-0.1,0.2-0.1c-0.1,0-0.2,0-0.3,0.1
					C40.6,104.3,40.6,104.5,40.8,104.6c0,0.1,0.2,0.2,0.4,0.1C41.1,104.7,40.9,104.7,40.8,104.6z"/>
				<path fill="#FFFFFF" d="M40.8,104.6c-0.1-0.1-0.1-0.3,0-0.5c0,0,0.1-0.1,0.2-0.1c-0.1,0-0.2,0-0.3,0.1
					C40.6,104.3,40.6,104.5,40.8,104.6c0,0.1,0.2,0.2,0.4,0.1C41.1,104.7,40.9,104.7,40.8,104.6z"/>
				<path fill="#FFFFFF" d="M41.8,105.5c-0.1-0.1-0.1-0.3,0-0.5c0-0.1,0.1-0.1,0.2-0.1c-0.1,0-0.2,0-0.3,0.1
					C41.6,105.2,41.6,105.4,41.8,105.5c0,0.2,0.2,0.2,0.4,0.1C42.1,105.6,41.9,105.6,41.8,105.5z"/>
				<path fill="#FFFFFF" d="M41.8,105.5c-0.1-0.1-0.1-0.3,0-0.5c0-0.1,0.1-0.1,0.2-0.1c-0.1,0-0.2,0-0.3,0.1
					C41.6,105.2,41.6,105.4,41.8,105.5c0,0.2,0.2,0.2,0.4,0.1C42.1,105.6,41.9,105.6,41.8,105.5z"/>
			</g>
		</g>
		<polygon fill="#7C9E02" points="57,110 50.3,118.4 65.7,116.8 		"/>
	</g>
	<g>
		<g>
			<circle fill="#FF6D3A" cx="136.8" cy="37.3" r="19.7"/>
			<path fill="#E85725" d="M156.2,40.9l-13.3-13.2l0.9,1.4l-0.6,0.8l-0.9,0.5l-3,2.9l-1.6-1.7l-1.3,1.4l-1.5,1.4l-1.9,1.9l-1.2,1.2
				l-0.6,1l1.6,2.4l-1.3,1.3l-2.2,2.6l10.4,12.1C147.3,55.8,154.6,49.6,156.2,40.9z"/>
			<g>
				
					<rect x="139.3" y="28.1" transform="matrix(0.707 0.7072 -0.7072 0.707 64.6849 -89.4989)" fill="#E7E4E5" width="2.1" height="10.5"/>
				<path fill="#E7E4E5" d="M142.9,27.6c-0.1,0.3-0.1,0.6,0.1,0.8l2.3,2.3c0.2,0.2,0.5,0.2,0.8,0.1L142.9,27.6z"/>
				<polygon fill="#CFCCCD" points="132.9,41 132.5,40.6 129.5,43.7 129.2,44.7 				"/>
				
					<rect x="140.3" y="28.1" transform="matrix(0.7128 0.7013 -0.7013 0.7128 63.6966 -88.9044)" fill="#FFFFFF" width="0.3" height="10.5"/>
				<path fill="#E1EFFB" d="M134.7,34.8l-0.5,0.5l1.4,1.4c0,0.1,0.1,0.1,0,0.2c0,0-0.1,0-0.2,0l-1.4-1.4l-0.5,0.5l1.2,1.2
					c0.1,0,0.1,0.1,0,0.2c0,0-0.1,0-0.2,0l-1.2-1.2l-2.2,2.2c-0.2,0.2-0.2,0.7,1.6,2.5v0c1.9,1.9,2.4,1.9,2.6,1.7l3.6-3.6
					L134.7,34.8z"/>
				<g>
					<path fill="#85DCFF" d="M135.7,42.6l6.3-6.3l0.6,0.6c0.3,0.3,0.8,0.4,1.2,0.3l-7.4-7.4c-0.1,0.4,0,0.9,0.3,1.2l0.6,0.6
						l-6.3,6.3c0,0-0.2,0.2-0.1,0.5l0,0c0.1,0.6,0.6,1.5,1.6,2.5c1,1,1.8,1.5,2.4,1.7C135.4,42.9,135.7,42.7,135.7,42.6z
						 M132.8,40.7c-1.3-1.3-1.5-2-1.5-2.3l0,0c0-0.2,0-0.2,0-0.2l6.3-6.3l4.2,4.2l-6.3,6.3C135.4,42.4,134.8,42.7,132.8,40.7z"/>
				</g>
			</g>
		</g>
		<polygon fill="#FF6D3A" points="121.2,44.9 118.1,53.3 129.2,51.8 		"/>
	</g>
	<g>
		<g>
			<circle fill="#004573" cx="161.3" cy="67.8" r="23.1"/>
			<path fill="#003A61" d="M159.3,75.1l-1,0.9l-0.6,0.9l-0.4,0.8L167.5,90c6.8-1.9,12.4-6.8,15.1-13.3L165,55.4h-7.4l0.5,1L159,57
				l1.1,0.8l1.2,0.7l-0.3,0.1l-0.8,0.5l-1,0.7l-0.5,0.5l-0.5,0.4l-0.5,0.8l-0.2,0.9l0.1,0.7l0.3,0.6l0.6,0.7l0.8,0.7l1,0.6l1,0.5
				l-0.8,0.5l-1.1,0.6l-0.6,0.5l-0.7,0.7l-0.4,0.6l-0.3,0.7l0.2,1l0.3,0.7l0.9,0.8l0.2,0.3l2.1,1.3l-0.6,0.3L159.3,75.1z"/>
			<path fill="#FFFFFF" d="M165.3,77c0-0.2-0.1-0.3-0.3-0.3c-0.2-0.4-0.6-0.8-0.9-1.2c0,0,0,0,0-0.1c0-0.2-0.1-0.3-0.3-0.3
				c0,0-0.1,0-0.1,0c-0.8-0.6-1.6-1.1-2-1.3c0.4-0.2,1.3-0.7,2.1-1.3c0,0,0,0,0,0c0.2,0,0.3-0.1,0.3-0.3l0,0
				c0.4-0.4,0.7-0.8,0.9-1.2c0.1,0,0.2-0.2,0.2-0.3c0-0.1,0-0.1-0.1-0.2c0-0.2,0.1-0.3,0.1-0.5c0-0.3-0.1-0.6-0.2-0.9
				c0,0,0-0.1,0-0.1c0-0.2-0.1-0.3-0.3-0.3c-0.3-0.4-0.7-0.9-1.2-1.2c0,0,0,0,0,0c0-0.2-0.1-0.3-0.3-0.3c0,0-0.1,0-0.1,0
				c-0.6-0.4-1.2-0.8-1.6-1l0,0l0,0c0,0,0,0,0,0c0,0,0,0,0.1,0c0,0,0,0,0,0c0,0,0,0,0.1,0c0,0,0,0,0,0c0,0,0,0,0.1,0c0,0,0,0,0.1,0
				c0,0,0,0,0.1,0c0,0,0,0,0.1,0c0,0,0,0,0.1,0c0,0,0,0,0.1,0c0,0,0,0,0.1,0c0,0,0.1,0,0.1,0c0,0,0,0,0.1,0c0,0,0.1,0,0.1-0.1
				c0,0,0,0,0.1,0c0,0,0.1,0,0.1-0.1c0,0,0,0,0.1,0c0,0,0.1,0,0.1-0.1c0,0,0,0,0,0c0,0,0.1,0,0.1-0.1c0,0,0,0,0,0c0,0,0,0,0.1,0
				c0,0,0,0,0.1,0c0.2,0,0.3-0.1,0.3-0.3l0,0c0,0,0,0,0,0c0,0,0.1-0.1,0.1-0.1c0,0,0,0,0,0c0,0,0.1-0.1,0.1-0.1c0,0,0,0,0,0
				c0,0,0.1-0.1,0.1-0.1c0,0,0,0,0,0c0,0,0.1-0.1,0.1-0.1c0,0,0,0,0,0c0,0,0.1-0.1,0.1-0.1c0,0,0,0,0,0c0,0,0.1-0.1,0.1-0.1
				c0,0,0,0,0,0c0,0,0.1-0.1,0.1-0.1c0,0,0,0,0,0c0,0,0.1-0.1,0.1-0.1c0,0,0,0,0,0c0,0,0.1-0.1,0.1-0.1c0,0,0,0,0,0c0,0,0,0,0,0
				c0,0,0,0,0,0c0.2,0,0.3-0.1,0.3-0.3c0-0.1,0-0.1,0-0.1c0,0,0,0,0,0c0,0,0-0.1,0.1-0.1c0,0,0,0,0-0.1c0,0,0-0.1,0-0.1
				c0,0,0,0,0-0.1c0,0,0-0.1,0-0.1c0,0,0,0,0-0.1c0,0,0-0.1,0-0.1c0,0,0,0,0-0.1c0,0,0-0.1,0-0.1c0,0,0,0,0-0.1c0-0.1,0-0.1,0-0.2
				c0-0.1,0-0.2,0-0.2c0.1-0.1,0.1-0.1,0.1-0.2c0-0.1-0.1-0.3-0.2-0.3c-0.2-0.5-0.5-0.9-0.9-1.3c0,0,0,0,0,0c0-0.2-0.1-0.3-0.3-0.3
				c0,0,0,0-0.1,0c-0.8-0.7-1.7-1.2-2.2-1.4c0.4-0.2,1.2-0.6,1.9-1.2c0,0,0.1,0,0.1,0c0.2,0,0.3-0.1,0.3-0.3c0,0,0,0,0-0.1
				c0.4-0.4,0.8-0.8,1-1.2c0.1,0,0.3-0.1,0.3-0.3c0-0.2-0.1-0.3-0.3-0.3c-0.1,0-0.3,0.1-0.3,0.2H158c0-0.1-0.1-0.2-0.3-0.2
				c-0.2,0-0.3,0.1-0.3,0.3c0,0.1,0.1,0.3,0.2,0.3c0.2,0.5,0.6,0.9,1.1,1.3c0,0,0,0,0,0c0,0.2,0.1,0.3,0.3,0.3c0,0,0.1,0,0.1,0
				c0.7,0.6,1.5,1,1.9,1.2c-0.5,0.2-1.4,0.7-2.2,1.4c0,0-0.1,0-0.1,0c-0.2,0-0.3,0.1-0.3,0.3c0,0,0,0,0,0.1
				c-0.4,0.4-0.7,0.8-0.9,1.2c-0.1,0-0.3,0.1-0.3,0.3c0,0.1,0,0.2,0.1,0.2c0,0.1,0,0.2,0,0.3c0,0.4,0.1,0.7,0.3,1c0,0,0,0.1,0,0.1
				c0,0.2,0.1,0.3,0.3,0.3c0,0,0,0,0,0c0.3,0.4,0.7,0.8,1.2,1.2c0,0,0,0,0,0c0,0.2,0.1,0.3,0.3,0.3c0,0,0.1,0,0.1,0
				c0.6,0.4,1.1,0.7,1.5,0.9l0,0c0,0,0,0,0,0c-0.4,0.2-1,0.5-1.6,1c0,0-0.1,0-0.1,0c-0.2,0-0.3,0.1-0.3,0.3c0,0,0,0,0,0
				c-0.4,0.4-0.9,0.8-1.2,1.2c0,0,0,0,0,0c-0.2,0-0.3,0.1-0.3,0.3c0,0.1,0,0.1,0,0.2c-0.1,0.3-0.2,0.6-0.2,0.9c0,0.1,0,0.1,0,0.2
				c0,0,0,0,0,0.1c0,0,0,0.1,0,0.1c0,0,0,0,0,0.1c0,0,0,0,0,0.1c-0.1,0.1-0.1,0.1-0.1,0.2c0,0.2,0.1,0.3,0.3,0.3c0,0,0,0,0,0
				c0,0,0,0,0,0.1c0,0,0,0.1,0.1,0.1c0,0,0,0,0,0.1c0,0,0,0.1,0.1,0.1c0,0,0,0,0,0.1c0,0,0,0.1,0.1,0.1c0,0,0,0,0,0.1
				c0,0,0,0.1,0.1,0.1c0,0,0,0,0,0.1c0,0,0,0.1,0.1,0.1c0,0,0,0,0,0.1c0,0,0.1,0.1,0.1,0.1c0,0,0,0,0,0.1c0,0,0.1,0.1,0.1,0.1
				c0,0,0,0,0,0.1c0,0,0.1,0.1,0.1,0.1c0,0,0,0,0,0c0,0,0,0,0,0c0,0.2,0.1,0.3,0.3,0.3c0,0,0,0,0.1,0c0,0,0,0,0.1,0.1c0,0,0,0,0.1,0
				c0,0,0.1,0,0.1,0.1c0,0,0,0,0.1,0c0,0,0.1,0,0.1,0.1c0,0,0,0,0.1,0c0,0,0.1,0,0.1,0.1c0,0,0,0,0.1,0c0,0,0.1,0,0.1,0.1
				c0,0,0,0,0.1,0c0,0,0.1,0,0.1,0.1c0,0,0,0,0.1,0c0,0,0.1,0,0.1,0c0,0,0,0,0.1,0c0,0,0,0,0.1,0c0,0,0,0,0.1,0c0,0,0,0,0.1,0
				c0,0,0,0,0.1,0c0,0,0,0,0.1,0c0,0,0.1,0,0.1,0c0,0,0,0,0.1,0c0,0,0.1,0,0.1,0c0,0,0,0,0,0c0,0,0.1,0,0.1,0c0,0,0,0,0,0
				c0,0,0.1,0,0.1,0c0,0,0,0,0,0c0,0,0.1,0,0.1,0c0,0,0,0,0,0c0,0,0.1,0,0.1,0c0,0,0,0,0,0l0,0c0,0,0,0,0,0c-0.4,0.2-1.3,0.7-2,1.3
				c0,0-0.1,0-0.1,0c-0.2,0-0.3,0.1-0.3,0.3c0,0,0,0,0,0c-0.4,0.4-0.7,0.8-1,1.2c-0.2,0-0.3,0.1-0.3,0.3c0,0.1,0,0.1,0.1,0.2
				c0,0.2-0.1,0.3-0.1,0.5h0.3c0-0.1,0-0.3,0.1-0.4c0.1,0,0.2-0.1,0.2-0.2h6.8c0,0.1,0.1,0.1,0.2,0.2c0,0.1,0.1,0.3,0.1,0.4h0.3
				c0-0.2,0-0.3-0.1-0.5C165.3,77.1,165.3,77,165.3,77z M161.3,73.7c-0.3-0.1-1.3-0.6-2.2-1.4c0,0,0,0,0,0h4.4c0,0,0,0,0,0
				C162.6,73.1,161.6,73.6,161.3,73.7z M163.9,72c0,0-0.1,0-0.1,0c-0.1,0-0.3,0.1-0.3,0.2h-4.4c0-0.1-0.2-0.2-0.3-0.2
				c0,0-0.1,0-0.1,0c-0.3-0.3-0.6-0.7-0.8-1.1c0,0,0.1-0.1,0.1-0.2h6.8c0,0,0,0,0,0c0,0.1,0,0.1,0.1,0.2
				C164.5,71.3,164.2,71.6,163.9,72z M164.5,69.1c0,0.1,0.2,0.2,0.3,0.2c0.1,0.2,0.2,0.5,0.2,0.8c0,0.1,0,0.3,0,0.4
				c-0.1,0-0.2,0.1-0.2,0.2h-6.8c0-0.1-0.1-0.1-0.2-0.2c0-0.1,0-0.2,0-0.4c0-0.1,0-0.1,0-0.2c0,0,0,0,0,0c0-0.1,0-0.1,0-0.2
				c0,0,0,0,0,0c0-0.1,0-0.1,0-0.2c0,0,0,0,0,0c0,0,0-0.1,0.1-0.1c0,0,0,0,0,0c0,0,0-0.1,0-0.1c0.1,0,0.2-0.1,0.2-0.2H164.5z
				 M164.5,68.8c0,0,0,0.1,0,0.2l0,0h-6.4c0,0,0-0.1,0-0.1c0,0,0-0.1,0.1-0.1c0,0,0,0,0,0c0,0,0.1-0.1,0.1-0.1c0,0,0,0,0,0
				c0,0,0.1-0.1,0.1-0.1c0,0,0,0,0,0c0,0,0.1-0.1,0.1-0.1c0,0,0,0,0,0c0,0,0.1-0.1,0.1-0.1c0,0,0,0,0,0c0,0,0.1-0.1,0.1-0.1
				c0,0,0,0,0,0c0,0,0.1-0.1,0.1-0.1c0,0,0,0,0,0c0,0,0.1-0.1,0.1-0.1c0,0,0,0,0,0c0,0,0,0,0,0c0,0,0.1,0,0.1,0
				c0.1,0,0.3-0.1,0.3-0.2h3.5c0,0.1,0.2,0.2,0.3,0.2c0,0,0.1,0,0.1,0C163.9,68.1,164.3,68.4,164.5,68.8z M163,67.4h-3.4
				c0,0,0.1-0.1,0.1-0.1c0,0,0,0,0,0c0,0,0.1-0.1,0.1-0.1c0,0,0,0,0,0c0,0,0.1-0.1,0.1-0.1c0,0,0,0,0,0c0,0,0.1-0.1,0.1-0.1
				c0,0,0,0,0,0c0,0,0.1-0.1,0.1-0.1c0,0,0,0,0,0c0,0,0.1-0.1,0.1-0.1c0,0,0,0,0,0c0,0,0.1,0,0.1-0.1c0,0,0,0,0,0c0,0,0.1,0,0.1-0.1
				c0,0,0,0,0,0c0,0,0.1,0,0.1-0.1c0,0,0,0,0,0c0,0,0.1,0,0.1-0.1c0,0,0,0,0,0c0,0,0.1,0,0.1-0.1c0,0,0,0,0,0c0.1,0,0.2-0.1,0.2-0.1
				l0,0C161.5,66.5,162.3,66.9,163,67.4z M157.8,63.2c-0.1-0.3-0.2-0.6-0.2-0.9c0-0.1,0-0.2,0-0.2c0.1,0,0.2-0.1,0.2-0.2h6.9
				c0,0.1,0.1,0.2,0.2,0.3c0,0,0,0,0,0c0,0,0,0,0,0.1c0,0,0,0,0,0c0,0,0,0.1,0,0.1c0,0.1,0,0.1,0,0.2c0,0,0,0,0,0c0,0.1,0,0.1,0,0.2
				c0,0,0,0,0,0c0,0.1,0,0.1,0,0.1c0,0,0,0,0,0c0,0,0,0.1,0,0.1c0,0,0,0,0,0c0,0,0,0.1-0.1,0.1c0,0,0,0,0,0c0,0,0,0,0,0
				c-0.1,0-0.2,0.1-0.3,0.2h-6.4C158,63.3,158,63.2,157.8,63.2z M157.9,55.7c0,0,0.1-0.1,0.1-0.1h6.7c0,0,0,0.1,0,0.1
				c-0.2,0.4-0.6,0.8-0.9,1.1c0,0,0,0-0.1,0c-0.1,0-0.3,0.1-0.3,0.2h-4.1c0-0.1-0.2-0.2-0.3-0.2c0,0-0.1,0-0.1,0
				C158.5,56.5,158.1,56.1,157.9,55.7z M159.3,57.1h4.1c-0.9,0.7-1.8,1.1-2,1.2C161,58.3,160.1,57.8,159.3,57.1z M161.3,58.7
				L161.3,58.7L161.3,58.7c0.1,0,0.2,0.1,0.4,0.2c0,0,0,0,0,0c0,0,0,0,0,0c0,0,0,0,0,0c0,0,0,0,0,0c0,0,0,0,0,0c0,0,0,0,0.1,0
				c0,0,0,0,0,0c0,0,0,0,0,0c0,0,0,0,0,0c0,0,0,0,0,0c0,0,0,0,0,0c0,0,0,0,0,0c0,0,0,0,0,0c0,0,0,0,0,0c0,0,0,0,0,0c0,0,0,0,0,0
				c0,0,0,0,0,0c0,0,0,0,0,0c0,0,0,0,0.1,0c0,0,0,0,0,0c0,0,0,0,0.1,0c0,0,0,0,0,0c0,0,0,0,0.1,0c0,0,0,0,0,0c0,0,0,0,0.1,0
				c0,0,0,0,0,0c0,0,0,0,0.1,0c0,0,0,0,0,0c0,0,0,0,0.1,0c0,0,0,0,0,0c0,0,0,0,0.1,0c0,0,0,0,0,0c0,0,0,0,0.1,0c0,0,0,0,0,0
				c0,0,0.1,0,0.1,0.1c0,0,0,0,0,0c0,0,0,0,0.1,0.1c0,0,0,0,0,0c0,0,0,0,0.1,0c0,0,0,0,0,0c0,0,0,0,0.1,0c0,0,0,0,0,0
				c0,0,0,0,0.1,0.1c0,0,0,0,0,0c0,0,0,0,0.1,0.1c0,0,0,0,0,0c0,0,0,0,0.1,0.1c0,0,0,0,0,0c0,0,0,0,0.1,0.1c0,0,0,0,0,0
				c0,0,0,0,0.1,0.1c0,0,0,0,0,0c0,0,0,0,0.1,0.1c0,0,0,0,0,0H159c0,0,0,0,0,0c0,0,0,0,0,0C159.9,59.4,161,58.9,161.3,58.7z
				 M158.6,60.6C158.6,60.6,158.6,60.6,158.6,60.6c0.2,0,0.3-0.1,0.4-0.2h4.7c0,0.1,0.2,0.2,0.3,0.2c0,0,0.1,0,0.1,0
				c0,0,0,0,0.1,0.1c0,0,0,0,0,0c0,0,0,0,0.1,0.1c0,0,0,0,0,0c0,0,0,0,0.1,0.1c0,0,0,0,0,0c0,0,0,0,0.1,0.1c0,0,0,0,0,0
				c0,0,0,0,0.1,0.1c0,0,0,0,0,0c0,0,0,0,0.1,0.1c0,0,0,0,0,0c0,0,0,0,0,0.1c0,0,0,0,0,0c0,0,0,0,0,0.1c0,0,0,0,0,0c0,0,0,0,0,0.1
				c0,0,0,0,0,0c0,0,0,0,0,0.1c0,0,0,0,0,0c0,0,0,0,0,0.1c0,0,0,0,0,0c0,0,0,0,0,0.1c0,0,0,0,0,0c0,0,0,0,0,0.1c0,0,0,0,0,0
				c0,0,0,0,0,0.1c0,0,0,0,0,0c0,0,0,0,0,0.1c0,0,0,0,0,0c0,0,0,0,0,0c0,0,0,0.1-0.1,0.1h-7c0,0,0-0.1-0.1-0.1
				C157.9,61.3,158.2,60.9,158.6,60.6z M158.1,63.7c0,0,0-0.1,0-0.1c0,0,0,0,0,0h6.3c0,0,0,0,0,0c0,0,0,0.1,0,0.1
				c0,0-0.1,0.1-0.1,0.1c0,0,0,0,0,0c0,0-0.1,0.1-0.1,0.1c0,0,0,0,0,0c0,0-0.1,0.1-0.1,0.1c0,0,0,0,0,0c0,0-0.1,0.1-0.1,0.1
				c0,0,0,0,0,0c0,0-0.1,0.1-0.1,0.1c0,0,0,0,0,0c0,0-0.1,0.1-0.1,0.1c0,0,0,0,0,0c0,0-0.1,0.1-0.1,0.1c0,0,0,0,0,0
				c-0.1,0.1-0.1,0.1-0.2,0.2c0,0-0.1,0-0.2,0c-0.1,0-0.3,0.1-0.3,0.2h-3.3c0-0.1-0.1-0.2-0.3-0.2c0,0-0.1,0-0.1,0
				C158.8,64.4,158.4,64.1,158.1,63.7z M159.7,65.1h3.2c0,0,0,0,0,0c0,0-0.1,0-0.1,0.1c0,0,0,0,0,0c0,0-0.1,0.1-0.1,0.1c0,0,0,0,0,0
				c0,0-0.1,0.1-0.1,0.1c0,0,0,0,0,0c0,0-0.1,0.1-0.1,0.1c0,0,0,0,0,0c0,0-0.1,0.1-0.1,0.1c0,0,0,0,0,0c0,0-0.1,0-0.1,0.1
				c0,0,0,0,0,0c0,0-0.1,0-0.1,0.1c0,0,0,0,0,0c0,0-0.1,0-0.1,0.1c0,0,0,0,0,0c0,0-0.1,0-0.1,0.1c0,0,0,0,0,0c0,0-0.1,0-0.1,0
				c0,0,0,0,0,0c-0.1,0-0.2,0.1-0.2,0.1c0,0,0,0-0.1,0C161.1,65.9,160.4,65.6,159.7,65.1z M161.3,74c0.3,0.1,1.3,0.6,2.2,1.3h-4.3
				C160,74.7,161,74.2,161.3,74z M158.7,75.7C158.8,75.7,158.8,75.7,158.7,75.7c0.2,0,0.4-0.1,0.4-0.2h4.3c0,0.1,0.2,0.2,0.3,0.2
				c0,0,0.1,0,0.1,0c0.4,0.3,0.7,0.7,0.9,1.1c0,0,0,0.1,0,0.1h-6.8c0-0.1,0-0.1,0-0.2C158.1,76.4,158.4,76,158.7,75.7z"/>
		</g>
		<polygon fill="#004573" points="149.6,79 159.1,89 141.7,93.9 		"/>
	</g>
	<g>
		<g>
			<circle fill="#E7E4E5" cx="86.7" cy="76.3" r="24.5"/>
			<path fill="#CFCCCD" d="M93.9,99.7c7.1-2.2,12.8-7.4,15.6-14.2L91.7,64h-3.8l-4.4,0.6l-1.8,0l-0.3,0.3l-0.2,1.5l0.1,2.7l0,1
				l0.5,0.9l0.6,9.3l-0.5,4.9L93.9,99.7z"/>
			<g>
				<g>
					<rect x="83.6" y="73.4" fill="#0A1A27" width="8" height="7.6"/>
					<path fill="#FCCC04" d="M81.7,70.7v13.4c0,1.4,1.2,2.6,2.7,2.6H89c1.5,0,2.7-1.2,2.7-2.6V70.7H81.7z M90.8,79.4h-5.9
						c-0.2,0-0.3-0.1-0.3-0.3c0-0.2,0.2-0.3,0.3-0.3h5.9c0.2,0,0.3,0.1,0.3,0.3C91.1,79.2,91,79.4,90.8,79.4z M90.8,78.1h-5.9
						c-0.2,0-0.3-0.1-0.3-0.3c0-0.2,0.2-0.3,0.3-0.3h5.9c0.2,0,0.3,0.1,0.3,0.3C91.1,78,91,78.1,90.8,78.1z M90.8,75.7h-4.4
						c-0.2,0-0.3-0.1-0.3-0.3c0-0.2,0.1-0.3,0.3-0.3h4.4c0.2,0,0.3,0.1,0.3,0.3C91.1,75.6,91,75.7,90.8,75.7z"/>
				</g>
				<g>
					<path fill="#CFCCCD" d="M83.7,64.9c-0.1,0-0.2,0.1-0.2,0.2v3.5h0.4v-3.5C83.9,65,83.9,64.9,83.7,64.9z"/>
					<path fill="#CFCCCD" d="M84.5,64.9c-0.1,0-0.2,0.1-0.2,0.2v3.5h0.4v-3.5C84.7,65,84.6,64.9,84.5,64.9z"/>
					<path fill="#CFCCCD" d="M85.2,64.9c-0.1,0-0.2,0.1-0.2,0.2v3.5h0.4v-3.5C85.4,65,85.3,64.9,85.2,64.9z"/>
					<path fill="#CFCCCD" d="M86.7,64.9c-0.1,0-0.2,0.1-0.2,0.2v3.5h0.4v-3.5C86.9,65,86.8,64.9,86.7,64.9z"/>
					<path fill="#CFCCCD" d="M86,64.9c-0.1,0-0.2,0.1-0.2,0.2v3.5h0.4v-3.5C86.2,65,86.1,64.9,86,64.9z"/>
					<path fill="#CFCCCD" d="M83,64.9c-0.1,0-0.2,0.1-0.2,0.2v3.5h0.4v-3.5C83.2,65,83.1,64.9,83,64.9z"/>
					<path fill="#CFCCCD" d="M81.5,64.9c-0.1,0-0.2,0.1-0.2,0.2v3.5h0.4v-3.5C81.7,65,81.6,64.9,81.5,64.9z"/>
					<path fill="#CFCCCD" d="M82.3,64.9c-0.1,0-0.2,0.1-0.2,0.2v3.5h0.4v-3.5C82.5,65,82.4,64.9,82.3,64.9z"/>
					<path fill="#CFCCCD" d="M90.4,64.9c-0.1,0-0.2,0.1-0.2,0.2v3.5h0.4v-3.5C90.6,65,90.5,64.9,90.4,64.9z"/>
					<path fill="#CFCCCD" d="M87.4,64.9c-0.1,0-0.2,0.1-0.2,0.2v3.5h0.4v-3.5C87.6,65,87.5,64.9,87.4,64.9z"/>
					<path fill="#CFCCCD" d="M91.1,64.9c-0.1,0-0.2,0.1-0.2,0.2v3.5h0.4v-3.5C91.3,65,91.2,64.9,91.1,64.9z"/>
					<path fill="#CFCCCD" d="M91.8,64.9c-0.1,0-0.2,0.1-0.2,0.2v3.5H92v-3.5C92,65,92,64.9,91.8,64.9z"/>
					<path fill="#CFCCCD" d="M88.2,64.9c-0.1,0-0.2,0.1-0.2,0.2v3.5h0.4v-3.5C88.4,65,88.3,64.9,88.2,64.9z"/>
					<path fill="#CFCCCD" d="M88.9,64.9c-0.1,0-0.2,0.1-0.2,0.2v3.5h0.4v-3.5C89.1,65,89,64.9,88.9,64.9z"/>
					<path fill="#CFCCCD" d="M89.6,64.9c-0.1,0-0.2,0.1-0.2,0.2v3.5h0.4v-3.5C89.8,65,89.8,64.9,89.6,64.9z"/>
				</g>
				<path fill="#FFFFFF" d="M92.4,68.6h-0.1v-3c0-1.2-1-2.2-2.2-2.2h-6.6c-1.2,0-2.2,1-2.2,2.2v3H81c-0.2,0-0.3,0.1-0.3,0.3v1.2
					c0,0.2,0.1,0.3,0.3,0.3h11.3c0.2,0,0.3-0.1,0.3-0.3v-1.2C92.7,68.7,92.5,68.6,92.4,68.6z M81.7,68.6h-0.4v-3.5
					c0-0.1,0.1-0.2,0.2-0.2c0.1,0,0.2,0.1,0.2,0.2V68.6z M82.5,68.6h-0.4v-3.5c0-0.1,0.1-0.2,0.2-0.2c0.1,0,0.2,0.1,0.2,0.2V68.6z
					 M83.2,68.6h-0.4v-3.5c0-0.1,0.1-0.2,0.2-0.2c0.1,0,0.2,0.1,0.2,0.2V68.6z M83.9,68.6h-0.4v-3.5c0-0.1,0.1-0.2,0.2-0.2
					c0.1,0,0.2,0.1,0.2,0.2V68.6z M84.7,68.6h-0.4v-3.5c0-0.1,0.1-0.2,0.2-0.2c0.1,0,0.2,0.1,0.2,0.2V68.6z M85.4,68.6H85v-3.5
					c0-0.1,0.1-0.2,0.2-0.2c0.1,0,0.2,0.1,0.2,0.2V68.6z M86.2,68.6h-0.4v-3.5c0-0.1,0.1-0.2,0.2-0.2c0.1,0,0.2,0.1,0.2,0.2V68.6z
					 M86.9,68.6h-0.4v-3.5c0-0.1,0.1-0.2,0.2-0.2c0.1,0,0.2,0.1,0.2,0.2V68.6z M87.6,68.6h-0.4v-3.5c0-0.1,0.1-0.2,0.2-0.2
					c0.1,0,0.2,0.1,0.2,0.2V68.6z M88.4,68.6H88v-3.5c0-0.1,0.1-0.2,0.2-0.2c0.1,0,0.2,0.1,0.2,0.2V68.6z M89.1,68.6h-0.4v-3.5
					c0-0.1,0.1-0.2,0.2-0.2c0.1,0,0.2,0.1,0.2,0.2V68.6z M89.8,68.6h-0.4v-3.5c0-0.1,0.1-0.2,0.2-0.2c0.1,0,0.2,0.1,0.2,0.2V68.6z
					 M90.6,68.6h-0.4v-3.5c0-0.1,0.1-0.2,0.2-0.2c0.1,0,0.2,0.1,0.2,0.2V68.6z M91.3,68.6h-0.4v-3.5c0-0.1,0.1-0.2,0.2-0.2
					c0.1,0,0.2,0.1,0.2,0.2V68.6z M92,68.6h-0.4v-3.5c0-0.1,0.1-0.2,0.2-0.2c0.1,0,0.2,0.1,0.2,0.2V68.6z"/>
			</g>
		</g>
		<polygon fill="#CFCCCD" points="95.9,97.7 105.7,89.7 109.1,101.2 		"/>
	</g>
	<g>
		<g>
			<circle fill="#004573" cx="33" cy="137.8" r="21.4"/>
			<path fill="#003A61" d="M53.8,142.8L41,128.2l-1.5,0.5l-2.4-0.6l-2.6,1.3l-2.9,3.6l-2.8,3.3l-0.9,3.5l-1.9,2.1l-1.2,2.3l0,1.7
				l11.4,13.2C45,157.5,51.7,151.1,53.8,142.8z"/>
			<g>
				<path fill="#FF6D3A" d="M28.3,141.5C28.3,141.5,28.3,141.5,28.3,141.5c-0.5-0.1-1.1,0-1.4,0.4l-1.4,1.7
					c-0.4,0.5-0.4,1.3,0.2,1.8c0.5,0.4,1.3,0.4,1.8-0.2l1.4-1.7c0.3-0.4,0.4-1,0.1-1.4c0,0,0,0,0,0l1.1-1.3l-0.7-0.6L28.3,141.5z"/>
				<path fill="#63CAF5" d="M35.9,129.8l-5.7,6.9c-0.7,0.9-0.8,2.7-0.8,3.5l2-2.4l-0.6-0.5c-0.1,0-0.1-0.1,0-0.2
					c0-0.1,0.1-0.1,0.2,0l0.6,0.5l1.1-1.3l-0.6-0.5c-0.1,0-0.1-0.1,0-0.2c0-0.1,0.1-0.1,0.2,0l0.6,0.5l1.1-1.3l-0.6-0.5
					c-0.1,0-0.1-0.1,0-0.2c0-0.1,0.1-0.1,0.2,0l0.6,0.5l1.1-1.3l-0.6-0.5c-0.1,0-0.1-0.1,0-0.2c0-0.1,0.1-0.1,0.2,0l0.6,0.5l1.1-1.3
					l-0.6-0.5c-0.1,0-0.1-0.1,0-0.2c0-0.1,0.1-0.1,0.2,0l0.6,0.5l0.5-0.7c0.2-0.2,0.4-0.2,0.6-0.1c0.2,0.2,0.2,0.4,0.1,0.6l-0.5,0.7
					l0.6,0.5c0.1,0,0.1,0.1,0,0.2c0,0.1-0.1,0.1-0.2,0l-0.6-0.5l-1.1,1.3l0.6,0.5c0.1,0,0.1,0.1,0,0.2c0,0.1-0.1,0.1-0.2,0l-0.6-0.5
					l-1.1,1.3l0.6,0.5c0.1,0,0.1,0.1,0,0.2c0,0.1-0.1,0.1-0.2,0l-0.6-0.5l-1.1,1.3l0.6,0.5c0.1,0,0.1,0.1,0,0.2c0,0.1-0.1,0.1-0.2,0
					l-0.6-0.5l-1.1,1.3l0.6,0.5c0.1,0,0.1,0.1,0,0.2c0,0.1-0.1,0.1-0.2,0l-0.6-0.5l-2,2.4c0.8-0.1,2.6-0.5,3.3-1.4l5.8-6.9
					c0.7-0.9,0.6-2.2-0.3-2.9C38,128.8,36.7,128.9,35.9,129.8z"/>
				<path fill="#85DCFF" d="M40.6,127.9l-0.5-0.4c-1.7-1.5-4.3-1.2-5.8,0.5l-6.6,8c-1.4,1.7-1.1,3.8-1,4.6l-1.9,2.3
					c-0.8,0.9-0.7,2.4,0.3,3.2c0.9,0.8,2.4,0.7,3.2-0.3l1.9-2.3c1.6,0,2.9,0,4.3-1.8l6.6-8C42.6,131.9,42.4,129.3,40.6,127.9z
					 M39.1,132.5l-5.8,6.9c-0.7,0.9-2.5,1.3-3.3,1.4l-1.1,1.3c0,0,0,0,0,0c0.2,0.4,0.2,1-0.1,1.4l-1.4,1.7c-0.4,0.5-1.2,0.6-1.8,0.2
					c-0.5-0.4-0.6-1.2-0.2-1.8l1.4-1.7c0.3-0.4,0.9-0.5,1.4-0.4c0,0,0,0,0,0l1.1-1.3c0-0.8,0.1-2.6,0.8-3.5l5.7-6.9
					c0.7-0.9,2.1-1,2.9-0.3C39.7,130.3,39.9,131.6,39.1,132.5z"/>
				<path fill="#FF6D3A" d="M32.7,138.9c0.1,0,0.1,0,0.2,0c0-0.1,0-0.1,0-0.2l-0.6-0.5l1.1-1.3l0.6,0.5c0.1,0,0.1,0,0.2,0
					c0-0.1,0-0.1,0-0.2l-0.6-0.5l1.1-1.3l0.6,0.5c0.1,0,0.1,0,0.2,0c0-0.1,0-0.1,0-0.2l-0.6-0.5l1.1-1.3l0.6,0.5c0.1,0,0.1,0,0.2,0
					c0-0.1,0-0.1,0-0.2l-0.6-0.5l1.1-1.3l0.6,0.5c0.1,0,0.1,0,0.2,0c0-0.1,0-0.1,0-0.2l-0.6-0.5l0.5-0.7c0.2-0.2,0.1-0.5-0.1-0.6
					c-0.2-0.2-0.5-0.1-0.6,0.1l-0.5,0.7l-0.6-0.5c0,0-0.1,0-0.2,0c0,0.1,0,0.1,0,0.2l0.6,0.5l-1.1,1.3l-0.6-0.5c-0.1,0-0.1,0-0.2,0
					c0,0.1,0,0.1,0,0.2l0.6,0.5l-1.1,1.3l-0.6-0.5c-0.1,0-0.1,0-0.2,0c0,0.1,0,0.1,0,0.2l0.6,0.5l-1.1,1.3l-0.6-0.5
					c-0.1,0-0.1,0-0.2,0c0,0.1,0,0.1,0,0.2l0.6,0.5l-1.1,1.3l-0.6-0.5c-0.1,0-0.1,0-0.2,0c0,0.1,0,0.1,0,0.2l0.6,0.5l-2,2.4l0.7,0.6
					l2-2.4L32.7,138.9z"/>
			</g>
		</g>
		<polygon fill="#004573" points="49.9,127.4 51.9,139.1 65.6,128.9 		"/>
	</g>
	<g>
		<g>
			<circle fill="#FCCC04" cx="193.5" cy="44.1" r="22.9"/>
			<path fill="#FCBD04" d="M215.2,51.2l-11.6-14l-0.9,0.8h-1.7l-1.5-2.2l-0.5,0l-1.9-2.5l-1.5,0.4l-2.2-0.2l-3.6-0.2l-0.4,1.4
				l0.4,2.9l-3.2,0.5l-1.6-2.3l-1.6,1.2l-0.9,5.9v7.8l13.2,16.1C205,65.9,212.5,59.7,215.2,51.2z"/>
			<g>
				<rect x="185.1" y="35.8" fill="#004573" width="16" height="16.3"/>
				<path fill="#FFFFFF" d="M201.1,35.8v16.3c0,0,0,0,0,0l0,0c1.9-0.1,3.3-1.7,3.3-3.6v-9.2C204.4,37.5,203,36,201.1,35.8z"/>
				<path fill="#FFFFFF" d="M197.3,35.8v-2.1c0-0.4-0.3-0.7-0.7-0.7h-7c-0.4,0-0.7,0.3-0.7,0.7v2.1h-2.2v16.4h12.9V35.8H197.3z
					 M190,34.6c0-0.3,0.2-0.5,0.5-0.5h5.2c0.3,0,0.5,0.2,0.5,0.5v1.2H190V34.6z M196.9,45.3c0,0.3-0.2,0.5-0.5,0.5h-1.6v1.6
					c0,0.3-0.2,0.5-0.5,0.5h-2.1c-0.3,0-0.5-0.2-0.5-0.5v-1.6H190c-0.3,0-0.5-0.2-0.5-0.5v-2.1c0-0.3,0.2-0.5,0.5-0.5h1.6v-1.6
					c0-0.3,0.2-0.5,0.5-0.5h2.1c0.3,0,0.5,0.2,0.5,0.5v1.6h1.6c0.3,0,0.5,0.2,0.5,0.5V45.3z"/>
				<path fill="#FFFFFF" d="M181.9,39.4v9.2c0,1.9,1.4,3.4,3.2,3.6V35.8C183.3,36,181.9,37.5,181.9,39.4z"/>
			</g>
		</g>
		<polygon fill="#FCCC04" points="177.8,56.4 186.3,63.6 175.9,67.7 		"/>
	</g>
</g>
</svg>
