<?xml version="1.0" encoding="utf-8"?>
<!-- Generator: Adobe Illustrator 19.0.0, SVG Export Plug-In . SVG Version: 6.00 Build 0)  -->
<svg version="1.1" id="Layer_1" xmlns="http://www.w3.org/2000/svg" xmlns:xlink="http://www.w3.org/1999/xlink" x="0px" y="0px"
	 viewBox="0 0 216.5 248.9" style="enable-background:new 0 0 216.5 248.9;" xml:space="preserve">
<style type="text/css">
	.st0{fill-rule:evenodd;clip-rule:evenodd;fill:#EBEBEB;}
	.st1{fill-rule:evenodd;clip-rule:evenodd;fill:#F6F6F6;}
	.st2{fill:url(#SVGID_1_);}
	.st3{fill-rule:evenodd;clip-rule:evenodd;fill:#6A7682;}
	.st4{fill:url(#SVGID_2_);}
	.st5{fill:url(#SVGID_3_);}
	.st6{fill-rule:evenodd;clip-rule:evenodd;fill:#88BFFD;}
	.st7{fill-rule:evenodd;clip-rule:evenodd;fill:#1594A2;}
	.st8{fill-rule:evenodd;clip-rule:evenodd;fill:#B3D6FE;}
	.st9{fill-rule:evenodd;clip-rule:evenodd;fill:none;stroke:#1C1819;stroke-width:1.3108;stroke-miterlimit:10;}
	.st10{fill-rule:evenodd;clip-rule:evenodd;fill:none;stroke:#B6B6B6;stroke-miterlimit:10;}
	.st11{fill-rule:evenodd;clip-rule:evenodd;fill:none;stroke:#B6B6B6;stroke-width:0.6554;stroke-miterlimit:10;}
	.st12{fill-rule:evenodd;clip-rule:evenodd;fill:#6D6E71;}
	.st13{fill-rule:evenodd;clip-rule:evenodd;fill:none;stroke:#1C1819;stroke-width:0.6554;stroke-miterlimit:10;}
	.st14{fill-rule:evenodd;clip-rule:evenodd;fill:none;stroke:#1C1819;stroke-width:0.4773;stroke-miterlimit:10;}
	.st15{fill-rule:evenodd;clip-rule:evenodd;fill:#D0D2D3;}
	.st16{fill-rule:evenodd;clip-rule:evenodd;fill:#1C1819;}
</style>
<g>
	<path class="st0" d="M68.9,113.2l-36,16.4c0,0-17.5,1.5-22.1,24C6.2,176.1,0,224.9,0,224.9s27.5,27.1,106.6,23.6l0.5-112.1
		L68.9,113.2z"/>
	<path class="st0" d="M147.6,113.2l36,16.4c0,0,17.5,1.5,22.1,24c4.6,22.5,10.8,71.3,10.8,71.3S189,252,109.9,248.6l-0.5-112.1
		L147.6,113.2z"/>
	<path class="st1" d="M131.2,102.2l25.8,22.5l-5,12.2l10.3,9.2c0,0-18.3,77.8-53.4,102.5l-2.8-10.4
		C106.2,238.2,136.8,187.6,131.2,102.2z"/>
	<path class="st1" d="M83.7,102.2l-25.8,22.5l5,12.2L52.5,146c0,0,18.3,77.8,53.4,102.5l2.8-10.4C108.7,238.2,78.1,187.6,83.7,102.2
		z"/>
	<g>
		<linearGradient id="SVGID_1_" gradientUnits="userSpaceOnUse" x1="104.1172" y1="62.182" x2="104.1172" y2="2.555680e-010">
			<stop  offset="0" style="stop-color:#9E5430"/>
			<stop  offset="1" style="stop-color:#E1851B"/>
		</linearGradient>
		<path class="st2" d="M103.8,0.6c4.4,1.8,9.8,2.6,12.9,5.7c5.3-1.9,10.6-0.2,15,1.6c2,5.5,8,8.8,9.3,15.5c0.4,2.3-1.2,4.7-1,7.2
			c0.2,3.2,3.6,6,3.6,9.3c0.1,4.8-4.1,9.2-6.2,12.9c0,0.2,0,0.3,0,0.5c-1.6,2.1-2.5,4.8-4.1,6.7c-4-3.5-1.2-8.9-1-14.5
			c0.2-4.7-5.3-25.4-8.3-27.4c-2.8-2-6.7-0.4-10.3,0.5c-2.4,0.5,0.3-1.7-1-1.6c-10.2,0.4-13.7,11.1-24.3,10.4
			c-3.8-0.3-6.8-2.9-9.8-3.1c-4.3,9.9-1.6,26.6-2.1,37.8c-0.6-2.3-4.2-4.8-5.7-7.8c-0.8-7.2-8.9-14.1-4.1-21.7
			c-5.7-5.5,1.9-17,6.7-22.3C78.7,4.6,87.2,2.3,93,0.6C95.7-0.2,101.1-0.2,103.8,0.6z"/>
		<path class="st3" d="M134.9,73c-0.8,3.6-1.3,7.6-3.6,9.8c-0.6-1.7,1.2-5.3,0.5-8.8C132.7,73.7,133.7,73.2,134.9,73z"/>
		<linearGradient id="SVGID_2_" gradientUnits="userSpaceOnUse" x1="104.3969" y1="124.8441" x2="104.3969" y2="17.1556">
			<stop  offset="0" style="stop-color:#F3D3A2"/>
			<stop  offset="1" style="stop-color:#EDB676"/>
		</linearGradient>
		<path class="st4" d="M70.7,54.4c1.5,3,5.1,5.5,5.7,7.8c0.5-11.2-2.2-27.9,2.1-37.8c3,0.3,6,2.8,9.8,3.1
			c10.6,0.8,14.1-9.9,24.3-10.4c1.4-0.2-1.4,2,1,1.6c3.6-0.9,7.5-2.5,10.3-0.5c2.9,2.1,8.4,22.7,8.3,27.4c-0.2,5.6-3,11,1,14.5
			c1.7-2,2.6-4.7,4.1-6.7c1.1,0.1,0.2,2.2,0.5,3.1c-0.3,5.9,0.6,13-3.1,16.6c-1.2,0.2-2.1,0.6-3.1,1c0.7,3.5-1.2,7.1-0.5,8.8
			c-1.9,3.5-1.1,12.2-0.5,16.6c0,0.7,0,1.4,0,2.1c0.2,3.8-1.2,6-1.6,9.3c-1.4,0.9-1.3,3.2-2.1,4.7c-3.6,5.8-12.4,14.3-18.6,5.7
			c-0.4-0.1-0.5-0.5-1-0.5c-0.2-0.5-0.5-0.9-1-1c-0.4-0.5-0.9-0.8-1.6-1c-4-3.6-8.7-6.5-12.9-9.8c-1.7-2.1-3.6-4-5.7-5.7
			c-2.8-8.1-5.7-16-7.8-24.8C70.9,75.6,70.8,59.7,70.7,54.4z"/>
		<linearGradient id="SVGID_3_" gradientUnits="userSpaceOnUse" x1="104.8779" y1="124.9445" x2="104.8779" y2="78.2235">
			<stop  offset="0" style="stop-color:#F3D3A2"/>
			<stop  offset="1" style="stop-color:#E8A04C"/>
		</linearGradient>
		<path class="st5" d="M78.5,78.2c0.4,1.7,11.3,22.2,29.4,19.7c18.1-2.6,23.4-15,23.4-15s-2.3,7.8-0.7,15.3
			c1.6,7.4-1.8,25-17.3,26.7c-15.6,1.7-30.8-18.4-30.6-25.1C82.8,92.9,78.5,78.2,78.5,78.2z"/>
	</g>
	<path class="st6" d="M106.6,238.2c0,0-28-44.6-25-104.7l18.7-9.8h16.3l15.6,4.3C132.2,128.1,131.8,210.4,106.6,238.2z"/>
	<path class="st7" d="M98.2,132.3l6,6.2c0,0-8.9,12.9-8.9,31.7c0,18.7-1.5,39.2-1.5,39.2l13.3,29.9l12.4-29.1l-1.4-41.5
		c0,0-4.1-26.4-7.3-29.9l6.2-7.1c0,0-5.6-6.4-9.8-7C102.9,124,94,129.6,98.2,132.3z"/>
	<path class="st8" d="M84,99.7c0,0,10.8,23.5,23.2,23.2c12.4-0.4,22.8-20.1,23-23.2c0.2-3.1,2.5,35.9,2.5,35.9L127,146
		c0,0-12.4-21.6-19.9-21.4c0,0-18.1,8.3-19.9,21.4l-5.6-9.5C81.6,136.6,81.3,100.5,84,99.7z"/>
	<path class="st9" d="M39.7,184.5c0,0-0.9-28.2,17.6-29.7c18.5-1.5,17.9,29.7,17.9,29.7"/>
	<path class="st9" d="M83.4,97.4c0,0-23.5,17.4-24.6,39.7c-1,22.3-1.5,16.6-1.5,16.6"/>
	<path class="st10" d="M39.9,183.6v34c0,0,1.5,3.4,8.1,4.3"/>
	<path class="st11" d="M75.2,183.9l0.9,33.3c0,0-4,6-9.3,5.8"/>
	<ellipse class="st12" cx="50" cy="223" rx="4.3" ry="2.2"/>
	<path class="st12" d="M68.8,223c0,1.2-1.9,2.2-4.3,2.2c-2.4,0-4.3-1-4.3-2.2c0-1.2,1.9-2.2,4.3-2.2C66.8,220.8,68.8,221.8,68.8,223
		z"/>
	<path class="st9" d="M130.2,97.4c0,0,21.6,14.8,21.8,35.4c0.2,20.5-4.3,38.8-4.3,38.8"/>
	<path class="st13" d="M152.9,178.3c0,3.7-3,6.7-6.7,6.7c-3.7,0-6.7-3-6.7-6.7c0-3.7,3-6.7,6.7-6.7
		C149.9,171.6,152.9,174.6,152.9,178.3z"/>
	<circle class="st14" cx="146.2" cy="178.6" r="4.9"/>
	<polygon class="st15" points="157.2,194.6 179.3,194.6 179.3,212.4 168.2,221.3 157.2,212.5 	"/>
	<path class="st16" d="M163.5,192c0,0.6-0.5,1-1,1h-1.1c-0.6,0-1-0.5-1-1v-9c0-0.6,0.5-1,1-1h1.1c0.6,0,1,0.5,1,1V192z"/>
	<path class="st16" d="M171.4,192.1c0,0.5-0.4,0.9-0.9,0.9h-1.3c-0.5,0-0.9-0.4-0.9-0.9v-9.2c0-0.5,0.4-0.9,0.9-0.9h1.3
		c0.5,0,0.9,0.4,0.9,0.9V192.1z"/>
	<path class="st16" d="M179.3,192c0,0.6-0.5,1-1,1h-1.1c-0.6,0-1-0.5-1-1v-9c0-0.6,0.5-1,1-1h1.1c0.6,0,1,0.5,1,1V192z"/>
</g>
</svg>
