<svg xmlns="http://www.w3.org/2000/svg" xmlns:xlink="http://www.w3.org/1999/xlink" version="1.1" id="Layer_1" x="0px" y="0px" viewBox="0 0 218.4 168" xml:space="preserve" class="style0"><style>.style0{enable-background:	new 0 0 218.4 168;}</style><style type="text/css">.st0{fill:#BDD1DE;}.st1{fill:#FFFFFF;}.st2{fill:#E9F4F7;}.st3{fill:#96DCF9;}.st4{fill:#63CBF6;}.st5{fill:#32BAF3;}.st6{fill:#329FDE;}</style><g><g><path class="st0" d="M218.4 156.8c0 6.2-5 11.2-11.2 11.2h-196C5 168 0 163 0 156.8V11.2C0 5 5 0 11.2 0h196 c6.2 0 11.2 5 11.2 11.2V156.8"/><path class="st1" d="M207.2 151.2c0 3.1-2.5 5.6-5.6 5.6H16.8c-3.1 0-5.6-2.5-5.6-5.6V36.4c26.8 0 175.3 0 196 0V151.2"/><rect x="19.6" y="47.6" class="st2" width="61.6" height="8.4"/></g><polygon class="st3" points="82.6,157 65.9,157 65.9,132 82.6,132 82.6,157"/><polygon class="st4" points="105.9,157 89.2,157 89.2,108 105.9,108 105.9,157"/><rect x="112.5" y="80.1" class="st5" width="16.7" height="76.9"/><rect x="135.8" y="54.8" class="st6" width="16.7" height="102.2"/></g></svg>