<?xml version="1.0" encoding="utf-8"?>
<!-- Generator: Adobe Illustrator 26.0.1, SVG Export Plug-In . SVG Version: 6.00 Build 0)  -->
<svg version="1.1" id="Capa_1" xmlns="http://www.w3.org/2000/svg" xmlns:xlink="http://www.w3.org/1999/xlink" x="0px" y="0px"
	 viewBox="0 0 693 559" style="enable-background:new 0 0 693 559;" xml:space="preserve">
<style type="text/css">
	.st0{fill:#EBF8F9;}
	.st1{fill:#35BAC7;}
	.st2{opacity:0.95;fill:url(#SVGID_1_);}
	.st3{fill:#4598E6;}
	.st4{fill:#EB599B;}
	.st5{fill:#EEA987;}
	.st6{fill:#D98B52;}
	.st7{fill:#B84343;}
	.st8{fill:#C78D71;}
	.st9{fill:#EEA886;}
	.st10{fill:#16202E;}
	.st11{fill:#FAA146;}
	.st12{fill:#8E4F3A;}
	.st13{fill:#633029;}
	.st14{fill:#323657;}
	.st15{fill:#FCCCA2;}
	.st16{fill:#FCCA70;}
	.st17{fill:#E55353;}
	.st18{fill:#A77860;}
	.st19{fill:#EBEEFF;}
	.st20{opacity:0.95;}
	.st21{fill:url(#SVGID_00000155830247136155356390000017803570504142323887_);}
	.st22{fill:url(#SVGID_00000034794257128632014150000013701035554021383822_);}
	.st23{fill:url(#SVGID_00000182499672132789448360000011182375777559380376_);}
	.st24{fill:url(#SVGID_00000043433370132615709230000005835748102518339239_);}
	.st25{fill:url(#SVGID_00000119104793537424712900000002135143256149899911_);}
</style>
<g>
	<path class="st0" d="M250.1,336H83.8C69.5,336,58,324.5,58,310.3V143.9c0-14.2,11.5-25.7,25.7-25.7h166.4
		c14.2,0,25.7,11.5,25.7,25.7v166.4C275.9,324.5,264.4,336,250.1,336z"/>
	<rect x="116.5" y="286.5" class="st1" width="100.9" height="5"/>
	<rect x="130.8" y="302.2" class="st1" width="72.3" height="5"/>
	<path class="st0" d="M574.8,543.7H346.7c-19.3,0-35-15.7-35-35V228.8c0-19.3,15.7-35,35-35h228.1c19.3,0,35,15.7,35,35v279.9
		C609.9,528,594.2,543.7,574.8,543.7z"/>
	<g>
		<rect x="446.9" y="400.2" class="st1" width="23.6" height="4.4"/>
	</g>
	<g>
		<rect x="357.1" y="440.3" class="st1" width="137.6" height="8.5"/>
		<rect x="357.1" y="481.1" class="st1" width="111.3" height="8.5"/>
		<rect x="357.1" y="460.7" class="st1" width="65.2" height="8.5"/>
	</g>
	<g>
		<path class="st1" d="M530.7,228.7v4.3h25.2v23.7h4.3v-27.9H530.7z M359.5,256.6h4.3v-23.7H389v-4.3h-29.5V256.6z M555.9,378.7
			v23.7h-25.2v4.3h29.5v-28H555.9z M363.8,378.7h-4.3v28H389v-4.3h-25.2V378.7z"/>
	</g>
	<g>
		<g>
			<path class="st1" d="M546.9,490.2c-13.9,0-25.2-11.3-25.2-25.2c0-13.9,11.3-25.2,25.2-25.2c13.9,0,25.2,11.3,25.2,25.2
				C572.1,478.8,560.8,490.2,546.9,490.2z M546.9,444.6c-11.2,0-20.3,9.1-20.3,20.3c0,11.2,9.1,20.3,20.3,20.3
				c11.2,0,20.3-9.1,20.3-20.3C567.2,453.7,558.1,444.6,546.9,444.6z"/>
		</g>
		<g>
			<polygon class="st1" points="545.3,474.9 533.8,463.4 537.3,460 545.3,468 556.5,456.7 559.9,460.2 			"/>
		</g>
	</g>
	<linearGradient id="SVGID_1_" gradientUnits="userSpaceOnUse" x1="166.9481" y1="399.0746" x2="166.9481" y2="166.9572">
		<stop  offset="0" style="stop-color:#D1D7E0"/>
		<stop  offset="1" style="stop-color:#EBEBFF"/>
	</linearGradient>
	<rect x="93.5" y="126.3" class="st2" width="146.8" height="126"/>
	<path class="st0" d="M442,181.7H312.6c-8.4,0-15.3-6.8-15.3-15.3V52.8c0-8.4,6.8-15.3,15.3-15.3H442c8.4,0,15.3,6.8,15.3,15.3
		v113.6C457.3,174.8,450.5,181.7,442,181.7z"/>
	<g>
		<rect x="370.3" y="154.4" class="st3" width="12.7" height="2.4"/>
	</g>
	<g>
		<path class="st1" d="M415.3,63.6v2.3h13.5v12.7h2.3v-15H415.3z M323.4,78.6h2.3V65.9h13.5v-2.3h-15.8V78.6z M428.9,144.2v12.7
			h-13.5v2.3h15.8v-15H428.9z M325.7,144.2h-2.3v15h15.8v-2.3h-13.5V144.2z"/>
	</g>
	<g>
		<rect x="158.5" y="262.1" class="st1" width="17" height="3.1"/>
	</g>
	<g>
		<path class="st1" d="M217.8,140.8v3.1h18.1v17h3.1v-20H217.8z M95,160.9h3.1v-17h18.1v-3.1H95V160.9z M235.8,248.4v17h-18.1v3.1
			h21.2v-20H235.8z M98.1,248.4H95v20h21.2v-3.1H98.1V248.4z"/>
	</g>
	<g>
		<g>
			<path class="st4" d="M550.8,361.1h-28.3c-1.9-13.5-4.1-29-4.1-29s-1.1,12.8-2.5,29H402.7c-1-14.6-2.3-25.5-2.7-25.8
				c-0.7-0.3-4.7,12.6-8,25.8h-30.6c7.9-33.9,22.6-88.4,31.1-91.7c12.1-4.7,61.4-19.9,61.4-19.9h28.2c0,0,50,14.3,54.7,29.8
				C540.3,291.7,548.5,332.5,550.8,361.1z"/>
		</g>
		<g>
			<path class="st5" d="M469.1,158.3c0,0,26.3,4.1,22.3,45.3c-4,41.1-27.2,37.8-28.8,37.7c-1.6,0-23.3,0.7-25-49.5
				C437.7,191.8,437,154.6,469.1,158.3z"/>
		</g>
		<g>
			<path class="st5" d="M481.4,229.1c0,0-0.7,16.9,0.9,20.6c1.6,3.7-21.7,15.4-35.9,2.3c0,0,3.4-18.4,2.5-24.9
				C447.9,220.6,481.4,229.1,481.4,229.1z"/>
		</g>
		<g>
			<path class="st5" d="M491.8,191.9c0,0,2.9-3.1,3.9,0c1.1,3.1-4.5,17-4.1,17.6c0,0-0.5,1.2-1.2,0.5
				C489.8,209.5,491.8,191.9,491.8,191.9z"/>
		</g>
		<g>
			<path class="st5" d="M438,191.4c0,0-2.8-3.1-3.9,0c-1.1,3.1,4.1,17.1,3.8,17.7c0,0,0.5,1.2,1.2,0.6
				C439.7,209,438,191.4,438,191.4z"/>
		</g>
		<g>
			<path class="st6" d="M491.8,198.2l-3.8,5c0,0,0.1-11-0.5-12.8c-0.6-1.7-1.5-7-2-8.3c-0.5-1.2-22.6-7.4-42.1,1.8
				c0,0,0.9,7.9-1,8.6c-1.9,0.7-1,12.9-1,12.9l-3.1-3.5c0,0-4.7-31.6-3.6-34.9c1.2-3.3,4.9-23.1,44.9-11.4c0,0,12.5-2.6,15,6
				C497.2,170.4,491.8,198.2,491.8,198.2z"/>
		</g>
		<g>
			<path class="st5" d="M482.3,249.7c0,0,5.9,1.3-18.9,25c0,0-17.6-19.5-17-22.7C447,248.8,482.3,249.7,482.3,249.7z"/>
		</g>
		<g>
			<polygon class="st7" points="463.4,274.7 470.2,286.3 490.3,252.2 481.6,246.1 			"/>
		</g>
		<g>
			<polygon class="st7" points="463.4,274.7 447,248.6 437.7,254.6 454.4,286.3 			"/>
		</g>
		<g>
			<path class="st7" d="M458.4,347.2c0.2,3.9,0.3,8.6,0.3,13.9h-0.9c0-5.3-0.1-10-0.3-13.9c-1.5-29,5.5-64.3,5.5-72.6l0.9,0.2
				C463.8,283.1,456.8,318.3,458.4,347.2z"/>
		</g>
		<path class="st8" d="M451.3,236.4c0,0,6.2,6.6,15.1,4.8c8.8-1.8,12.7-5.8,12.7-5.8s-3.5,8.7-13.7,9.5
			C455.3,245.8,451.3,236.4,451.3,236.4z"/>
	</g>
	<g>
		<g>
			<g>
				<path class="st9" d="M146.8,142C146.8,142,146.7,142,146.8,142c-0.7-0.2-1.6-3-1.8-3.6c0-0.2-0.1-0.4-0.3-0.8
					c-0.7-2.3-2.5-7.6-1.8-9.6c0.2-0.6,0.5-1,1-1.1c0.9-0.2,2,1,2.1,1.1l0,0l0,0c0.2,2.2,1.4,13.5,0.9,14
					C146.9,142,146.8,142,146.8,142z M144.1,127c-0.1,0-0.1,0-0.2,0c-0.4,0.1-0.6,0.4-0.8,1c-0.6,2,1.1,7.5,1.8,9.5
					c0.1,0.4,0.2,0.7,0.3,0.8c0.4,1.4,1.2,3.3,1.6,3.4c0,0,0,0,0,0c0.3-0.4-0.4-8.7-1-13.8C145.7,127.9,144.9,127,144.1,127z"/>
			</g>
		</g>
		<g>
			<g>
				<path class="st10" d="M166.3,97.3c0,0,14.5-1.5,19.7,12.5c5.2,14,10.1,18.5,10.7,25.9c2.5,29.7,16.4,23,12.5,40.1
					c-3.9,17.1-6.6,19.7-6.6,19.7l-33.1-6.5l-33.6,0.1c0,0,13.1-6.6,10.2-20.5c-2.9-14-10.2-36.9-6.1-52.5
					C144.1,100.4,157.7,98.5,166.3,97.3z"/>
			</g>
		</g>
		<g>
			<g>
				<path class="st9" d="M184,142c-0.1,0-0.1,0-0.2-0.1c-0.5-0.5,0.7-11.7,0.9-14l0,0l0,0c0-0.1,1.1-1.3,2.1-1.1
					c0.4,0.1,0.8,0.5,1,1.1c0.7,2-1.1,7.4-1.8,9.6c-0.1,0.4-0.2,0.7-0.3,0.8C185.6,139,184.6,141.8,184,142C184,142,184,142,184,142
					z M184.9,128c-0.6,5.1-1.3,13.3-1,13.8c0,0,0,0,0,0c0.3-0.1,1.1-2,1.6-3.4c0-0.2,0.1-0.4,0.3-0.8c0.7-2.1,2.4-7.5,1.8-9.5
					c-0.2-0.6-0.5-0.9-0.8-1C186,126.9,185.1,127.8,184.9,128z"/>
			</g>
		</g>
		<g>
			<g>
				<path class="st11" d="M234.3,230.8h-20.7c-4.3-7.8-7.8-13.9-7.8-13.9s-2.8,5.1-4.9,13.9h-69.5c-1.1-5.5-1.1-10.8-0.9-14.5
					c0,0-3.7,6.7-8,14.5H99.2c6.2-11.6,17.8-32.7,20.5-35.5c3.3-3.5,22.5-16.8,36.2-21.1c13.7-4.3,21.5-0.2,21.5-0.2
					s14.1,2.5,27.1,7.7C209.6,183.8,223.8,209.9,234.3,230.8z"/>
			</g>
		</g>
		<g>
			<g>
				<path class="st12" d="M168.2,105.5c0,0,19.2,2.8,16.4,31.1c-2.8,28.3-19.7,26-20.8,26c-1.1,0-17,0.6-18.3-33.9
					C145.4,128.6,144.8,103.1,168.2,105.5z"/>
			</g>
		</g>
		<g>
			<g>
				<path class="st12" d="M176.7,157.5c0,0-1.2,14.7,1.6,19.1c2.8,4.4-2.4,10.4-13.3,8.3c-10.8-2-10.2-8.2-10.2-8.2s3-9.1,2.1-16.3
					C156.2,153.2,176.7,157.5,176.7,157.5z"/>
			</g>
		</g>
		<g>
			<g>
				<path class="st10" d="M166,115.7c0,0,9,9.4,13.1,14.2c4.2,4.8,4.6,14,4.6,14s7-8.6,4.1-18.5c-2.9-10-9.9-29.4-27.4-23.4
					c-17.5,6-18.2,32.2-16.1,45.2C144.3,147.1,152.2,118.4,166,115.7z"/>
			</g>
		</g>
		<g>
			<g>
				<path class="st12" d="M183.5,175.3c0,0-13.3,33.7-21.4,39.5c0,0-10.6-34.3-9.9-39.4C152.2,175.5,168.2,169.2,183.5,175.3z"/>
			</g>
		</g>
		<g>
			<path class="st10" d="M155.4,167.2c0,0-23.7,21.1-17.5,34.2c5.2,11.2,23.9,4.3,20.8-7.4C155.6,182.3,155.4,167.2,155.4,167.2z"/>
		</g>
		<g>
			<path class="st13" d="M158.5,161.3c0,0,8.2,3.9,16.1-1.8c0,0-2.2,4.6-8.1,5.2C160.7,165.3,158.5,161.3,158.5,161.3z"/>
		</g>
	</g>
	<g>
		<g>
			<path class="st14" d="M368.7,83.4c0,0-7.9,29.6-9.5,36.2c-0.5,2-2.1,5.5-4.1,9.4c0,0,0,0.1,0,0.1c-0.4,0.9-0.6,1.7-0.7,2.4
				c-0.3,2.5,0.6,4.4-1,7.3l-0.3,1.2h-15.6c1.8-5.4,4.1-12.3,6-17.8c1.5-4.7,2.8-8.4,3.1-9.4c1-3.2,4.5-13.6,7.5-20.5
				c1-2.4,5.1-4.8,8.6-6.5C365.9,84.4,368.7,83.4,368.7,83.4z"/>
		</g>
		<g>
			<path class="st15" d="M358.3,41.2c0,0-5-32.1,21.6-31.5c26.6,0.6,26.2,16.4,25.7,32.2c-0.5,15.7-10.7,14.6,0.8,36.4
				c11.5,21.9-9.9,21.9-9.9,21.9l-16.6-22.8L358.3,41.2z"/>
		</g>
		<g>
			<path class="st9" d="M377,12.8c0,0-18,2.8-18.7,28.4c-0.7,25.6,4.9,31,20.6,25.7c15.7-5.3,20.7-32.1,21.1-36.2
				C400.4,26.5,401.3,9.7,377,12.8z"/>
		</g>
		<g>
			<path class="st16" d="M408.6,101.7c0.1,8.8-10,29.8-11.6,36.3c-0.2,0.8-0.4,1.5-0.6,2.1h-49.1c-0.3-3-0.5-5.6-0.6-7.1
				c-0.4-4.8-5.3-15.2-5.1-20c0.2-4.9,2.6-9.1,5.9-14.4c1-1.6,2.1-3.3,3.2-4.9c3.6-5.2,7.1-10,8.9-11.6c1.3-1.2,2.5-2.1,3.6-2.9
				c0,0,0,0,0,0c2.2-1.5,3.7-1.9,3.7-1.9l15.5-2.5c0,0,9.6,3.5,15.2,4.8C397.7,79.6,408.5,81.2,408.6,101.7z"/>
		</g>
		<g>
			<path class="st17" d="M363.3,79.3l-9,14.1l-8.3,13c0-0.1,0.6-2,1.5-7.8c0.2-1.1,0.4-2.3,0.6-3.7c0.1-0.4,0.1-0.8,0.3-1.2
				c0,0,0,0,0,0C352,85.6,362.9,79.5,363.3,79.3C363.3,79.3,363.3,79.3,363.3,79.3z"/>
		</g>
		<g>
			<path class="st9" d="M389.1,55.3c-1.6,2.9-3.2,21.2-3.2,21.2s-22,8.3-19.7,3.6c1-2.1,1.3-4.9,1.3-7.3c0-1.9-0.1-3.5-0.2-4.4
				c-0.1-0.5-0.1-0.8-0.1-0.8S390.6,52.4,389.1,55.3z"/>
		</g>
		<g>
			<path class="st15" d="M369.7,31.1c0,0,9.2,15,17.6,20.9c8.4,5.9,4.1,10.7,4.1,10.7s21.9-46.2,1.1-49.3
				c-20.8-3.2-33.6-3.4-34.2,27.8C358.3,41.2,367.8,30.9,369.7,31.1z"/>
		</g>
		<g>
			<path class="st18" d="M379.7,66.5c-3.4,5-12.3,6.3-12.3,6.3s0,0,0,0c0-1.9-0.1-3.5-0.2-4.4C372.9,69.5,379.7,66.5,379.7,66.5z"/>
		</g>
		<path class="st19" d="M348.5,93.7L348.5,93.7c0,0-0.5,1-0.9,5l3.2-4.9c0,0,5.8-8.3,7.8-10.5c2-2.2,4.7-4,4.7-4
			S351.9,84.7,348.5,93.7z"/>
		<path class="st17" d="M392.2,106.1c0,0,14.1-5.5,18.3-5.9c0,0-2.8-22.7-16.7-20.3C380,82.3,392.2,106.1,392.2,106.1z"/>
		<path class="st9" d="M367,77.3c0,0-10.4,15.9-6.9,17.3c3.5,1.4,22.5-1.9,30.6-17C390.7,77.7,378.7,71.5,367,77.3z"/>
		<path class="st14" d="M410.5,100.2c-0.7,12.5-4.3,24.4-7.2,35.2c-0.4,1.6-0.8,3.1-1.2,4.7h-28.7c-0.1-4.3-0.1-8.1,0.1-11.3
			c1.4-34.7,12.4-52.9,12.4-52.9s3.5,1.2,13.6,4c6.9,2,9.5,10.8,10.5,16.1c0,0,0,0,0,0.1C410.5,98.5,410.5,100.2,410.5,100.2z"/>
		<path class="st14" d="M367,77.3c-0.1,0.2-2,3.4-4.3,8.6c-3.4,7.8-7.7,20.2-8,33.8c-0.1,4.4-1,11.5-2.3,20.4h-5.7
			c-0.6-7.5-1.9-13.5-3.2-17.8c-0.8-2.8-1.5-4.9-1.9-6.2c-1.8-6.2,4-14.5,6-17.5C349.6,95.7,354.2,82.1,367,77.3z"/>
		<path class="st14" d="M419.7,140.1h-15.4c0-1-0.3-2.6-0.9-4.7c-2.8-10-11.1-29.4-11.1-29.4s-12.4-20.3-0.7-25.5
			c11.8-5.2,16.8,9.3,18.4,15.5c0,0,0,0,0,0.1C410.4,97.6,417.4,124.3,419.7,140.1z"/>
	</g>
	<g class="st20">
		
			<linearGradient id="SVGID_00000056404347442345435770000007952639481888239798_" gradientUnits="userSpaceOnUse" x1="562.0897" y1="142.8498" x2="578.3499" y2="142.8498">
			<stop  offset="0" style="stop-color:#D1D7E0"/>
			<stop  offset="1" style="stop-color:#EBEBFF"/>
		</linearGradient>
		<polygon style="fill:url(#SVGID_00000056404347442345435770000007952639481888239798_);" points="565.9,146.8 578.3,146.8 
			574.5,138.9 562.1,138.9 		"/>
		
			<linearGradient id="SVGID_00000175321585714464926420000007666099356157842100_" gradientUnits="userSpaceOnUse" x1="556.2646" y1="142.8498" x2="563.0416" y2="142.8498">
			<stop  offset="0" style="stop-color:#D1D7E0"/>
			<stop  offset="1" style="stop-color:#EBEBFF"/>
		</linearGradient>
		<polygon style="fill:url(#SVGID_00000175321585714464926420000007666099356157842100_);" points="560.1,146.8 563,146.8 
			559.2,138.9 556.3,138.9 		"/>
		
			<linearGradient id="SVGID_00000152959822546890136560000010314023311722525099_" gradientUnits="userSpaceOnUse" x1="515.39" y1="135.4131" x2="567.473" y2="135.4131">
			<stop  offset="0" style="stop-color:#D1D7E0"/>
			<stop  offset="1" style="stop-color:#EBEBFF"/>
		</linearGradient>
		<polygon style="fill:url(#SVGID_00000152959822546890136560000010314023311722525099_);" points="517.1,137.4 567.5,137.4 
			565.8,133.4 515.4,133.4 		"/>
	</g>
	<g>
		
			<linearGradient id="SVGID_00000049906336304029687200000011913719601593909899_" gradientUnits="userSpaceOnUse" x1="158.4627" y1="369.3406" x2="187.6494" y2="369.3406">
			<stop  offset="0" style="stop-color:#D1D7E0"/>
			<stop  offset="1" style="stop-color:#EBEBFF"/>
		</linearGradient>
		<polygon style="fill:url(#SVGID_00000049906336304029687200000011913719601593909899_);" points="165.3,376.4 187.6,376.4 
			180.8,362.2 158.5,362.2 		"/>
		
			<linearGradient id="SVGID_00000156547220845628712990000014492502482525576087_" gradientUnits="userSpaceOnUse" x1="148.0062" y1="369.3406" x2="160.1709" y2="369.3406">
			<stop  offset="0" style="stop-color:#D1D7E0"/>
			<stop  offset="1" style="stop-color:#EBEBFF"/>
		</linearGradient>
		<polygon style="fill:url(#SVGID_00000156547220845628712990000014492502482525576087_);" points="154.8,376.4 160.2,376.4 
			153.3,362.2 148,362.2 		"/>
	</g>
</g>
</svg>
