<?xml version="1.0" encoding="utf-8"?>
<!-- Generator: Adobe Illustrator 26.0.1, SVG Export Plug-In . SVG Version: 6.00 Build 0)  -->
<svg version="1.1" id="Capa_1" xmlns="http://www.w3.org/2000/svg" xmlns:xlink="http://www.w3.org/1999/xlink" x="0px" y="0px"
	 viewBox="0 0 693.2 559.6" style="enable-background:new 0 0 693.2 559.6;" xml:space="preserve">
<style type="text/css">
	.st0{fill:#2B478B;}
	.st1{fill:#F2F2F2;}
	.st2{fill:#FFFFFF;}
	.st3{fill:#FCCA70;}
	.st4{fill:#35BAC7;}
	.st5{fill:#DFEBFD;}
	.st6{fill:#CBE1FD;}
	.st7{fill:#9EC3F6;}
	.st8{fill:#EB599B;}
	.st9{fill:#699DEE;}
	.st10{fill:#F99746;}
</style>
<g>
	<g>
		<path class="st0" d="M448.6,555.9H247.4c-14.7,0-26.7-12-26.7-26.7V103.3c0-14.7,12-26.7,26.7-26.7h201.2
			c14.7,0,26.7,12,26.7,26.7v425.9C475.3,543.9,463.3,555.9,448.6,555.9z"/>
		<g>
			<path class="st1" d="M462.7,113.3V516c0,13.7-11.1,24.8-24.7,24.8H258c-13.6,0-24.6-11.2-24.6-24.8V113.3
				c0-13.7,11.1-24.8,24.6-24.8H438C451.6,88.5,462.7,99.7,462.7,113.3z"/>
			<path class="st2" d="M438,88.5L260.2,540.8H258c-13.6,0-24.6-11.2-24.6-24.8V113.3c0-13.7,11.1-24.8,24.6-24.8H438z"/>
		</g>
		<rect x="299.2" y="79.4" class="st0" width="97.6" height="24"/>
	</g>
	<path class="st3" d="M125.5,324.7h263.7c6.8,0,12.3-5.5,12.3-12.3V202.2c0-6.8-5.5-12.3-12.3-12.3H125.5c-6.8,0-12.3,5.5-12.3,12.3
		v110.2C113.2,319.2,118.7,324.7,125.5,324.7z"/>
	<g>
		<path class="st4" d="M392.4,172.9H281.7c-4.5,0-8.2-3.7-8.2-8.2v-29.5c0-4.5,3.7-8.2,8.2-8.2h110.7c4.5,0,8.2,3.7,8.2,8.2v29.5
			C400.6,169.2,396.9,172.9,392.4,172.9z"/>
	</g>
	<g>
		<path class="st4" d="M390.3,509.6H259.7c-4.7,0-8.6-3.8-8.6-8.6v-39.5c0-4.7,3.8-8.6,8.6-8.6h130.6c4.7,0,8.6,3.8,8.6,8.6V501
			C398.9,505.8,395,509.6,390.3,509.6z"/>
	</g>
	<g>
		<path class="st3" d="M437.6,429.5H308.6c-5.2,0-9.4-4.2-9.4-9.4v-62.5c0-5.2,4.2-9.4,9.4-9.4h128.9c5.2,0,9.4,4.2,9.4,9.4v62.5
			C447,425.3,442.8,429.5,437.6,429.5z"/>
	</g>
	<g>
		<path class="st5" d="M618.4,201.9h-48c-9.3,0-16.8-7.6-16.8-16.8v-40.7c0-9.3,7.6-16.8,16.8-16.8h48c9.3,0,16.8,7.6,16.8,16.8
			v40.7C635.2,194.3,627.7,201.9,618.4,201.9z"/>
		<g>
			<path class="st4" d="M572.7,164.1c2.3,6,21.7,21.7,21.7,21.7s6.3-5.1,12.2-10.7c4.4-4.1,8.5-8.4,9.5-11
				c2.3-5.9-0.1-14.4-8.6-15.9c-8.5-1.4-13,7.4-13,7.4s-4.6-8.9-13.1-7.4c-1.5,0.3-2.8,0.7-3.9,1.4
				C572.2,152.6,570.8,159.2,572.7,164.1z"/>
		</g>
	</g>
	<g>
		<path class="st5" d="M57.8,9h125c10,0,18.1,8.2,18.1,18.1V82c0,9.2-7.5,16.6-16.6,16.6h-3.2l6,25.4l-37.8-25.4H56.7
			c-10,0-18.1-8.1-18.1-18.1V28.2C38.6,17.6,47.3,9,57.8,9z"/>
		<path class="st6" d="M54.5,48.8h130.4c1.8,0,3.2-1.5,3.2-3.2l0,0c0-1.8-1.5-3.2-3.2-3.2H54.5c-1.8,0-3.2,1.5-3.2,3.2l0,0
			C51.2,47.4,52.7,48.8,54.5,48.8z"/>
		<path class="st6" d="M54.5,63.3h130.4c1.8,0,3.2-1.5,3.2-3.2l0,0c0-1.8-1.5-3.2-3.2-3.2H54.5c-1.8,0-3.2,1.5-3.2,3.2l0,0
			C51.2,61.8,52.7,63.3,54.5,63.3z"/>
		<path class="st6" d="M54.5,77.7h130.4c1.8,0,3.2-1.5,3.2-3.2l0,0c0-1.8-1.5-3.2-3.2-3.2H54.5c-1.8,0-3.2,1.5-3.2,3.2l0,0
			C51.2,76.3,52.7,77.7,54.5,77.7z"/>
		<path class="st6" d="M125.5,26.4h55.3c2.1,0,3.8-1.7,3.8-3.8l0,0c0-2.1-1.7-3.8-3.8-3.8h-55.3c-2.1,0-3.8,1.7-3.8,3.8l0,0
			C121.7,24.6,123.4,26.4,125.5,26.4z"/>
		<path class="st6" d="M76.6,26.4h35.9c1,0,1.7-0.8,1.7-1.7v-4.2c0-1-0.8-1.7-1.7-1.7H76.6c-1,0-1.7,0.8-1.7,1.7v4.2
			C74.9,25.6,75.7,26.4,76.6,26.4z"/>
	</g>
	<g>
		<polygon class="st7" points="572.4,423.2 651,449 603.9,403 599.1,414.3 578.9,414.4 		"/>
		<polygon class="st2" points="651,449 590,402.5 524.7,387.6 		"/>
		<polygon class="st2" points="603.9,403 651,449 619.6,384.6 		"/>
	</g>
	<path class="st2" d="M224,252.2c0,9.6-3.2,18.4-8.7,25.5c-1.8,2.3-3.9,4.5-6.1,6.4c-7.3,6.2-16.7,9.9-27,9.9
		c-9.4,0-18-3.1-24.9-8.3c-3.1-2.3-5.8-5-8.1-8c-5.4-7.1-8.7-15.9-8.7-25.5c0-23.1,18.7-41.8,41.8-41.8S224,229.2,224,252.2z"/>
	<path class="st8" d="M199,272c-0.1-0.1-0.2-0.2-0.3-0.4c-0.5-0.4-1-0.6-2.9-0.9c-1-0.2-2.3-0.4-4.3-0.6c0,0-0.4,0-0.6-0.1
		c-0.1,0-0.3,0-0.5,0c-0.6-0.3-0.7-2.6-0.7-5c0-0.2,0-0.4,0-0.5c0-0.9,0-1.8,0.1-2.6c0-0.1,0-0.1,0-0.2c1.2,0.1,2,0.1,2,0.1
		c2.2-0.2,3.6-6.1,4.1-11c0,0,1.1-2.6,1.1-5.5c0-1.6-0.3-3.3-1.4-4.6c-0.6-0.7-1.1-1.1-1.6-1.4c-0.1-0.1-0.3-0.3-0.4-0.4
		c-2.1-2.3-10.5-10.9-16-5.9c-0.1-0.5-1.9-6.1-10.6-4.3c0.5-0.1,4.4-0.4,5.5,1.1c-0.2-0.1-3.5-1.6-5.6-0.3c-1,0.6-1.6,1.8-1.9,3.1
		c0,0,0,0,0,0c0,0,0,0,0,0v0c0,0,0,0,0,0c0,0.2-0.1,0.4-0.1,0.5c0,0,0,0.1,0,0.1c0,0,0,0,0,0c0,0,0,0,0,0c-0.3,1.4-0.3,2.7-0.1,3.3
		c0.3,1.4,2.7,5.4,4.3,5.4c0.6,0,1.2-0.2,1.8-0.4c-0.2,0.7-0.5,1.5-0.6,2.4c-1.7,8,3.6,14,6.3,12.5c1.8-1,3.1,2.1,3.1,2.1l0,0
		c-0.3,5.8-1.9,9.6-3,10.6c-0.4,0-1.3,0.2-2.5,0.3v0c0,0-4,0.4-7.1,1.8c0,0,0,0-0.1,0c-0.7,0.3-1.3,0.6-1.7,1c0,0,0,0,0,0v0
		c-0.2,0.2-0.4,0.4-0.6,0.6c-0.1,0.1-0.1,0.2-0.2,0.3c-1,2-2.1,4.9-3.1,8.3c5.9,4.4,13.2,7,21.2,7c8.7,0,16.7-3.2,22.9-8.4
		C203,275.5,200.4,273,199,272z"/>
	<path class="st2" d="M301.4,231.2h-50.1c-0.9,0-1.7-0.8-1.7-1.7v-4.1c0-0.9,0.8-1.7,1.7-1.7h50.1c0.9,0,1.7,0.8,1.7,1.7v4.1
		C303,230.4,302.3,231.2,301.4,231.2z"/>
	<g>
		<path class="st2" d="M300.6,257.8H252c-1.3,0-2.4-1.1-2.4-2.4l0,0c0-1.3,1.1-2.4,2.4-2.4h48.6c1.3,0,2.4,1.1,2.4,2.4l0,0
			C303,256.7,301.9,257.8,300.6,257.8z"/>
		<path class="st2" d="M279.9,269.2h-29.2c-0.6,0-1.1-0.5-1.1-1.1v-2.6c0-0.6,0.5-1.1,1.1-1.1h29.2c0.6,0,1.1,0.5,1.1,1.1v2.6
			C281,268.7,280.5,269.2,279.9,269.2z"/>
		<path class="st2" d="M336.7,269.2h-47.1c-0.6,0-1.1-0.5-1.1-1.1v-2.6c0-0.6,0.5-1.1,1.1-1.1h47.1c0.6,0,1.1,0.5,1.1,1.1v2.6
			C337.8,268.7,337.3,269.2,336.7,269.2z"/>
		<path class="st2" d="M377.2,257.8h-63.7c-1.3,0-2.4-1.1-2.4-2.4l0,0c0-1.3,1.1-2.4,2.4-2.4h63.7c1.3,0,2.4,1.1,2.4,2.4l0,0
			C379.6,256.7,378.5,257.8,377.2,257.8z"/>
		<path class="st2" d="M300.6,280.7H252c-1.3,0-2.4-1.1-2.4-2.4l0,0c0-1.3,1.1-2.4,2.4-2.4h48.6c1.3,0,2.4,1.1,2.4,2.4l0,0
			C303,279.6,301.9,280.7,300.6,280.7z"/>
		<path class="st2" d="M377.2,280.7h-63.7c-1.3,0-2.4-1.1-2.4-2.4l0,0c0-1.3,1.1-2.4,2.4-2.4h63.7c1.3,0,2.4,1.1,2.4,2.4l0,0
			C379.6,279.6,378.5,280.7,377.2,280.7z"/>
	</g>
	<path class="st2" d="M347.2,231.2h-35.8c-0.9,0-1.7-0.8-1.7-1.7v-4.1c0-0.9,0.8-1.7,1.7-1.7h35.8c0.9,0,1.7,0.8,1.7,1.7v4.1
		C348.8,230.4,348.1,231.2,347.2,231.2z"/>
	<g>
		<path class="st2" d="M304.3,469.1h-35.6c-0.7,0-1.2-0.5-1.2-1.2V465c0-0.7,0.5-1.2,1.2-1.2h35.6c0.7,0,1.2,0.5,1.2,1.2v2.9
			C305.5,468.5,304.9,469.1,304.3,469.1z"/>
		<g>
			<path class="st2" d="M303.7,482.5h-34.5c-0.9,0-1.7-0.8-1.7-1.7l0,0c0-0.9,0.8-1.7,1.7-1.7h34.5c0.9,0,1.7,0.8,1.7,1.7l0,0
				C305.5,481.8,304.7,482.5,303.7,482.5z"/>
			<path class="st2" d="M289,490.7h-20.7c-0.4,0-0.8-0.3-0.8-0.8V488c0-0.4,0.3-0.8,0.8-0.8H289c0.4,0,0.8,0.3,0.8,0.8v1.9
				C289.8,490.3,289.4,490.7,289,490.7z"/>
			<path class="st2" d="M329.4,490.7h-33.5c-0.4,0-0.8-0.3-0.8-0.8V488c0-0.4,0.3-0.8,0.8-0.8h33.5c0.4,0,0.8,0.3,0.8,0.8v1.9
				C330.1,490.3,329.8,490.7,329.4,490.7z"/>
			<path class="st2" d="M358.2,482.5h-45.3c-0.9,0-1.7-0.8-1.7-1.7l0,0c0-0.9,0.8-1.7,1.7-1.7h45.3c0.9,0,1.7,0.8,1.7,1.7l0,0
				C359.9,481.8,359.1,482.5,358.2,482.5z"/>
			<path class="st2" d="M303.7,498.8h-34.5c-0.9,0-1.7-0.8-1.7-1.7l0,0c0-0.9,0.8-1.7,1.7-1.7h34.5c0.9,0,1.7,0.8,1.7,1.7l0,0
				C305.5,498,304.7,498.8,303.7,498.8z"/>
			<path class="st2" d="M358.2,498.8h-45.3c-0.9,0-1.7-0.8-1.7-1.7l0,0c0-0.9,0.8-1.7,1.7-1.7h45.3c0.9,0,1.7,0.8,1.7,1.7l0,0
				C359.9,498,359.1,498.8,358.2,498.8z"/>
		</g>
		<path class="st2" d="M336.8,469.1h-25.5c-0.7,0-1.2-0.5-1.2-1.2V465c0-0.7,0.5-1.2,1.2-1.2h25.5c0.7,0,1.2,0.5,1.2,1.2v2.9
			C338,468.5,337.5,469.1,336.8,469.1z"/>
	</g>
	<g>
		<path class="st2" d="M326.6,141.1H291c-0.7,0-1.2-0.5-1.2-1.2V137c0-0.7,0.5-1.2,1.2-1.2h35.6c0.7,0,1.2,0.5,1.2,1.2v2.9
			C327.8,140.5,327.3,141.1,326.6,141.1z"/>
		<g>
			<path class="st2" d="M326.1,154.6h-34.5c-0.9,0-1.7-0.8-1.7-1.7l0,0c0-0.9,0.8-1.7,1.7-1.7h34.5c0.9,0,1.7,0.8,1.7,1.7l0,0
				C327.8,153.8,327.1,154.6,326.1,154.6z"/>
			<path class="st2" d="M311.4,162.7h-20.7c-0.4,0-0.8-0.3-0.8-0.8V160c0-0.4,0.3-0.8,0.8-0.8h20.7c0.4,0,0.8,0.3,0.8,0.8v1.9
				C312.1,162.3,311.8,162.7,311.4,162.7z"/>
			<path class="st2" d="M351.7,162.7h-33.5c-0.4,0-0.8-0.3-0.8-0.8V160c0-0.4,0.3-0.8,0.8-0.8h33.5c0.4,0,0.8,0.3,0.8,0.8v1.9
				C352.5,162.3,352.2,162.7,351.7,162.7z"/>
			<path class="st2" d="M380.5,154.6h-45.3c-0.9,0-1.7-0.8-1.7-1.7l0,0c0-0.9,0.8-1.7,1.7-1.7h45.3c0.9,0,1.7,0.8,1.7,1.7l0,0
				C382.3,153.8,381.5,154.6,380.5,154.6z"/>
		</g>
		<path class="st2" d="M359.2,141.1h-25.5c-0.7,0-1.2-0.5-1.2-1.2V137c0-0.7,0.5-1.2,1.2-1.2h25.5c0.7,0,1.2,0.5,1.2,1.2v2.9
			C360.4,140.5,359.9,141.1,359.2,141.1z"/>
	</g>
	<g>
		<path class="st8" d="M356.5,368.8h-39c-0.7,0-1.3-0.6-1.3-1.3v-3.2c0-0.7,0.6-1.3,1.3-1.3h39c0.7,0,1.3,0.6,1.3,1.3v3.2
			C357.8,368.2,357.3,368.8,356.5,368.8z"/>
		<g>
			<path class="st8" d="M356,383.6h-37.8c-1,0-1.9-0.8-1.9-1.9l0,0c0-1,0.8-1.9,1.9-1.9H356c1,0,1.9,0.8,1.9,1.9l0,0
				C357.8,382.7,357,383.6,356,383.6z"/>
			<path class="st8" d="M339.8,392.5h-22.7c-0.5,0-0.9-0.4-0.9-0.9v-2.1c0-0.5,0.4-0.9,0.9-0.9h22.7c0.5,0,0.9,0.4,0.9,0.9v2.1
				C340.7,392.1,340.3,392.5,339.8,392.5z"/>
			<path class="st8" d="M384,392.5h-36.7c-0.5,0-0.9-0.4-0.9-0.9v-2.1c0-0.5,0.4-0.9,0.9-0.9H384c0.5,0,0.9,0.4,0.9,0.9v2.1
				C384.9,392.1,384.5,392.5,384,392.5z"/>
			<path class="st8" d="M415.6,383.6H366c-1,0-1.9-0.8-1.9-1.9l0,0c0-1,0.8-1.9,1.9-1.9h49.6c1,0,1.9,0.8,1.9,1.9l0,0
				C417.4,382.7,416.6,383.6,415.6,383.6z"/>
			<path class="st8" d="M356,401.4h-37.8c-1,0-1.9-0.8-1.9-1.9l0,0c0-1,0.8-1.9,1.9-1.9H356c1,0,1.9,0.8,1.9,1.9l0,0
				C357.8,400.5,357,401.4,356,401.4z"/>
			<path class="st8" d="M415.6,401.4H366c-1,0-1.9-0.8-1.9-1.9l0,0c0-1,0.8-1.9,1.9-1.9h49.6c1,0,1.9,0.8,1.9,1.9l0,0
				C417.4,400.5,416.6,401.4,415.6,401.4z"/>
		</g>
		<g>
			<path class="st8" d="M356,410.6h-37.8c-1,0-1.9-0.8-1.9-1.9l0,0c0-1,0.8-1.9,1.9-1.9H356c1,0,1.9,0.8,1.9,1.9l0,0
				C357.8,409.8,357,410.6,356,410.6z"/>
			<path class="st8" d="M415.6,410.6H366c-1,0-1.9-0.8-1.9-1.9l0,0c0-1,0.8-1.9,1.9-1.9h49.6c1,0,1.9,0.8,1.9,1.9l0,0
				C417.4,409.8,416.6,410.6,415.6,410.6z"/>
		</g>
		<path class="st8" d="M392.2,368.8h-27.9c-0.7,0-1.3-0.6-1.3-1.3v-3.2c0-0.7,0.6-1.3,1.3-1.3h27.9c0.7,0,1.3,0.6,1.3,1.3v3.2
			C393.5,368.2,392.9,368.8,392.2,368.8z"/>
	</g>
	<g>
		<path class="st2" d="M268,113.7l-2.6,1.8l-2.6-1.8c0.6-0.8,1.5-1.3,2.6-1.3C266.5,112.4,267.5,112.9,268,113.7z"/>
		<g>
			<path class="st2" d="M265.5,107.9c-2.6,0-4.9,1.3-6.2,3.2l1.6,1.1c1-1.4,2.7-2.4,4.6-2.4c1.9,0,3.6,0.9,4.6,2.4l1.6-1.2
				C270.3,109.1,268,107.9,265.5,107.9z"/>
		</g>
		<g>
			<path class="st2" d="M265.5,99.3c-5.5,0-10.3,2.7-13.2,6.9l1.6,1.1c2.6-3.6,6.8-6,11.6-6c4.7,0,9,2.3,11.5,5.9l1.6-1.2
				C275.7,102,270.9,99.3,265.5,99.3z"/>
		</g>
		<g>
			<path class="st2" d="M265.5,104c-3.9,0-7.3,1.9-9.4,4.9l1.6,1.1c1.7-2.4,4.6-4,7.8-4c3.2,0,6,1.6,7.8,4l1.6-1.2
				C272.7,105.9,269.3,104,265.5,104z"/>
		</g>
	</g>
	<path class="st2" d="M251.1,385.5c0,3.8,1.3,7.2,3.4,10c0.7,0.9,1.5,1.8,2.4,2.5c0.9,0.7,1.8,1.4,2.9,1.9c2.3,1.2,4.9,1.9,7.7,1.9
		c3.5,0,6.7-1.1,9.4-3c0.1-0.1,0.3-0.2,0.4-0.3c1.2-0.9,2.3-2,3.2-3.2c2.1-2.8,3.4-6.2,3.4-10c0-9.1-7.3-16.4-16.4-16.4
		C258.4,369.1,251.1,376.4,251.1,385.5z"/>
	<path class="st9" d="M271.9,396l-1.5-1.3c-0.1,0-0.3,0-0.4,0.1c-0.3-0.2-0.6-0.4-0.9-0.5c0.1-0.6,0.2-1.2,0.3-1.7
		c0.2-1.8,0.3-2.8,0.3-3c0.8,0,1.3-0.1,1.3-0.1c1.5-0.4,1.6-5.5,1.2-8.2c0.3,0,0.6,0,0.8-0.2c1.1-0.5,1.2-2.2,1.2-2.2
		s-0.3,0.6-0.8,0.8c0,0,1.9-2.6-0.3-4.4c-2.2-1.8-4.5-0.6-5.8-0.5c-2.8,0.2-4.7,0.3-5.6,2.2c-0.9,1.8-0.6,6.9,1.2,8.7
		c0,0.2,0.1,0.3,0.1,0.5c0.1,0.7,0.3,1.2,0.7,1.6c-0.4,2.2-1.3,3.8-2.1,4.9c-0.5,0.4-1,1-1.5,1.6c0,0,0,0,0,0s0,0,0,0
		c-0.9,1.2-1.6,2.8-2.1,4.6c0,0,0,0,0,0c0.9,0.7,1.9,1.2,3,1.6c0.1,0,0.1,0.1,0.2,0.1c0,0,0,0,0,0c0.1,0,0.2,0.1,0.3,0.1
		c0.3,0.1,0.6,0.2,0.8,0.3c0.3,0.1,0.6,0.2,0.9,0.3c0.1,0,0.3,0.1,0.4,0.1c0.1,0,0.2,0.1,0.4,0.1c0,0,0,0,0.1,0c0.1,0,0.2,0,0.2,0
		c0.2,0,0.4,0.1,0.6,0.1c0,0,0.1,0,0.1,0c0.1,0,0.2,0,0.3,0c0.2,0,0.3,0,0.5,0.1c0.2,0,0.3,0,0.5,0c0.2,0,0.3,0,0.5,0
		c0.2,0,0.3,0,0.5,0c0.2,0,0.4,0,0.6,0c0,0,0,0,0,0c0,0,0.1,0,0.1,0c0.1,0,0.2,0,0.3,0c0,0,0,0,0,0c0.2,0,0.3,0,0.5,0
		c2.2-0.2,4.3-0.9,6.2-1.9C274.2,398.3,273,397,271.9,396z"/>
	<path class="st2" d="M412.1,480.8c0,3.8,1.3,7.3,3.4,10.1c0.7,0.9,1.5,1.8,2.4,2.5c2.9,2.4,6.6,3.9,10.7,3.9c3.7,0,7.1-1.2,9.9-3.3
		c1.2-0.9,2.3-2,3.2-3.2c2.2-2.8,3.4-6.3,3.4-10.1c0-9.1-7.4-16.5-16.5-16.5C419.5,464.3,412.1,471.7,412.1,480.8z"/>
	<path class="st10" d="M437.1,490.2c0,0,0-0.1-0.1-0.1c-0.1-0.1-0.2-0.2-0.3-0.3l0,0c-0.2-0.2-0.5-0.3-0.8-0.5c0,0,0,0,0,0
		c-1.4-0.6-3.3-0.8-3.3-0.8c-0.5-0.1-1-0.1-1.2-0.2c-0.6-0.4-1.3-2.2-1.4-4.9l0,0c0,0,0.6-1.4,1.4-1c1.3,0.7,3.7-2.1,3-5.8
		c-0.1-0.4-0.2-0.8-0.3-1.1c0.3,0.1,0.6,0.2,0.8,0.2c0.7,0,1.9-1.9,2-2.5c0.2-0.6,0-2.7-1-3.3c-1-0.6-2.6,0.1-2.6,0.1
		c0.5-0.7,2.2-0.6,2.6-0.5c-4-0.8-4.9,1.8-4.9,2c-2.6-2.3-6.5,1.7-7.5,2.8c-0.1,0.1-0.1,0.1-0.2,0.2c-0.2,0.1-0.5,0.3-0.7,0.6
		c-0.5,0.6-0.7,1.4-0.7,2.1c0,1.3,0.5,2.6,0.5,2.6c0.2,2.2,0.9,5,1.9,5.1c0,0,0.4,0,0.9,0c0,0,0,0,0,0.1c0,0.4,0,0.8,0,1.2v0.3
		c0,1.1-0.1,2.2-0.3,2.3c-0.1,0-0.2,0-0.2,0c-0.1,0-0.3,0-0.3,0c-0.9,0.1-1.5,0.2-2,0.3c-0.9,0.2-1.1,0.3-1.3,0.4
		c-0.1,0-0.1,0.1-0.2,0.2c-0.7,0.5-1.9,1.6-2.9,3.8c2.9,2.4,6.6,3.9,10.7,3.9c3.7,0,7.1-1.2,9.9-3.3
		C438,492.5,437.5,491.1,437.1,490.2z"/>
	<path class="st2" d="M412.1,148.9c0,3.8,1.3,7.3,3.4,10.1c0.7,0.9,1.5,1.8,2.4,2.5c2.9,2.4,6.6,3.9,10.7,3.9c3.7,0,7.1-1.2,9.9-3.3
		c1.2-0.9,2.3-2,3.2-3.2c2.2-2.8,3.4-6.3,3.4-10.1c0-9.1-7.4-16.5-16.5-16.5C419.5,132.4,412.1,139.8,412.1,148.9z"/>
	<path class="st10" d="M437.1,158.3c0,0,0-0.1-0.1-0.1c-0.1-0.1-0.2-0.2-0.3-0.3l0,0c-0.2-0.2-0.5-0.3-0.8-0.5c0,0,0,0,0,0
		c-1.4-0.6-3.3-0.8-3.3-0.8v0c-0.5-0.1-1-0.1-1.2-0.2c-0.1-0.1-0.3-0.3-0.4-0.5v0c-0.5-0.8-0.9-2.3-1-4.4l0,0c0,0,0.6-1.4,1.4-1
		c1.3,0.7,3.7-2.1,3-5.8c-0.1-0.4-0.2-0.8-0.3-1.1c0.3,0.1,0.6,0.2,0.8,0.2c0.7,0,1.9-1.9,2-2.5c0.2-0.6,0-2.7-1-3.3
		c-1-0.6-2.6,0.1-2.6,0.1c0.5-0.7,2.2-0.6,2.6-0.5c-4-0.8-4.9,1.8-4.9,2c-2.6-2.3-6.5,1.7-7.5,2.8c-0.1,0.1-0.1,0.1-0.2,0.2
		c-0.2,0.1-0.5,0.3-0.7,0.7c-0.5,0.6-0.7,1.4-0.7,2.1c0,1.3,0.5,2.6,0.5,2.6c0.2,2.3,0.9,5,1.9,5.1c0,0,0.4,0,0.9,0c0,0,0,0,0,0.1
		c0,0.4,0,0.8,0,1.2v0.3c0,1.1-0.1,2.2-0.3,2.3c-0.1,0-0.2,0-0.2,0c-0.1,0-0.3,0-0.3,0c-0.9,0.1-1.5,0.2-2,0.3
		c-0.9,0.2-1.1,0.3-1.3,0.4c-0.1,0.1-0.1,0.1-0.2,0.2c-0.7,0.5-1.9,1.6-2.9,3.8c0.2,0.1,0.3,0.3,0.5,0.4c0,0,0.1,0,0.1,0.1
		c0.1,0.1,0.2,0.2,0.4,0.3c0.1,0.1,0.2,0.1,0.3,0.2c0.1,0.1,0.2,0.1,0.3,0.2c0.1,0.1,0.3,0.2,0.4,0.3c0.1,0.1,0.2,0.1,0.3,0.2
		c0.1,0.1,0.2,0.1,0.3,0.2c0.1,0.1,0.3,0.1,0.4,0.2c0,0,0,0,0,0c0,0,0,0,0,0h0c0,0,0,0,0.1,0c0.1,0.1,0.2,0.1,0.3,0.2c0,0,0,0,0,0
		c0,0,0.1,0,0.1,0c0.1,0,0.1,0.1,0.2,0.1c0.1,0,0.1,0.1,0.2,0.1c0.1,0.1,0.3,0.1,0.4,0.2c0.1,0.1,0.3,0.1,0.4,0.2
		c0.1,0,0.1,0.1,0.2,0.1c0.1,0,0.1,0,0.2,0.1c0.1,0,0.3,0.1,0.4,0.1c0.1,0,0.3,0.1,0.4,0.1c0.1,0,0.2,0.1,0.3,0.1c0,0,0,0,0,0
		c0.1,0,0.1,0,0.2,0.1c0.4,0.1,0.8,0.2,1.2,0.3c0.2,0,0.4,0.1,0.5,0.1c0,0,0.1,0,0.1,0c0,0,0,0,0,0c0,0,0,0,0,0c0.1,0,0.2,0,0.3,0
		c0,0,0,0,0.1,0c0,0,0,0,0.1,0c0.1,0,0.2,0,0.3,0c0,0,0,0,0.1,0c0,0,0.1,0,0.1,0c0.2,0,0.4,0,0.6,0h0c0.1,0,0.1,0,0.2,0
		c0,0,0.1,0,0.1,0c0.2,0,0.4,0,0.6,0c3.7,0,7.1-1.2,9.9-3.3C438,160.6,437.5,159.2,437.1,158.3z"/>
</g>
</svg>
